<svg width="50" height="50" viewBox="0 0 50 50" fill="none" xmlns="http://www.w3.org/2000/svg">
<path d="M32.4535 7.0461L36.6202 9.23266C41.1029 11.585 43.3442 12.7612 44.5888 14.8748C45.8333 16.9883 45.8333 19.6184 45.8333 24.8784V25.1222C45.8333 30.3822 45.8333 33.0124 44.5888 35.1259C43.3442 37.2395 41.1029 38.4155 36.6202 40.768L32.4535 42.9545C28.796 44.8739 26.9673 45.8337 25 45.8337C23.0327 45.8337 21.204 44.8739 17.5464 42.9545L13.3798 40.768C8.89715 38.4155 6.65582 37.2395 5.41125 35.1259C4.16667 33.0124 4.16667 30.3822 4.16667 25.1222V24.8784C4.16667 19.6184 4.16667 16.9883 5.41125 14.8748C6.65582 12.7612 8.89715 11.585 13.3798 9.23266L17.5464 7.0461C21.204 5.1267 23.0327 4.16699 25 4.16699C26.9673 4.16699 28.796 5.1267 32.4535 7.0461Z" stroke="#1C274C" stroke-width="2" stroke-linecap="round"/>
<path opacity="0.5" d="M43.75 15.625L35.4167 19.7917M35.4167 19.7917C35.4167 19.7917 34.7819 20.1091 34.375 20.3125C30.7137 22.1431 25 25 25 25M35.4167 19.7917V27.0833M35.4167 19.7917L15.625 9.375M25 25L6.25 15.625M25 25V44.7917" stroke="#1C274C" stroke-width="2" stroke-linecap="round"/>
</svg>
