<svg width="111" height="40" viewBox="0 0 111 40" fill="none" xmlns="http://www.w3.org/2000/svg">
<path d="M42.6832 33.575C42.0691 33.7414 40.6026 33.7085 40.2205 33.5175V31.9997C39.8981 32.3427 39.6578 32.6138 39.401 32.8705C38.7109 33.5627 37.8647 33.8872 36.8993 34.0002C36.0922 34.0947 35.3117 34.0125 34.5456 33.7989C32.7525 33.2957 31.5653 32.0983 30.8382 30.4223C30.3638 29.3275 30.1481 28.1691 30.2077 26.9778C30.3104 24.9342 31.0395 23.1617 32.6293 21.8225C33.6275 20.9825 34.8064 20.5655 36.1147 20.5224C37.2177 20.4875 38.257 20.7031 39.1587 21.3665C39.4852 21.6089 39.7584 21.9252 40.0952 22.2477C40.0952 22.0238 40.0952 21.8225 40.0952 21.6212C40.0973 14.716 40.1055 7.81069 40.0952 0.903371C40.0952 -0.043485 40.278 -0.0126762 41.0072 0.00580904C41.4056 0.0160786 41.8062 -0.00240663 42.2046 0.00991687C42.5682 0.0222404 42.6893 0.153691 42.7078 0.523396C42.716 0.679494 42.7078 0.835591 42.7078 0.991689C42.7078 11.2633 42.7078 21.535 42.7078 31.8066C42.7078 32.24 42.716 32.6734 42.7119 33.1088C42.7119 33.2608 42.6914 33.4107 42.677 33.573L42.6832 33.575ZM40.0952 27.1442C40.1507 26.4356 40.0665 25.7332 39.781 25.0698C39.4832 24.3796 39.1053 23.7614 38.4377 23.3383C37.7065 22.8762 36.9137 22.7714 36.0963 22.8577C35.2644 22.946 34.5291 23.3075 33.9684 23.9422C33.1181 24.9013 32.8696 26.0906 32.8531 27.3167C32.8449 27.8918 32.9887 28.4834 33.1366 29.0461C33.5535 30.6256 34.9296 31.9339 36.9281 31.6834C38.1091 31.5355 38.9492 30.9234 39.514 29.9108C39.9905 29.0564 40.1569 28.128 40.0932 27.1422L40.0952 27.1442Z" fill="#BEBEBE"/>
<path d="M78.5327 32.0236V33.5024C78.3664 33.5578 78.2246 33.6421 78.0829 33.6441C77.3209 33.6564 76.5569 33.6503 75.7949 33.6441C75.7312 33.6441 75.6675 33.6051 75.6429 33.5969C75.5977 33.5537 75.5833 33.5435 75.573 33.5291C75.5628 33.5147 75.5525 33.4983 75.5504 33.4819C75.5381 33.4141 75.5176 33.3463 75.5176 33.2785C75.5176 26.86 75.5155 20.4415 75.5176 14.023C75.5176 13.9368 75.5258 13.8505 75.5361 13.7643C75.5402 13.7314 75.5628 13.7026 75.5792 13.6698C75.9099 13.5301 77.6947 13.487 78.4793 13.604C78.5882 14.0703 78.5163 14.555 78.5286 15.0315C78.5409 15.4998 78.5307 15.9681 78.5307 16.4364C78.5307 16.9211 78.5307 17.4079 78.5307 17.8926C78.5307 18.3773 78.5307 18.8641 78.5307 19.3489C78.5307 19.8171 78.5307 20.2854 78.5307 20.7537C78.5307 21.2385 78.5307 21.7211 78.5307 22.3106C79.0462 21.6205 79.6459 21.1953 80.3258 20.8811C80.944 20.5956 81.6033 20.4682 82.2811 20.4231C83.306 20.3532 84.2796 20.5668 85.208 20.9714C85.553 21.1214 85.8878 21.3268 86.1712 21.5732C86.8819 22.1894 87.5186 22.8713 87.8616 23.7771C88.1492 24.5391 88.3628 25.3032 88.4531 26.1268C88.5764 27.2646 88.5127 28.3717 88.2108 29.4562C87.6418 31.4998 86.4074 32.9951 84.3617 33.677C83.5011 33.9645 82.5892 34.0487 81.6547 33.8926C80.716 33.7365 79.8986 33.3997 79.2167 32.7404C78.9949 32.5268 78.7936 32.2926 78.5348 32.0154L78.5327 32.0236ZM85.4483 27.1127C85.4442 25.87 85.2511 25.3812 84.7766 24.5946C84.4254 24.0154 83.9181 23.6025 83.2793 23.3848C82.4968 23.1178 81.7183 23.0418 80.8968 23.317C79.9047 23.6498 79.1982 24.2721 78.8449 25.2189C78.3643 26.5068 78.3725 27.8274 78.8737 29.1234C79.2002 29.9635 79.7445 30.6207 80.5866 30.9781C81.3938 31.3211 82.2277 31.3663 83.0637 31.0808C84.3309 30.6495 85.0231 29.717 85.2922 28.4456C85.3846 28.0102 85.399 27.5584 85.4483 27.1127Z" fill="#BEBEBE"/>
<path d="M55.41 22.3236V21.1138C55.8741 20.7811 57.3838 20.7462 57.9322 21.0604C57.9322 21.198 57.9322 21.3665 57.9322 21.5369C57.9322 25.3203 57.924 29.1036 57.9363 32.8869C57.9404 34.072 57.7186 35.1996 57.1722 36.245C56.7142 37.1241 56.0241 37.7999 55.1491 38.2805C54.2064 38.7981 53.2 39.0774 52.1216 39.0918C51.3062 39.102 50.4949 39.1185 49.7001 38.8823C47.5989 38.2579 45.9743 36.7626 45.6354 34.4335C45.734 34.3637 45.8428 34.2301 45.9763 34.1973C46.613 34.0391 47.2559 33.9056 47.8988 33.768C47.944 33.7577 47.9974 33.7865 48.0939 33.807C48.1432 33.9878 48.2007 34.1829 48.25 34.3821C48.5622 35.6371 49.7658 36.7236 51.0577 36.7955C51.8074 36.8366 52.5386 36.8119 53.2513 36.5757C54.1304 36.2841 54.7096 35.6843 55.0423 34.8217C55.2826 34.1973 55.3381 33.54 55.3874 32.8889C55.4285 32.3549 55.3956 31.8147 55.3956 31.2869C54.9725 31.6607 54.5802 32.0694 54.1283 32.3919C53.5101 32.8335 52.7871 33.0471 52.0272 33.0471C51.4233 33.0471 50.8051 33.0594 50.2197 32.9362C48.5581 32.587 47.2888 31.6689 46.4569 30.1634C45.8613 29.0871 45.6005 27.9267 45.6395 26.719C45.6929 24.9814 46.2557 23.4224 47.5476 22.1983C48.289 21.4959 49.1537 21.0194 50.1663 20.7914C51.0824 20.586 51.9902 20.5778 52.8939 20.7647C53.8921 20.9701 54.7281 21.4712 55.412 22.3236H55.41ZM51.791 30.8494C53.3992 30.9131 54.5042 30.2086 55.0957 28.8181C55.6975 27.3988 55.6523 25.9508 54.917 24.5644C54.4795 23.7408 53.7812 23.2129 52.8857 22.9891C52.3352 22.8514 51.7766 22.8165 51.1933 22.9254C49.9815 23.1534 49.1332 23.8188 48.6731 24.93C48.1329 26.2322 48.172 27.5713 48.6813 28.8756C48.9011 29.4404 49.2729 29.9272 49.7946 30.2784C50.4189 30.7015 51.1029 30.8966 51.793 30.8473L51.791 30.8494Z" fill="#BEBEBE"/>
<path d="M2.64861 32.139C2.54592 32.6566 2.69996 33.131 2.52127 33.6301C1.72024 33.7144 0.919216 33.6692 0.0606793 33.661C0.0380862 33.3878 0.00522354 33.1701 0.00522354 32.9544C0.00316962 26.692 0.00316962 20.4296 0.00316962 14.1672C0.00316962 14.0461 -0.00709996 13.9228 0.00933137 13.8037C0.0216549 13.7051 0.066841 13.6127 0.091488 13.5305C0.510487 13.4176 2.01806 13.4073 2.48225 13.51C2.68353 13.6866 2.6137 13.9269 2.61575 14.1426C2.61986 16.6936 2.61781 19.2425 2.61781 21.7934C2.61781 21.966 2.61781 22.1385 2.61781 22.3377C2.94438 22.0461 3.23193 21.7667 3.54207 21.5141C4.38007 20.8301 5.35568 20.5282 6.42782 20.5221C7.03373 20.52 7.63758 20.5015 8.23732 20.6473C10.1249 21.1115 11.3531 22.3151 12.074 24.0712C12.6039 25.3631 12.7272 26.729 12.6019 28.1031C12.4807 29.4278 12.1028 30.6869 11.2792 31.7693C10.2481 33.1228 8.90895 33.9136 7.18161 33.9978C6.34772 34.0389 5.52821 34.0101 4.73745 33.702C3.96107 33.4001 3.2956 32.9565 2.79855 32.2787C2.7698 32.2396 2.72872 32.2109 2.65272 32.1411L2.64861 32.139ZM6.33539 22.8286C4.71691 22.7423 3.4784 23.7713 2.96286 25.0427C2.54592 26.0717 2.46992 27.8607 2.81087 28.9698C3.07788 29.8407 3.53796 30.5698 4.28969 31.1038C4.95927 31.5783 5.7069 31.7056 6.50792 31.681C7.24528 31.6584 7.90048 31.4407 8.46941 30.9724C9.30536 30.2884 9.70998 29.3744 9.88867 28.3372C10.016 27.5978 10.0181 26.8625 9.89483 26.119C9.75517 25.2584 9.44913 24.4779 8.85555 23.8391C8.17981 23.112 7.32333 22.7937 6.33334 22.8286H6.33539Z" fill="#BEBEBE"/>
<path d="M103.582 20.4691C105.26 20.3336 106.704 20.9292 107.986 21.9562C108.468 22.3423 108.853 22.825 109.191 23.361C109.52 23.8827 109.767 24.425 109.958 24.998C110.282 25.9798 110.418 27.0068 110.272 28.0193C110.04 29.6399 109.452 31.1166 108.206 32.273C107.236 33.1726 106.106 33.7682 104.819 33.9449C103.334 34.1482 101.849 34.0311 100.489 33.3123C100.006 33.0576 99.5832 32.6858 99.1478 32.349C98.2996 31.6917 97.7902 30.7818 97.4184 29.8103C97.1535 29.1223 96.985 28.3911 96.9686 27.6373C96.9501 26.7521 97.0179 25.8812 97.2788 25.0247C97.6813 23.7082 98.4125 22.6237 99.4929 21.7775C100.366 21.0956 101.358 20.6622 102.446 20.4773C102.816 20.4157 103.206 20.4671 103.586 20.4671L103.582 20.4691ZM107.164 27.1238C107.273 26.3721 107.07 25.5937 106.661 24.9015C106.133 24.006 105.357 23.4103 104.285 23.2234C102.806 22.9667 101.419 23.5213 100.68 24.77C99.7352 26.3639 99.766 27.9885 100.618 29.607C101.074 30.4717 101.847 31.0304 102.748 31.2234C103.576 31.398 104.472 31.3795 105.277 30.9215C106.03 30.4922 106.56 29.8802 106.875 29.0812C107.111 28.4774 107.218 27.8489 107.166 27.1259L107.164 27.1238Z" fill="#BEBEBE"/>
<path d="M72.6852 30.0634C72.6256 30.2647 72.5989 30.4187 72.5373 30.5563C71.6747 32.4993 70.1732 33.6208 68.0967 33.9966C66.7617 34.239 65.4698 34.0808 64.2374 33.5366C63.0811 33.0272 62.1609 32.2323 61.5262 31.1253C61.021 30.2441 60.7026 29.3137 60.5794 28.2929C60.4356 27.0975 60.4993 25.9371 60.9121 24.8136C61.6392 22.8398 62.8962 21.3322 64.9789 20.7468C66.8418 20.2231 68.6616 20.4326 70.3026 21.5417C71.3933 22.279 72.0505 23.3491 72.4387 24.5917C72.7509 25.5941 72.8598 26.6231 72.8084 27.6685C72.8043 27.7527 72.7755 27.8349 72.7632 27.8944C72.564 28.1163 72.3237 28.0485 72.108 28.0485C69.7132 28.0526 67.3183 28.0505 64.9234 28.0485C64.3874 28.0485 63.8513 28.0485 63.2515 28.0485C63.2515 28.2662 63.2228 28.4531 63.2556 28.6297C63.6028 30.5111 64.9789 31.7722 66.9404 31.7805C67.4456 31.7825 67.9427 31.7455 68.4212 31.573C69.2942 31.2608 69.8364 30.6077 70.2472 29.8149C70.3478 29.6197 70.3951 29.3753 70.7442 29.3014C71.3358 29.5355 72.0546 29.6485 72.6872 30.0572L72.6852 30.0634ZM70.011 25.9145C70.0418 25.857 70.0644 25.8282 70.0705 25.7974C70.0808 25.746 70.087 25.6926 70.0788 25.6434C69.9227 24.5055 69.3763 23.6223 68.3309 23.1109C67.5381 22.7247 66.6775 22.7617 65.8354 22.8932C64.9789 23.0267 64.3709 23.5853 63.8882 24.257C63.5411 24.7417 63.2495 25.2757 63.3316 25.9145H70.013H70.011Z" fill="#BEBEBE"/>
<path d="M38.4031 0.922252V3.64369C38.0991 3.80595 37.7889 3.98464 37.4665 4.14074C36.9078 4.41186 36.3471 4.68297 35.7761 4.92944C34.6814 5.4039 33.5846 5.88041 32.4755 6.322C31.3663 6.76359 30.249 7.18054 29.1235 7.57694C26.6916 8.43137 24.2187 9.14819 21.7068 9.72534C20.1787 10.0766 18.63 10.3436 17.0896 10.6393C16.3789 10.7769 15.6662 10.9043 14.9514 11.0131C14.3209 11.1097 13.6883 11.1836 13.0557 11.2596C12.2013 11.3623 11.3468 11.4691 10.4903 11.5554C9.94194 11.6108 9.38944 11.6355 8.83694 11.6766C7.95991 11.7402 7.08289 11.8121 6.20587 11.8696C5.87724 11.8902 5.54656 11.882 5.21793 11.884C4.62846 11.8861 4.03693 11.8717 3.44746 11.8902C2.94836 11.9045 2.44925 11.9846 1.95015 11.9785C1.36479 11.9723 0.781474 11.9045 0.155029 11.8614V11.2103C0.383014 11.1918 0.582244 11.1672 0.783528 11.161C2.15144 11.122 3.51934 11.1158 4.88315 11.044C5.87929 10.9906 6.87134 10.8509 7.86749 10.7564C8.36659 10.7092 8.86774 10.6968 9.36274 10.6352C10.2007 10.5305 11.0367 10.4093 11.8706 10.2778C12.7887 10.132 13.7047 9.97181 14.6208 9.80955C15.1979 9.70685 15.7751 9.60416 16.3481 9.47476C17.4428 9.22624 18.5396 8.98182 19.6221 8.69222C20.8051 8.37386 21.9841 8.0288 23.1507 7.65499C24.4015 7.25448 25.6482 6.83548 26.8765 6.37335C28.0246 5.94202 29.1502 5.44703 30.2839 4.97668C30.7481 4.78361 31.2082 4.58233 31.6642 4.37489C32.04 4.20236 32.4118 4.01956 32.7815 3.8306C33.7345 3.34177 34.6937 2.86115 35.6323 2.34562C36.3882 1.93072 37.1214 1.47065 37.8608 1.02495C38.021 0.928413 38.1607 0.778477 38.401 0.920198L38.4031 0.922252Z" fill="#BEBEBE"/>
<path d="M44.3016 3.6823V0.917733C44.5276 0.815037 44.6631 0.948542 44.8028 1.03891C45.7045 1.61812 46.5876 2.23019 47.5078 2.77858C48.6498 3.45843 49.8123 4.10541 50.9871 4.72569C51.7841 5.14469 52.6118 5.50413 53.4354 5.86767C54.5117 6.34213 55.5838 6.8289 56.6806 7.2479C57.7466 7.65458 58.8413 7.98937 59.9258 8.3447C60.4495 8.51517 60.9877 8.64662 61.5155 8.81299C63.0991 9.31415 64.7196 9.66742 66.3443 9.99605C67.476 10.224 68.62 10.3822 69.764 10.5444C70.6678 10.6718 71.5797 10.7457 72.4855 10.8649C73.6891 11.023 74.8947 11.0702 76.1065 11.0744C76.8316 11.0764 77.5566 11.1421 78.2796 11.1832C78.3289 11.1853 78.3741 11.2181 78.4809 11.2592C78.4932 11.4317 78.5076 11.6269 78.526 11.8877C77.8585 11.8199 77.2649 12.1362 76.6385 11.9206C76.5132 11.8774 76.3633 11.9 76.2257 11.9C75.5828 11.898 74.9399 11.9103 74.2991 11.8939C73.3995 11.8692 72.4999 11.8487 71.6044 11.783C70.5035 11.7028 69.4025 11.6145 68.3099 11.4646C66.8434 11.2633 65.3851 10.9922 63.9206 10.7663C62.639 10.5691 61.3882 10.2405 60.1271 9.95086C57.9479 9.45176 55.82 8.78834 53.723 8.0325C52.3735 7.54572 51.0549 6.96857 49.7384 6.39347C48.6108 5.90053 47.5016 5.36857 46.3987 4.82428C45.686 4.47306 45.002 4.06639 44.3037 3.6823H44.3016Z" fill="#BEBEBE"/>
<path d="M18.0041 33.581C17.2914 33.7617 16.5992 33.6426 15.9173 33.6652C15.7612 33.6713 15.6031 33.5769 15.4162 33.5214C15.4162 33.3078 15.4162 33.1353 15.4162 32.9648C15.4162 29.1815 15.4162 25.3982 15.4162 21.6149C15.4162 21.4937 15.4059 21.3704 15.4203 21.2513C15.4511 21.0069 15.5784 20.857 15.8208 20.8508C16.476 20.8344 17.1332 20.8446 17.8254 20.8446C18.0637 21.5265 17.8603 22.192 17.9712 22.876C18.534 21.8203 19.3823 21.124 20.4934 20.822C21.1466 20.6434 21.8408 20.4647 22.5083 20.8036C22.6542 21.2369 22.6521 22.9622 22.4919 23.4305C22.3296 23.4387 22.1468 23.447 21.962 23.4552C21.4608 23.4798 20.9473 23.4408 20.4647 23.5414C19.1317 23.8187 18.3697 24.6875 18.1396 26.0164C18.0698 26.4231 18.0369 26.84 18.0349 27.2549C18.0246 29.163 18.0308 31.0731 18.0287 32.9833C18.0287 33.1702 18.0123 33.3571 18.002 33.583L18.0041 33.581Z" fill="#BEBEBE"/>
<path d="M91.4946 20.9006C91.5603 20.876 91.6384 20.8226 91.7185 20.8226C92.5996 20.8164 93.4807 20.8184 94.2961 20.8184C94.3762 20.8944 94.3886 20.9047 94.4009 20.9191C94.4132 20.9314 94.4296 20.9458 94.4317 20.9602C94.444 21.0978 94.4625 21.2354 94.4625 21.373C94.4625 25.3822 94.4563 29.3915 94.4522 33.4028C94.4522 33.4521 94.4214 33.4993 94.407 33.5425C94.0661 33.6801 92.2155 33.7211 91.5295 33.6061C91.433 33.2385 91.4022 21.6113 91.4987 20.9027L91.4946 20.9006Z" fill="#BEBEBE"/>
<path d="M27.3736 33.5266C27.0142 33.7094 25.5806 33.7485 24.9459 33.5903C24.9254 33.4506 24.8822 33.2863 24.8822 33.122C24.8781 29.2175 24.8781 25.3151 24.8822 21.4106C24.8822 21.2606 24.9089 21.1087 24.9213 20.9834C25.3341 20.8067 26.8417 20.7903 27.3572 20.9546C27.3736 21.0799 27.4106 21.2278 27.4106 21.3757C27.4127 25.2966 27.4127 29.2175 27.4106 33.1385C27.4106 33.274 27.386 33.4096 27.3757 33.5246L27.3736 33.5266Z" fill="#BEBEBE"/>
<path d="M92.9841 14.5973C93.7974 14.55 94.621 15.2935 94.5902 16.3041C94.5676 17.0414 93.9433 17.9 92.8424 17.9205C92.0804 17.9349 91.2136 17.0353 91.267 16.2219C91.3348 15.1888 92.0947 14.4987 92.9841 14.5993V14.5973Z" fill="#BEBEBE"/>
<path d="M26.1166 14.5767C27.0121 14.5767 27.7105 15.2257 27.7125 16.0637C27.7146 16.9695 27.0512 17.6329 26.1433 17.6329C25.2622 17.6329 24.5885 16.9736 24.5803 16.1109C24.57 15.2339 25.3895 14.4596 26.1187 14.5746L26.1166 14.5767Z" fill="#BEBEBE"/>
</svg>
