<svg width="50" height="50" viewBox="0 0 50 50" fill="none" xmlns="http://www.w3.org/2000/svg">
<path d="M8.33333 7.29199C8.33333 6.32128 8.33333 5.83593 8.49191 5.45308C8.70335 4.9426 9.10893 4.53701 9.61941 4.32558C10.0023 4.16699 10.4876 4.16699 11.4583 4.16699H30.2083C31.179 4.16699 31.6644 4.16699 32.0473 4.32558C32.5577 4.53701 32.9633 4.9426 33.1748 5.45308C33.3333 5.83593 33.3333 6.32128 33.3333 7.29199C33.3333 8.2627 33.3333 8.74805 33.1748 9.13091C32.9633 9.64139 32.5577 10.047 32.0473 10.2584C31.6644 10.417 31.179 10.417 30.2083 10.417H11.4583C10.4876 10.417 10.0023 10.417 9.61941 10.2584C9.10893 10.047 8.70335 9.64139 8.49191 9.13091C8.33333 8.74805 8.33333 8.2627 8.33333 7.29199Z" stroke="#1C274C" stroke-width="2"/>
<path opacity="0.5" d="M5.20833 37.5H21.875" stroke="#1C274C" stroke-width="2" stroke-linecap="round"/>
<path opacity="0.5" d="M5.20833 20.833H36.4583" stroke="#1C274C" stroke-width="2" stroke-linecap="round"/>
<path d="M21.875 45.8337H14.4936C13.3038 45.8337 12.7089 45.8337 12.1449 45.7562C10.4721 45.5266 8.90851 44.7943 7.66121 43.6562C7.24071 43.2724 6.85984 42.8155 6.09815 41.9014C4.85013 40.4039 4.16667 38.5159 4.16667 36.5666V22.7555C4.16667 20.224 5.31742 17.8297 7.29421 16.2483L12.3007 12.2431C13.431 11.3389 13.9961 10.8868 14.6657 10.6519C15.3353 10.417 16.059 10.417 17.5065 10.417H24.2556C25.7163 10.417 26.4465 10.417 27.1213 10.6559C27.796 10.8948 28.3638 11.3543 29.499 12.2733L34.41 16.2489C36.3646 17.8311 37.5 20.2113 37.5 22.726V26.042" stroke="#1C274C" stroke-width="2" stroke-linecap="round"/>
<path d="M20.8333 25V33.3333M16.6667 29.1667H25" stroke="#1C274C" stroke-width="2" stroke-linecap="round"/>
<path d="M30.7763 34.943C30.7763 34.943 32.8433 35.3819 35.1892 37.7278C37.5352 40.0736 37.9738 42.1405 37.9738 42.1405M40.1329 32.7838C42.1204 34.7713 42.1848 37.9292 40.2769 39.8371L35.6704 44.4436C33.7625 46.3515 30.6046 46.2871 28.6171 44.2996C26.6296 42.3121 26.5652 39.1542 28.4731 37.2463L33.0796 32.6398C34.9875 30.7319 38.1454 30.7963 40.1329 32.7838Z" stroke="#1C274C" stroke-width="2"/>
</svg>
