<svg width="270" height="47" viewBox="0 0 270 47" fill="none" xmlns="http://www.w3.org/2000/svg">
<g clip-path="url(#clip0_1765_35)">
<path d="M178.864 46.1519C179.485 44.6591 179.852 43.715 180.261 42.7901C186.051 29.7152 191.877 16.6555 197.596 3.54989C198.299 1.9419 199.15 1.30868 200.923 1.36625C206.51 1.55429 212.104 1.60418 217.695 1.71931C218.136 1.72699 218.574 1.84212 219.194 1.93422V5.96378C215.563 6.10961 211.929 6.25545 207.954 6.41663C208.797 8.28558 209.524 9.88972 210.371 11.7625H229.833C229.911 13.3436 229.974 14.587 230.056 16.2065H212.245C213.17 18.2674 213.892 19.8792 214.786 21.8671H239.395V25.4784H216.348C217.363 27.8078 218.14 29.5885 219.034 31.6378H255.886V35.8401C244.427 36.4848 232.961 36.0473 221.1 36.339C221.939 38.254 222.642 39.8543 223.469 41.7386H270.008V45.8833C269.254 45.9677 268.575 46.1097 267.896 46.1135C251.697 46.1711 235.498 46.2095 219.3 46.2517C218.714 46.2517 218.128 46.1481 217.547 46.1788C216.243 46.244 215.552 45.63 215.095 44.4557C214.006 41.658 212.815 38.9025 211.644 36.078H192.216C191.154 38.7145 189.995 41.3433 189.038 44.0412C188.484 45.6108 187.644 46.2862 185.911 46.1788C183.732 46.0406 181.542 46.1442 178.868 46.1442L178.864 46.1519ZM208.614 28.8095C206.385 23.0376 204.272 17.5766 202.164 12.1117C202.027 12.1041 201.891 12.1002 201.754 12.0925C199.595 17.6073 197.432 23.122 195.203 28.8095H208.614Z" fill="white"/>
<path d="M97.293 26.2382C101.256 32.7124 105.094 38.987 109.076 45.4918C108.354 45.6376 107.885 45.8065 107.409 45.818C105.847 45.8564 104.262 45.6645 102.732 45.8717C99.9869 46.244 98.5385 45.1119 97.3438 42.7095C95.0051 38.0045 92.3073 33.4684 89.7579 28.867C89.4494 28.3105 89.1137 27.7694 88.7623 27.1708H83.1637V45.6492H74.8789V1.33937C75.4919 1.27797 76.0502 1.17051 76.6085 1.17051C81.684 1.16667 86.7594 1.05538 91.8271 1.24343C94.197 1.33169 96.6176 1.77686 98.8898 2.45613C104.008 3.9912 107.073 7.99006 107.35 13.0366C107.663 18.7279 105.269 22.7114 100.127 25.0408C99.3076 25.4131 98.4643 25.7431 97.293 26.2382ZM83.2105 20.1286C87.3256 20.0442 91.2415 20.6889 95.0286 19.3841C97.7459 18.4516 99.0382 16.5826 99.0109 13.8847C98.9874 11.4363 97.5429 9.45605 94.8958 8.70003C91.1048 7.61397 87.2123 7.94785 83.2105 8.07065V20.1248V20.1286Z" fill="white"/>
<path d="M112.5 45.653C112.648 45.0696 112.703 44.6974 112.836 44.3558C118.169 30.5671 123.537 16.7898 128.812 2.97804C129.444 1.32016 130.292 0.644732 132.087 0.809752C133.751 0.963259 135.445 0.840453 137.272 0.840453C143.336 15.7805 149.34 30.5786 155.462 45.6568H112.5V45.653ZM143.355 37.9584C140.025 29.5309 136.843 21.4795 133.661 13.4242C133.466 13.4587 133.274 13.4894 133.079 13.524C130.131 21.5677 127.184 29.6115 124.123 37.9584H143.355Z" fill="white"/>
<path d="M32.233 4.97755C30.5034 6.85418 28.8168 8.67707 27.0365 10.6074C26.5367 10.2275 26.1307 9.94734 25.7559 9.62881C22.6481 6.99617 19.1109 6.26701 15.1989 7.41064C12.5401 8.18969 10.9511 10.074 10.8027 12.4533C10.6505 14.8212 11.853 16.6671 14.4415 17.8069C15.7416 18.3787 17.1354 18.7433 18.4706 19.2383C20.7819 20.0942 23.14 20.854 25.3772 21.8672C33.5799 25.5897 33.8727 33.6872 31.0266 39.2096C29.3556 42.4524 26.6656 44.6668 23.1986 45.7644C15.5463 48.1936 8.44067 47.0461 2.01823 42.1915C1.40527 41.7271 0.79231 41.2628 -0.00415039 40.6602C2.20173 38.6263 4.07576 36.8993 6.49637 34.6696C6.83213 35.3029 6.99221 35.9322 7.39434 36.3083C10.8886 39.5742 15.0154 40.6142 19.6341 39.2864C22.0312 38.5956 23.6515 36.9953 24.0263 34.4164C24.4206 31.7031 23.1986 29.7651 20.8444 28.6061C18.9391 27.6697 16.8543 27.0902 14.8787 26.2843C12.3644 25.2558 9.67831 24.4614 7.42557 23.0223C0.409697 18.5514 0.522919 8.10142 7.47633 3.24676C14.1525 -1.41218 25.1741 -1.00538 31.456 4.14478C31.6942 4.3405 31.8816 4.60146 32.233 4.98139V4.97755Z" fill="white"/>
<path d="M172.465 45.6952H164.012V8.40834H150.351V1.30096H186.04V8.26634H172.465V45.6952Z" fill="white"/>
<path d="M69.5886 8.38532H55.9238V45.6568H47.5063V8.35846H33.8845V1.33551H69.5847V8.38532H69.5886Z" fill="white"/>
</g>
<defs>
<clipPath id="clip0_1765_35">
<rect width="270" height="47" fill="white"/>
</clipPath>
</defs>
</svg>
