<svg width="151" height="26" viewBox="0 0 151 26" fill="none" xmlns="http://www.w3.org/2000/svg">
<g clip-path="url(#clip0_1890_267)">
<path d="M65.4333 23.7855C65.499 23.5265 65.5232 23.3612 65.582 23.2095C67.9424 17.0864 72.6529 4.83517 72.6529 4.83517L72.9575 3.87231C72.9575 3.87231 75.5888 3.88595 76.3975 3.88595C79.081 10.5203 81.7387 17.0915 84.4482 23.7872H65.4333V23.7855ZM79.0897 20.3687C77.6157 16.6263 76.2074 13.051 74.7991 9.47391C74.7127 9.48925 74.628 9.50288 74.5416 9.51822C73.237 13.0902 71.9323 16.6621 70.5776 20.3687H79.0897Z" fill="#0659C7"/>
<path d="M100.031 25.5308C100.378 24.705 100.584 24.1827 100.813 23.6711C104.051 16.4381 107.309 9.21367 110.508 1.96373C110.901 1.07421 111.377 0.723919 112.368 0.755763C115.492 0.859789 118.621 0.887387 121.748 0.951076C121.995 0.955322 122.239 1.01901 122.587 1.06996V3.29908C120.556 3.37975 118.523 3.46043 116.3 3.54959C116.772 4.58348 117.178 5.47088 117.652 6.50689H128.536C128.58 7.38155 128.615 8.06939 128.661 8.96528H118.7C119.217 10.1053 119.621 10.997 120.121 12.0967H133.884V14.0944H120.995C121.563 15.383 121.997 16.3681 122.497 17.5017H143.107V19.8264C136.698 20.1831 130.285 19.941 123.652 20.1024C124.122 21.1617 124.515 22.047 124.977 23.0894H151.004V25.3822C150.583 25.4289 150.203 25.5075 149.823 25.5096C140.764 25.5414 131.705 25.5627 122.646 25.586C122.318 25.586 121.99 25.5287 121.665 25.5457C120.936 25.5818 120.549 25.2421 120.294 24.5925C119.685 23.0448 119.019 21.5205 118.364 19.958H107.499C106.905 21.4165 106.256 22.8707 105.721 24.3632C105.411 25.2315 104.942 25.6051 103.972 25.5457C102.754 25.4692 101.529 25.5266 100.033 25.5266L100.031 25.5308ZM116.669 15.9371C115.423 12.7442 114.241 9.72318 113.062 6.70008C112.986 6.69583 112.909 6.69371 112.833 6.68946C111.626 9.74017 110.416 12.7909 109.169 15.9371H116.669Z" fill="url(#paint0_linear_1890_267)"/>
<path d="M54.4121 14.5147C56.6284 18.0961 58.7431 21.7476 60.9702 25.3461C59.6551 25.3488 60.3359 25.3397 60.0695 25.3461C59.1961 25.3673 55.0871 25.3758 55.0871 25.3758C55.0871 25.3758 54.8074 24.617 54.4405 23.6265C53.1326 21.0237 51.6238 18.5144 50.198 15.9689C50.0255 15.6611 49.8378 15.3617 49.6413 15.0306H46.5102V25.2527H41.8768V0.740863C42.2196 0.706896 42.5319 0.647452 42.8441 0.647452C45.6826 0.64533 48.5211 0.583763 51.3553 0.687789C52.6806 0.736617 54.0344 0.982882 55.3052 1.35865C58.1677 2.20783 59.8817 4.41997 60.0367 7.21167C60.2114 10.36 58.873 12.5637 55.9973 13.8523C55.5388 14.0582 55.0672 14.2408 54.4121 14.5147ZM46.5364 11.1349C48.8377 11.0882 51.0278 11.4449 53.1457 10.7231C54.6654 10.2072 55.3881 9.1733 55.3729 7.68085C55.3598 6.32639 54.5519 5.23094 53.0715 4.81272C50.9513 4.21192 48.7744 4.39662 46.5364 4.46455V11.1328V11.1349Z" fill="#000066"/>
<path d="M62.9167 25.2548C62.9997 24.9321 63.0303 24.7261 63.1045 24.5372C66.0871 16.9094 72.0393 1.64735 72.0393 1.64735L72.4242 0.447876C72.4242 0.447876 75.749 0.46486 76.7709 0.46486C80.1618 8.72958 83.52 16.9157 86.9436 25.2569H62.9167V25.2548ZM80.1727 20.9982C78.3102 16.3362 76.5307 11.8822 74.7512 7.42607C74.642 7.44518 74.535 7.46217 74.4258 7.48127C72.7773 11.931 71.1288 16.3808 69.4169 20.9982H80.1727Z" fill="#000066"/>
<path d="M18.0266 2.75354C17.0593 3.79167 16.1161 4.80008 15.1204 5.86794C14.8409 5.65776 14.6138 5.50279 14.4042 5.32658C12.6662 3.87022 10.6879 3.46686 8.50011 4.0995C7.01317 4.53047 6.1245 5.57284 6.04152 6.88909C5.95637 8.19896 6.62888 9.22011 8.07652 9.85063C8.80361 10.167 9.58311 10.3686 10.3299 10.6425C11.6225 11.1159 12.9413 11.5363 14.1924 12.0967C18.7799 14.156 18.9436 18.6355 17.3519 21.6904C16.4174 23.4843 14.913 24.7093 12.974 25.3165C8.69444 26.6603 4.72052 26.0255 1.12872 23.34C0.785913 23.0831 0.443108 22.8262 -0.00231934 22.4929C1.23134 21.3677 2.27941 20.4124 3.63316 19.179C3.82094 19.5292 3.91046 19.8774 4.13535 20.0855C6.08956 21.8921 8.39749 22.4674 10.9805 21.7329C12.3212 21.3507 13.2273 20.4655 13.4369 19.0388C13.6575 17.5379 12.974 16.4658 11.6574 15.8247C10.5919 15.3067 9.4259 14.9861 8.32106 14.5403C6.91491 13.9713 5.41268 13.5319 4.15282 12.7357C0.229129 10.2625 0.292449 4.48164 4.18121 1.79608C7.91494 -0.781201 14.0789 -0.556166 17.5921 2.29286C17.7253 2.40113 17.8301 2.54549 18.0266 2.75567V2.75354Z" fill="#000066"/>
<path d="M96.4526 25.2782H91.7254V4.65146H84.0854V0.719727H104.045V4.57292H96.4526V25.2782Z" fill="#000066"/>
<path d="M38.9181 4.63866H31.276V25.2569H26.5684V4.6238H18.9503V0.73877H38.916V4.63866H38.9181Z" fill="#000066"/>
</g>
<defs>
<linearGradient id="paint0_linear_1890_267" x1="140.374" y1="14.3829" x2="105.42" y2="14.3829" gradientUnits="userSpaceOnUse">
<stop stop-color="#098CFF"/>
<stop offset="1" stop-color="#000066"/>
</linearGradient>
<clipPath id="clip0_1890_267">
<rect width="151" height="26" fill="white"/>
</clipPath>
</defs>
</svg>
