<svg width="50" height="50" viewBox="0 0 50 50" fill="none" xmlns="http://www.w3.org/2000/svg">
<path d="M37.176 12.8242C37.176 12.8242 36.2748 17.5003 31.0535 22.7214C25.8325 27.9426 21.1573 28.843 21.1573 28.843M42.5156 34.1826C38.0923 38.6062 30.9204 38.6062 26.4969 34.1826L15.8176 23.5034C11.3941 19.08 11.3941 11.9081 15.8176 7.48462C20.2411 3.06112 27.4129 3.06112 31.8365 7.48462L42.5156 18.1638C46.9392 22.5874 46.9392 29.7593 42.5156 34.1826Z" stroke="#1C274C" stroke-width="2"/>
<path opacity="0.5" d="M30.2083 13.542L27.0833 10.417" stroke="#1C274C" stroke-width="2" stroke-linecap="round"/>
<path opacity="0.5" d="M14.0213 21.1143C8.38826 22.3278 4.16666 27.3378 4.16666 33.3336C4.16666 40.2374 9.76309 45.8336 16.6667 45.8336C22.6898 45.8336 27.7179 41.5736 28.9025 35.9024" stroke="#1C274C" stroke-width="2"/>
</svg>
