<svg width="24" height="24" viewBox="0 0 24 24" fill="none" xmlns="http://www.w3.org/2000/svg">
    <path fill-rule="evenodd" clip-rule="evenodd"
          d="M20 20C20 20.552 19.552 21 19 21H16V12C16 11.448 15.553 11 15 11H9C8.448 11 8 11.448 8 12V21H5C4.449 21 4 20.552 4 20V9.489L12 3.267L20 9.489V20ZM10 21H14V13H10V21ZM21.614 8.21L12.614 1.21C12.253 0.93 11.747 0.93 11.386 1.21L2.386 8.21C2.143 8.4 2 8.691 2 9V20C2 21.654 3.346 23 5 23H19C20.654 23 22 21.654 22 20V9C22 8.691 21.857 8.4 21.614 8.21V8.21Z"
          fill="#C6C6C6"/>
</svg>
