<svg width="24" height="24" viewBox="0 0 24 24" fill="none" xmlns="http://www.w3.org/2000/svg">
<path fill-rule="evenodd" clip-rule="evenodd" d="M20.4425 17.4215L13.0005 21.1425V11.3745L21.0005 7.3745V16.5255C21.0005 16.9075 20.7875 17.2505 20.4425 17.4215ZM3.54952 17.4225C3.20852 17.2505 2.99752 16.9055 3.00052 16.5165V7.3745L11.0005 11.3745V21.1485L3.54952 17.4225ZM11.5556 2.1025C11.6946 2.0325 11.8476 1.9985 12.0006 1.9985C12.1516 1.9985 12.3046 2.0325 12.4426 2.1015L19.7586 5.7585L12.0006 9.6385L4.24164 5.7585L11.5556 2.1025ZM21.3375 4.3125L13.3375 0.3125L13.3365 0.3115C12.4995 -0.1035 11.5015 -0.1045 10.6625 0.3125L2.66552 4.3115C1.63852 4.8205 1.00152 5.8495 1.00052 6.9965V16.5095C0.991522 17.6575 1.62452 18.6925 2.65252 19.2105L10.6525 23.2105C11.0725 23.4205 11.5345 23.5255 11.9955 23.5255C12.4565 23.5255 12.9175 23.4205 13.3375 23.2105L21.3345 19.2115C22.3615 18.7025 23.0005 17.6735 23.0005 16.5255V6.9965C23.0005 5.8495 22.3615 4.8205 21.3375 4.3125Z" fill="#C6C6C6"/>
</svg>
