<svg width="24" height="24" viewBox="0 0 24 24" fill="none" xmlns="http://www.w3.org/2000/svg">
<path fill-rule="evenodd" clip-rule="evenodd" d="M19 20C19 20.552 18.552 21 18 21H6C5.449 21 5 20.552 5 20V4C5 3.449 5.449 3 6 3H12V9C12 9.552 12.448 10 13 10H19V20ZM14 4.414L17.586 8H14V4.414ZM20.923 8.615C20.872 8.494 20.798 8.384 20.706 8.292L13.708 1.294C13.616 1.202 13.507 1.128 13.385 1.078C13.265 1.027 13.134 1 13 1H6C4.346 1 3 2.346 3 4V20C3 21.654 4.346 23 6 23H18C19.654 23 21 21.654 21 20V9C21 8.867 20.973 8.736 20.923 8.615Z" fill="#C6C6C6"/>
</svg>
