<svg width="24" height="24" viewBox="0 0 24 24" fill="none" xmlns="http://www.w3.org/2000/svg">
<path fill-rule="evenodd" clip-rule="evenodd" d="M9.40337 18.485C9.06337 18.335 8.70437 18.261 8.34637 18.261C7.65737 18.261 6.97037 18.537 6.41237 19.083C6.02537 19.47 5.39537 19.474 5.00437 19.091C5.00237 19.088 4.99937 19.085 4.99637 19.082C4.80737 18.894 4.70337 18.643 4.70337 18.376C4.70337 18.108 4.80737 17.857 5.06537 17.6C5.82637 16.821 6.03437 15.674 5.59937 14.686C5.18237 13.715 4.23137 13.085 3.17037 13.08H3.00037C2.44837 13.08 2.00037 12.631 2.00037 12.08C2.00037 11.529 2.44837 11.08 3.00037 11.08H3.11337C4.20837 11.054 5.16037 10.373 5.51537 9.404C5.95537 8.407 5.74737 7.259 4.91737 6.413C4.52637 6.023 4.52637 5.388 4.91737 4.997C5.30737 4.606 5.94237 4.607 6.40037 5.065C7.12937 5.778 8.18137 6.006 9.12937 5.672C9.22037 5.66 9.30937 5.635 9.39437 5.599C10.3654 5.183 10.9964 4.23 11.0004 3.17V3C11.0004 2.449 11.4484 2 12.0004 2C12.5514 2 13.0004 2.449 13.0004 3.094C13.0044 4.151 13.6344 5.103 14.5954 5.515C15.5914 5.955 16.7404 5.748 17.5884 4.917C17.7764 4.728 18.0274 4.624 18.2944 4.624H18.2954C18.5614 4.624 18.8124 4.727 19.0014 4.916L19.0154 4.93C19.3934 5.32 19.3884 5.947 18.9354 6.4C18.2224 7.129 17.9944 8.181 18.3294 9.13C18.3404 9.221 18.3654 9.31 18.4014 9.394C18.8174 10.366 19.7694 10.996 20.8304 11H21.0004C21.5514 11 22.0004 11.449 22.0004 12C22.0004 12.551 21.5514 13 20.9054 13C19.8504 13.005 18.8994 13.634 18.4834 14.602C18.0464 15.598 18.2544 16.742 19.0834 17.588C19.2724 17.776 19.3764 18.027 19.3774 18.294C19.3774 18.562 19.2734 18.813 19.0824 19.003C18.8934 19.192 18.6424 19.296 18.3764 19.297H18.3754C18.1084 19.297 17.8574 19.192 17.5994 18.936C16.8194 18.173 15.6714 17.965 14.6864 18.401C13.7154 18.816 13.0854 19.769 13.0804 20.83V21C13.0804 21.552 12.6314 22 12.0804 22C11.5284 22 11.0804 21.552 11.0804 21V21C11.0804 20.9918 11.0804 20.895 11.0794 20.887C11.0534 19.791 10.3724 18.839 9.40337 18.485ZM9.08037 21C9.08037 22.654 10.4254 24 12.0804 24C13.7344 24 15.0804 22.654 15.0804 21V20.835C15.0814 20.575 15.2354 20.342 15.4844 20.235C15.7264 20.125 16.0094 20.178 16.2544 20.42C17.4254 21.587 19.3274 21.587 20.5004 20.415C21.6684 19.244 21.6674 17.341 20.4454 16.121C20.2584 15.93 20.2074 15.648 20.3154 15.404C20.3158 15.4023 20.3164 15.4008 20.317 15.3993C20.3179 15.3974 20.3188 15.3957 20.3194 15.394C20.4214 15.155 20.6554 15.001 21.0004 15C22.6544 15 24.0004 13.654 24.0004 12C24.0004 10.346 22.6544 9 21.0004 9H20.8344C20.6174 8.999 20.4184 8.891 20.2984 8.715C20.2854 8.647 20.2634 8.58 20.2354 8.516C20.1274 8.271 20.1784 7.99 20.4204 7.745C21.5884 6.575 21.5874 4.671 20.4174 3.502V3.503C20.4149 3.501 20.4126 3.49875 20.4104 3.4965C20.4081 3.49425 20.4059 3.492 20.4034 3.49C19.8374 2.931 19.0894 2.624 18.2954 2.624H18.2934C17.4914 2.624 16.7384 2.937 16.1214 3.555C15.9294 3.742 15.6474 3.792 15.3944 3.681C15.1564 3.579 15.0014 3.345 15.0004 3C15.0004 1.346 13.6544 0 12.0004 0C10.3454 0 9.00037 1.346 9.00037 3V3.166C8.99937 3.383 8.89037 3.583 8.71437 3.701C8.64737 3.716 8.58037 3.737 8.51637 3.765C8.27237 3.874 7.99037 3.823 7.74537 3.581C6.57437 2.411 4.67137 2.413 3.50137 3.585C2.33237 4.755 2.33337 6.658 3.55537 7.88C3.74237 8.07 3.79337 8.352 3.66137 8.655C3.56837 8.907 3.33537 9.074 3.00037 9.08C1.34537 9.08 0.000366211 10.426 0.000366211 12.08C0.000366211 13.734 1.34537 15.08 3.00037 15.08H3.16537C3.42537 15.081 3.65837 15.236 3.76537 15.483C3.87337 15.729 3.82137 16.01 3.58137 16.255C3.01437 16.822 2.70337 17.575 2.70337 18.377C2.70337 19.169 3.00837 19.914 3.56337 20.478L3.58537 20.5C4.75437 21.667 6.65737 21.665 7.87937 20.445C8.06937 20.259 8.35137 20.207 8.65537 20.339C8.90737 20.432 9.07337 20.665 9.08037 21ZM9.99997 12C9.99997 10.897 10.897 10 12 10C13.103 10 14 10.897 14 12C14 13.103 13.103 14 12 14C10.897 14 9.99997 13.103 9.99997 12ZM7.99997 12C7.99997 14.206 9.79397 16 12 16C14.206 16 16 14.206 16 12C16 9.794 14.206 8 12 8C9.79397 8 7.99997 9.794 7.99997 12Z" fill="#C6C6C6"/>
</svg>
