<svg xmlns="http://www.w3.org/2000/svg" width="32.256" height="31.512" viewBox="0 0 32.256 31.512">
  <g id="Group_807" data-name="Group 807" transform="translate(-822.744 -438)">
    <g id="Icon_feather-smile" data-name="Icon feather-smile" transform="translate(820.744 441)">
      <path id="Path_95" data-name="Path 95" d="M27.512,15.256A12.256,12.256,0,1,1,15.256,3,12.256,12.256,0,0,1,27.512,15.256Z" fill="none" stroke="#b3cee1" stroke-linecap="round" stroke-linejoin="round" stroke-width="2"/>
      <path id="Path_96" data-name="Path 96" d="M12,21a6.618,6.618,0,0,0,4.9,2.451A6.618,6.618,0,0,0,21.8,21" transform="translate(-1.646 -3.293)" fill="none" stroke="#b3cee1" stroke-linecap="round" stroke-linejoin="round" stroke-width="2"/>
      <path id="Path_97" data-name="Path 97" d="M13.5,13.5h.012" transform="translate(-1.921 -1.921)" fill="none" stroke="#b3cee1" stroke-linecap="round" stroke-linejoin="round" stroke-width="2"/>
      <path id="Path_98" data-name="Path 98" d="M22.5,13.5h.012" transform="translate(-3.567 -1.921)" fill="none" stroke="#b3cee1" stroke-linecap="round" stroke-linejoin="round" stroke-width="2"/>
    </g>
    <circle id="Ellipse_262" data-name="Ellipse 262" cx="8" cy="8" r="8" transform="translate(839 438)" fill="#fff"/>
    <g id="Group_806" data-name="Group 806" transform="translate(1)">
      <line id="Line_294" data-name="Line 294" y2="8" transform="translate(846 442)" fill="none" stroke="#b3cee1" stroke-linecap="round" stroke-width="1.5"/>
      <line id="Line_295" data-name="Line 295" y2="8" transform="translate(850 446) rotate(90)" fill="none" stroke="#b3cee1" stroke-linecap="round" stroke-width="1.5"/>
    </g>
  </g>
</svg>
