<svg xmlns="http://www.w3.org/2000/svg" width="20.035" height="22.094" viewBox="0 0 20.035 22.094">
  <g id="Icon_feather-lock" data-name="Icon feather-lock" transform="translate(-3.75 -2.25)">
    <path id="Path_88" data-name="Path 88" d="M6.559,15.75H20.975a2.813,2.813,0,0,1,2.809,2.809v7.208a2.813,2.813,0,0,1-2.809,2.809H6.559A2.813,2.813,0,0,1,3.75,25.767V18.559A2.813,2.813,0,0,1,6.559,15.75ZM20.975,27.077a1.311,1.311,0,0,0,1.309-1.309V18.559a1.311,1.311,0,0,0-1.309-1.309H6.559A1.311,1.311,0,0,0,5.25,18.559v7.208a1.311,1.311,0,0,0,1.309,1.309Z" transform="translate(0 -4.233)" fill="#becadf"/>
    <path id="Path_89" data-name="Path 89" d="M20.8,13.017a.75.75,0,0,1-.75-.75V8.148a4.4,4.4,0,0,0-8.8,0v4.119a.75.75,0,0,1-1.5,0V8.148a5.9,5.9,0,0,1,11.8,0v4.119A.75.75,0,0,1,20.8,13.017Z" transform="translate(-1.881)" fill="#becadf"/>
  </g>
</svg>
