<svg xmlns="http://www.w3.org/2000/svg" xmlns:xlink="http://www.w3.org/1999/xlink" width="30.834" height="31.551" viewBox="0 0 30.834 31.551">
  <defs>
    <clipPath id="clip-path">
      <path id="Path_77" data-name="Path 77" d="M31.93,14.362H17.23v6.1h8.461c-.789,3.872-4.087,6.1-8.461,6.1a9.322,9.322,0,0,1,0-18.644,9.12,9.12,0,0,1,5.808,2.079L27.627,5.4a15.765,15.765,0,1,0-10.4,27.607c7.888,0,15.058-5.737,15.058-15.775A13.087,13.087,0,0,0,31.93,14.362Z" transform="translate(-1.455 -1.455)"/>
    </clipPath>
  </defs>
  <g id="google-icon" transform="translate(-1.455 -1.455)">
    <g id="Group_768" data-name="Group 768" transform="translate(1.455 1.455)" clip-path="url(#clip-path)">
      <path id="Path_76" data-name="Path 76" d="M0,26.644V8l12.19,9.322Z" transform="translate(-1.434 -1.546)" fill="#fbbc05"/>
    </g>
    <g id="Group_769" data-name="Group 769" transform="translate(1.455 1.455)" clip-path="url(#clip-path)">
      <path id="Path_78" data-name="Path 78" d="M0,7.888,12.19,17.21l5.019-4.374,17.21-2.8V0H0Z" transform="translate(-1.434 -1.434)" fill="#ea4335"/>
    </g>
    <g id="Group_770" data-name="Group 770" transform="translate(1.455 1.455)" clip-path="url(#clip-path)">
      <path id="Path_80" data-name="Path 80" d="M0,26.531,21.512,10.039l5.665.717L34.419,0V34.419H0Z" transform="translate(-1.434 -1.434)" fill="#34a853"/>
    </g>
    <g id="Group_771" data-name="Group 771" transform="translate(1.455 1.455)" clip-path="url(#clip-path)">
      <path id="Path_82" data-name="Path 82" d="M34.552,34.531,12.323,17.322,9.455,15.171,34.552,8Z" transform="translate(-1.567 -1.546)" fill="#4285f4"/>
    </g>
  </g>
</svg>
