<svg xmlns="http://www.w3.org/2000/svg" width="26" height="16.713" viewBox="0 0 26 16.713">
  <g id="Icon_ionic-ios-eye" data-name="Icon ionic-ios-eye" transform="translate(-2.252 -7.875)" opacity="0.23">
    <path id="Path_90" data-name="Path 90" d="M15.238,7.875c-4.666,0-8.345,2.936-12.744,7.736a.918.918,0,0,0-.006,1.236c3.766,4.161,7.086,7.741,12.75,7.741,5.594,0,9.79-4.509,12.773-7.776a.91.91,0,0,0,.029-1.2C25,11.926,20.792,7.875,15.238,7.875Zm.255,13.574a5.223,5.223,0,1,1,4.973-4.973A5.225,5.225,0,0,1,15.493,21.449Z" transform="translate(0 0)" fill="#1a4895"/>
    <path id="Path_91" data-name="Path 91" d="M17.214,14.487a2.727,2.727,0,0,1,.18-.981c-.058,0-.116-.006-.18-.006a3.714,3.714,0,1,0,3.714,3.714c0-.075-.006-.151-.006-.226a2.573,2.573,0,0,1-1.056.226A2.694,2.694,0,0,1,17.214,14.487Z" transform="translate(-1.965 -0.982)" fill="#1a4895"/>
  </g>
</svg>
