<svg xmlns="http://www.w3.org/2000/svg" width="31.596" height="31.595" viewBox="0 0 31.596 31.595">
  <path id="Icon_awesome-linkedin-in" data-name="Icon awesome-linkedin-in" d="M7.072,31.6H.522V10.5H7.072ZM3.794,7.624a3.812,3.812,0,1,1,3.794-3.83A3.826,3.826,0,0,1,3.794,7.624ZM31.589,31.6H25.053V21.327c0-2.447-.049-5.586-3.406-5.586-3.406,0-3.928,2.659-3.928,5.409V31.6H11.176V10.5h6.283v2.877h.092a6.883,6.883,0,0,1,6.2-3.406c6.63,0,7.848,4.366,7.848,10.036V31.6Z" transform="translate(0 -0.001)" fill="#fff"/>
</svg>