<svg id="Group_801" data-name="Group 801" xmlns="http://www.w3.org/2000/svg" width="30.776" height="30.752" viewBox="0 0 30.776 30.752">
  <path id="Path_47" data-name="Path 47" d="M215.79,805c-6.8-6.295-13.417-12.808-20.683-19.537,6.194.1,11.211-.7,16.14,2.376C218.01,792.052,219.124,800.757,215.79,805Z" transform="translate(-189.594 -785.44)" fill="#fff"/>
  <path id="Path_48" data-name="Path 48" d="M194.784,818.207h-8.491A4.649,4.649,0,0,1,183.1,816.7c-6.479-6.285-14.541-14.76-18.151-18.37a3.08,3.08,0,0,1-.922-2.47c.015-3.8,0-4.821,0-8.378,10.537,10.342,20.65,20.8,30.763,30.724Z" transform="translate(-164.008 -787.472)" fill="#fff"/>
  <path id="Path_49" data-name="Path 49" d="M164.239,837l13.831,13.936H164.239Z" transform="translate(-164.239 -820.18)" fill="#fff"/>
</svg>
