<svg width="231" height="241" viewBox="0 0 231 241" fill="none" xmlns="http://www.w3.org/2000/svg">
<path d="M66.523 142.042C44.1403 150.45 21.9957 159.275 0 168.28C5.11944 180.176 12.1736 191.029 20.6266 200.57C38.6637 185.125 56.552 169.502 74.2022 153.431C71.1364 150.032 68.547 146.186 66.523 142.042Z" fill="#4FA590"/>
<path d="M68.3981 95.6784C69.3506 94.0982 70.3626 92.5478 71.4638 91.0868C57.7128 76.9244 43.3962 63.5372 29.1392 50.1201L19.7634 41.563C13.2153 49.1064 7.64941 57.425 3.09549 66.4293L14.5249 71.8856C32.3239 80.055 50.0932 88.2543 68.3684 95.6784H68.3981Z" fill="#64C58A"/>
<path d="M63.1894 9.71991C66.9099 18.5453 70.7793 27.341 74.8867 36.1068C80.9884 48.9573 87.0603 61.8079 93.6977 74.5392C98.2814 72.8695 103.133 71.8557 108.252 71.5874C109.413 57.2461 111.14 9.57083 111.14 0C110.961 0 110.782 0 110.604 0C93.7572 0 77.7441 3.48843 63.1894 9.74972V9.71991Z" fill="#61C08B"/>
<path d="M186.026 52.9228L200.313 40.3406C192.872 32.022 184.359 24.7172 174.894 18.7242L165.162 35.9279C156.917 51.1637 148.642 66.3697 141.082 82.1422C142.66 83.3944 144.178 84.7361 145.577 86.1673C159.536 75.4634 172.751 64.1633 186.026 52.9228Z" fill="#5EBC8C"/>
<path d="M154.744 141.833C153.494 144.457 152.006 146.961 150.309 149.287C162.007 162.436 174.269 174.571 186.503 186.795C191.175 191.417 195.968 195.859 200.73 200.331C210.403 189.389 218.053 176.688 223.261 162.734C217.13 160.587 210.998 158.44 204.778 156.443C188.259 151.285 171.799 146.067 154.714 141.803L154.744 141.833Z" fill="#58B38E"/>
<path d="M215.85 62.0762C209.57 65.9522 203.29 69.8581 197.039 73.913L175.43 87.986C168.882 92.5478 162.304 96.9009 155.816 101.612C157.988 106.8 159.239 112.435 159.506 118.338C167.721 119.233 175.847 119.77 184.032 120.485L209.778 121.976C216.832 122.393 223.857 122.632 230.881 122.87C230.881 122.095 231 121.35 231 120.575C231 99.316 225.464 79.3991 215.85 62.0464V62.0762Z" fill="#5BB78D"/>
<path d="M86.7627 163.479C80.1848 170.575 74.0533 177.85 67.6838 185.006L48.6049 207.994C45.7773 211.423 43.0688 214.911 40.3008 218.34C59.2605 232.025 82.298 240.314 107.3 241C107.359 237.094 107.479 233.218 107.508 229.282V199.377C107.181 189.389 107.151 179.52 106.556 169.442C99.4124 168.846 92.7155 166.759 86.7627 163.42V163.479Z" fill="#52A98F"/>
<path d="M139.683 160.08C138.225 161.184 136.677 162.197 135.1 163.122C140.666 177.821 146.797 192.162 152.899 206.533L162.929 229.133C171.62 224.929 179.806 219.801 187.187 213.719L171.204 194.965C160.876 183.247 150.547 171.5 139.683 160.11V160.08Z" fill="#55AE8E"/>
</svg>
