<svg width="48" height="48" viewBox="0 0 48 48" fill="none" xmlns="http://www.w3.org/2000/svg">
<path fill-rule="evenodd" clip-rule="evenodd" d="M23.1069 25.79C23.3889 25.93 23.6949 26 24.0009 26C24.3069 26 24.6149 25.93 24.8949 25.79L44.8949 15.79C45.5729 15.45 46.0009 14.758 46.0009 14C46.0009 13.242 45.5729 12.55 44.8949 12.21L24.8949 2.21C24.3329 1.93 23.6689 1.93 23.1069 2.21L3.10688 12.21C2.42888 12.55 2.00088 13.242 2.00088 14C2.00088 14.758 2.42888 15.45 3.10688 15.79L23.1069 25.79ZM24.0006 21.764L8.47256 14L24.0006 6.23602L39.5286 14L24.0006 21.764ZM24.0013 46C23.6953 46 23.3873 45.93 23.1073 45.79L3.10728 35.79C2.11928 35.294 1.71728 34.094 2.21128 33.106C2.70728 32.118 3.90728 31.72 4.89528 32.21L24.0013 41.764L43.1073 32.21C44.0973 31.72 45.2933 32.118 45.7913 33.106C46.2853 34.094 45.8833 35.294 44.8953 35.79L24.8953 45.79C24.6153 45.93 24.3073 46 24.0013 46ZM23.1073 35.79C23.3873 35.93 23.6953 36 24.0013 36C24.3073 36 24.6153 35.93 24.8953 35.79L44.8953 25.79C45.8833 25.294 46.2853 24.094 45.7913 23.106C45.2933 22.118 44.0973 21.718 43.1073 22.21L24.0013 31.764L4.89528 22.21C3.90728 21.714 2.70728 22.12 2.21128 23.106C1.71728 24.094 2.11928 25.294 3.10728 25.79L23.1073 35.79Z" fill="#DEA8DE"/>
</svg>
