<svg width="48" height="48" viewBox="0 0 48 48" fill="none" xmlns="http://www.w3.org/2000/svg">
<path fill-rule="evenodd" clip-rule="evenodd" d="M10 20.7016L16.7802 27.184C17.2311 27.6153 17.4374 28.236 17.3304 28.8436L15.7314 38L24.1107 33.674C24.6666 33.3852 25.3334 33.3852 25.8893 33.674L34.2686 38L32.6696 28.8436C32.5645 28.236 32.7689 27.6153 33.2198 27.184L40 20.7016L30.6273 19.3571C30.0064 19.2671 29.4676 18.8845 29.1906 18.3314L25.001 10L20.8094 18.3314C20.5324 18.8845 19.9955 19.2671 19.3727 19.3571L10 20.7016ZM36.7971 43.9993C36.4936 43.9993 36.1881 43.9268 35.9075 43.78L25.001 38.049L14.0906 43.78C13.4491 44.1194 12.6683 44.0622 12.0784 43.635C11.4923 43.2078 11.1983 42.485 11.3205 41.7699L13.4033 29.6386L4.57767 21.0507C4.05649 20.5434 3.8694 19.7863 4.09276 19.0959C4.31803 18.4055 4.91557 17.9021 5.63339 17.7972L17.8343 16.0159L23.2885 4.9755C23.9319 3.67483 26.0681 3.67483 26.7115 4.9755L32.1657 16.0159L44.3666 17.7972C45.0863 17.9021 45.6839 18.4055 45.9072 19.0959C46.1306 19.7863 45.9435 20.5434 45.4223 21.0507L36.5967 29.6386L38.6795 41.7699C38.8017 42.485 38.5077 43.2078 37.9197 43.635C37.5856 43.8772 37.1923 43.9993 36.7971 43.9993Z" fill="#DEA8DE"/>
</svg>
