<svg width="48" height="48" viewBox="0 0 48 48" fill="none" xmlns="http://www.w3.org/2000/svg">
<path d="M39.281 15.075L32.981 21L38.981 37.5L34.481 42L25.5185 28.875L20.981 33V37.5L16.481 42L13.8185 34.1437L5.98096 31.5L10.481 27H14.981L19.481 22.5L5.98096 13.5L10.481 8.99999L26.981 15L32.9247 8.71874L32.7935 8.81249C33.6388 7.96712 34.7854 7.49219 35.981 7.49219C37.1765 7.49219 38.3231 7.96712 39.1685 8.81249C40.0138 9.65787 40.4888 10.8044 40.4888 12C40.4888 13.1955 40.0138 14.3421 39.1685 15.1875L39.281 15.075Z" stroke="#DEA8DE" stroke-width="4" stroke-linecap="round" stroke-linejoin="round"/>
</svg>
