<svg width="181" height="70" viewBox="0 0 181 70" fill="none" xmlns="http://www.w3.org/2000/svg">
<path d="M145.873 5.11132C145.873 4.4503 146.016 3.79718 146.292 3.19652C146.568 2.59587 146.971 2.06181 147.472 1.63079C147.973 1.19977 148.561 0.881941 149.196 0.698982C149.832 0.516024 150.499 0.472244 151.152 0.570631C159.404 1.83098 166.932 6.00537 172.371 12.3375C177.81 18.6696 180.801 26.7406 180.803 35.0881C180.802 43.4327 177.813 51.5012 172.377 57.8324C166.941 64.1635 159.418 68.3389 151.17 69.6022C150.516 69.7017 149.849 69.6588 149.213 69.4765C148.578 69.2942 147.989 68.9768 147.488 68.5459C146.986 68.115 146.584 67.5809 146.308 66.9801C146.032 66.3793 145.89 65.726 145.89 65.0649L145.873 5.11132Z" fill="white"/>
<path d="M133.873 0.175323H117.962C116.745 0.176235 115.579 0.6601 114.719 1.52057C113.859 2.38104 113.376 3.5477 113.376 4.76413V67.0826C113.376 67.6595 113.546 68.2235 113.867 68.7033C114.187 69.1832 114.642 69.5572 115.175 69.778C115.708 69.9988 116.295 70.0565 116.861 69.9439C117.426 69.8312 117.946 69.5532 118.354 69.145L123.853 63.6453C124.124 63.3738 124.445 63.1584 124.799 63.0115C125.153 62.8645 125.532 62.7888 125.916 62.7888C126.299 62.7888 126.678 62.8645 127.032 63.0115C127.386 63.1584 127.708 63.3738 127.978 63.6453L133.478 69.145C133.885 69.5532 134.405 69.8312 134.971 69.9439C135.536 70.0565 136.123 69.9988 136.656 69.778C137.189 69.5572 137.644 69.1832 137.965 68.7033C138.285 68.2235 138.455 67.6595 138.455 67.0826V4.76413C138.455 3.5483 137.972 2.38216 137.113 1.52178C136.254 0.661412 135.089 0.177145 133.873 0.175323Z" fill="white"/>
<path d="M82.0315 25.2299H87.789C90.2875 25.229 92.6836 24.2368 94.4513 22.471C96.219 20.7052 97.2139 18.3102 97.2175 15.8117C97.2193 14.5723 96.9768 13.3448 96.5038 12.1993C96.0308 11.0538 95.3365 10.0128 94.4608 9.1358C93.5851 8.25882 92.5451 7.56309 91.4003 7.0884C90.2555 6.61371 89.0283 6.36938 87.789 6.36938H84.6954C84.3307 6.36938 83.981 6.51424 83.7232 6.77209C83.4653 7.02994 83.3205 7.37966 83.3205 7.74431V9.63827C83.3205 10.0029 83.4653 10.3526 83.7232 10.6105C83.981 10.8683 84.3307 11.0132 84.6954 11.0132H87.789C88.417 11.0132 89.0389 11.1376 89.6186 11.3793C90.1983 11.621 90.7243 11.9751 91.1663 12.4213C91.6083 12.8675 91.9576 13.3968 92.1938 13.9788C92.4301 14.5607 92.5487 15.1837 92.5428 15.8117C92.5382 17.0695 92.0354 18.2742 91.1444 19.162C90.2534 20.0498 89.0468 20.5483 87.789 20.5483H82.0315C81.6646 20.5474 81.3122 20.6913 81.0509 20.9487C80.7896 21.2062 80.6405 21.5564 80.6359 21.9232V23.8206C80.6341 24.005 80.6689 24.188 80.7382 24.3589C80.8075 24.5298 80.91 24.6853 81.0398 24.8163C81.1696 24.9474 81.324 25.0514 81.4942 25.1224C81.6645 25.1934 81.8471 25.2299 82.0315 25.2299Z" fill="white"/>
<path d="M10.69 33.0188C13.2064 33.0182 15.642 32.1298 17.5678 30.5101C19.4937 28.8905 20.7865 26.6433 21.2185 24.1643C22.0366 24.814 23.164 25.2299 24.7177 25.2299H41.9043C42.8879 25.2297 43.8582 25.0033 44.7403 24.5682C45.6225 24.1331 46.3927 23.5009 46.9915 22.7206C47.7615 24.1368 49.1673 25.2299 51.6834 25.2299H72.1939C73.0387 25.2299 73.8753 25.0634 74.6558 24.74C75.4363 24.4166 76.1454 23.9426 76.7426 23.345C77.3399 22.7474 77.8135 22.0381 78.1365 21.2574C78.4595 20.4767 78.6255 19.6401 78.6251 18.7952V1.41618C78.6251 1.04118 78.4763 0.68149 78.2115 0.416005C77.9467 0.15052 77.5873 0.00091436 77.2123 4.17187e-06H75.2771C74.9012 3.06995e-06 74.5407 0.149097 74.2745 0.414582C74.0084 0.680068 73.8584 1.04027 73.8575 1.41618V18.8227C73.8575 19.2548 73.6859 19.6693 73.3803 19.9748C73.0748 20.2804 72.6604 20.452 72.2282 20.452H54.7323H51.7178C48.8167 20.452 48.3699 18.3037 48.3424 14.478V7.78552C48.3419 7.59909 48.3047 7.41458 48.233 7.24252C48.1612 7.07045 48.0563 6.91421 47.9241 6.78271C47.792 6.6512 47.6352 6.54701 47.4628 6.47609C47.2904 6.40516 47.1057 6.36889 46.9193 6.36934H44.9875C44.6116 6.36934 44.2511 6.51844 43.9849 6.78392C43.7188 7.04941 43.5688 7.40961 43.5679 7.78552V18.8227C43.5679 19.037 43.5257 19.2491 43.4436 19.447C43.3615 19.6449 43.2412 19.8247 43.0895 19.976C42.9379 20.1274 42.7578 20.2473 42.5598 20.329C42.3617 20.4107 42.1495 20.4525 41.9352 20.452H38.0751L24.7486 20.4658C21.9679 20.4658 21.442 18.4927 21.3766 14.9661V1.41618C21.3766 1.22991 21.3399 1.04548 21.2685 0.873436C21.1971 0.701393 21.0925 0.545123 20.9606 0.413574C20.8288 0.282025 20.6723 0.177783 20.5 0.106816C20.3278 0.0358488 20.1433 -0.000447925 19.957 4.17187e-06H18.0218C17.6465 0.000911826 17.2868 0.150407 17.0214 0.415794C16.7561 0.681181 16.6066 1.04086 16.6057 1.41618V22.3425C16.6047 23.9112 15.9812 25.4153 14.872 26.5245C13.7628 27.6337 12.2587 28.2572 10.69 28.2581C9.1214 28.2572 7.61727 27.6337 6.50808 26.5245C5.39888 25.4153 4.77534 23.9112 4.77443 22.3425V15.4679C4.77488 15.2814 4.73847 15.0965 4.66729 14.9241C4.59611 14.7517 4.49156 14.595 4.35964 14.4631C4.22773 14.3312 4.07105 14.2266 3.89861 14.1554C3.72617 14.0843 3.54137 14.0478 3.35482 14.0483H1.41961C1.04339 14.0492 0.682829 14.1991 0.416797 14.4651C0.150765 14.7311 0.000907664 15.0917 0 15.4679L0 22.3425C0.00364347 25.1753 1.13152 27.8908 3.1359 29.8926C5.14027 31.8944 7.85725 33.0188 10.69 33.0188Z" fill="white"/>
<path d="M43.2654 32.6064C44.619 32.6064 45.7162 31.5091 45.7162 30.1555C45.7162 28.802 44.619 27.7047 43.2654 27.7047C41.9119 27.7047 40.8146 28.802 40.8146 30.1555C40.8146 31.5091 41.9119 32.6064 43.2654 32.6064Z" fill="white"/>
<path d="M49.0126 32.6064C50.3662 32.6064 51.4634 31.5091 51.4634 30.1555C51.4634 28.802 50.3662 27.7047 49.0126 27.7047C47.6591 27.7047 46.5618 28.802 46.5618 30.1555C46.5618 31.5091 47.6591 32.6064 49.0126 32.6064Z" fill="white"/>
<path d="M14.8114 65.6527V67.0276C14.8114 67.2139 14.8481 67.3983 14.9195 67.5703C14.9909 67.7424 15.0955 67.8987 15.2274 68.0302C15.3593 68.1618 15.5158 68.266 15.688 68.337C15.8602 68.4079 16.0447 68.4442 16.231 68.4438H18.2178C18.4047 68.4456 18.5902 68.4103 18.7634 68.3399C18.9366 68.2695 19.0941 68.1654 19.2268 68.0337C19.3595 67.902 19.4647 67.7452 19.5364 67.5725C19.608 67.3998 19.6447 67.2146 19.6442 67.0276V44.6541C19.6447 44.467 19.6081 44.2816 19.5365 44.1087C19.4648 43.9359 19.3597 43.7789 19.227 43.6469C19.0944 43.5149 18.9369 43.4105 18.7637 43.3397C18.5904 43.2689 18.4049 43.2332 18.2178 43.2345H16.231C15.8545 43.2345 15.4934 43.3841 15.2272 43.6503C14.9609 43.9166 14.8114 44.2776 14.8114 44.6541V52.1887C13.519 50.4185 11.1335 49.2636 8.64828 49.2636C3.81198 49.2636 0 53.0446 0 58.9327C0 64.8209 3.81198 68.7463 8.6139 68.7463C11.5769 68.7463 13.6874 67.3713 14.8114 65.6527ZM4.86723 58.9327C4.86723 55.3579 7.27335 53.4502 9.84103 53.4502C12.4603 53.4502 14.8458 55.4232 14.8458 58.998C14.8458 62.5729 12.4603 64.5493 9.84103 64.5493C7.2871 64.5493 4.86723 62.5075 4.86723 58.9327Z" fill="white"/>
<path d="M37.8586 68.4301H39.8213C40.1963 68.4328 40.5571 68.2867 40.8245 68.0238C41.0919 67.7609 41.2441 67.4026 41.2478 67.0276V50.9857C41.2478 50.7994 41.211 50.615 41.1396 50.443C41.0682 50.2709 40.9636 50.1146 40.8317 49.9831C40.6999 49.8515 40.5434 49.7473 40.3711 49.6763C40.1989 49.6054 40.0144 49.5691 39.8281 49.5695H37.8654C37.6792 49.5691 37.4947 49.6054 37.3224 49.6763C37.1502 49.7473 36.9937 49.8515 36.8618 49.9831C36.73 50.1146 36.6253 50.2709 36.554 50.443C36.4826 50.615 36.4458 50.7994 36.4458 50.9857V52.2472C35.3253 50.6832 33.2457 49.2533 30.2174 49.2533C25.4052 49.2533 21.6035 53.0343 21.6035 58.9224C21.6035 64.8106 25.4086 68.7463 30.1762 68.7463C33.1735 68.7463 35.3321 67.3164 36.439 65.6836V67.0276C36.4426 67.4014 36.5939 67.7586 36.8598 68.0214C37.1257 68.2841 37.4847 68.431 37.8586 68.4301ZM31.4342 64.5493C28.8734 64.5493 26.4673 62.5076 26.4673 58.9328C26.4673 55.358 28.8734 53.4502 31.4377 53.4502C34.0603 53.4502 36.4424 55.4233 36.4424 58.9981C36.4424 62.5729 34.0569 64.5493 31.4342 64.5493Z" fill="white"/>
<path d="M47.16 43.2346H45.2316C44.4476 43.2346 43.812 43.8701 43.812 44.6542V67.0105C43.812 67.7945 44.4476 68.4301 45.2316 68.4301H47.16C47.944 68.4301 48.5796 67.7945 48.5796 67.0105V44.6542C48.5796 43.8701 47.944 43.2346 47.16 43.2346Z" fill="white"/>
<path d="M59.9983 68.7463C63.6281 68.7463 66.3298 67.0792 67.8319 64.7006C67.9676 64.4856 68.0433 64.2381 68.051 63.984C68.0587 63.7299 67.9982 63.4783 67.8757 63.2555C67.7532 63.0327 67.5733 62.8467 67.3546 62.717C67.136 62.5873 66.8865 62.5185 66.6323 62.5179H64.484C64.2567 62.5173 64.0327 62.5717 63.8309 62.6764C63.6292 62.7812 63.4559 62.9332 63.3256 63.1194C62.6622 64.0887 61.6069 64.7968 59.8883 64.7968C57.5062 64.7968 55.5985 63.2328 55.3613 60.4417H67.8594C68.2246 60.443 68.5761 60.3032 68.8406 60.0515C69.1051 59.7998 69.2622 59.4556 69.279 59.0909C69.279 58.9293 69.279 58.7643 69.279 58.6028C69.279 52.9828 65.4327 49.2739 59.9983 49.2739C54.4126 49.2739 50.5319 53.0549 50.5319 59.0084C50.5319 64.9618 54.5158 68.7463 59.9983 68.7463ZM59.8608 53.189C62.3116 53.189 64.288 54.753 64.3568 57.2382H55.3992C55.7773 54.6533 57.5784 53.1787 59.8608 53.1787V53.189Z" fill="white"/>
<path d="M88.3389 64.6903C88.4746 64.4753 88.5503 64.2278 88.558 63.9737C88.5657 63.7196 88.5052 63.468 88.3827 63.2452C88.2602 63.0224 88.0803 62.8364 87.8617 62.7067C87.643 62.577 87.3935 62.5082 87.1393 62.5076H84.991C84.7637 62.507 84.5397 62.5614 84.338 62.6661C84.1363 62.7709 83.9629 62.9229 83.8326 63.1091C83.1726 64.0784 82.114 64.7865 80.3953 64.7865C78.0132 64.7865 76.1055 63.2225 75.8684 60.4314H88.3699C88.7349 60.4335 89.0865 60.2939 89.3507 60.0419C89.6148 59.79 89.7709 59.4453 89.786 59.0806C89.786 58.919 89.786 58.754 89.786 58.5925C89.786 52.9725 85.9397 49.2636 80.5053 49.2636C74.9231 49.2636 71.0389 53.0447 71.0389 58.9981C71.0389 64.9515 75.0056 68.7463 80.4881 68.7463C84.1179 68.7463 86.8196 67.0689 88.3389 64.6903ZM80.3712 53.1787C82.822 53.1787 84.7951 54.7427 84.8638 57.2279H75.8924C76.2671 54.6533 78.0717 53.1787 80.3541 53.1787H80.3712Z" fill="white"/>
<path d="M95.0795 43.2346H93.1512C92.3671 43.2346 91.7316 43.8701 91.7316 44.6542V67.0105C91.7316 67.7945 92.3671 68.4301 93.1512 68.4301H95.0795C95.8635 68.4301 96.4991 67.7945 96.4991 67.0105V44.6542C96.4991 43.8701 95.8635 43.2346 95.0795 43.2346Z" fill="white"/>
</svg>
