<svg width="30" height="30" viewBox="0 0 30 30" fill="none" xmlns="http://www.w3.org/2000/svg">
    <path d="M12 24C18.6274 24 24 18.6274 24 12C24 5.37258 18.6274 0 12 0C5.37258 0 0 5.37258 0 12C0 18.6274 5.37258 24 12 24Z"
          fill="#E20000"/>
    <path d="M0 11.9999C0 17.1595 3.03044 21.5044 7.6 23.2L9.2 22.2L6.8 21.2L9.2 20.2L6.8 19.2L9.2 18L6.8 16.8L9.2 15.8L6.8 14.8L9.2 13.8L6.8 12.8L9.2 11.8L6.8 10.8L9.2 9.79995L6.8 8.79995L9.2 7.79995L6.8 6.79995L9.2 5.79995L6.8 4.79995L9.2 3.79995L6.8 2.79995L9.2 1.77314L7.6 0.746338C3.03044 2.44185 0 6.84037 0 11.9999Z"
          fill="#F9F9F9"/>
</svg>
