<svg width="218" height="210" viewBox="0 0 218 210" fill="none" xmlns="http://www.w3.org/2000/svg">
<path d="M207.577 106.211C207.577 163.534 161.111 210 103.789 210C46.4659 210 0 163.534 0 106.211C0 48.8887 46.4659 2.42285 103.789 2.42285C161.103 2.42285 207.577 48.8887 207.577 106.211Z" fill="#F39191"/>
<path d="M151.312 197.728H62.0934C58.2968 197.728 55.2163 194.606 55.2163 190.743L63.9167 6.9853C63.9167 3.13049 66.9889 0 70.7854 0H160.012C163.809 0 166.889 3.12216 166.889 6.9853L158.189 190.743C158.189 194.597 155.108 197.728 151.312 197.728Z" fill="#28183A"/>
<path d="M146.358 197.287H57.1395C53.3429 197.287 50.2708 194.173 50.2708 190.335L58.9712 7.38495C58.9712 3.54679 62.0517 0.432983 65.8482 0.432983H155.067C158.863 0.432983 161.944 3.54679 161.944 7.38495L153.243 190.335C153.235 194.181 150.155 197.287 146.358 197.287Z" fill="white"/>
<path d="M146.358 197.67H57.1395C53.1431 197.67 49.8878 194.381 49.8878 190.343L58.5882 7.36837C58.5882 3.34704 61.8435 0.0583496 65.8399 0.0583496H155.058C159.055 0.0583496 162.31 3.347 162.31 7.38498L153.61 190.36C153.61 194.381 150.354 197.67 146.358 197.67ZM65.8399 0.807686C62.2598 0.807686 59.3458 3.75496 59.3458 7.38498L50.6454 190.36C50.6454 193.965 53.5594 196.92 57.1395 196.92H146.358C149.938 196.92 152.852 193.973 152.852 190.343L161.553 7.36837C161.553 3.76333 158.639 0.807686 155.058 0.807686H65.8399Z" fill="#28183A"/>
<path d="M91.5414 0.0416591L93.6894 3.24705C94.9966 5.19527 97.1863 6.36086 99.5341 6.36086H121.256C123.546 6.36086 125.702 5.24523 127.017 3.36362L129.349 0.0333252H91.5414V0.0416591Z" fill="#28183A"/>
<path d="M141.438 23.7451L122.022 47.8647C121.073 49.0387 121.697 50.8121 123.179 51.1368L151.287 57.2395C152.777 57.5642 154.076 56.1905 153.668 54.7168L145.367 24.5776C144.893 22.7959 142.595 22.313 141.438 23.7451Z" fill="#E1C2FF"/>
<path d="M52.8351 144.427C119.208 120.282 130.606 52.0858 130.606 52.0858L144.393 54.6918C144.393 54.6918 127.267 138.407 52.1608 158.738L52.8351 144.427C52.8268 144.435 52.8351 144.435 52.8351 144.427Z" fill="#E1C2FF"/>
<path d="M124.694 21.8468H70.9352C70.5855 21.8468 70.3108 21.5637 70.3108 21.2223C70.3108 20.881 70.5939 20.5979 70.9352 20.5979H124.694C125.044 20.5979 125.319 20.881 125.319 21.2223C125.319 21.5637 125.044 21.8468 124.694 21.8468Z" fill="#F39468"/>
<path d="M114.079 41.3789H85.8966C85.547 41.3789 85.2722 41.0958 85.2722 40.7544C85.2722 40.4131 85.5553 40.13 85.8966 40.13H114.079C114.429 40.13 114.704 40.4131 114.704 40.7544C114.704 41.0958 114.421 41.3789 114.079 41.3789Z" fill="#F39468"/>
<path d="M102.964 31.1215H70.2027C69.853 31.1215 69.5782 30.8385 69.5782 30.4971C69.5782 30.1474 69.8613 29.8727 70.2027 29.8727H102.964C103.314 29.8727 103.589 30.1558 103.589 30.4971C103.597 30.8468 103.314 31.1215 102.964 31.1215Z" fill="#F39468"/>
<path d="M120.906 31.1215H109.475C109.125 31.1215 108.851 30.8385 108.851 30.4971C108.851 30.1474 109.134 29.8727 109.475 29.8727H120.906C121.256 29.8727 121.531 30.1558 121.531 30.4971C121.531 30.8468 121.248 31.1215 120.906 31.1215Z" fill="#F39468"/>
<path d="M25.6933 183.749L24.1697 194.456H20.8727L20.6896 183.924L25.6933 183.749Z" fill="white"/>
<path d="M24.1696 194.83H20.8726C20.6644 194.83 20.4979 194.664 20.4979 194.464L20.3148 183.932C20.3064 183.724 20.4729 183.557 20.6811 183.549L25.6849 183.374C25.7931 183.366 25.9013 183.416 25.9762 183.499C26.0512 183.582 26.0845 183.691 26.0678 183.807L24.5442 194.514C24.5193 194.689 24.3611 194.83 24.1696 194.83ZM21.2389 194.081H23.8365L25.2519 184.14L21.0641 184.29L21.2389 194.081Z" fill="#28183A"/>
<path d="M24.3029 204.688C22.7293 204.855 20.14 204.971 17.1344 204.447C16.1437 204.28 15.5193 203.289 15.794 202.332C16.5517 199.643 18.1752 194.556 20.2233 192.241L20.6729 193.548L21.4722 192.208C21.5721 192.041 21.7386 191.933 21.9301 191.917L23.3288 191.925C23.6368 191.9 23.9199 192.108 23.9699 192.416L24.1697 193.548L25.2104 192.141L25.7932 202.848C25.8848 203.772 25.2187 204.588 24.3029 204.688Z" fill="white"/>
<path d="M21.6054 205.204C20.2816 205.204 18.7413 205.104 17.0678 204.821C16.4933 204.721 15.9855 204.38 15.6691 203.889C15.3611 203.398 15.2695 202.79 15.4277 202.232C16.2186 199.418 17.8588 194.348 19.9319 191.991C20.0235 191.892 20.1567 191.842 20.2899 191.875C20.4231 191.9 20.5313 191.991 20.573 192.125L20.7562 192.666L21.1391 192.025C21.2973 191.758 21.5804 191.583 21.8885 191.558C21.8968 191.558 21.9134 191.558 21.9217 191.558L23.3038 191.567C23.8034 191.525 24.2446 191.883 24.3362 192.374L24.3862 192.641L24.9107 191.933C25.0023 191.808 25.1688 191.75 25.3187 191.8C25.4685 191.85 25.5768 191.983 25.5851 192.141L26.1679 202.848C26.2761 203.955 25.4602 204.963 24.3446 205.079C23.6036 205.146 22.6794 205.204 21.6054 205.204ZM20.0901 193.007C18.3 195.422 16.8764 199.876 16.1603 202.432C16.0604 202.79 16.1104 203.165 16.3102 203.481C16.51 203.797 16.8347 204.014 17.2011 204.072C20.14 204.58 22.6627 204.48 24.2613 204.305C24.969 204.23 25.4852 203.589 25.4186 202.873L24.894 193.19L24.4694 193.756C24.3778 193.881 24.228 193.931 24.0781 193.898C23.9366 193.865 23.82 193.748 23.795 193.598L23.5952 192.474C23.5786 192.358 23.4787 192.283 23.3538 192.291C23.3371 192.291 23.3288 192.291 23.3121 192.291L21.9384 192.283C21.8718 192.291 21.8135 192.333 21.7802 192.391L20.9809 193.731C20.906 193.856 20.7645 193.923 20.6146 193.915C20.4731 193.898 20.3482 193.798 20.2982 193.665L20.0901 193.007Z" fill="#28183A"/>
<path d="M20.5563 203.381C19.3823 203.381 18.0752 203.265 16.7764 202.923C16.5766 202.873 16.4517 202.665 16.51 202.465C16.5599 202.265 16.7681 202.141 16.9679 202.199C20.5979 203.156 24.4528 202.207 24.4944 202.199C24.6942 202.149 24.9023 202.274 24.9523 202.474C25.0022 202.673 24.8773 202.882 24.6775 202.931C24.5693 202.956 22.8209 203.381 20.5563 203.381Z" fill="#28183A"/>
<path d="M22.7626 199.193H19.2242C19.016 199.193 18.8495 199.027 18.8495 198.819C18.8495 198.61 19.016 198.444 19.2242 198.444H22.7626C22.9707 198.444 23.1373 198.61 23.1373 198.819C23.1373 199.027 22.9707 199.193 22.7626 199.193Z" fill="#28183A"/>
<path d="M53.6676 184.706L55.033 197.178L60.2782 198.277L59.9619 183.649L53.6676 184.706Z" fill="white"/>
<path d="M60.2784 198.66C60.2534 198.66 60.2284 198.66 60.2034 198.652L54.9582 197.553C54.8 197.52 54.6835 197.387 54.6585 197.228L53.2847 184.748C53.2597 184.548 53.4013 184.365 53.5928 184.34L59.8871 183.283C59.9953 183.266 60.1035 183.291 60.1868 183.366C60.27 183.433 60.32 183.541 60.32 183.649L60.6364 198.286C60.6364 198.402 60.5864 198.511 60.5032 198.585C60.4532 198.627 60.3616 198.66 60.2784 198.66ZM55.3828 196.87L59.8954 197.82L59.5956 184.09L54.084 185.015L55.3828 196.87Z" fill="#28183A"/>
<path d="M52.7268 202.315C52.6519 200.367 52.7268 196.887 54.034 194.98L58.2301 196.479V195.58C58.2301 195.288 58.4383 195.055 58.6963 195.039L61.0359 194.905C61.9101 194.855 62.776 195.039 63.5753 195.43C65.9314 196.587 70.8769 199.293 72.259 202.149C72.642 202.94 72.1258 203.881 71.2516 203.989C69.0036 204.264 63.8001 204.622 54.2005 203.839C53.3929 203.772 52.7601 203.123 52.7268 202.315Z" fill="white"/>
<path d="M64.6826 204.688C61.9934 204.688 58.5298 204.572 54.1672 204.214C53.1681 204.13 52.3938 203.323 52.3522 202.324C52.2772 200.359 52.3522 196.762 53.7259 194.764C53.8258 194.622 54.0007 194.564 54.1589 194.622L57.8472 195.938V195.571C57.8472 195.08 58.2052 194.681 58.6714 194.656L61.0109 194.522C61.9434 194.464 62.8842 194.664 63.7418 195.08C66.4476 196.412 71.1933 199.077 72.6004 201.974C72.8335 202.465 72.8252 203.015 72.5587 203.498C72.3006 203.98 71.8427 204.288 71.3015 204.355C70.061 204.513 67.9296 204.688 64.6826 204.688ZM54.1838 195.43C53.0848 197.295 53.0266 200.5 53.1015 202.29C53.1265 202.906 53.6093 203.406 54.2255 203.456C63.7917 204.23 68.962 203.881 71.2016 203.606C71.493 203.572 71.7511 203.398 71.8927 203.131C72.0342 202.865 72.0425 202.565 71.9176 202.299C70.5605 199.51 65.5152 196.787 63.4088 195.755C62.6678 195.388 61.8602 195.222 61.0609 195.272L58.7214 195.405C58.6631 195.405 58.6048 195.48 58.6048 195.571V196.471C58.6048 196.596 58.5465 196.712 58.4466 196.779C58.3467 196.845 58.2218 196.862 58.1053 196.829L54.1838 195.43Z" fill="#28183A"/>
<path d="M61.7103 203.073C59.4873 203.073 56.9563 202.965 54.2504 202.648C54.0423 202.623 53.8924 202.44 53.9174 202.232C53.9424 202.024 54.1255 201.874 54.3337 201.899C63.2422 202.931 70.2358 201.733 70.3024 201.716C70.5022 201.683 70.7021 201.816 70.7354 202.024C70.7687 202.224 70.6355 202.424 70.4273 202.457C70.394 202.474 66.8972 203.073 61.7103 203.073Z" fill="#28183A"/>
<path d="M64.9491 199.676C64.8742 199.676 64.7992 199.651 64.7326 199.601L60.6947 196.695C60.5282 196.571 60.4866 196.337 60.6114 196.171C60.7363 196.004 60.9695 195.963 61.136 196.088L65.1739 198.993C65.3404 199.118 65.382 199.351 65.2572 199.518C65.1822 199.618 65.0657 199.676 64.9491 199.676Z" fill="#28183A"/>
<path d="M55.2995 103.73C55.2995 103.73 63.3921 155.6 61.7936 190.052L53.4346 190.268C53.4346 190.268 43.8933 137.683 39.4223 128.991C39.4223 128.991 27.1335 176.939 26.6673 189.544C26.6673 189.544 21.2556 190.085 19.0992 189.311C17.9419 177.147 17.7255 163.143 17.6672 155.233C17.5007 132.604 19.657 122.322 20.8476 117.451C21.9383 112.972 23.1039 109.334 23.9531 106.869L26.8005 98.7433L55.2995 103.73Z" fill="#68B6B5"/>
<path d="M53.4345 190.651C53.2514 190.651 53.0932 190.518 53.0682 190.343C52.9766 189.835 44.0847 140.988 39.5222 130.115C37.7405 137.158 27.4582 178.154 27.0336 189.56C27.0253 189.752 26.8837 189.902 26.6922 189.918C26.4675 189.943 21.1723 190.46 18.966 189.669C18.8245 189.619 18.7329 189.494 18.7162 189.352C17.8587 180.302 17.3841 169.146 17.2842 155.242C17.126 133.711 19.0243 123.313 20.4729 117.368C21.3388 113.788 22.3879 110.216 23.5868 106.753L26.4341 98.6267C26.4924 98.4519 26.6756 98.352 26.8504 98.377L55.3578 103.364C55.516 103.389 55.6409 103.514 55.6658 103.68C55.7491 104.197 63.7501 155.983 62.1599 190.077C62.1516 190.276 61.9934 190.426 61.7936 190.435L53.4345 190.651ZM39.414 128.616C39.5555 128.616 39.6804 128.691 39.747 128.816C44.0681 137.2 52.8684 185.089 53.7426 189.885L61.4356 189.685C62.8926 156.932 55.5909 108.101 54.9748 104.055L27.042 99.1679L24.3028 106.994C23.1122 110.433 22.0715 113.979 21.2056 117.534C19.7736 123.446 17.8837 133.778 18.0418 155.233C18.1418 168.987 18.5997 180.044 19.4489 189.028C21.3139 189.569 25.1603 189.294 26.301 189.194C26.9587 176.206 38.9311 129.374 39.056 128.891C39.0976 128.741 39.2225 128.624 39.3807 128.608C39.389 128.616 39.3973 128.616 39.414 128.616Z" fill="#28183A"/>
<path d="M39.3724 129.532C39.3308 129.532 39.2975 129.523 39.2558 129.515C39.056 129.448 38.9478 129.24 39.0144 129.041C40.1967 125.352 43.5186 124.445 43.6601 124.411C43.8599 124.361 44.0681 124.478 44.1181 124.678C44.168 124.878 44.0515 125.086 43.8517 125.136C43.7184 125.169 40.7794 125.993 39.7304 129.274C39.6804 129.432 39.5306 129.532 39.3724 129.532Z" fill="#28183A"/>
<path d="M76.6635 42.8943C77.7624 35.8091 80.7597 35.8257 80.2269 37.5242C79.6857 39.2226 78.6533 45.0589 78.6533 45.0589L76.6635 42.8943Z" fill="white"/>
<path d="M78.8947 45.8831L76.2638 43.0191L76.2887 42.8442C76.9548 38.5481 78.3452 36.6332 79.4276 36.2835C79.8022 36.1586 80.1602 36.2253 80.3933 36.4584C80.6597 36.7248 80.7347 37.1577 80.5765 37.649C80.052 39.3058 79.0279 45.0838 79.0196 45.1421L78.8947 45.8831ZM77.063 42.7776L78.4201 44.2513C78.7199 42.6111 79.4359 38.7646 79.8689 37.4158C79.9438 37.1744 79.9104 37.0329 79.8771 36.9913C79.8522 36.9663 79.7856 36.9579 79.6773 36.9995C79.0113 37.2077 77.7291 38.673 77.063 42.7776Z" fill="#28183A"/>
<path d="M79.0362 44.0847C79.3526 44.3844 79.9687 45.0921 79.8771 45.9164C79.7855 46.7489 78.4867 49.638 77.8623 50.995C77.6458 51.453 77.5293 51.9525 77.5126 52.4687C77.471 53.8508 77.6291 59.3458 74.3655 59.4707C72.9834 59.5206 72.9667 56.9563 73.1665 53.7592C73.3664 50.5621 72.8252 51.9275 71.7262 48.7138C70.6272 45.5001 71.9094 42.6027 72.5338 42.253C73.1583 41.9033 74.1573 42.8692 74.1573 42.8692C74.1573 42.8692 74.6735 40.8793 75.7975 40.9209C76.3054 40.9376 76.7466 41.6369 77.4959 42.5777C78.1537 43.3937 78.953 44.0098 79.0362 44.0847Z" fill="white"/>
<path d="M74.3238 59.8369C73.9741 59.8369 73.666 59.7038 73.4246 59.454C72.642 58.6547 72.6087 56.6649 72.7919 53.7259C72.9084 51.8942 72.7835 51.6944 72.4255 51.1116C72.1674 50.6953 71.8094 50.1208 71.3682 48.822C70.2359 45.5001 71.493 42.3946 72.3506 41.9117C72.9001 41.6036 73.5412 41.92 73.9741 42.2197C74.2405 41.537 74.815 40.5046 75.8141 40.5296C76.4052 40.5546 76.8298 41.0957 77.4126 41.8534C77.5292 42.0032 77.6541 42.1614 77.7873 42.328C78.3118 42.9857 78.9446 43.5102 79.1777 43.71C79.236 43.76 79.2776 43.7933 79.2943 43.8099C79.6939 44.1929 80.3516 44.9839 80.2434 45.958C80.1518 46.7822 79.0778 49.2383 78.1953 51.1532C78.0038 51.5695 77.8955 52.0191 77.8872 52.477C77.8872 52.5686 77.8872 52.6852 77.8789 52.8101C77.8456 54.7 77.779 59.7204 74.3737 59.8369C74.3571 59.8369 74.3404 59.8369 74.3238 59.8369ZM72.8501 42.5444C72.8002 42.5444 72.7585 42.5527 72.7169 42.5777C72.3339 42.7942 71.0018 45.4335 72.0758 48.5889C72.4921 49.8045 72.8168 50.3373 73.0583 50.7203C73.5078 51.453 73.6577 51.8026 73.5328 53.7758C73.4412 55.2162 73.2498 58.2135 73.9574 58.9295C74.0657 59.0377 74.1823 59.0877 74.3488 59.0793C77.038 58.9794 77.1046 54.4835 77.1295 52.7851C77.1295 52.6519 77.1296 52.5437 77.1379 52.4437C77.1545 51.8859 77.2794 51.3364 77.5209 50.8285C78.7031 48.2725 79.4441 46.4159 79.5024 45.8664C79.5773 45.192 79.0195 44.5842 78.7781 44.3428C78.7614 44.3344 78.7364 44.3095 78.7031 44.2762C78.4534 44.0681 77.779 43.5102 77.2045 42.7942C77.0713 42.6194 76.9381 42.4612 76.8215 42.3113C76.3969 41.7618 76.0306 41.2872 75.7891 41.2789H75.7724C75.1064 41.2789 74.6401 42.5111 74.5236 42.9441L74.3571 43.5685L73.8908 43.1189C73.6078 42.8608 73.1332 42.5444 72.8501 42.5444Z" fill="#28183A"/>
<path d="M76.2304 48.9637C75.6725 48.9637 74.9565 48.6556 74.2572 47.7981C72.8834 46.0913 73.7826 42.786 73.8243 42.6445C73.8826 42.4446 74.0907 42.3281 74.2905 42.3864C74.4903 42.4446 74.6069 42.6528 74.5486 42.8526C74.5403 42.8859 73.7077 45.9248 74.84 47.3319C75.4644 48.1061 76.0972 48.3226 76.4385 48.181C76.6467 48.0978 76.7549 47.8897 76.7383 47.5983C76.6717 46.5992 76.0805 46.0164 76.0805 46.008C75.9306 45.8665 75.9306 45.625 76.0805 45.4752C76.2304 45.3253 76.4635 45.3254 76.6134 45.4669C76.6467 45.5002 77.4126 46.2662 77.4959 47.5483C77.5375 48.1728 77.2378 48.6806 76.7216 48.8804C76.5801 48.9304 76.4135 48.9637 76.2304 48.9637Z" fill="#28183A"/>
<path d="M31.055 60.4699C14.7699 64.7909 10.7236 70.8437 12.6385 85.3971C13.954 95.388 22.596 101.507 22.596 101.507C22.596 101.507 18.0335 113.946 20.9476 115.553C23.8616 117.16 27.8496 118.076 32.2955 116.444C41.1791 113.18 55.0497 109.492 59.1876 112.356L59.6206 91.4832L75.1731 88.794C75.1731 88.794 72.1425 71.5348 60.1118 63.5837C52.527 58.5716 38.5565 58.4717 31.055 60.4699Z" fill="#28183A"/>
<path d="M79.8354 54.8333L71.2683 54.5669C71.2683 54.5669 68.9454 75.4645 65.9897 78.5783C63.0341 81.6921 57.2727 85.6802 57.2727 85.6802C57.2727 85.6802 58.9545 97.2113 69.4616 96.5536C86.2046 95.4962 79.8354 54.8333 79.8354 54.8333Z" fill="#28183A"/>
<path d="M36.6415 99.9838C36.5499 99.9838 36.4583 99.9505 36.3834 99.8839C29.0151 92.9235 25.6598 82.5746 25.6265 82.4747C25.5599 82.2749 25.6765 82.0668 25.868 82.0002C26.0678 81.9336 26.2759 82.0501 26.3425 82.2416C26.3758 82.3415 29.6812 92.5156 36.8996 99.3343C37.0494 99.4759 37.0578 99.7173 36.9162 99.8672C36.8413 99.9504 36.7414 99.9838 36.6415 99.9838Z" fill="white"/>
<path d="M32.7534 107.252C32.7118 107.252 32.6785 107.244 32.6368 107.235C25.3601 104.946 21.4887 101.624 21.3305 101.491C21.1723 101.357 21.1557 101.116 21.2972 100.958C21.4304 100.8 21.6719 100.783 21.8301 100.925C21.8717 100.958 25.7515 104.288 32.87 106.519C33.0698 106.578 33.178 106.794 33.1114 106.994C33.0615 107.152 32.9116 107.252 32.7534 107.252Z" fill="white"/>
<path d="M78.1538 116.727L75.1315 121.622C74.2157 123.104 71.5764 123.529 67.4219 122.538C59.1128 120.557 47.8065 113.68 41.9368 107.052C41.8369 106.944 41.7453 106.836 41.6537 106.728C38.7147 103.314 37.8322 100.65 38.773 99.1179L41.7953 94.2224C40.8461 95.7543 41.737 98.4185 44.676 101.832C44.7676 101.94 44.8674 102.049 44.959 102.157C50.8287 108.776 62.1267 115.661 70.4441 117.643C74.5987 118.633 77.2379 118.209 78.1538 116.727Z" fill="#F39468"/>
<path d="M71.3599 123.446C70.2109 123.446 68.8538 123.262 67.3385 122.904C58.9212 120.898 47.6399 114.046 41.662 107.31C41.5621 107.202 41.4705 107.094 41.3706 106.977C38.4066 103.539 37.3742 100.675 38.4566 98.9263L41.4788 94.0391C41.587 93.8643 41.8201 93.806 41.995 93.9142C42.1698 94.0225 42.2281 94.2556 42.1199 94.4304C41.2374 95.8625 42.2697 98.4684 44.9589 101.599C45.0505 101.707 45.1421 101.815 45.242 101.924C51.0368 108.459 62.3764 115.345 70.5273 117.285C74.3155 118.184 76.9714 117.917 77.829 116.535C77.9372 116.36 78.1703 116.302 78.3452 116.41C78.52 116.519 78.5783 116.752 78.47 116.927L75.4395 121.822C74.7818 122.896 73.3747 123.446 71.3599 123.446ZM41.0875 96.0872L39.0893 99.3176C38.2068 100.75 39.2475 103.356 41.9368 106.486C42.0283 106.594 42.1199 106.703 42.2198 106.811C48.0145 113.346 59.3542 120.232 67.505 122.18C71.2933 123.079 73.9575 122.813 74.8067 121.431L76.8049 118.2C75.3312 118.733 73.1332 118.675 70.3608 118.017C61.9435 116.011 50.6621 109.159 44.6842 102.423C44.5843 102.315 44.4927 102.207 44.3928 102.09C42.403 99.7672 41.279 97.7191 41.0875 96.0872Z" fill="#28183A"/>
<path d="M74.9898 108.792C75.0897 108.901 75.1813 109.009 75.2729 109.117C81.0593 115.836 78.8946 119.657 70.444 117.643C62.1349 115.661 50.8285 108.784 44.9589 102.165C44.859 102.057 44.7674 101.949 44.6759 101.84C38.8978 95.1215 41.0542 91.3 49.5048 93.3148C57.8139 95.288 69.1202 102.165 74.9898 108.792Z" fill="white"/>
<path d="M74.3821 118.55C73.2331 118.55 71.876 118.375 70.3524 118.009C61.9351 116.002 50.6537 109.15 44.6758 102.415C44.5759 102.307 44.4843 102.19 44.3844 102.082C41.4371 98.6516 40.3964 95.7959 41.4621 94.0392C42.5028 92.3324 45.3835 91.9411 49.588 92.9401C58.0053 94.9467 69.2867 101.79 75.2646 108.534C75.3645 108.643 75.4561 108.759 75.556 108.867C78.5116 112.297 79.544 115.153 78.4783 116.91C77.8206 118.001 76.4052 118.55 74.3821 118.55ZM45.55 93.1483C43.8266 93.1483 42.6277 93.5813 42.1115 94.4305C41.2373 95.8625 42.278 98.4684 44.9589 101.591C45.0505 101.699 45.1421 101.807 45.242 101.915C51.0284 108.443 62.3763 115.336 70.5272 117.276C74.3238 118.184 76.988 117.901 77.8289 116.519C78.7031 115.087 77.6624 112.481 74.9815 109.359C74.8899 109.25 74.7983 109.142 74.6984 109.034C68.912 102.506 57.5641 95.6127 49.4132 93.6728C47.9479 93.3231 46.6407 93.1483 45.55 93.1483Z" fill="#28183A"/>
<path d="M72.001 109.925L72.1592 111.074L69.7863 110.025C69.8113 110.774 69.5116 111.132 69.1286 111.323L66.0314 109.642C66.2895 109.467 66.8307 109.2 66.7141 108.36C66.6642 108.01 66.4727 107.702 66.2063 107.435C65.8899 107.119 65.4736 106.869 65.0657 106.686C64.1748 106.295 63.6669 106.453 62.9426 107.061C62.0018 107.952 60.5948 107.86 58.1636 106.786C56.5734 106.087 55.0915 105.129 54.0591 104.097C53.5345 103.572 53.1265 103.031 52.8768 102.498L50.121 101.283L49.9628 100.134L52.5271 101.266C52.5021 100.517 52.8768 99.9755 53.4096 99.7924L56.615 101.541C56.0655 101.757 55.591 102.198 55.6992 102.956C55.7492 103.306 55.949 103.664 56.282 103.997C56.5901 104.305 57.0064 104.588 57.5225 104.813C58.5466 105.262 59.1461 105.179 59.6956 104.613C60.4948 103.789 61.727 103.531 64.3413 104.688C65.9149 105.379 67.3053 106.295 68.2794 107.261C68.7789 107.76 69.1702 108.268 69.42 108.776L72.001 109.925Z" fill="#F39468"/>
<path d="M38.7896 108.867C38.7896 108.867 37.316 108.468 34.7766 106.719C32.8534 105.396 36.0255 98.993 37.9154 101.782C39.489 104.113 40.6713 104.788 40.6713 104.788L47.9063 104.663C48.6473 104.646 49.2634 105.237 49.2884 105.978C49.3133 106.736 48.7139 107.369 47.9563 107.385L44.7259 107.452C44.2763 107.46 43.9932 107.935 44.2014 108.334C44.5177 108.951 44.9507 109.508 45.4669 109.975C46.4077 110.816 48.0728 112.231 49.8962 113.43C50.7537 113.988 50.6205 115.22 49.5964 115.303L43.2522 113.372C41.6453 112.88 40.3049 111.765 39.5306 110.274L38.7896 108.867Z" fill="white"/>
<path d="M49.5881 115.678C49.5548 115.678 49.5132 115.669 49.4799 115.661L43.1357 113.73C41.4372 113.213 39.9969 112.014 39.1893 110.441L38.5316 109.175C38.0737 109.026 36.6832 108.484 34.5602 107.027C33.8858 106.561 33.6444 105.579 33.9025 104.338C34.2272 102.756 35.3095 100.975 36.55 100.733C36.9996 100.642 37.649 100.716 38.2235 101.566C39.5057 103.456 40.4965 104.213 40.7795 104.405L47.898 104.288C48.8472 104.272 49.6298 105.029 49.6631 105.97C49.6797 106.436 49.5132 106.886 49.1885 107.227C48.8638 107.569 48.4309 107.76 47.9646 107.768L44.7343 107.835C44.6177 107.835 44.5594 107.91 44.5427 107.952C44.5261 107.985 44.4845 108.076 44.5344 108.176C44.8342 108.759 45.2338 109.275 45.7167 109.708C46.5659 110.466 48.256 111.923 50.096 113.13C50.6622 113.505 50.9369 114.154 50.787 114.754C50.6538 115.286 50.2043 115.644 49.6215 115.686C49.6048 115.678 49.5964 115.678 49.5881 115.678ZM36.8331 101.457C36.7749 101.457 36.7249 101.466 36.6916 101.474C35.9006 101.632 34.9349 103.048 34.6351 104.496C34.4436 105.412 34.5768 106.128 34.9848 106.411C37.4326 108.093 38.8729 108.501 38.8896 108.509C38.9895 108.534 39.0728 108.609 39.1227 108.701L39.8471 110.108C40.5714 111.498 41.8452 112.564 43.3438 113.022L49.6131 114.928C49.8379 114.895 49.9961 114.762 50.0461 114.562C50.1044 114.321 50.0128 113.979 49.6714 113.755C47.8897 112.581 46.2579 111.207 45.2005 110.266C44.651 109.775 44.1931 109.184 43.8517 108.518C43.6935 108.218 43.7102 107.86 43.885 107.56C44.0599 107.269 44.3679 107.086 44.7093 107.077L47.9396 107.011C48.2061 107.002 48.4559 106.894 48.639 106.703C48.8222 106.511 48.9138 106.253 48.9055 105.987C48.8888 105.454 48.4392 105.013 47.9064 105.029L40.6713 105.154C40.6047 105.154 40.5381 105.137 40.4798 105.104C40.4299 105.071 39.206 104.355 37.5991 101.982C37.291 101.532 37.008 101.457 36.8331 101.457Z" fill="#28183A"/>
<path d="M49.0386 52.3023C49.2884 52.7353 48.7722 53.5678 48.7722 53.5678C48.7639 53.5678 49.022 51.1201 50.3791 50.504C51.17 50.146 51.578 50.7454 52.7519 50.5789C54.0008 50.404 55.3745 49.4799 55.8907 48.1311C56.5151 46.4993 55.616 44.9341 55.0498 43.9516C54.492 42.9775 53.7677 41.8869 52.5271 41.4123C50.9036 40.7962 50.2292 41.737 48.3809 41.1625C46.874 40.6962 46.9822 39.9636 45.6417 39.5806C44.5261 39.2642 41.3041 39.4474 40.5797 41.1625C40.1218 42.2532 41.1126 42.9109 40.6213 44.5261C40.3299 45.4919 39.8637 45.6168 39.5223 46.3578C38.6814 48.2144 39.7388 51.4697 41.737 52.5604C44.4511 54.0507 48.4558 51.2866 49.0386 52.3023Z" fill="#28183A"/>
<path d="M47.873 53.6177L48.5058 58.8213C48.6307 59.8121 49.3384 60.628 50.3042 60.8777L52.1275 61.4606C52.4855 61.5771 52.5521 62.0517 52.244 62.2598C47.6316 65.2821 41.2791 65.2321 36.8664 61.8768L36.3502 61.4856C36.0089 61.2275 36.1254 60.6779 36.5417 60.5864L38.798 60.0785C39.7555 59.862 40.4881 59.0961 40.6546 58.1386L42.0367 50.4706L47.873 53.6177Z" fill="white"/>
<path d="M44.7675 64.8408C41.8535 64.8408 38.9728 63.95 36.6333 62.1766L36.1171 61.7853C35.8423 61.5771 35.7175 61.2358 35.7924 60.8944C35.8673 60.5531 36.1254 60.295 36.4585 60.22L38.7147 59.7122C39.5223 59.529 40.1384 58.8879 40.2883 58.072L41.6704 50.404C41.6954 50.2875 41.7703 50.1875 41.8785 50.1293C41.9868 50.0793 42.1116 50.0793 42.2199 50.1376L48.0562 53.2764C48.1644 53.3347 48.2394 53.4429 48.2477 53.5595L48.8804 58.763C48.9804 59.6039 49.5798 60.2867 50.4041 60.5031L52.244 61.0942C52.5521 61.1941 52.7686 61.4522 52.8102 61.7686C52.8518 62.085 52.7186 62.3847 52.4522 62.5596C50.1376 64.0915 47.4401 64.8408 44.7675 64.8408ZM42.3198 51.0534L41.0293 58.2052C40.8295 59.3209 39.9886 60.2034 38.8812 60.4448L36.625 60.9527C36.5501 60.9694 36.5334 61.0193 36.5251 61.0526C36.5168 61.0859 36.5168 61.1442 36.575 61.1859L37.0912 61.5771C41.3207 64.7909 47.4651 64.9407 52.0359 61.9435C52.0442 61.9351 52.0692 61.9185 52.0609 61.8769C52.0609 61.8519 52.0442 61.8269 52.0109 61.8186L50.1876 61.2358C49.0886 60.9527 48.2726 60.0202 48.1311 58.8629L47.5233 53.8509L42.3198 51.0534Z" fill="#28183A"/>
<path d="M42.711 51.5364C42.711 51.5364 40.6628 50.7621 41.4288 49.0637C42.2031 47.3652 43.452 48.6224 43.452 48.6224C43.452 48.6224 44.6176 44.4429 47.0654 46.0914C49.5131 47.7399 51.836 48.3393 51.836 48.3393C51.836 48.3393 50.9701 52.5438 49.4216 55.3496C48.4891 57.0397 47.3068 58.2137 45.9081 57.6475C42.0866 56.0823 42.711 51.5364 42.711 51.5364Z" fill="white"/>
<path d="M46.6074 58.1553C46.2993 58.1553 46.0163 58.0886 45.7665 57.9887C42.2946 56.5734 42.253 52.8268 42.3113 51.7694C41.9449 51.5779 41.2955 51.1616 41.0125 50.4872C40.8126 49.996 40.8293 49.4632 41.0791 48.9137C41.3705 48.2809 41.7618 47.9146 42.253 47.823C42.636 47.7564 42.994 47.873 43.2521 48.0229C43.5435 47.2569 44.2096 45.8581 45.3086 45.4502C45.933 45.2171 46.599 45.3336 47.2651 45.7832C49.6296 47.3735 51.8942 47.9729 51.9192 47.9812C52.1107 48.0311 52.2355 48.2227 52.1939 48.4225C52.1606 48.5973 51.3031 52.7185 49.7462 55.541C48.6139 57.5724 47.5066 58.1553 46.6074 58.1553ZM42.4778 48.5473C42.4445 48.5473 42.4195 48.5473 42.3862 48.5557C42.1531 48.5973 41.945 48.8221 41.7618 49.2134C41.5953 49.5714 41.5786 49.8961 41.7035 50.1875C41.9699 50.8286 42.8275 51.17 42.8358 51.17C43.0023 51.2282 43.1023 51.4031 43.0773 51.5696C43.0523 51.7444 42.5527 55.8574 46.0495 57.2811C47.0569 57.689 48.081 56.973 49.0884 55.1497C50.3456 52.8851 51.1449 49.6297 51.3863 48.589C50.637 48.3559 48.797 47.6981 46.8488 46.391C46.3826 46.0746 45.9663 45.9914 45.5667 46.1412C44.6092 46.4909 43.9681 48.1227 43.8016 48.7139C43.7683 48.8387 43.6601 48.9387 43.5352 48.9803C43.4103 49.0136 43.2688 48.9803 43.1772 48.8804C43.0856 48.7805 42.7775 48.5473 42.4778 48.5473Z" fill="#28183A"/>
<path d="M177.138 189.744V197.578L180.91 197.353L181.651 189.744H177.138Z" fill="white"/>
<path d="M177.138 197.953C177.038 197.953 176.947 197.919 176.88 197.853C176.805 197.786 176.764 197.686 176.764 197.578V189.744C176.764 189.535 176.93 189.369 177.138 189.369H181.643C181.751 189.369 181.851 189.411 181.917 189.494C181.992 189.577 182.026 189.677 182.017 189.785L181.276 197.395C181.26 197.578 181.11 197.72 180.927 197.736L177.163 197.969C177.155 197.953 177.147 197.953 177.138 197.953ZM177.521 190.118V197.178L180.569 196.995L181.243 190.118H177.521Z" fill="#28183A"/>
<path d="M181.476 207.352C179.944 207.519 175.715 207.644 174.507 207.119C173.45 206.653 172.509 204.48 173.05 203.672C174.391 201.641 175.298 198.111 176.089 195.363C176.131 195.205 176.339 195.172 176.431 195.313L177.238 196.529L177.821 195.105C177.913 194.947 178.079 194.839 178.262 194.822L179.586 194.797C179.886 194.772 180.211 195.064 180.394 195.338L181.343 196.529L181.876 195.555C181.967 195.388 182.209 195.438 182.234 195.621L183.341 204.763C183.366 206.22 182.367 207.261 181.476 207.352Z" fill="white"/>
<path d="M178.187 207.877C176.647 207.877 175.074 207.777 174.358 207.469C173.55 207.119 172.909 206.045 172.659 205.196C172.443 204.48 172.476 203.864 172.734 203.464C173.908 201.691 174.74 198.727 175.481 196.121C175.565 195.83 175.648 195.538 175.723 195.255C175.781 195.039 175.964 194.889 176.181 194.855C176.406 194.822 176.614 194.914 176.739 195.105L177.155 195.73L177.471 194.964C177.48 194.947 177.488 194.93 177.496 194.914C177.654 194.656 177.929 194.481 178.229 194.456C178.237 194.456 178.246 194.456 178.254 194.456L179.561 194.431C180.027 194.398 180.46 194.781 180.693 195.13L181.285 195.863L181.543 195.388C181.659 195.172 181.909 195.055 182.15 195.105C182.392 195.155 182.575 195.347 182.608 195.596L183.716 204.738C183.716 204.746 183.716 204.763 183.716 204.771C183.749 206.412 182.608 207.635 181.518 207.752C180.818 207.802 179.519 207.877 178.187 207.877ZM176.339 195.846C176.297 196.004 176.247 196.163 176.206 196.321C175.456 198.985 174.599 201.999 173.358 203.881C173.225 204.08 173.234 204.497 173.375 204.98C173.617 205.787 174.166 206.561 174.649 206.778C175.698 207.236 179.686 207.169 181.426 206.978C182.067 206.911 182.975 206.087 182.958 204.78L181.926 196.238L181.676 196.704C181.618 196.812 181.501 196.887 181.376 196.895C181.251 196.904 181.126 196.854 181.051 196.754L180.102 195.563C180.094 195.555 180.086 195.547 180.077 195.538C179.919 195.297 179.703 195.155 179.619 195.164C179.611 195.164 179.603 195.164 179.594 195.164L178.287 195.188C178.229 195.197 178.187 195.23 178.154 195.272L177.58 196.662C177.53 196.795 177.405 196.879 177.263 196.895C177.122 196.912 176.988 196.845 176.914 196.729L176.339 195.846Z" fill="#28183A"/>
<path d="M178.329 206.128C177.33 206.128 176.181 206.02 174.957 205.696C174.757 205.646 174.632 205.437 174.691 205.238C174.74 205.038 174.949 204.913 175.148 204.971C178.654 205.895 181.601 204.938 181.626 204.93C181.826 204.863 182.034 204.971 182.1 205.171C182.167 205.371 182.059 205.579 181.859 205.646C181.776 205.671 180.377 206.128 178.329 206.128Z" fill="#28183A"/>
<path d="M179.978 202.016H176.539C176.331 202.016 176.164 201.849 176.164 201.641C176.164 201.433 176.331 201.266 176.539 201.266H179.978C180.186 201.266 180.352 201.433 180.352 201.641C180.352 201.849 180.186 202.016 179.978 202.016Z" fill="#28183A"/>
<path d="M204.846 185.597L205.962 195.047L209.492 194.922V185.597H204.846Z" fill="white"/>
<path d="M205.962 195.422C205.771 195.422 205.612 195.28 205.587 195.089L204.472 185.639C204.455 185.531 204.497 185.422 204.563 185.348C204.638 185.264 204.738 185.223 204.846 185.223H209.492C209.7 185.223 209.867 185.389 209.867 185.597V194.922C209.867 195.122 209.709 195.288 209.501 195.297L205.97 195.422H205.962ZM205.271 185.972L206.295 194.656L209.118 194.556V185.964H205.271V185.972Z" fill="#28183A"/>
<path d="M204.805 192.799C204.805 192.799 204.663 196.987 204.805 198.677C204.905 199.884 206.562 203.531 207.494 205.512C207.877 206.328 208.676 206.953 209.467 207.136C210.958 207.477 211.682 207.461 213.056 207.236C214.904 206.936 215.478 205.238 214.937 203.614C214.438 202.115 213.597 200.475 212.215 198.444C211.207 196.979 210.291 192.632 210.291 192.632H207.411L206.595 195.039L204.805 192.799Z" fill="white"/>
<path d="M211.424 207.769C210.824 207.769 210.216 207.685 209.384 207.494C208.451 207.277 207.577 206.561 207.153 205.662C205.962 203.148 204.53 199.893 204.43 198.702C204.288 197.012 204.422 192.949 204.43 192.782C204.438 192.624 204.538 192.491 204.688 192.441C204.838 192.391 205.004 192.441 205.096 192.566L206.462 194.273L207.053 192.516C207.103 192.366 207.244 192.258 207.411 192.258H210.291C210.466 192.258 210.624 192.383 210.658 192.558C210.666 192.599 211.565 196.845 212.514 198.236C213.863 200.201 214.737 201.874 215.287 203.498C215.636 204.522 215.562 205.562 215.095 206.337C214.679 207.019 213.996 207.461 213.114 207.602C212.464 207.71 211.948 207.769 211.424 207.769ZM205.154 193.831C205.121 195.18 205.088 197.503 205.179 198.644C205.246 199.476 206.212 201.924 207.835 205.346C208.16 206.037 208.851 206.603 209.55 206.761C210.982 207.086 211.665 207.069 212.997 206.853C213.655 206.745 214.163 206.428 214.454 205.937C214.812 205.346 214.854 204.547 214.579 203.722C214.055 202.174 213.205 200.559 211.898 198.644C211.007 197.345 210.216 194.015 209.983 192.99H207.677L206.953 195.147C206.911 195.28 206.795 195.372 206.661 195.397C206.528 195.422 206.387 195.372 206.303 195.263L205.154 193.831Z" fill="#28183A"/>
<path d="M211.873 206.029C211.557 206.029 211.299 206.012 211.149 205.987C210.291 205.879 209.5 205.471 208.918 204.83C208.476 204.347 208.143 203.897 207.944 203.481C207.586 202.757 207.219 201.932 206.953 201.333C206.778 200.933 206.595 200.525 206.536 200.425C206.428 200.292 206.42 200.092 206.536 199.951C206.67 199.793 206.903 199.768 207.069 199.901C207.178 199.984 207.211 200.059 207.644 201.042C207.91 201.633 208.268 202.449 208.618 203.165C208.793 203.514 209.076 203.906 209.467 204.339C209.933 204.846 210.558 205.171 211.241 205.254C211.632 205.304 212.656 205.329 213.297 205.079C213.488 205.005 213.705 205.096 213.78 205.296C213.855 205.487 213.763 205.704 213.563 205.779C213.047 205.979 212.389 206.029 211.873 206.029Z" fill="#28183A"/>
<path d="M212.473 202.132H209.326C209.117 202.132 208.951 201.966 208.951 201.757C208.951 201.549 209.117 201.383 209.326 201.383H212.473C212.681 201.383 212.847 201.549 212.847 201.757C212.856 201.966 212.681 202.132 212.473 202.132Z" fill="#28183A"/>
<path d="M171.094 111.373C171.094 111.373 171.468 140.214 172.676 158.997C173.716 175.14 175.631 188.02 176.147 191.309C176.222 191.808 176.622 192.2 177.122 192.266C178.104 192.399 179.811 192.533 181.443 192.225C181.901 192.141 182.259 191.8 182.358 191.342C183.075 188.112 185.988 174.607 185.988 169.454C185.988 163.867 184.989 162.46 184.873 157.906C184.79 154.492 185.93 142.362 186.505 136.475C186.58 135.701 187.654 135.576 187.912 136.309C189.768 141.646 193.723 153.177 197.428 165.008C197.62 165.615 198.56 170.786 198.744 171.385C201.033 178.778 203.198 184.706 203.989 188.178C204.114 188.744 204.572 189.169 205.146 189.261C206.245 189.435 208.085 189.602 209.725 189.086C210.316 188.903 210.708 188.345 210.699 187.729C210.666 183.907 210.524 169.687 210.2 167.306C209.509 162.185 205.512 157.148 204.796 151.703C204.08 146.266 203.664 132.621 201.691 124.428C199.718 116.244 195.838 107.044 195.838 107.044L171.094 111.373Z" fill="#28183A"/>
<path d="M184.215 55.5244C181.975 54.7501 178.945 56.257 178.529 59.7538C178.187 62.6096 180.96 64.0416 182.017 65.8067C185.456 71.5348 182.883 86.2963 188.669 92.0077C193.29 96.5702 203.306 98.2354 210.2 92.8819C216.752 87.7949 219.799 78.8114 215.187 73.2832C211.049 68.3127 206.653 72.2924 202.132 67.5051C197.678 62.7844 199.809 59.4791 196.87 57.2977C192.866 54.3171 190.576 57.7224 184.215 55.5244Z" fill="#28183A"/>
<path d="M197.478 122.18C197.428 122.18 197.378 122.172 197.336 122.155C192.025 119.974 190.493 114.92 190.434 114.704C190.376 114.504 190.493 114.296 190.693 114.237C190.892 114.179 191.101 114.296 191.159 114.495C191.175 114.545 192.657 119.424 197.628 121.464C197.819 121.539 197.911 121.764 197.836 121.955C197.761 122.088 197.62 122.18 197.478 122.18Z" fill="white"/>
<path d="M148.714 51.886L150.179 55.8574C150.654 57.0812 150.521 58.4716 149.805 59.5789L148.498 61.677C148.281 62.0267 148.24 62.4347 148.248 62.8427C148.273 63.7585 148.481 65.1489 148.481 65.1489L145.126 65.3737C145.126 65.3737 145.409 63.5836 145.542 62.9675C145.717 62.1766 145.684 61.3274 145.309 60.6114C144.11 58.3301 144.31 55.9739 144.31 55.9739L146.641 56.4735C146.641 56.4735 147.29 55.2246 147.049 53.1182C146.991 52.602 147.024 52.2024 147.116 51.9026C147.349 51.095 148.473 51.1034 148.714 51.886Z" fill="white"/>
<path d="M145.126 65.74C145.018 65.74 144.918 65.6983 144.851 65.6151C144.776 65.5318 144.735 65.4153 144.76 65.2987C144.768 65.2238 145.043 63.492 145.184 62.8676C145.359 62.0933 145.284 61.344 144.984 60.7695C143.752 58.4217 143.935 56.0238 143.944 55.9239C143.952 55.8157 144.01 55.7158 144.094 55.6575C144.177 55.5909 144.293 55.5659 144.393 55.5909L146.425 56.0238C146.583 55.5743 146.849 54.5668 146.691 53.1431C146.633 52.6186 146.658 52.1607 146.766 51.7777C146.916 51.2615 147.366 50.9285 147.907 50.9202H147.915C148.448 50.9202 148.914 51.2615 149.081 51.7694L150.538 55.7324C151.054 57.0645 150.904 58.5798 150.13 59.787L148.823 61.8768C148.681 62.1099 148.623 62.4097 148.631 62.8343C148.656 63.7168 148.864 65.0822 148.864 65.0989C148.881 65.1988 148.848 65.307 148.789 65.3903C148.723 65.4736 148.623 65.5235 148.523 65.5318L145.168 65.7566C145.143 65.74 145.134 65.74 145.126 65.74ZM144.676 56.4235C144.685 57.1811 144.81 58.8379 145.642 60.4281C146.025 61.1691 146.125 62.0933 145.909 63.0424C145.817 63.4504 145.659 64.3912 145.567 64.9657L148.048 64.7991C147.982 64.3079 147.882 63.4837 147.865 62.851C147.857 62.4846 147.873 61.9518 148.173 61.4772L149.48 59.3791C150.13 58.3717 150.255 57.1062 149.822 55.9905L148.356 52.0192C148.356 52.0108 148.356 52.0108 148.348 52.0025C148.273 51.7611 148.065 51.6778 147.898 51.6778H147.89C147.815 51.6778 147.549 51.7028 147.465 51.9942C147.382 52.2772 147.366 52.6436 147.415 53.0682C147.665 55.2662 146.991 56.59 146.966 56.6399C146.891 56.7898 146.716 56.873 146.558 56.8314L144.676 56.4235Z" fill="#28183A"/>
<path d="M172.393 76.2304C169.47 76.705 160.82 81.0593 155.4 76.0223C149.971 70.9852 149.364 63.9583 149.364 63.9583L144.293 63.7751C144.293 63.7751 141.238 72.2091 145.326 81.6505C149.497 91.2917 167.397 93.8477 167.397 93.8477L172.393 76.2304Z" fill="#68B6B5"/>
<path d="M166.265 78.6699C172.068 74.7651 182.791 74.532 188.237 76.6967C197.903 80.5431 205.046 114.595 202.399 122.155C199.984 129.049 176.572 131.672 169.762 126.218C166.864 123.895 167.039 109.15 167.231 103.256C167.289 101.466 167.272 99.6674 167.189 97.8773L166.265 78.6699Z" fill="#68B6B5"/>
<path d="M170.736 94.9384C170.203 95.5295 171.252 96.3538 171.677 97.0282C171.935 97.4445 171.61 97.7359 171.16 97.5444C169.862 96.9949 165.574 95.1133 164.633 96.2872C164.3 96.7035 164.525 97.5693 165.183 98.3769C166.573 100.075 170.844 102.14 173.25 102.698C174.674 103.023 176.98 104.338 177.23 104.272C178.287 103.989 178.162 102.681 178.387 101.449C178.412 101.324 176.472 100.142 174.432 97.203C173.367 95.6711 171.235 94.3889 170.736 94.9384Z" fill="white"/>
<path d="M177.205 104.655C176.997 104.655 176.689 104.513 175.864 104.138C175.057 103.764 173.941 103.248 173.167 103.073C170.578 102.473 166.315 100.358 164.899 98.6267C164.109 97.661 163.884 96.6286 164.342 96.0624C165.291 94.8802 168.296 95.9292 171.102 97.1198L171.302 97.203C171.319 97.2114 171.335 97.2114 171.344 97.2197C171.244 97.0615 171.102 96.895 170.952 96.7118C170.486 96.1457 169.845 95.3714 170.453 94.697C170.569 94.5721 170.786 94.4222 171.169 94.4472C172.168 94.5138 173.833 95.7044 174.732 96.9949C176.231 99.1596 177.679 100.359 178.296 100.866C178.654 101.166 178.795 101.274 178.745 101.524C178.695 101.774 178.67 102.04 178.637 102.29C178.512 103.306 178.387 104.347 177.313 104.638C177.288 104.646 177.247 104.655 177.205 104.655ZM165.715 96.2705C165.274 96.2705 165.041 96.3788 164.924 96.5204C164.766 96.7202 164.866 97.3945 165.474 98.1355C166.764 99.7174 170.869 101.757 173.333 102.323C174.191 102.523 175.29 103.031 176.181 103.439C176.58 103.622 177.022 103.83 177.197 103.88C177.696 103.705 177.788 103.139 177.904 102.19C177.929 101.982 177.954 101.774 177.988 101.566C177.938 101.524 177.888 101.482 177.829 101.433C177.188 100.9 175.69 99.6591 174.124 97.4112C173.117 95.9542 171.335 95.0217 171.019 95.1882C170.869 95.3714 171.152 95.746 171.543 96.2123C171.71 96.4121 171.876 96.6119 172.001 96.8117C172.243 97.1947 172.16 97.5361 171.993 97.7192C171.777 97.969 171.394 98.0356 171.019 97.8774L170.811 97.7942C168.047 96.6369 166.531 96.2705 165.715 96.2705Z" fill="#28183A"/>
<path d="M176.073 105.329L178.97 100.508C178.97 100.508 187.229 102.923 190.518 101.474C196.254 98.9513 195.172 90.1261 194.198 85.7384C193.224 81.3507 188.661 76.9131 188.661 76.9131C188.661 76.9131 197.345 80.1851 201.483 87.0955C205.321 93.5063 207.76 109.475 195.805 112.123C187.97 113.846 176.073 105.329 176.073 105.329Z" fill="#68B6B5"/>
<path d="M193.598 112.714C185.914 112.714 176.297 105.645 175.848 105.312L175.573 105.112L178.554 100.117L178.828 100.192C178.912 100.217 187.237 102.49 190.368 101.116C195.438 98.8848 194.88 91.375 194.089 87.0873C194.056 86.8791 194.189 86.6876 194.389 86.646C194.597 86.6127 194.789 86.7459 194.83 86.9457C195.655 91.4416 196.212 99.3594 190.668 101.799C187.604 103.148 180.427 101.391 178.903 100.991L176.572 104.904C178.395 106.195 188.803 113.272 195.721 111.74C197.245 111.398 198.594 110.841 199.718 110.083C199.892 109.966 200.126 110.008 200.242 110.183C200.359 110.358 200.309 110.591 200.142 110.707C198.935 111.523 197.503 112.114 195.888 112.481C195.147 112.647 194.381 112.714 193.598 112.714Z" fill="#28183A"/>
<path d="M186.163 66.8889C185.955 66.9056 185.789 66.7474 185.797 66.5392C185.855 65.5568 186.072 63.7001 185.098 62.9258C183.841 61.9268 181.759 60.4198 181.035 61.4439C180.402 62.3431 179.803 64.1248 178.196 64.8574C178.038 64.924 178.038 65.1571 178.112 65.307L178.504 66.1646C178.587 66.3311 178.545 66.739 178.479 66.9139C178.279 67.4717 177.813 68.629 177.921 68.8621C178.146 69.32 179.977 70.0527 179.977 70.0527L179.07 75.6476C179.037 75.8641 178.912 76.2137 178.704 76.1721L176.522 76.4468C176.522 76.4468 176.814 79.4441 181.501 80.0352C187.637 80.8095 188.311 78.1869 188.311 78.1869C188.311 78.1869 182.275 76.9048 184.54 70.2858C184.59 70.1443 184.715 70.036 184.865 70.0027C185.439 69.8862 187.021 69.4949 187.271 68.4458C187.546 67.3385 186.863 66.8223 186.163 66.8889Z" fill="white"/>
<path d="M183.599 80.5598C182.966 80.5598 182.25 80.5182 181.451 80.4099C176.514 79.7855 176.156 76.6218 176.139 76.4802C176.122 76.2804 176.264 76.0972 176.464 76.0722L178.62 75.8058C178.645 75.7559 178.67 75.6726 178.687 75.5894L179.544 70.2859C178.87 70.0028 177.796 69.4783 177.571 69.0287C177.43 68.7373 177.563 68.2627 178.004 67.0804C178.046 66.9722 178.079 66.8723 178.112 66.789C178.162 66.6642 178.179 66.3977 178.154 66.3228L177.763 65.4652C177.671 65.2904 177.654 65.0573 177.721 64.8658C177.771 64.7076 177.888 64.5827 178.037 64.5161C179.128 64.0166 179.736 62.9425 180.219 62.0767C180.394 61.7686 180.56 61.4772 180.727 61.2358C180.918 60.9694 181.193 60.8028 181.534 60.7529C182.367 60.6363 183.541 61.2191 185.331 62.6428C186.38 63.4754 186.263 65.1738 186.188 66.2978C186.18 66.3811 186.18 66.456 186.172 66.5226C186.638 66.4893 187.079 66.6642 187.371 66.9972C187.695 67.3719 187.795 67.9213 187.645 68.5458C187.362 69.728 185.83 70.2026 184.948 70.3858C184.931 70.3941 184.914 70.4024 184.906 70.4274C184.223 72.4089 184.257 74.0824 184.998 75.3895C186.088 77.3128 188.378 77.829 188.403 77.8373C188.503 77.8623 188.586 77.9205 188.644 78.0038C188.694 78.0954 188.711 78.1953 188.686 78.2952C188.653 78.3868 188.037 80.5598 183.599 80.5598ZM176.98 76.7716C177.222 77.5292 178.146 79.236 181.551 79.6689C185.855 80.2184 187.312 79.0362 187.762 78.4284C186.946 78.1537 185.281 77.4294 184.34 75.7559C183.491 74.2489 183.433 72.3756 184.19 70.1693C184.282 69.8945 184.515 69.6947 184.798 69.6364C185.248 69.5449 186.721 69.1869 186.913 68.3626C187.004 67.9796 186.971 67.6716 186.804 67.4801C186.671 67.3219 186.446 67.247 186.205 67.272C185.997 67.2886 185.797 67.222 185.647 67.0804C185.497 66.9389 185.422 66.7308 185.431 66.5226C185.439 66.4394 185.439 66.3394 185.447 66.2479C185.506 65.3404 185.606 63.8167 184.873 63.2256C183.324 61.9934 182.242 61.4106 181.651 61.4939C181.518 61.5105 181.426 61.5688 181.351 61.6687C181.201 61.8768 181.051 62.1516 180.885 62.443C180.36 63.3755 179.711 64.5411 178.462 65.1489L178.853 66.0064C179.012 66.3062 178.912 66.8473 178.837 67.0388C178.803 67.1304 178.77 67.2303 178.728 67.3385C178.595 67.6799 178.304 68.4625 178.287 68.7206C178.462 68.9204 179.286 69.3617 180.127 69.7031C180.294 69.7697 180.385 69.9362 180.36 70.111L179.453 75.7059C179.428 75.8641 179.336 76.2637 179.061 76.4552C178.962 76.5301 178.837 76.5634 178.712 76.5551L176.98 76.7716Z" fill="#28183A"/>
<path d="M77.2462 194.93L77.2545 200.425C77.2545 202.091 75.3313 203.756 71.4681 205.046C63.7335 207.627 51.1117 207.735 43.0357 205.321C42.9025 205.279 42.7693 205.238 42.6445 205.196C38.5482 203.906 36.4917 202.19 36.4917 200.475L36.4834 194.98C36.4834 196.695 38.5399 198.411 42.6361 199.701C42.7693 199.743 42.8943 199.784 43.0275 199.826C51.1117 202.24 63.7335 202.132 71.4681 199.551C75.323 198.261 77.2545 196.587 77.2462 194.93Z" fill="#F39468"/>
<path d="M70.6938 190.085C70.827 190.126 70.9602 190.168 71.085 190.21C79.1443 192.749 79.3109 196.929 71.4514 199.551C63.7168 202.132 51.095 202.24 43.0107 199.826C42.8775 199.784 42.7442 199.743 42.6194 199.701C34.56 197.162 34.3935 192.982 42.253 190.36C49.996 187.779 62.6178 187.67 70.6938 190.085Z" fill="white"/>
<path d="M72.8668 188.436L72.8751 193.931C72.8751 195.596 70.9519 197.262 67.0887 198.552C59.3541 201.133 46.7323 201.241 38.6481 198.827C38.5148 198.785 38.3816 198.744 38.2567 198.71C34.1605 197.42 32.104 195.705 32.104 193.99L32.0957 188.495C32.0957 190.21 34.1521 191.925 38.2484 193.215C38.3816 193.257 38.5065 193.299 38.6397 193.332C46.724 195.746 59.3458 195.638 67.0804 193.057C70.9435 191.775 72.8668 190.101 72.8668 188.436Z" fill="#F39468"/>
<path d="M66.3146 183.599C66.4478 183.641 66.581 183.682 66.7059 183.716C74.7652 186.255 74.9317 190.435 67.0722 193.065C59.3376 195.646 46.7158 195.755 38.6315 193.34C38.4983 193.299 38.3651 193.257 38.2402 193.215C30.1809 190.676 30.0144 186.497 37.8739 183.874C45.6085 181.293 58.2303 181.185 66.3146 183.599Z" fill="white"/>
<path d="M76.5385 180.527V186.022C76.5385 187.687 74.6153 189.352 70.7521 190.643C63.0175 193.224 50.3957 193.332 42.3114 190.917C42.1782 190.876 42.045 190.834 41.9201 190.792C37.8238 189.502 35.7674 187.787 35.7674 186.072L35.759 180.585C35.759 182.3 37.8155 184.015 41.9118 185.306C42.045 185.347 42.1698 185.389 42.303 185.422C50.3873 187.837 63.0092 187.729 70.7438 185.148C74.6152 183.857 76.5385 182.192 76.5385 180.527Z" fill="#F39468"/>
<path d="M56.0737 193.041C51.1199 193.041 46.1578 192.458 42.203 191.275C42.0698 191.234 41.9366 191.192 41.8034 191.151C37.6655 189.852 35.3843 188.045 35.3843 186.072L35.376 180.577C35.376 180.369 35.5425 180.202 35.7506 180.202C35.9587 180.202 36.1253 180.369 36.1253 180.577C36.1253 182.175 38.2733 183.766 42.0199 184.94C42.1448 184.981 42.278 185.023 42.4112 185.056C50.3872 187.437 63.0424 187.312 70.6188 184.781C74.1406 183.607 76.1554 182.051 76.1471 180.519C76.1471 180.31 76.3136 180.144 76.5217 180.144C76.7299 180.144 76.8964 180.31 76.8964 180.519V186.005C76.8964 187.912 74.7484 189.685 70.8519 190.984C66.7973 192.358 61.4355 193.041 56.0737 193.041ZM36.1336 182.5V186.08C36.1336 187.679 38.2816 189.269 42.0282 190.443C42.1614 190.485 42.2863 190.526 42.4195 190.559C50.3956 192.941 63.0507 192.816 70.6271 190.285C74.1406 189.111 76.1637 187.554 76.1554 186.022V182.442C75.2146 183.607 73.4162 184.656 70.8602 185.506C63.0257 188.12 50.4289 188.245 42.1948 185.789C42.0615 185.747 41.9283 185.706 41.7951 185.664C39.0476 184.798 37.1244 183.707 36.1336 182.5Z" fill="#28183A"/>
<path d="M69.9861 175.681C70.1193 175.723 70.2525 175.765 70.3774 175.806C78.4367 178.346 78.6032 182.525 70.7437 185.148C63.0091 187.729 50.3873 187.837 42.303 185.422C42.1698 185.381 42.0366 185.339 41.9117 185.297C33.8524 182.758 33.6859 178.579 41.5454 175.956C49.28 173.375 61.9018 173.267 69.9861 175.681Z" fill="white"/>
<path d="M56.0655 187.554C51.1117 187.554 46.1495 186.971 42.2032 185.789C42.0699 185.747 41.9367 185.705 41.8035 185.664C37.6823 184.365 35.401 182.567 35.3844 180.602C35.3677 178.687 37.5158 176.913 41.4289 175.606C49.2634 172.992 61.8602 172.867 70.0944 175.323C70.2276 175.365 70.3608 175.406 70.494 175.448C74.6153 176.747 76.8965 178.545 76.9131 180.51C76.9298 182.425 74.7818 184.198 70.8687 185.506C66.7891 186.863 61.4356 187.554 56.0655 187.554ZM56.2404 174.332C50.9202 174.332 45.6084 174.999 41.662 176.314C38.1319 177.496 36.1171 179.053 36.1337 180.593C36.1504 182.184 38.2984 183.774 42.0283 184.948C42.1532 184.989 42.2864 185.031 42.4196 185.064C50.3957 187.445 63.0508 187.321 70.6272 184.79C74.1573 183.607 76.1722 182.05 76.1555 180.51C76.1389 178.92 73.9908 177.33 70.2609 176.164C70.1277 176.122 70.0028 176.081 69.8696 176.048C66.0481 174.899 61.1442 174.332 56.2404 174.332Z" fill="#28183A"/>
<path d="M67.4967 178.828L68.2044 179.678L65.7483 180.019C66.148 180.61 66.0814 181.051 65.8732 181.401L62.518 181.593C62.6345 181.326 62.9509 180.835 62.4347 180.211C62.2182 179.952 61.9102 179.794 61.5605 179.719C61.1442 179.628 60.6779 179.628 60.2617 179.686C59.3375 179.811 59.0045 180.202 58.7214 181.06C58.405 182.25 57.2145 182.883 54.7084 183.233C53.0682 183.466 51.3781 183.433 50.0294 183.116C49.3383 182.958 48.7389 182.725 48.2726 182.409L45.4252 182.808L44.7175 181.959L47.3651 181.584C46.9655 180.993 46.9988 180.36 47.3402 179.944L50.8203 179.744C50.479 180.194 50.3207 180.793 50.787 181.351C51.0034 181.609 51.3448 181.801 51.7861 181.901C52.1857 181.992 52.6686 182.017 53.2015 181.942C54.2588 181.792 54.7001 181.426 54.8666 180.685C55.0997 179.619 55.9739 178.787 58.6715 178.412C60.295 178.187 61.8769 178.229 63.159 178.52C63.8168 178.67 64.3912 178.895 64.8491 179.178L67.4967 178.828Z" fill="#F39468"/>
<path d="M123.179 194.356V200.117C123.179 201.866 121.164 203.614 117.102 204.971C108.984 207.677 95.746 207.794 87.2621 205.263C87.1205 205.221 86.9873 205.179 86.8458 205.138C82.5497 203.789 80.385 201.982 80.385 200.184L80.3767 194.423C80.3767 196.229 82.5414 198.028 86.8375 199.376C86.9707 199.418 87.1122 199.46 87.2538 199.501C95.7377 202.032 108.984 201.924 117.093 199.21C121.164 197.853 123.188 196.104 123.179 194.356Z" fill="#F39468"/>
<path d="M116.302 189.277C116.444 189.319 116.577 189.361 116.719 189.402C125.178 192.066 125.352 196.454 117.102 199.21C108.984 201.916 95.7461 202.032 87.2621 199.501C87.1206 199.46 86.9874 199.418 86.8458 199.376C78.3869 196.712 78.2121 192.324 86.4629 189.569C94.5805 186.854 107.818 186.746 116.302 189.277Z" fill="white"/>
<path d="M124.361 186.363V192.125C124.361 193.873 122.347 195.621 118.284 196.978C110.166 199.684 96.9198 199.801 88.4442 197.27C88.3027 197.228 88.1695 197.187 88.0279 197.145C83.7319 195.788 81.5672 193.99 81.5672 192.191L81.5588 186.43C81.5588 188.236 83.7235 190.035 88.0196 191.384C88.1612 191.425 88.2944 191.467 88.4359 191.508C96.9198 194.039 110.166 193.931 118.284 191.217C122.347 189.86 124.37 188.112 124.361 186.363Z" fill="#F39468"/>
<path d="M117.493 181.285C117.634 181.326 117.768 181.368 117.909 181.409C126.368 184.074 126.543 188.461 118.292 191.217C110.174 193.923 96.9365 194.04 88.4526 191.509C88.3111 191.467 88.1778 191.425 88.0363 191.384C79.5774 188.719 79.4025 184.332 87.6533 181.576C95.7626 178.862 109.009 178.754 117.493 181.285Z" fill="white"/>
<path d="M120.973 178.312V184.074C120.973 185.822 118.958 187.57 114.895 188.928C106.777 191.633 93.5396 191.75 85.0557 189.219C84.9141 189.177 84.7809 189.136 84.6394 189.094C80.3433 187.745 78.1786 185.939 78.1786 184.14L78.1703 178.379C78.1703 180.186 80.335 181.984 84.6311 183.333C84.7643 183.374 84.9058 183.416 85.0474 183.458C93.5313 185.989 106.778 185.88 114.887 183.166C118.958 181.809 120.973 180.061 120.973 178.312Z" fill="#F39468"/>
<path d="M114.096 173.225C114.237 173.267 114.371 173.308 114.512 173.35C122.971 176.014 123.146 180.402 114.895 183.158C106.777 185.864 93.5312 185.98 85.0556 183.449C84.9141 183.408 84.7809 183.366 84.6393 183.324C76.1804 180.66 76.0055 176.272 84.2563 173.517C92.3739 170.811 105.612 170.694 114.096 173.225Z" fill="white"/>
<path d="M125.177 171.677V177.438C125.177 179.186 123.163 180.935 119.1 182.292C110.982 184.998 97.7358 185.114 89.2602 182.583C89.1186 182.542 88.9854 182.5 88.8439 182.458C84.5478 181.101 82.3831 179.303 82.3831 177.505L82.3748 171.743C82.3748 173.55 84.5395 175.348 88.8355 176.697C88.9687 176.739 89.1103 176.78 89.2518 176.822C97.7357 179.353 110.982 179.245 119.091 176.531C123.163 175.173 125.177 173.425 125.177 171.677Z" fill="#F39468"/>
<path d="M118.3 166.59C118.442 166.631 118.575 166.673 118.717 166.715C127.176 169.379 127.35 173.766 119.1 176.522C110.982 179.228 97.7441 179.345 89.2602 176.814C89.1187 176.772 88.9855 176.73 88.8439 176.689C80.385 174.025 80.2101 169.637 88.4609 166.881C96.5785 164.175 109.816 164.059 118.3 166.59Z" fill="white"/>
<path d="M120.207 165.099V170.861C120.207 172.609 118.192 174.358 114.129 175.715C106.012 178.421 92.7736 178.537 84.2897 176.006C84.1482 175.964 84.0149 175.923 83.8734 175.881C79.5773 174.524 77.4126 172.726 77.4126 170.927L77.4043 165.166C77.4043 166.973 79.569 168.771 83.8651 170.12C84.0066 170.161 84.1398 170.203 84.2814 170.245C92.7653 172.776 106.011 172.667 114.121 169.953C118.192 168.604 120.207 166.848 120.207 165.099Z" fill="#F39468"/>
<path d="M113.33 160.021C113.471 160.062 113.605 160.104 113.746 160.145C122.205 162.81 122.38 167.197 114.129 169.953C106.012 172.659 92.7737 172.776 84.2898 170.245C84.1482 170.203 84.015 170.161 83.8735 170.12C75.4145 167.455 75.2397 163.068 83.4905 160.312C91.5997 157.606 104.846 157.49 113.33 160.021Z" fill="white"/>
<path d="M123.829 157.698L123.837 163.459C123.837 165.208 121.822 166.956 117.759 168.313C109.642 171.019 96.4037 171.135 87.9198 168.604C87.7783 168.563 87.6451 168.521 87.5035 168.48C83.2075 167.122 81.0428 165.324 81.0428 163.526L81.0344 157.764C81.0344 159.571 83.1991 161.369 87.4952 162.718C87.6284 162.76 87.77 162.801 87.9115 162.843C96.3954 165.374 109.642 165.258 117.751 162.552C121.806 161.195 123.829 159.446 123.829 157.698Z" fill="#F39468"/>
<path d="M102.348 170.811C97.1531 170.811 91.9495 170.195 87.8033 168.962C87.6617 168.921 87.5202 168.879 87.387 168.829C83.0576 167.464 80.6681 165.582 80.6598 163.517L80.6515 157.756C80.6515 157.548 80.818 157.381 81.0261 157.381C81.2342 157.381 81.4008 157.548 81.4008 157.756C81.4008 159.438 83.6654 161.111 87.5951 162.352C87.7283 162.393 87.8615 162.435 88.0031 162.477C96.3704 164.974 109.658 164.85 117.618 162.194C121.314 160.961 123.437 159.321 123.437 157.698C123.437 157.49 123.604 157.323 123.812 157.323C124.02 157.323 124.187 157.49 124.187 157.698L124.195 163.459C124.195 165.457 121.947 167.306 117.867 168.671C113.596 170.095 107.977 170.811 102.348 170.811ZM81.4091 159.713V163.517C81.4091 165.199 83.6737 166.873 87.6035 168.113C87.7367 168.155 87.8782 168.197 88.0114 168.238C96.3788 170.736 109.667 170.611 117.626 167.955C121.323 166.723 123.446 165.083 123.446 163.459V159.654C122.472 160.887 120.573 162.002 117.867 162.91C109.642 165.657 96.4371 165.782 87.8033 163.201C87.6617 163.159 87.5202 163.118 87.387 163.068C84.4646 162.152 82.4332 160.995 81.4091 159.713Z" fill="#28183A"/>
<path d="M116.952 152.611C117.093 152.652 117.226 152.694 117.368 152.736C125.827 155.4 126.002 159.787 117.751 162.543C109.633 165.249 96.3954 165.366 87.9115 162.835C87.7699 162.793 87.6367 162.751 87.4952 162.71C79.0362 160.046 78.8614 155.658 87.1122 152.902C95.2214 150.196 108.468 150.08 116.952 152.611Z" fill="white"/>
<path d="M102.348 165.049C97.153 165.049 91.9494 164.433 87.8032 163.201C87.6617 163.159 87.5201 163.118 87.3869 163.076C83.0659 161.719 80.6847 159.837 80.6681 157.781C80.6514 155.774 82.8994 153.918 86.9956 152.552C95.2131 149.805 108.426 149.68 117.06 152.261C117.201 152.303 117.343 152.344 117.484 152.386C121.806 153.743 124.187 155.625 124.212 157.681C124.228 159.679 121.98 161.544 117.884 162.91C113.596 164.333 107.976 165.049 102.348 165.049ZM102.531 151.179C96.9532 151.179 91.3666 151.878 87.2287 153.26C83.5155 154.501 81.3924 156.141 81.4091 157.773C81.4257 159.454 83.682 161.12 87.6034 162.36C87.7366 162.402 87.8782 162.443 88.0114 162.485C96.3787 164.983 109.667 164.858 117.626 162.202C121.339 160.961 123.462 159.321 123.446 157.689C123.429 156.008 121.173 154.342 117.251 153.102C117.118 153.06 116.977 153.019 116.843 152.977C112.83 151.778 107.677 151.179 102.531 151.179Z" fill="#28183A"/>
<path d="M107.685 153.643L106.661 154.542C107.585 154.659 108.293 154.8 108.834 154.95C109.209 155.05 109.508 155.15 109.758 155.258L107.743 156.341C107.485 156.249 107.136 156.107 106.611 155.966C106.136 155.833 105.512 155.708 104.688 155.625C103.131 155.458 102.298 155.683 101.974 155.974C101.591 156.307 102.182 156.615 103.847 157.165C106.211 157.898 106.719 158.589 105.67 159.504C104.629 160.412 102.232 161.028 99.2427 160.928L98.0521 161.969L95.7043 161.719L96.8116 160.753C95.9291 160.637 95.1132 160.479 94.4471 160.295C93.9392 160.162 93.5146 160.012 93.2316 159.871L95.313 158.755C95.6877 158.93 96.1622 159.105 96.745 159.263C97.3278 159.421 98.0105 159.554 98.7848 159.638C100.15 159.787 101.341 159.663 101.815 159.255C102.257 158.863 101.765 158.539 100.283 158.089C98.1354 157.448 96.9698 156.749 98.1021 155.758C99.1262 154.859 101.424 154.317 104.238 154.376L105.345 153.402L107.685 153.643Z" fill="#F39468"/>
<path d="M170.619 194.273L170.628 200.034C170.628 201.782 168.613 203.531 164.55 204.888C156.432 207.594 143.194 207.71 134.71 205.179C134.569 205.138 134.436 205.096 134.294 205.054C129.998 203.697 127.833 201.899 127.833 200.101L127.825 194.339C127.825 196.146 129.99 197.944 134.286 199.293C134.427 199.335 134.56 199.376 134.702 199.418C143.186 201.949 156.432 201.832 164.541 199.126C168.604 197.769 170.619 196.021 170.619 194.273Z" fill="#F39468"/>
<path d="M163.742 189.186C163.884 189.227 164.017 189.269 164.159 189.31C172.617 191.975 172.792 196.362 164.542 199.118C156.424 201.824 143.178 201.941 134.702 199.41C134.561 199.368 134.427 199.326 134.286 199.285C125.827 196.621 125.652 192.233 133.903 189.477C142.02 186.771 155.258 186.655 163.742 189.186Z" fill="white"/>
<path d="M172.909 187.029V192.791C172.909 194.539 170.894 196.288 166.831 197.645C158.713 200.35 145.476 200.467 136.992 197.936C136.85 197.894 136.717 197.853 136.575 197.811C132.279 196.454 130.115 194.656 130.115 192.857L130.106 187.096C130.106 188.903 132.271 190.701 136.567 192.05C136.7 192.091 136.842 192.133 136.983 192.175C145.467 194.706 158.713 194.597 166.823 191.883C170.894 190.526 172.909 188.778 172.909 187.029Z" fill="#F39468"/>
<path d="M166.032 181.951C166.173 181.992 166.307 182.034 166.448 182.076C174.907 184.74 175.082 189.127 166.831 191.883C158.713 194.589 145.476 194.706 136.992 192.175C136.85 192.133 136.717 192.091 136.575 192.05C128.116 189.386 127.942 184.998 136.192 182.242C144.302 179.528 157.548 179.411 166.032 181.951Z" fill="white"/>
<path d="M169.67 180.693V186.455C169.67 188.203 167.655 189.952 163.592 191.309C155.475 194.015 142.237 194.131 133.753 191.6C133.611 191.558 133.478 191.517 133.337 191.475C129.041 190.126 126.876 188.32 126.876 186.521L126.868 180.76C126.868 182.567 129.032 184.365 133.328 185.714C133.462 185.755 133.603 185.797 133.745 185.839C142.229 188.37 155.475 188.253 163.584 185.547C167.647 184.19 169.67 182.442 169.67 180.693Z" fill="#F39468"/>
<path d="M162.793 175.615C162.935 175.656 163.068 175.698 163.209 175.74C171.668 178.404 171.843 182.792 163.592 185.547C155.475 188.253 142.228 188.37 133.753 185.839C133.611 185.797 133.478 185.755 133.337 185.714C124.878 183.05 124.703 178.662 132.954 175.906C141.063 173.192 154.309 173.084 162.793 175.615Z" fill="white"/>
<path d="M171.427 172.318V178.079C171.427 179.828 169.412 181.576 165.349 182.933C157.231 185.639 143.994 185.755 135.51 183.224C135.368 183.183 135.235 183.141 135.093 183.1C130.797 181.742 128.633 179.944 128.633 178.146L128.624 172.384C128.624 174.191 130.789 175.989 135.085 177.338C135.218 177.38 135.36 177.421 135.501 177.463C143.985 179.994 157.231 179.878 165.341 177.172C169.412 175.815 171.427 174.066 171.427 172.318Z" fill="#F39468"/>
<path d="M164.55 167.239C164.691 167.281 164.825 167.322 164.966 167.364C173.425 170.028 173.6 174.416 165.349 177.172C157.232 179.877 143.985 179.994 135.51 177.463C135.368 177.421 135.235 177.38 135.093 177.338C126.634 174.674 126.46 170.286 134.71 167.53C142.828 164.816 156.066 164.7 164.55 167.239Z" fill="white"/>
<path d="M170.528 165.224V170.986C170.528 172.734 168.513 174.482 164.45 175.84C156.332 178.545 143.094 178.662 134.61 176.131C134.469 176.089 134.336 176.048 134.194 176.006C129.898 174.657 127.733 172.851 127.733 171.052L127.725 165.291C127.725 167.098 129.89 168.896 134.186 170.245C134.319 170.286 134.461 170.328 134.602 170.37C143.086 172.901 156.332 172.784 164.442 170.078C168.513 168.721 170.528 166.973 170.528 165.224Z" fill="#F39468"/>
<path d="M163.651 160.145C163.792 160.187 163.925 160.229 164.067 160.27C172.526 162.935 172.701 167.322 164.45 170.078C156.332 172.784 143.094 172.9 134.61 170.369C134.469 170.328 134.336 170.286 134.194 170.245C125.735 167.58 125.56 163.193 133.811 160.437C141.929 157.723 155.167 157.606 163.651 160.145Z" fill="white"/>
<path d="M168.838 157.215V162.976C168.838 164.725 166.823 166.473 162.76 167.83C154.642 170.536 141.404 170.653 132.92 168.122C132.779 168.08 132.646 168.038 132.504 167.997C128.208 166.64 126.043 164.841 126.043 163.043L126.035 157.281C126.035 159.088 128.2 160.887 132.496 162.235C132.629 162.277 132.77 162.319 132.912 162.36C141.396 164.891 154.642 164.775 162.76 162.069C166.823 160.72 168.838 158.963 168.838 157.215Z" fill="#F39468"/>
<path d="M161.96 152.136C162.102 152.178 162.235 152.219 162.377 152.261C170.836 154.925 171.01 159.313 162.76 162.069C154.642 164.775 141.404 164.891 132.92 162.36C132.779 162.319 132.645 162.277 132.504 162.235C124.045 159.571 123.87 155.183 132.121 152.428C140.239 149.722 153.476 149.605 161.96 152.136Z" fill="white"/>
<path d="M170.636 149.555V155.317C170.636 157.065 168.621 158.813 164.558 160.17C156.441 162.876 143.194 162.993 134.719 160.462C134.577 160.42 134.444 160.379 134.302 160.337C130.006 158.988 127.842 157.182 127.842 155.383L127.833 149.622C127.833 151.428 129.998 153.227 134.294 154.576C134.436 154.617 134.569 154.659 134.71 154.7C143.194 157.231 156.441 157.115 164.55 154.409C168.613 153.052 170.636 151.304 170.636 149.555Z" fill="#F39468"/>
<path d="M163.759 144.468C163.901 144.51 164.034 144.551 164.175 144.593C172.634 147.257 172.809 151.645 164.558 154.401C156.441 157.107 143.203 157.223 134.719 154.692C134.577 154.65 134.444 154.609 134.303 154.567C125.844 151.903 125.669 147.515 133.92 144.759C142.029 142.054 155.275 141.937 163.759 144.468Z" fill="white"/>
<path d="M167.805 143.694L167.813 149.455C167.813 151.204 165.799 152.952 161.736 154.309C153.618 157.015 140.372 157.132 131.896 154.601C131.755 154.559 131.622 154.517 131.48 154.476C127.184 153.119 125.019 151.32 125.019 149.522L125.011 143.76C125.011 145.567 127.176 147.365 131.472 148.714C131.605 148.756 131.746 148.798 131.888 148.839C140.372 151.37 153.618 151.254 161.727 148.548C165.79 147.191 167.805 145.434 167.805 143.694Z" fill="#F39468"/>
<path d="M160.928 138.607C161.07 138.649 161.203 138.69 161.344 138.732C169.803 141.396 169.978 145.784 161.727 148.539C153.61 151.245 140.372 151.362 131.888 148.831C131.746 148.789 131.613 148.748 131.472 148.706C123.013 146.042 122.838 141.654 131.089 138.898C139.206 136.192 152.444 136.076 160.928 138.607Z" fill="white"/>
<path d="M170.536 135.66L170.544 141.421C170.544 143.169 168.53 144.918 164.467 146.275C156.349 148.981 143.111 149.097 134.627 146.566C134.486 146.525 134.352 146.483 134.211 146.441C129.915 145.093 127.75 143.286 127.75 141.488L127.742 135.726C127.742 137.533 129.906 139.331 134.203 140.68C134.336 140.722 134.477 140.763 134.619 140.805C143.103 143.336 156.349 143.219 164.458 140.513C168.521 139.156 170.544 137.408 170.536 135.66Z" fill="#F39468"/>
<path d="M163.667 130.572C163.809 130.614 163.942 130.656 164.084 130.697C172.543 133.362 172.717 137.749 164.467 140.505C156.349 143.211 143.111 143.327 134.627 140.796C134.486 140.755 134.352 140.713 134.211 140.672C125.752 138.007 125.577 133.62 133.828 130.864C141.937 128.158 155.183 128.041 163.667 130.572Z" fill="white"/>
<path d="M168.047 127.167V132.929C168.047 134.677 166.032 136.426 161.969 137.783C153.851 140.489 140.613 140.605 132.129 138.074C131.988 138.032 131.855 137.991 131.713 137.949C127.417 136.592 125.252 134.794 125.252 132.995L125.244 127.234C125.244 129.041 127.409 130.839 131.705 132.188C131.846 132.229 131.979 132.271 132.121 132.313C140.605 134.844 153.851 134.735 161.96 132.021C166.023 130.664 168.047 128.907 168.047 127.167Z" fill="#F39468"/>
<path d="M161.169 122.08C161.311 122.122 161.444 122.164 161.586 122.205C170.045 124.869 170.22 129.257 161.969 132.013C153.851 134.719 140.605 134.835 132.129 132.304C131.988 132.263 131.855 132.221 131.713 132.179C123.254 129.515 123.079 125.128 131.33 122.372C139.439 119.666 152.686 119.549 161.169 122.08Z" fill="white"/>
<path d="M169.637 119.108V124.869C169.637 126.618 167.622 128.366 163.559 129.723C155.441 132.429 142.195 132.546 133.72 130.015C133.578 129.973 133.445 129.931 133.303 129.89C129.007 128.533 126.843 126.734 126.843 124.936L126.834 119.175C126.834 120.981 128.999 122.78 133.295 124.128C133.437 124.17 133.57 124.212 133.711 124.253C142.195 126.784 155.441 126.668 163.551 123.962C167.622 122.605 169.645 120.856 169.637 119.108Z" fill="#F39468"/>
<path d="M148.165 132.221C142.969 132.221 137.766 131.605 133.62 130.364C133.478 130.323 133.337 130.281 133.203 130.239C128.874 128.874 126.485 126.984 126.485 124.928L126.476 119.166C126.476 118.958 126.643 118.792 126.851 118.792C127.059 118.792 127.225 118.958 127.225 119.166C127.225 120.848 129.49 122.521 133.42 123.762C133.553 123.804 133.695 123.845 133.828 123.887C142.195 126.385 155.483 126.26 163.442 123.604C167.139 122.372 169.262 120.731 169.262 119.108C169.262 118.9 169.429 118.733 169.637 118.733C169.845 118.733 170.011 118.9 170.011 119.108L170.02 124.869C170.02 126.868 167.772 128.716 163.692 130.081C159.413 131.505 153.793 132.221 148.165 132.221ZM127.225 121.123V124.928C127.225 126.609 129.49 128.283 133.42 129.523C133.553 129.565 133.695 129.607 133.828 129.648C142.195 132.146 155.483 132.021 163.442 129.357C167.139 128.125 169.262 126.485 169.262 124.861V121.056C168.288 122.288 166.39 123.404 163.684 124.311C155.458 127.059 142.253 127.184 133.62 124.603C133.478 124.561 133.337 124.52 133.203 124.478C130.281 123.562 128.241 122.405 127.225 121.123Z" fill="#28183A"/>
<path d="M162.76 114.021C162.901 114.063 163.035 114.104 163.176 114.146C171.635 116.81 171.81 121.198 163.559 123.954C155.441 126.659 142.204 126.776 133.72 124.245C133.578 124.203 133.445 124.162 133.303 124.12C124.844 121.456 124.67 117.068 132.92 114.312C141.038 111.606 154.276 111.49 162.76 114.021Z" fill="white"/>
<path d="M148.156 126.46C142.961 126.46 137.758 125.843 133.611 124.611C133.47 124.57 133.328 124.528 133.195 124.486C128.874 123.129 126.493 121.248 126.476 119.191C126.46 117.193 128.707 115.328 132.804 113.963C141.021 111.223 154.234 111.09 162.868 113.671C163.01 113.713 163.151 113.755 163.284 113.796C167.605 115.153 169.995 117.035 170.011 119.091C170.028 121.09 167.78 122.954 163.676 124.32C159.413 125.744 153.785 126.46 148.156 126.46ZM148.34 112.589C142.761 112.589 137.175 113.288 133.037 114.67C129.324 115.911 127.201 117.551 127.217 119.183C127.234 120.856 129.49 122.53 133.412 123.77C133.545 123.812 133.678 123.854 133.819 123.895C142.187 126.393 155.475 126.268 163.434 123.612C167.147 122.372 169.27 120.731 169.254 119.108C169.237 117.426 166.981 115.761 163.059 114.521C162.926 114.479 162.785 114.437 162.651 114.396C158.638 113.188 153.493 112.589 148.34 112.589Z" fill="#28183A"/>
<path d="M153.094 115.478L152.811 116.719C151.911 116.677 150.296 116.56 147.982 116.76C145.892 116.935 145.376 117.285 145.534 117.568C145.592 117.668 145.734 117.751 145.983 117.809C146.591 117.976 147.823 118.051 149.897 118.126C152.12 118.184 153.676 118.342 154.725 118.625C155.6 118.858 156.108 119.183 156.341 119.599C156.849 120.515 155.258 121.473 151.67 121.989L152.253 123.038L149.097 123.304L148.556 122.33C146.383 122.48 144.185 122.472 142.836 122.347L143.136 121.056C144.626 121.181 146.641 121.239 148.731 121.065C150.571 120.906 151.695 120.582 151.47 120.165C151.395 120.032 151.204 119.924 150.887 119.841C150.28 119.674 149.206 119.599 147.557 119.558C145.317 119.508 143.461 119.366 142.229 119.041C141.454 118.833 140.921 118.55 140.713 118.159C140.205 117.251 141.812 116.377 145.134 115.869L144.593 114.895L147.749 114.629L148.248 115.536C150.404 115.378 151.936 115.403 153.094 115.478Z" fill="#F39468"/>
<path d="M41.9617 20.756C41.945 20.6145 41.8284 20.5062 41.6786 20.4896L39.5971 20.3231C39.4722 20.3147 39.3724 20.2315 39.3308 20.1149C39.1975 19.7236 39.0393 19.3489 38.8562 18.9909C38.7979 18.8827 38.8145 18.7495 38.8895 18.6579L40.2049 17.0427C40.2965 16.9345 40.2965 16.768 40.2049 16.6597L39.0809 15.2194C38.9894 15.1028 38.8395 15.0695 38.7063 15.1278L36.8164 16.027C36.7081 16.0769 36.5749 16.0603 36.4833 15.9853C36.1753 15.7189 35.8506 15.4775 35.5092 15.2527C35.4093 15.1861 35.3511 15.0695 35.376 14.9446L35.709 12.8799C35.734 12.7383 35.6508 12.5968 35.5176 12.5468L33.8274 11.8641C33.6942 11.8141 33.5443 11.8558 33.4611 11.9723L32.2788 13.6874C32.2122 13.7873 32.0873 13.8373 31.9708 13.8123C31.5711 13.7374 31.1715 13.6875 30.7635 13.6708C30.6387 13.6625 30.5388 13.5876 30.4888 13.471L29.7478 11.5144C29.6979 11.3812 29.5563 11.298 29.4148 11.3146L27.6081 11.5727C27.4666 11.5977 27.3583 11.7059 27.3417 11.8558L27.1752 13.9372C27.1668 14.0621 27.0836 14.162 26.967 14.2036C26.584 14.3368 26.2094 14.495 25.8431 14.6782C25.7348 14.7365 25.6016 14.7198 25.51 14.6449L23.8948 13.3211C23.7866 13.2295 23.6201 13.2295 23.5119 13.3211L22.0715 14.4451C21.9549 14.5367 21.9216 14.6866 21.9799 14.8198L22.8708 16.7097C22.9207 16.8179 22.9041 16.9511 22.8208 17.0427C22.5544 17.3508 22.3129 17.6755 22.0881 18.0168C22.0215 18.1167 21.905 18.175 21.7801 18.1501L19.7236 17.817C19.5821 17.792 19.4406 17.8753 19.3906 18.0085L18.7079 19.707C18.6496 19.8402 18.6996 19.9984 18.8161 20.0733L20.5312 21.2639C20.6311 21.3305 20.6811 21.4554 20.6561 21.5719C20.5812 21.9716 20.5312 22.3712 20.5146 22.7792C20.5062 22.904 20.4313 23.0039 20.3231 23.0539L18.3748 23.7949C18.2416 23.8448 18.1584 23.9864 18.1834 24.1279L18.4415 25.9429C18.4581 26.0845 18.5747 26.1927 18.7246 26.2094L20.806 26.3759C20.9309 26.3842 21.0307 26.4675 21.0724 26.584C21.2056 26.9753 21.3638 27.35 21.547 27.708C21.6052 27.8162 21.5886 27.9494 21.5137 28.041L20.1982 29.6562C20.1066 29.7644 20.1066 29.9309 20.1982 30.0392L21.3222 31.4795C21.4138 31.5961 21.5636 31.6294 21.6968 31.5711L23.5868 30.6719C23.695 30.622 23.8282 30.6386 23.9198 30.7219C24.2279 30.9883 24.5526 31.2298 24.8939 31.4546C24.9938 31.5212 25.0521 31.6377 25.0271 31.7626L24.6941 33.8274C24.6691 33.9689 24.7524 34.1105 24.8856 34.1604L26.5757 34.8431C26.7089 34.8931 26.8588 34.8515 26.9421 34.7349L28.1243 33.0198C28.1909 32.9199 28.3158 32.8699 28.4323 32.8949C28.8237 32.9698 29.2316 33.0198 29.6396 33.0365C29.7645 33.0448 29.8644 33.1197 29.9144 33.2363L30.6553 35.1928C30.7053 35.326 30.8468 35.4093 30.9884 35.3926L32.795 35.1345C32.9366 35.1179 33.0448 35.0013 33.0615 34.8515L33.228 32.77C33.2363 32.6535 33.3196 32.5452 33.4361 32.5036C33.8191 32.3704 34.1937 32.2122 34.5601 32.029C34.6683 31.9708 34.7932 31.9874 34.8931 32.0623L36.5083 33.3861C36.6166 33.4777 36.783 33.4777 36.8913 33.3861L38.3317 32.2621C38.4482 32.1706 38.4815 32.0207 38.4232 31.8875L37.5324 29.9976C37.4824 29.8893 37.4991 29.7561 37.5823 29.6645C37.8487 29.3565 38.0902 29.0318 38.315 28.6904C38.3816 28.5905 38.4982 28.5322 38.623 28.5572L40.6795 28.8902C40.8211 28.9152 40.9626 28.832 41.0125 28.6987L41.6952 27.0003C41.7535 26.8671 41.7036 26.7172 41.587 26.634L39.8719 25.4434C39.772 25.3768 39.7221 25.2519 39.747 25.1353C39.822 24.7357 39.8719 24.3361 39.8886 23.9198C39.8969 23.7949 39.9718 23.695 40.0884 23.645L42.0366 22.904C42.1698 22.8541 42.2531 22.7126 42.2364 22.571L41.9617 20.756ZM30.2057 29.4647C26.8338 29.4647 24.0946 26.7256 24.0946 23.3453C24.0946 19.9651 26.8338 17.2259 30.2057 17.2259C33.5777 17.2259 36.3168 19.9651 36.3168 23.3453C36.3168 26.7256 33.586 29.4647 30.2057 29.4647Z" fill="white"/>
<path d="M30.9385 35.7591C30.6554 35.7591 30.4056 35.5842 30.2974 35.3178L29.5731 33.4029C29.1734 33.3779 28.7821 33.3279 28.3991 33.2613L27.2419 34.9432C27.0587 35.2096 26.7257 35.3095 26.426 35.1929L24.7275 34.5102C24.4277 34.3936 24.2529 34.0856 24.3112 33.7692L24.6359 31.746C24.3112 31.5296 23.9948 31.2882 23.6951 31.0384L21.8468 31.9126C21.5554 32.0541 21.214 31.9709 21.0142 31.7128L19.8902 30.2724C19.6904 30.0227 19.6987 29.6646 19.8986 29.4149L21.189 27.833C21.0142 27.4833 20.8643 27.1169 20.7311 26.7423L18.6996 26.5758C18.3749 26.5508 18.1252 26.3094 18.0752 25.993L17.8171 24.178C17.7755 23.8616 17.9504 23.5535 18.2501 23.4453L20.1567 22.721C20.1816 22.3213 20.2316 21.93 20.2982 21.547L18.6247 20.3815C18.3583 20.1983 18.2584 19.8652 18.3749 19.5655L19.0576 17.8671C19.1825 17.5673 19.4823 17.3925 19.807 17.4424L21.8218 17.7755C22.0383 17.4508 22.2797 17.1344 22.5295 16.8347L21.6553 14.9863C21.5137 14.6949 21.597 14.3536 21.8551 14.1538L23.2955 13.0215C23.5452 12.8217 23.9032 12.83 24.153 13.0298L25.7349 14.3203C26.0846 14.1455 26.4509 13.9956 26.8172 13.8624L26.9838 11.8226C27.0087 11.5062 27.2502 11.2481 27.5666 11.1981L29.3732 10.94C29.6896 10.8984 29.9977 11.0733 30.1059 11.373L30.8302 13.2879C31.2216 13.3129 31.6128 13.3628 32.0042 13.4294L33.1614 11.7477C33.3446 11.4812 33.6776 11.3813 33.9773 11.5062L35.6758 12.1889C35.9756 12.3055 36.1504 12.6135 36.1005 12.9299L35.7757 14.9531C36.1004 15.1695 36.4168 15.411 36.7165 15.6607L38.5648 14.7865C38.8562 14.645 39.1976 14.7282 39.3974 14.9863L40.5214 16.4267C40.7212 16.6848 40.7129 17.0345 40.5131 17.2843L39.2226 18.8662C39.3974 19.2158 39.5473 19.5822 39.6805 19.9568L41.712 20.1234C42.0367 20.1483 42.2865 20.3897 42.3364 20.7061L42.5945 22.5212C42.6361 22.8375 42.4613 23.1456 42.1616 23.2538L40.255 23.9782C40.23 24.3778 40.1801 24.7691 40.1135 25.1521L41.7869 26.3177C42.0533 26.5009 42.1533 26.8339 42.0284 27.1336L41.3457 28.832C41.2208 29.1318 40.921 29.3066 40.5963 29.2567L38.5815 28.9319C38.365 29.2566 38.1236 29.573 37.8738 29.8728L38.748 31.7211C38.8896 32.0125 38.8063 32.3539 38.5482 32.5537L37.1078 33.6776C36.8581 33.8774 36.5001 33.8774 36.2503 33.6693L34.6767 32.3788C34.3271 32.5537 33.9607 32.7035 33.5861 32.8367L33.4195 34.8765C33.3946 35.2012 33.1531 35.451 32.8367 35.501L31.0301 35.7591C31.0051 35.7591 30.9718 35.7591 30.9385 35.7591ZM28.3741 32.5121C28.4158 32.5121 28.4574 32.5203 28.4991 32.5203C28.8737 32.5869 29.265 32.6369 29.6563 32.6619C29.9228 32.6786 30.1642 32.8534 30.2558 33.1031L30.9801 35.0098L32.6785 34.7683L32.8451 32.7368C32.87 32.4704 33.0449 32.2373 33.303 32.1457C33.6776 32.0125 34.0357 31.8626 34.377 31.6878C34.6185 31.5712 34.9099 31.5962 35.118 31.771L36.6915 33.0532L38.0486 31.9875L37.1745 30.1475C37.0579 29.9061 37.0995 29.6147 37.2744 29.4149C37.5241 29.1235 37.7656 28.8071 37.9737 28.4824C38.1236 28.2576 38.39 28.141 38.6565 28.1827L40.6629 28.5074L41.304 26.9088L39.6306 25.7516C39.4141 25.6017 39.2975 25.3269 39.3475 25.0605C39.4141 24.6859 39.4641 24.2862 39.489 23.8949C39.5057 23.6201 39.6722 23.387 39.9303 23.2955L41.8286 22.5711L41.5871 20.8643L39.5639 20.6978C39.2975 20.6812 39.0644 20.498 38.9728 20.2399C38.8396 19.8652 38.6897 19.5072 38.5149 19.1575C38.39 18.9161 38.4233 18.6247 38.5898 18.4165L39.8803 16.8347L38.8229 15.4776L36.983 16.3518C36.7415 16.4683 36.4501 16.4267 36.2503 16.2519C35.9506 15.9938 35.6425 15.7607 35.3178 15.5442C35.093 15.3943 34.9764 15.1279 35.0181 14.8698L35.3428 12.855L33.7526 12.2139L32.5953 13.8874C32.4371 14.1122 32.1707 14.2204 31.9042 14.1704C31.5296 14.1038 31.1383 14.0539 30.747 14.0289C30.4806 14.0123 30.2391 13.8457 30.1475 13.5876L29.4315 11.6811L27.733 11.9225L27.5666 13.954C27.5416 14.2204 27.3667 14.4535 27.1086 14.5451C26.734 14.6783 26.376 14.8282 26.0346 15.003C25.7932 15.1279 25.5018 15.0946 25.2936 14.9198L23.7201 13.6376L22.363 14.695L23.2372 16.535C23.3537 16.7764 23.3121 17.0678 23.1373 17.2676C22.8792 17.5674 22.646 17.8754 22.4379 18.2001C22.288 18.4249 22.0216 18.5415 21.7552 18.4998L19.7487 18.1751L19.1076 19.7736L20.7811 20.9309C20.9976 21.0808 21.1141 21.3556 21.0642 21.622C20.9976 21.9966 20.9476 22.3879 20.9226 22.7875C20.906 23.054 20.7395 23.2954 20.4814 23.387L18.5831 24.1114L18.8246 25.8181L20.8477 25.9847C21.1141 26.0096 21.3472 26.1845 21.4388 26.4426C21.572 26.8172 21.7219 27.1752 21.8968 27.5249C22.0216 27.7663 21.9883 28.0578 21.8218 28.2659L20.5313 29.8395L21.5887 31.1966L23.4287 30.3224C23.6701 30.2058 23.9615 30.2474 24.1697 30.4223C24.4611 30.6721 24.7774 30.9135 25.1021 31.13C25.3269 31.2798 25.4435 31.5462 25.4019 31.8127L25.0772 33.8275L26.6674 34.4686L27.8247 32.7951C27.9412 32.6119 28.1577 32.5121 28.3741 32.5121ZM30.2058 29.8478C26.6258 29.8478 23.7201 26.9338 23.7201 23.3537C23.7201 19.7737 26.6341 16.8596 30.2058 16.8596C33.7859 16.8596 36.6915 19.7737 36.6915 23.3537C36.6915 26.9338 33.7859 29.8478 30.2058 29.8478ZM30.2058 17.609C27.042 17.609 24.4694 20.1816 24.4694 23.3537C24.4694 26.5175 27.042 29.0985 30.2058 29.0985C33.3696 29.0985 35.9423 26.5258 35.9423 23.3537C35.9423 20.1816 33.3696 17.609 30.2058 17.609Z" fill="#28183A"/>
<path d="M213.455 37.0413C214.196 42.12 210.683 46.8323 205.612 47.5733C200.542 48.3143 195.838 44.7925 195.097 39.7221C194.356 34.6518 197.869 29.9311 202.94 29.1901C208.01 28.4491 212.723 31.9626 213.455 37.0413Z" fill="white"/>
<path d="M204.255 48.0478C202.19 48.0478 200.184 47.3901 198.502 46.1246C196.437 44.5843 195.097 42.3197 194.722 39.7721C193.956 34.5019 197.62 29.5814 202.881 28.8154C205.429 28.4408 207.977 29.0902 210.042 30.6304C212.106 32.1707 213.447 34.427 213.821 36.983C214.587 42.2532 210.924 47.1736 205.662 47.9396C205.196 48.0062 204.721 48.0478 204.255 48.0478ZM204.297 29.4648C203.864 29.4648 203.431 29.4981 202.998 29.5564C198.144 30.2641 194.764 34.7933 195.472 39.6638C195.813 42.02 197.053 44.1015 198.96 45.5252C200.867 46.9489 203.214 47.54 205.562 47.1986C210.416 46.4909 213.796 41.9618 213.089 37.0912C212.747 34.735 211.507 32.6536 209.6 31.2299C208.043 30.0726 206.195 29.4648 204.297 29.4648Z" fill="#28183A"/>
<path d="M204.347 42.8359L204.197 41.8202C203.473 41.8951 202.748 41.8035 202.307 41.6204L202.448 40.3215C202.931 40.5047 203.597 40.6379 204.297 40.538C204.905 40.4464 205.288 40.155 205.229 39.7221C205.171 39.3141 204.788 39.106 203.955 38.9561C202.757 38.7396 201.891 38.315 201.741 37.2743C201.599 36.3335 202.157 35.4926 203.273 35.1013L203.123 34.0855L204.172 33.9357L204.305 34.8848C205.029 34.8099 205.529 34.8932 205.912 35.0097L205.779 36.2669C205.487 36.1919 204.955 36.0171 204.18 36.1253C203.481 36.2252 203.298 36.5583 203.348 36.858C203.398 37.216 203.806 37.3825 204.771 37.5907C206.112 37.8571 206.711 38.3733 206.853 39.3391C206.994 40.2965 206.436 41.2041 205.229 41.6037L205.387 42.6944L204.347 42.8359Z" fill="#F39468"/>
<path d="M199.46 21.7469C196.72 27.7331 189.66 30.3641 183.674 27.6249C177.696 24.8858 175.065 17.8089 177.804 11.8227C180.544 5.83645 187.604 3.20552 193.582 5.94469C199.568 8.68386 202.199 15.7607 199.46 21.7469Z" fill="white"/>
<path d="M188.628 29.0901C186.888 29.0901 185.156 28.7155 183.524 27.9662C177.363 25.1438 174.649 17.8338 177.471 11.6644C178.837 8.67545 181.285 6.40252 184.357 5.25357C187.429 4.10462 190.768 4.22953 193.748 5.59495C199.909 8.41738 202.624 15.7274 199.809 21.8967C198.444 24.8857 195.996 27.1586 192.924 28.3075C191.517 28.832 190.068 29.0901 188.628 29.0901ZM188.636 5.22862C187.279 5.22862 185.922 5.47007 184.607 5.96129C181.718 7.03531 179.428 9.175 178.146 11.9808C175.498 17.7672 178.046 24.6359 183.832 27.2835C186.63 28.5656 189.76 28.6822 192.649 27.6082C195.538 26.5342 197.828 24.3945 199.11 21.5887C201.758 15.8023 199.21 8.93358 193.424 6.286C191.9 5.58664 190.268 5.22862 188.636 5.22862Z" fill="#28183A"/>
<path d="M188.628 26.992C187.179 26.992 185.739 26.684 184.39 26.0595C179.278 23.72 177.022 17.6506 179.361 12.5302C180.494 10.0492 182.525 8.1592 185.073 7.21007C187.62 6.26094 190.393 6.36082 192.874 7.49312C195.955 8.90849 198.136 11.7559 198.685 15.1112C198.719 15.3193 198.585 15.5108 198.377 15.5441C198.169 15.5774 197.978 15.4359 197.944 15.2361C197.428 12.1306 195.413 9.49131 192.558 8.18417C190.268 7.13512 187.704 7.03521 185.339 7.91774C182.975 8.80026 181.093 10.5487 180.044 12.8466C177.879 17.584 179.969 23.2121 184.698 25.3768C186.996 26.4259 189.56 26.5258 191.917 25.6433C194.281 24.7607 196.163 23.0123 197.212 20.7144C197.295 20.5229 197.52 20.4397 197.711 20.5312C197.903 20.6145 197.986 20.8393 197.894 21.0308C196.762 23.5118 194.731 25.4018 192.183 26.3509C191.026 26.7839 189.827 26.992 188.628 26.992Z" fill="#28183A"/>
<path d="M185.606 21.6387L186.155 20.4398C185.323 20.0151 184.607 19.4073 184.257 18.9078L185.314 17.6007C185.714 18.1335 186.338 18.7413 187.154 19.1159C187.87 19.449 188.495 19.3907 188.728 18.8911C188.944 18.4082 188.678 17.917 187.887 17.176C186.746 16.102 186.105 15.0447 186.671 13.8208C187.179 12.7051 188.361 12.1972 189.835 12.5469L190.385 11.348L191.625 11.9142L191.117 13.0298C191.95 13.4544 192.433 13.8957 192.757 14.287L191.742 15.5526C191.475 15.2612 191.026 14.7033 190.118 14.287C189.294 13.9124 188.869 14.1455 188.711 14.4952C188.52 14.9115 188.844 15.3777 189.727 16.2769C190.984 17.5008 191.275 18.4749 190.751 19.6072C190.235 20.7312 189.003 21.3306 187.429 20.9143L186.838 22.2048L185.606 21.6387Z" fill="#F39468"/>
<path d="M209.026 18.1335H209.018L207.827 18.1085C207.619 18.1085 207.452 17.9337 207.461 17.7256C207.469 17.5174 207.644 17.3593 207.844 17.3593L209.034 17.3842C209.242 17.3925 209.409 17.5591 209.4 17.7672C209.4 17.9753 209.234 18.1335 209.026 18.1335Z" fill="#28183A"/>
<path d="M214.737 18.25H214.729L213.538 18.225C213.33 18.2167 213.164 18.0502 213.172 17.842C213.18 17.6339 213.355 17.4757 213.555 17.4757L214.746 17.5007C214.954 17.509 215.12 17.6755 215.112 17.8837C215.112 18.0918 214.945 18.25 214.737 18.25Z" fill="#28183A"/>
<path d="M211.216 21.6386H211.207C210.999 21.6303 210.833 21.4638 210.841 21.2556L210.866 20.0651C210.874 19.8569 211.041 19.6987 211.249 19.6987C211.457 19.7071 211.624 19.8735 211.615 20.0817L211.59 21.2723C211.59 21.4721 211.415 21.6386 211.216 21.6386Z" fill="#28183A"/>
<path d="M211.332 15.9187C211.116 15.9187 210.949 15.7439 210.957 15.5358L210.982 14.3452C210.991 14.1371 211.157 13.9622 211.365 13.9789C211.574 13.9872 211.74 14.1537 211.732 14.3618L211.707 15.5525C211.707 15.7523 211.54 15.9187 211.332 15.9187Z" fill="#28183A"/>
<path d="M104.688 85.8384C104.213 85.8384 103.755 85.7051 103.339 85.447C102.765 85.089 102.365 84.5229 102.215 83.8569C101.907 82.4914 102.765 81.126 104.122 80.8179C104.779 80.6681 105.462 80.7846 106.037 81.1427C106.611 81.5007 107.011 82.0668 107.161 82.7246C107.469 84.09 106.619 85.4554 105.254 85.7634C105.071 85.8134 104.879 85.8384 104.688 85.8384ZM102.956 83.6987C103.064 84.1649 103.339 84.5562 103.747 84.8143C104.147 85.0724 104.63 85.1473 105.096 85.0474C106.053 84.831 106.661 83.8652 106.436 82.9077C106.328 82.4415 106.053 82.0502 105.645 81.7921C105.246 81.534 104.763 81.459 104.296 81.5589C103.339 81.7754 102.731 82.7329 102.956 83.6987Z" fill="#28183A"/>
<path d="M94.8801 94.3306C94.5304 94.3306 94.1974 94.2307 93.8893 94.0392C93.4647 93.7727 93.1733 93.3648 93.0651 92.8736C92.8403 91.8745 93.4647 90.8671 94.4638 90.6423C94.9467 90.534 95.4462 90.6173 95.8709 90.8837C96.2955 91.1502 96.5869 91.5664 96.6951 92.0493C96.9282 93.0484 96.2955 94.0559 95.2964 94.2806C95.1632 94.314 95.0216 94.3306 94.8801 94.3306ZM94.8884 91.35C94.8052 91.35 94.7219 91.3583 94.6387 91.3749C94.0392 91.5081 93.6645 92.1076 93.8061 92.7071C93.8727 92.9985 94.0475 93.2399 94.2973 93.3981C94.547 93.5563 94.8468 93.6063 95.1382 93.5396C95.7376 93.4064 96.1123 92.807 95.9708 92.2075C95.9041 91.9161 95.7293 91.6747 95.4796 91.5082C95.2964 91.4083 95.0966 91.35 94.8884 91.35Z" fill="#28183A"/>
<path d="M115.495 140.23C115.311 139.431 115.811 138.632 116.61 138.449C117.41 138.266 118.209 138.765 118.392 139.573C118.575 140.372 118.076 141.171 117.276 141.354C116.477 141.529 115.678 141.03 115.495 140.23Z" fill="#E1C2FF"/>
<path d="M42.6612 8.32571C42.4114 7.24336 43.0941 6.16105 44.1764 5.91128C45.2587 5.66151 46.3411 6.34422 46.5825 7.42657C46.8323 8.50891 46.1496 9.59123 45.0673 9.841C43.9849 10.0908 42.9026 9.40806 42.6612 8.32571Z" fill="#E1C2FF"/>
<path d="M109.225 70.4191C109.159 70.4191 109.084 70.4024 109.026 70.3608L108.018 69.728C107.843 69.6198 107.793 69.3867 107.902 69.2118C108.01 69.037 108.243 68.9871 108.418 69.0953L109.425 69.728C109.6 69.8362 109.65 70.0694 109.542 70.2442C109.475 70.3608 109.35 70.4191 109.225 70.4191Z" fill="#28183A"/>
<path d="M114.063 73.4662C113.996 73.4662 113.921 73.4496 113.863 73.408L112.855 72.7752C112.68 72.667 112.622 72.4338 112.739 72.259C112.847 72.0842 113.08 72.0259 113.255 72.1424L114.262 72.7752C114.437 72.8834 114.487 73.1165 114.379 73.2914C114.312 73.3996 114.187 73.4662 114.063 73.4662Z" fill="#28183A"/>
<path d="M109.309 74.5487C109.242 74.5487 109.167 74.532 109.109 74.4904C108.934 74.3822 108.884 74.149 108.992 73.9742L109.625 72.9668C109.733 72.7919 109.966 72.7336 110.141 72.8502C110.316 72.9584 110.374 73.1915 110.258 73.3664L109.625 74.3738C109.55 74.4904 109.433 74.5487 109.309 74.5487Z" fill="#28183A"/>
<path d="M112.347 69.7114C112.281 69.7114 112.206 69.6947 112.148 69.6531C111.973 69.5449 111.923 69.3118 112.031 69.1369L112.664 68.1295C112.772 67.9546 113.005 67.8963 113.18 68.0129C113.355 68.1211 113.413 68.3543 113.297 68.5291L112.664 69.5365C112.589 69.6448 112.472 69.7114 112.347 69.7114Z" fill="#28183A"/>
</svg>
