<svg width="218" height="220" viewBox="0 0 218 220" fill="none" xmlns="http://www.w3.org/2000/svg">
<path d="M208.668 148.741C187.537 198.452 131.253 226.298 82.4403 218.786C74.4974 217.561 52.7215 213.923 33.4464 196.747C-3.67258 163.677 -11.6075 98.1959 18.3314 52.0512C40.1152 18.4621 79.1766 -0.575638 116.296 0.382927C124.293 0.587212 154.932 1.8522 181.859 24.0328C185.815 27.2935 194.536 35.0327 202.401 47.3133C220.858 76.1567 222.439 116.338 208.668 148.741Z" fill="#F29191"/>
<path d="M78.98 198.106C78.98 198.106 56.8738 119.418 18.0877 77.1701C15.4767 74.3337 11.0807 75.5673 10.3336 79.3544C5.3634 104.701 -2.55584 181.402 78.98 198.106Z" fill="#F2F2F2"/>
<path opacity="0.5" d="M71.3282 193.188C71.5169 193.369 71.2967 193.675 71.0844 193.518C63.2753 187.766 32.7229 159.3 18.6854 101.37C18.6382 101.181 18.8898 101.103 18.9527 101.291C23.3567 114.695 41.059 164.062 71.3282 193.188Z" fill="#29173B"/>
<path d="M79.381 169.389C79.381 169.389 90.8549 111.286 78.1306 70.9475C77.2734 68.2368 73.766 67.5297 71.9415 69.714C59.7599 84.3281 27.9179 130.944 79.381 169.389Z" fill="#F2F2F2"/>
<path opacity="0.5" d="M75.6927 163.63C75.7635 163.81 75.504 163.936 75.4096 163.763C71.9022 157.415 60.2318 128.729 70.2507 86.7168C70.2822 86.5832 70.4867 86.6146 70.4631 86.756C68.961 96.8603 64.447 134.621 75.6927 163.63Z" fill="#29173B"/>
<path d="M122.123 168.014C122.123 168.014 143.569 98.4711 180.845 62.2263C183.354 59.7906 187.561 61.0713 188.261 64.497C192.924 87.3847 200.214 156.362 122.123 168.014Z" fill="#F2F2F2"/>
<path opacity="0.5" d="M129.468 163.928C129.287 164.086 129.492 164.368 129.696 164.235C137.191 159.403 166.54 135.156 180.184 83.8726C180.231 83.7076 179.988 83.629 179.933 83.7862C175.662 95.6032 158.542 139.076 129.468 163.928Z" fill="#29173B"/>
<path d="M147.078 219.181H89.9882V108.214C89.9882 106.6 91.2994 105.29 92.9153 105.29H144.15C145.766 105.29 147.078 106.6 147.078 108.214V219.181Z" fill="#DEA8DE" stroke="#29173B" stroke-width="0.5"/>
<path d="M132.45 219.181H75.353V108.214C75.353 106.6 76.6642 105.29 78.2801 105.29H129.523C131.139 105.29 132.45 106.6 132.45 108.214V219.181Z" fill="#DEA8DE" stroke="#29173B" stroke-width="0.5"/>
<path opacity="0.76" d="M78.9642 126.403C78.744 126.403 78.5631 126.222 78.5631 126.002V117.886C78.5631 113.557 81.7402 110.037 85.6488 110.037H96.7058C96.926 110.037 97.1069 110.217 97.1069 110.437C97.1069 110.657 96.926 110.838 96.7058 110.838H85.6488C82.1806 110.838 79.3574 114.004 79.3574 117.886V126.002C79.3653 126.23 79.1844 126.403 78.9642 126.403Z" fill="white"/>
<path opacity="0.76" d="M78.9642 135.015C78.744 135.015 78.5631 134.834 78.5631 134.614V131.306C78.5631 131.086 78.744 130.905 78.9642 130.905C79.1844 130.905 79.3653 131.086 79.3653 131.306V134.614C79.3653 134.834 79.1844 135.015 78.9642 135.015Z" fill="white"/>
<path d="M80.5781 219.181H31.4551V141.81C31.4551 140.197 32.7664 138.886 34.3823 138.886H77.651C79.2669 138.886 80.5781 140.197 80.5781 141.81V219.181Z" fill="#DEA8DE" stroke="#29173B" stroke-width="0.5"/>
<path d="M65.9507 219.181H16.8277V141.81C16.8277 140.197 18.139 138.886 19.7548 138.886H63.0235C64.6394 138.886 65.9507 140.197 65.9507 141.81V219.181Z" fill="#DEA8DE" stroke="#29173B" stroke-width="0.5"/>
<g opacity="0.73">
<path opacity="0.73" d="M20.6749 161.65C20.4547 161.65 20.2739 161.469 20.2739 161.249V151.671C20.2739 146.603 23.9936 142.486 28.5627 142.486H41.6094C41.8296 142.486 42.0105 142.667 42.0105 142.887C42.0105 143.107 41.8296 143.288 41.6094 143.288H28.5627C24.434 143.288 21.0681 147.051 21.0681 151.679V161.257C21.076 161.469 20.8951 161.65 20.6749 161.65Z" fill="white"/>
<path opacity="0.73" d="M20.6749 171.801C20.4547 171.801 20.2739 171.62 20.2739 171.4V167.495C20.2739 167.275 20.4547 167.095 20.6749 167.095C20.8951 167.095 21.076 167.275 21.076 167.495V171.4C21.076 171.628 20.8951 171.801 20.6749 171.801Z" fill="white"/>
</g>
<path d="M202.921 219.181H153.798V141.81C153.798 140.197 155.11 138.886 156.725 138.886H199.994C201.61 138.886 202.921 140.197 202.921 141.81V219.181Z" fill="#DEA8DE" stroke="#29173B" stroke-width="0.5"/>
<path d="M188.294 219.181H139.171V141.81C139.171 140.197 140.482 138.886 142.098 138.886H185.367C186.983 138.886 188.294 140.197 188.294 141.81V219.181Z" fill="#DEA8DE" stroke="#29173B" stroke-width="0.5"/>
<path opacity="0.76" d="M143.018 161.65C142.798 161.65 142.617 161.469 142.617 161.249V151.671C142.617 146.603 146.337 142.486 150.906 142.486H163.952C164.173 142.486 164.354 142.667 164.354 142.887C164.354 143.107 164.173 143.288 163.952 143.288H150.914C146.785 143.288 143.419 147.051 143.419 151.679V161.257C143.419 161.469 143.238 161.65 143.018 161.65Z" fill="white"/>
<path opacity="0.76" d="M143.018 171.801C142.798 171.801 142.617 171.62 142.617 171.4V167.495C142.617 167.275 142.798 167.095 143.018 167.095C143.238 167.095 143.419 167.275 143.419 167.495V171.4C143.419 171.628 143.238 171.801 143.018 171.801Z" fill="white"/>
<path d="M211.441 70.0061C213.167 67.8995 216.583 69.2338 216.424 71.9543C216.424 71.9544 216.424 71.9544 216.424 71.9545L213.373 123.654L213.373 123.654C213.208 126.472 210.709 128.567 207.902 128.252L202.083 127.585L201.903 127.564L201.828 127.728L161.406 215.185C160.393 217.375 158.201 218.772 155.789 218.772H141.966L137.115 203.693L177.803 125.812L177.994 125.446H177.581H169.237C167.908 125.446 167.181 123.9 168.023 122.877L168.023 122.877L211.441 70.0063L211.441 70.0061Z" fill="#69B5B5" stroke="#29173B" stroke-width="0.5"/>
<path d="M157.627 213.102L157.627 213.102L119.441 138.334L103.477 149.074L132.15 212.713L157.627 213.102ZM157.627 213.102C158.33 214.476 159.686 215.388 161.211 215.529M157.627 213.102L161.211 215.529M161.211 215.529L160.879 216.128L161.211 215.529ZM141.54 218.78C137.486 218.78 133.816 216.403 132.15 212.713L160.879 216.128C159.972 217.761 158.239 218.78 156.364 218.78H141.54Z" fill="#69B5B5" stroke="#29173B" stroke-width="0.5"/>
<path d="M95.5913 135.53L95.5912 135.53C93.0815 137.788 88.7405 143.238 83.6267 150.171C78.5192 157.094 72.6573 165.473 67.1108 173.569C61.5645 181.664 56.3345 189.475 52.4911 195.262C50.5694 198.156 48.9943 200.543 47.8998 202.207C47.3525 203.039 46.9253 203.691 46.635 204.134L46.3042 204.639L46.2583 204.709L51.004 218.364H56.7794C62.8141 218.364 68.4376 215.349 71.7807 210.335L114.066 146.866L95.5913 135.53ZM95.5913 135.53L95.5914 135.53L95.5925 135.529L95.5973 135.525L95.6179 135.507C95.6364 135.49 95.6644 135.466 95.7016 135.435C95.776 135.371 95.8872 135.279 96.0326 135.163C96.3235 134.932 96.7513 134.608 97.2959 134.24C98.3859 133.503 99.9404 132.593 101.8 131.895C105.517 130.501 110.434 129.962 115.32 133.334M95.5913 135.53L115.32 133.334M115.32 133.334C117.904 135.12 119.872 137.673 121.074 140.578L121.074 140.579L122.85 144.866C119.903 143.107 116.015 143.93 114.066 146.866L115.32 133.334Z" fill="#69B5B5" stroke="#29173B" stroke-width="0.5"/>
<path d="M0.516592 166.974C0.481178 167.013 0.448681 167.05 0.419107 167.083C1.16933 167.398 2.08082 167.934 3.11625 168.648C4.3155 169.474 5.69475 170.547 7.20262 171.815C10.2186 174.35 13.759 177.669 17.4187 181.356C24.7369 188.73 32.5458 197.589 37.6048 204.616C38.165 205.392 38.7629 206.269 39.3968 207.2C40.8189 209.287 42.4216 211.64 44.1834 213.703C45.4534 215.191 46.7942 216.513 48.1912 217.462C49.5879 218.41 51.0277 218.977 52.5013 218.977H58.0927C63.3526 218.977 68.2256 216.226 70.9407 211.728L0.516592 166.974ZM0.516592 166.974C0.733417 166.734 1.05955 166.387 1.49412 165.966C2.36335 165.124 3.66579 163.986 5.39437 162.804C8.84115 160.448 13.9799 157.921 20.7578 157.23C20.7617 157.232 20.7659 157.233 20.7703 157.235C20.8154 157.255 20.8861 157.287 20.9826 157.337C21.1755 157.438 21.4712 157.609 21.8696 157.889C22.6666 158.448 23.8736 159.439 25.4895 161.158C28.722 164.597 33.5844 170.941 40.07 182.546C46.5563 194.16 51.9712 202.65 57.0419 207.51C59.5798 209.942 62.0494 211.483 64.5426 212.039C66.7834 212.539 69.0204 212.238 71.3112 211.11M0.516592 166.974L71.3112 211.11M71.3112 211.11L70.9411 211.728L71.3112 211.11Z" fill="#69B5B5" stroke="#29173B" stroke-width="0.5"/>
<path d="M211.767 88.3196C211.751 88.3196 211.735 88.3196 211.72 88.3196C211.499 88.296 211.342 88.0996 211.366 87.8796L211.649 85.3574C211.672 85.1374 211.869 84.9802 212.089 85.0038C212.309 85.0274 212.467 85.2238 212.443 85.4438L212.16 87.966C212.144 88.1703 211.971 88.3196 211.767 88.3196Z" fill="#91B3FA"/>
<path d="M175.529 120.18C175.442 120.18 175.356 120.157 175.285 120.094C175.112 119.96 175.08 119.709 175.214 119.536L211.067 72.9905C211.491 72.4405 212.176 72.2598 212.82 72.5191C213.465 72.7783 213.827 73.3912 213.748 74.0748L213.119 79.6533C213.096 79.8733 212.899 80.0304 212.679 80.0069C212.459 79.9833 212.301 79.7869 212.325 79.5669L212.954 73.9883C213.001 73.5955 212.758 73.3598 212.522 73.2576C212.286 73.1633 211.94 73.1712 211.704 73.4776L175.843 120.031C175.765 120.133 175.647 120.18 175.529 120.18Z" fill="#91B3FA"/>
<path d="M94.1893 168.973C94.1107 168.973 94.032 168.949 93.9691 168.902C93.7882 168.776 93.7411 168.532 93.859 168.352L112.403 140.891C113.063 139.909 114.172 139.375 115.352 139.461C116.539 139.548 117.546 140.247 118.057 141.316C118.151 141.512 118.065 141.756 117.868 141.85C117.672 141.944 117.428 141.858 117.334 141.661C116.948 140.852 116.185 140.326 115.289 140.255C114.392 140.184 113.559 140.593 113.056 141.331L94.5117 168.792C94.4488 168.918 94.323 168.973 94.1893 168.973Z" fill="#91B3FA"/>
<path d="M89.3764 176.115C89.2978 176.115 89.2192 176.091 89.1562 176.044C88.9754 175.918 88.9282 175.675 89.0462 175.494L90.2336 173.734C90.3595 173.553 90.6032 173.506 90.7841 173.624C90.965 173.75 91.0122 173.993 90.8942 174.174L89.7067 175.934C89.6281 176.052 89.5023 176.115 89.3764 176.115Z" fill="#91B3FA"/>
<path d="M136.895 27.0618C138.426 26.0852 140.669 24.9232 143.54 24.3147C146.97 23.5879 149.529 24.0263 152.505 24.8737C153.238 25.0824 153.995 25.3154 154.796 25.5621C157.247 26.3164 160.113 27.1987 163.974 27.904L163.974 27.904C167.668 28.5814 172.582 28.4699 176.535 28.0936C178.51 27.9056 180.236 27.6523 181.442 27.4014C182.047 27.2754 182.511 27.152 182.808 27.041C182.907 27.004 182.979 26.9712 183.029 26.9443C181.749 24.3525 181.003 20.0836 180.781 16.0855C180.668 14.0486 180.69 12.07 180.85 10.4024C181.009 8.74559 181.307 7.36132 181.767 6.53882L181.767 6.53861C181.838 6.4116 181.853 6.33164 181.852 6.28786C181.85 6.25532 181.84 6.23092 181.807 6.2019C181.765 6.16621 181.688 6.12534 181.555 6.09149C181.425 6.05826 181.259 6.0359 181.056 6.02529C180.238 5.9824 178.967 6.1363 177.502 6.35605C176.991 6.43276 176.457 6.51731 175.914 6.6033C174.916 6.76142 173.887 6.92439 172.912 7.0523C171.409 7.24939 170 7.36871 168.989 7.25493L168.989 7.25488C166.769 7.00142 165.242 6.62654 163.649 6.15097C163.158 6.00449 162.663 5.8492 162.141 5.6853C160.966 5.31665 159.653 4.90446 157.936 4.4511L136.895 27.0618ZM136.895 27.0618C137.185 23.4706 137.009 19.8606 136.833 16.2695L136.831 16.2363C136.65 12.5359 136.469 8.85565 136.788 5.20257C145.504 2.65699 153.802 3.36063 157.936 4.45109L136.895 27.0618Z" fill="#F29469" stroke="#29173B" stroke-width="0.5"/>
<path d="M136.672 105.676C136.452 105.676 136.271 105.495 136.271 105.275V2.60652C136.271 2.38652 136.452 2.20581 136.672 2.20581C136.892 2.20581 137.073 2.38652 137.073 2.60652V105.283C137.065 105.503 136.892 105.676 136.672 105.676Z" fill="#26264F"/>
<path d="M92.4828 105.691C92.4828 105.636 92.4828 105.581 92.4985 105.526C93.3085 102.329 96.6036 100.694 96.6036 100.694L98.1922 100.82C99.1045 103.633 99.6943 105.008 99.5449 105.778C99.537 105.801 99.537 105.817 99.5291 105.841C98.2158 105.959 95.5184 106.037 92.4828 105.691Z" fill="#29173B"/>
<path d="M99.5448 105.841C99.4741 106.1 99.2853 106.297 99.0415 106.352C97.1777 106.745 94.2208 106.43 92.9783 106.265C92.703 106.226 92.5064 105.975 92.4985 105.692C95.542 106.037 98.2315 105.959 99.5448 105.841Z" fill="#69B5B5"/>
<path d="M96.2278 101.519L96.2278 101.519L96.2271 101.516L95.5974 98.4773H97.3739L97.8195 101.229C97.8195 101.229 97.8195 101.229 97.8196 101.229C97.8633 101.503 97.6936 101.719 97.4878 101.751C97.1143 101.802 96.7359 101.788 96.4702 101.766C96.3626 101.754 96.2559 101.664 96.2278 101.519Z" fill="white" stroke="#29173B" stroke-width="0.5"/>
<path d="M112.977 105.817C111.286 105.77 110.405 105.574 109.957 105.385C109.957 105.55 109.957 105.723 109.965 105.904C109.973 106.092 110.114 106.242 110.287 106.242L119.591 106.179C119.89 106.179 120.063 105.833 119.929 105.558C118.702 105.66 115.596 105.888 112.977 105.817Z" fill="#69B5B5"/>
<path d="M119.945 105.566C119.937 105.542 119.921 105.519 119.905 105.495C119.087 104.348 116.996 102.062 112.859 101.072L110.877 101.009C110.877 101.009 109.996 102.541 109.981 105.385C110.437 105.574 111.31 105.77 113.001 105.817C115.619 105.888 118.726 105.66 119.945 105.566Z" fill="#29173B"/>
<path d="M111.27 101.661C111.608 101.7 112.151 101.739 112.631 101.637C112.89 101.582 113.079 101.339 113.079 101.048V97.7824L112.829 97.829M111.27 101.661L111.301 101.413C111.301 101.413 111.301 101.413 111.301 101.413M111.27 101.661C111.082 101.637 110.932 101.472 110.909 101.268C110.854 100.841 110.762 100.078 110.679 99.3958C110.594 98.6964 110.519 98.0829 110.508 98.0073M111.27 101.661L111.299 101.413C111.3 101.413 111.3 101.413 111.301 101.413M111.301 101.413C111.633 101.451 112.141 101.486 112.579 101.393L112.579 101.393C112.711 101.365 112.829 101.233 112.829 101.048V97.829M111.301 101.413C111.242 101.405 111.169 101.345 111.157 101.239L111.157 101.239L111.157 101.236C111.103 100.819 111.012 100.068 110.93 99.3896C110.872 98.9128 110.819 98.4723 110.786 98.2098M112.829 97.829V97.5747L110.508 98.0073M112.829 97.829L110.786 98.2098M110.786 98.2098C110.77 98.0805 110.759 97.9943 110.754 97.9683L110.508 98.0073M110.786 98.2098L110.553 98.2531L110.508 98.0073" fill="white" stroke="#29173B" stroke-width="0.5"/>
<path d="M96.6194 54.3691C96.6194 54.3691 93.4422 82.5525 95.2117 100.168C95.2117 100.168 97.3271 100.168 98.3888 99.8146C98.3888 99.8146 101.684 72.2597 102.753 64.3712C102.793 64.0726 103.217 64.0569 103.28 64.3555C104.594 70.9869 109.768 97.0096 110.382 99.461C110.382 99.461 112.143 100.168 113.559 99.461C113.559 99.461 110.736 61.7627 108.62 55.0684L96.6194 54.3691Z" fill="#29173B"/>
<path d="M110.643 21.8838L110.643 21.8838C112.916 22.2252 114.503 24.3172 114.192 26.5919L114.192 26.5922L113.296 33.1939L113.295 33.1987L113.289 33.2313L113.265 33.3592C113.244 33.4716 113.213 33.6374 113.172 33.8509C113.091 34.2778 112.972 34.8953 112.824 35.6573C112.526 37.1812 112.107 39.2828 111.622 41.5933C110.666 46.1511 109.455 51.5094 108.412 54.8545C108.358 54.863 108.291 54.8734 108.211 54.8854C107.984 54.9194 107.655 54.9658 107.247 55.0149C106.431 55.1131 105.303 55.2221 104.056 55.2655C102.808 55.3089 101.445 55.2865 100.156 55.1233C98.9128 54.966 97.7542 54.6796 96.8375 54.2061L96.8219 54.1132C96.7981 53.973 96.7631 53.767 96.7179 53.504C96.6275 52.9779 96.4964 52.2234 96.3336 51.3091C96.0081 49.4807 95.5556 47.0131 95.0479 44.4569C94.5404 41.9013 93.9772 39.2545 93.4301 37.0687C93.1566 35.976 92.8865 34.9956 92.6286 34.198C92.3812 33.4329 92.1392 32.8169 91.9084 32.4326L91.8984 32.3877C91.8956 32.3753 91.8925 32.3616 91.8891 32.3467C91.8775 32.2949 91.8624 32.2281 91.8443 32.1471C91.7978 31.9385 91.7312 31.6366 91.6522 31.2633C91.4941 30.5165 91.2864 29.4845 91.0894 28.3433C90.7086 26.1363 90.3745 23.5534 90.5044 21.8277C90.5771 21.8187 90.6692 21.8075 90.7796 21.7946C91.0889 21.7583 91.5421 21.708 92.1167 21.6523C93.2658 21.5408 94.8996 21.4073 96.8371 21.3197C100.714 21.1442 105.798 21.1526 110.643 21.8838Z" fill="#69B5B5" stroke="#29173B" stroke-width="0.5"/>
<path d="M98.5229 20.8373L99.7774 12.3739L103.79 14.7082L104.324 20.7946C103.119 21.5554 101.669 21.5734 100.478 21.379C99.8655 21.2791 99.3317 21.1248 98.951 20.9953C98.7708 20.934 98.6254 20.8785 98.5229 20.8373Z" fill="white" stroke="#29173B" stroke-width="0.5"/>
<path d="M104.824 15.6039L104.823 15.604L103.745 15.6669L103.745 15.6669C101.892 15.7771 100.252 14.4543 99.9729 12.6182L99.9728 12.618L99.2194 7.68345C99.2445 7.66857 99.2726 7.65191 99.3038 7.63365C99.4498 7.54805 99.6605 7.42746 99.9169 7.28837C100.431 7.00979 101.124 6.65891 101.847 6.36606C102.573 6.07151 103.311 5.84344 103.918 5.79706C104.519 5.75115 104.905 5.88566 105.092 6.19863C105.093 6.20478 105.095 6.21218 105.097 6.22093C105.104 6.25704 105.115 6.30957 105.128 6.37783C105.155 6.51399 105.192 6.70815 105.236 6.94867C105.325 7.42949 105.446 8.09289 105.58 8.84214C105.85 10.3405 106.176 12.1807 106.424 13.587C106.602 14.6029 105.853 15.5491 104.824 15.6039Z" fill="white" stroke="#29173B" stroke-width="0.5"/>
<path d="M97.7754 7.57222C97.3586 7.05365 96.9968 6.22865 97.8855 5.34866C98.782 4.46081 99.7886 4.68081 100.433 4.97938C100.717 5.11295 101.07 5.05009 101.275 4.81438C101.361 4.70438 101.495 4.63366 101.7 4.65724C102.077 4.69652 102.407 4.45295 102.455 4.07581C102.533 3.43939 102.871 2.68511 104.004 2.46511C106.08 2.0644 107.118 4.13867 107.079 5.60009C107.039 7.06151 104.767 7.36793 103.477 7.12436C102.525 6.94365 101.707 7.7765 101.338 8.23221C101.204 8.39721 101.157 8.61721 101.204 8.8215L101.534 10.2279C101.306 10.6679 101.086 11.1158 100.764 11.485C100.536 11.7522 100.284 11.9015 100.017 11.9643C99.6313 11.2415 98.5461 11.1236 98.0428 11.1079C97.854 11.1001 97.6732 11.0136 97.5473 10.8722C97.1699 10.4401 96.5722 9.46578 97.7125 8.51507C97.9799 8.28721 98.0113 7.86293 97.7754 7.57222Z" fill="#29173B"/>
<path d="M98.2595 12.6019L98.2595 12.6019L98.2587 12.6006C97.8447 11.8904 97.9405 11.4503 98.142 11.2158C98.3618 10.9598 98.7928 10.8396 99.2452 10.9431C99.402 10.9789 99.5507 11.1095 99.6848 11.3538C99.8172 11.5947 99.9134 11.9078 99.9814 12.2301C100.049 12.5497 100.086 12.8644 100.106 13.1004C100.115 13.2066 100.12 13.2961 100.124 13.3621C100.1 13.3782 100.073 13.396 100.041 13.4143C99.9273 13.4807 99.7716 13.5486 99.5932 13.5681C99.419 13.5873 99.2162 13.5615 98.9961 13.4313C98.7728 13.2992 98.5177 13.0511 98.2595 12.6019Z" fill="white" stroke="#29173B" stroke-width="0.5"/>
<path d="M92.376 21.7371C92.4036 21.8089 92.4409 21.9062 92.4867 22.0263C92.5924 22.3039 92.7434 22.7031 92.9242 23.1892C93.2859 24.1616 93.7665 25.4812 94.2429 26.8707C94.7194 28.2609 95.1906 29.718 95.534 30.9663C95.7058 31.5906 95.8447 32.1596 95.9365 32.6402C95.9956 32.9503 96.0337 33.2165 96.0497 33.4334C96.0466 33.4325 96.0435 33.4316 96.0404 33.4306C95.8245 33.3658 95.509 33.2678 95.1124 33.1354C94.3189 32.8706 93.2012 32.4685 91.9065 31.9201C89.3147 30.8223 86.0242 29.1425 83.2051 26.8111C80.3853 24.4792 78.0564 21.5115 77.3474 17.8396C76.6527 14.2417 77.5043 9.92011 81.0645 4.79297L81.8044 5.84162C81.8001 5.85656 81.7955 5.87284 81.7906 5.89042C81.7602 5.9986 81.7181 6.15637 81.67 6.35706C81.5739 6.75833 81.4539 7.3318 81.3576 8.02386C81.165 9.40604 81.0652 11.2711 81.444 13.1855C81.8232 15.1021 82.6841 17.0757 84.4183 18.6567C86.129 20.2164 88.6681 21.3742 92.376 21.7371Z" fill="#69B5B5" stroke="#29173B" stroke-width="0.5"/>
<path d="M81.2016 4.42741L81.2001 4.40627C81.1982 4.37774 81.1957 4.33528 81.1931 4.28078C81.188 4.17172 81.1829 4.01476 81.183 3.82505C81.1833 3.44461 81.2045 2.93722 81.2873 2.42228C81.3705 1.90432 81.5133 1.39617 81.7463 1.003C81.9762 0.615 82.2831 0.354771 82.7017 0.283856C83.1679 0.2069 83.5438 0.266902 83.8525 0.405249C84.1636 0.544683 84.4211 0.770349 84.6374 1.04531C85.0752 1.60196 85.3194 2.32638 85.4901 2.84226C85.5077 2.89527 85.5081 2.97512 85.4597 3.09494C85.4111 3.21513 85.3208 3.35589 85.189 3.51231C84.9258 3.82475 84.5293 4.16188 84.09 4.47536C83.6527 4.78743 83.1843 5.06811 82.7858 5.26972C82.5863 5.37059 82.4078 5.44995 82.2618 5.50344C82.1077 5.5599 82.0149 5.57796 81.9763 5.57796C81.8944 5.57796 81.8047 5.53847 81.7043 5.43846C81.6033 5.33782 81.5112 5.19448 81.4321 5.03643C81.3541 4.88053 81.2947 4.7225 81.2547 4.60215C81.2348 4.54236 81.22 4.49279 81.2102 4.45862C81.2067 4.446 81.2038 4.43551 81.2016 4.42741Z" fill="white" stroke="#29173B" stroke-width="0.5"/>
<path d="M114.312 26.4137C114.317 26.3891 114.321 26.3647 114.325 26.3406C115.168 30.7728 116.718 33.577 118.633 35.2498C120.748 37.0972 123.269 37.5319 125.667 37.302C128.06 37.0725 130.347 36.1803 132.028 35.3518C132.871 34.9368 133.565 34.536 134.048 34.2386C134.29 34.0898 134.48 33.9668 134.61 33.8807C134.633 33.8652 134.654 33.8509 134.674 33.8378L135.746 34.4939C126.107 42.7845 120.408 43.0666 117.148 41.4157C115.49 40.5761 114.418 39.2183 113.759 38.0592C113.43 37.4807 113.206 36.9552 113.064 36.5752C112.993 36.3853 112.943 36.232 112.911 36.1271C112.895 36.0747 112.883 36.0343 112.876 36.0076L112.873 35.9984C112.878 35.5391 112.98 34.6425 113.137 33.5328C113.297 32.4035 113.51 31.0721 113.724 29.7982C113.937 28.5246 114.151 27.3097 114.312 26.4137Z" fill="#69B5B5" stroke="#29173B" stroke-width="0.5"/>
<path d="M140.127 32.541L140.127 32.5411C140.085 32.9643 139.846 33.288 139.474 33.5432C139.098 33.8018 138.6 33.9777 138.088 34.0948C137.58 34.2112 137.074 34.2656 136.694 34.2907C136.505 34.3033 136.347 34.3084 136.238 34.3105C136.184 34.3115 136.141 34.3117 136.112 34.3117L136.091 34.3116C136.082 34.31 136.071 34.3078 136.058 34.305C136.023 34.2976 135.972 34.2863 135.911 34.2705C135.788 34.2389 135.626 34.1905 135.464 34.1234C135.3 34.0553 135.15 33.9731 135.043 33.8791C134.936 33.7863 134.89 33.6999 134.884 33.6186C134.882 33.5784 134.895 33.4841 134.941 33.3281C134.986 33.1785 135.053 32.9948 135.141 32.7889C135.316 32.3775 135.566 31.8912 135.848 31.4341C136.132 30.975 136.442 30.5573 136.737 30.2745C136.884 30.1329 137.019 30.0339 137.135 29.9779C137.252 29.9221 137.332 29.9174 137.387 29.9318L137.388 29.9322C137.916 30.067 138.656 30.2627 139.241 30.6624C139.529 30.8599 139.772 31.1018 139.931 31.4026C140.089 31.7011 140.173 32.0716 140.127 32.541Z" fill="white" stroke="#29173B" stroke-width="0.5"/>
<path d="M94.8125 26.5625C94.5717 26.3764 94.3137 26.2315 94.0625 26.0625C93.9092 25.9593 93.7839 25.7888 93.625 25.7014C93.5282 25.6481 93.392 25.6445 93.375 25.5C93.361 25.3812 93.1735 25.2044 93.1389 25.0486C93.0563 24.6772 92.9375 24.29 92.9375 23.9062C92.9375 23.6782 92.9375 23.4502 92.9375 23.2222C92.9375 23.0917 92.6253 22.8353 92.7986 23.1458C93.3296 24.0972 93.391 25.2378 93.6597 26.2743C93.8501 27.0088 94.3224 27.6411 94.5903 28.3472C94.8435 29.0148 95.2571 29.6014 95.4722 30.2847C95.8293 31.4189 95.8125 32.5744 95.8125 33.75" stroke="#69B5B5" stroke-width="2" stroke-linecap="round"/>
<path d="M92.9375 32.375C93.1222 32.6188 93.4423 32.8296 93.75 32.9236C94.0111 33.0034 94.4261 33.2993 94.6875 33.125" stroke="#69B5B5" stroke-linecap="round"/>
<path d="M94.8125 32.625C94.4864 32.625 94.2964 32.5593 94 32.5" stroke="#69B5B5" stroke-linecap="round"/>
</svg>
