<svg width="198" height="193" viewBox="0 0 198 193" fill="none" xmlns="http://www.w3.org/2000/svg">
<path d="M197.999 189.358C197.999 190.874 153.874 192.101 99.4526 192.101C45.0316 192.101 0.90625 190.874 0.90625 189.358C0.90625 187.842 45.0316 186.617 99.4644 186.617C153.897 186.617 197.999 187.844 197.999 189.358Z" fill="#F2F2F2"/>
<path d="M67.1965 17.2397L67.1967 17.2398L67.1967 17.2399L67.1967 17.2399L67.7115 17.7034L67.6113 17.0179L67.6113 17.0179L67.6113 17.0179L67.6113 17.0176L67.6111 17.0166L67.6105 17.0124L67.6081 16.9951L67.5989 16.9281C67.5911 16.87 67.5804 16.7865 67.5685 16.6856C67.5448 16.4834 67.5169 16.2128 67.4997 15.937C67.4823 15.6591 67.4765 15.385 67.4943 15.1723C67.4991 15.1148 67.5054 15.065 67.5128 15.0228C67.5733 15.0644 67.6472 15.1188 67.7343 15.1861C68.0005 15.392 68.366 15.7003 68.7995 16.0801C69.6653 16.8388 70.789 17.8714 71.9036 18.9122C73.0178 19.9526 74.1214 20.9997 74.9465 21.7868C75.359 22.1803 75.7019 22.5088 75.9416 22.7389L76.144 22.9334L70.9855 28.691C70.1727 28.3344 69.2337 27.4866 68.2833 26.3452C67.2795 25.1397 66.2904 23.6404 65.4559 22.1439C64.6211 20.6467 63.9466 19.1622 63.5678 17.988C63.3779 17.3994 63.2662 16.9009 63.2414 16.5234C63.2289 16.3346 63.239 16.1871 63.2655 16.0785C63.2919 15.9701 63.3303 15.9171 63.362 15.8912C63.6362 15.6673 63.989 15.61 64.4008 15.6769C64.8154 15.7442 65.263 15.9342 65.6843 16.1682C66.1031 16.4009 66.482 16.6692 66.7574 16.8806C66.8947 16.986 67.0054 17.0766 67.0814 17.1405C67.1194 17.1724 67.1486 17.1977 67.1682 17.2147L67.1901 17.234L67.1954 17.2387L67.1965 17.2397Z" fill="white" stroke="#29173B" stroke-width="0.5"/>
<path d="M67.9672 27.5193C67.9529 27.4929 67.9398 27.4688 67.9281 27.447L74.5136 19.9229C84.0365 26.8005 91.9262 29.0284 98.2686 29.1306C104.65 29.2335 109.436 27.1835 112.705 25.608C115.96 24.0394 122.063 21.3355 127.378 20.3106C130.042 19.7971 132.465 19.714 134.228 20.3701C135.104 20.6958 135.81 21.2015 136.309 21.9246C136.808 22.6486 137.111 23.6091 137.145 24.8649C137.322 31.2871 132.989 37.2372 125.955 41.514C118.927 45.7869 109.245 48.3584 98.841 48.0294C88.4783 47.7018 80.7332 42.5276 75.5704 37.42C72.9895 34.8668 71.0577 32.3335 69.7713 30.4389C69.1282 29.4918 68.6468 28.7048 68.3266 28.1554C68.1665 27.8807 68.0467 27.6654 67.9672 27.5193Z" fill="#69B5B5" stroke="#29173B" stroke-width="0.5"/>
<path d="M114.012 175.829H135.965L137.06 181.775H116.3L114.012 175.829Z" fill="white" stroke="#29173B" stroke-width="0.5"/>
<path d="M116.128 182.025H137.921L138.927 188.742H109.54L116.128 182.025Z" fill="#29173B"/>
<path d="M137.36 175.579C137.36 175.579 133.571 144.045 133.435 141.583C133.299 139.12 133.2 130.913 137.36 127.493C141.52 124.072 151.34 111.376 152.611 99.831C153.883 88.2855 152.611 68.9384 152.611 68.9384H126.098C126.098 68.9384 105.708 100.951 105.708 119.415C105.708 142.813 110.039 173.534 111.266 175.579H137.36Z" fill="#29173B"/>
<path d="M160.518 68.9384L179.439 175.579H154.606L122.759 77.5319L160.518 68.9384Z" fill="#29173B"/>
<path d="M158.24 182.025H179.472L181.061 188.742H154.129L158.24 182.025Z" fill="#29173B"/>
<path d="M156.124 175.829H178.077L179.172 181.775H158.412L156.124 175.829Z" fill="white" stroke="#29173B" stroke-width="0.5"/>
<path d="M154.875 24.7385L154.875 24.7385C154.474 22.3917 153.778 20.7182 151.958 19.6064C150.111 18.4778 147.067 17.9014 141.886 17.9014C137.05 17.9014 131.423 18.5882 127.304 24.0549C126.768 24.7665 126.295 25.9349 125.877 27.4901C125.461 29.0388 125.105 30.9454 124.79 33.1133C124.159 37.4492 123.694 42.8059 123.226 48.3895C123.195 48.7654 123.163 49.1422 123.131 49.5199C122.694 54.7489 122.244 60.1261 121.645 64.9947C121.004 70.2108 120.19 74.8637 119.029 78.1333C118.957 78.3359 118.99 78.5341 119.159 78.7527C119.336 78.9826 119.656 79.2224 120.13 79.4609C121.074 79.9362 122.536 80.3629 124.379 80.7185C128.059 81.4283 133.181 81.8413 138.506 81.8276C143.832 81.8139 149.346 81.3734 153.812 80.3827C156.045 79.8872 158.006 79.2562 159.548 78.4777C161.093 77.6974 162.19 76.7822 162.734 75.7327L154.875 24.7385ZM154.875 24.7385L154.876 24.743M154.875 24.7385L154.876 24.743M154.876 24.743L155.122 24.6963M154.876 24.743L155.122 24.6963M155.122 24.6963C154.876 24.743 154.876 24.7431 154.876 24.7435M155.122 24.6963L154.876 24.7435M154.876 24.7435L154.877 24.7452M154.876 24.7435L154.877 24.7452M154.877 24.7452L154.878 24.7518M154.877 24.7452L154.878 24.7518M154.878 24.7518L154.883 24.7781M154.878 24.7518L154.883 24.7781M154.883 24.7781L154.903 24.882M154.883 24.7781L154.903 24.882M154.903 24.882L154.979 25.2879M154.903 24.882L154.979 25.2879M154.979 25.2879C155.046 25.6437 155.144 26.1658 155.269 26.8313M154.979 25.2879L155.269 26.8313M155.269 26.8313C155.518 28.1624 155.872 30.0668 156.293 32.3605M155.269 26.8313L156.293 32.3605M156.293 32.3605C157.134 36.948 158.242 43.092 159.306 49.3186M156.293 32.3605L159.306 49.3186M159.306 49.3186C160.371 55.5458 161.393 61.8534 162.062 66.769M159.306 49.3186L162.062 66.769M162.062 66.769C162.397 69.2273 162.644 71.3337 162.764 72.9064M162.062 66.769L162.764 72.9064M162.764 72.9064C162.824 73.6933 162.852 74.3417 162.844 74.8316M162.764 72.9064L162.844 74.8316M162.844 74.8316C162.84 75.0767 162.828 75.2776 162.807 75.4339M162.844 74.8316L162.807 75.4339M162.807 75.4339C162.785 75.5953 162.757 75.6883 162.734 75.7324L162.807 75.4339Z" fill="#69B5B5" stroke="#29173B" stroke-width="0.5"/>
<path d="M143.644 18.3285C143.557 18.1031 143.463 17.8668 143.368 17.6249C142.727 15.9961 141.985 14.1142 142.306 13.6124C143.592 11.6069 144.61 6.32619 139.491 3.80765C135.417 1.79047 130.833 3.34611 130.469 5.62334M143.644 18.3285L143.41 18.4185M143.644 18.3285C144.352 20.1653 138.285 21.0415 138.092 19.3172M143.644 18.3285L143.41 18.4186C143.41 18.4186 143.41 18.4185 143.41 18.4185M143.41 18.4185C143.325 18.1967 143.233 17.9627 143.138 17.7223C142.864 17.0272 142.569 16.2781 142.347 15.612C142.198 15.1634 142.077 14.7407 142.018 14.3884C141.989 14.2123 141.974 14.0456 141.981 13.8975C141.987 13.7529 142.016 13.6023 142.096 13.4778L142.096 13.4775C142.709 12.5205 143.27 10.7566 143.052 8.93201C142.837 7.12483 141.859 5.25146 139.38 4.03197L139.38 4.03168C137.398 3.0505 135.295 2.93993 133.649 3.34775C132.826 3.55169 132.126 3.88303 131.615 4.29068C131.104 4.69864 130.794 5.17174 130.716 5.6621L130.716 5.66138L130.469 5.62334M143.41 18.4185C143.473 18.5811 143.46 18.7224 143.393 18.857C143.321 19.0006 143.179 19.1491 142.964 19.2921C142.533 19.5785 141.873 19.798 141.166 19.9114C140.461 20.0247 139.74 20.0272 139.195 19.9046C138.628 19.7768 138.371 19.5478 138.341 19.2921M130.469 5.62334L130.716 5.66277L129.735 12.0324M130.469 5.62334L129.486 12.0062L129.735 12.0324M129.735 12.0324L129.697 12.2798L130.448 12.359M129.735 12.0324L130.474 12.1104L130.696 12.1338L130.698 12.3574C130.698 12.3575 130.698 12.3575 130.448 12.359M130.448 12.359C130.448 12.359 130.481 17.9701 134.491 17.6374C135.01 17.5951 135.612 17.4198 136.151 17.2627C136.808 17.0715 137.372 16.9073 137.583 17.0423M130.448 12.359L130.698 12.3575L130.698 12.3578L130.698 12.3602L130.698 12.3707C130.698 12.3803 130.698 12.395 130.699 12.4145C130.7 12.4534 130.702 12.5112 130.707 12.5852C130.715 12.7332 130.732 12.9453 130.764 13.1992C130.828 13.7085 130.954 14.379 131.2 15.0353C131.446 15.6933 131.806 16.3204 132.329 16.7621C132.844 17.1978 133.532 17.466 134.47 17.3882L134.47 17.3882C134.963 17.3481 135.539 17.1805 136.084 17.022C136.141 17.0053 136.198 16.9886 136.255 16.9723C136.544 16.8888 136.824 16.8115 137.058 16.7718C137.175 16.752 137.29 16.7398 137.396 16.7436C137.497 16.7472 137.615 16.7663 137.716 16.8307M137.583 17.0423C137.979 17.2876 138.041 18.42 138.075 19.0372C138.081 19.151 138.086 19.2472 138.092 19.3172M137.583 17.0423L137.718 16.8317C137.717 16.8313 137.717 16.831 137.716 16.8307M137.583 17.0423L137.715 16.8297C137.715 16.8301 137.716 16.8304 137.716 16.8307M138.092 19.3172L138.341 19.2895C138.341 19.2903 138.341 19.2912 138.341 19.2921M138.092 19.3172L138.341 19.2951C138.341 19.2941 138.341 19.2931 138.341 19.2921M138.341 19.2921C138.336 19.235 138.331 19.1495 138.326 19.0452C138.312 18.7906 138.291 18.4242 138.246 18.0869C138.214 17.8418 138.166 17.5898 138.091 17.375C138.02 17.1712 137.909 16.9508 137.716 16.8307" fill="white" stroke="#29173B" stroke-width="0.5"/>
<path d="M143.41 18.4092L143.41 18.4094C143.473 18.5709 143.46 18.7113 143.393 18.8454C143.321 18.9885 143.179 19.1368 142.964 19.2796C142.533 19.5656 141.873 19.7852 141.166 19.8988C140.461 20.0122 139.74 20.0149 139.195 19.8922C138.628 19.7645 138.371 19.5352 138.341 19.278C138.336 19.221 138.331 19.1354 138.325 19.0311C138.311 18.7765 138.291 18.4101 138.246 18.0728C138.214 17.8278 138.166 17.5757 138.091 17.361C138.064 17.2828 138.031 17.2022 137.989 17.1257C138.404 17.006 138.821 16.8087 139.221 16.5742C139.796 16.236 140.352 15.8104 140.834 15.3964C141.307 14.9913 141.713 14.5938 142.005 14.2934C142.009 14.3217 142.014 14.3502 142.018 14.3791C142.077 14.7313 142.197 15.154 142.347 15.6026C142.569 16.2687 142.864 17.0178 143.138 17.7129C143.232 17.9534 143.325 18.1874 143.41 18.4092Z" fill="white" stroke="#29173B" stroke-width="0.5"/>
<path d="M139.017 10.1169C141.584 10.0349 139.251 15.3953 142.041 15.5921C144.831 15.7889 147.586 10.0255 146.206 5.09855C144.826 0.171569 140.934 -0.104885 137.172 0.021628C133.411 0.148141 128.679 1.19304 128.296 3.95759C127.376 10.6347 136.063 6.12705 136.309 8.20749C136.497 9.81467 136.497 14.3902 134.871 14.2707C133.245 14.1513 131.788 12.598 130.469 12.762C129.706 12.8557 126.48 21.332 131.708 22.3535C136.884 23.3633 138.841 18.9494 138.261 15.0439C137.71 11.3281 137.766 10.1567 139.017 10.1169Z" fill="#29173B"/>
<path d="M137.901 88.743L137.901 88.7429L137.901 88.7428L137.901 88.7428L138.414 88.2666L137.715 88.3101L137.715 88.3101L137.715 88.3101L137.715 88.3101L137.714 88.3102L137.71 88.3105L137.692 88.3115L137.624 88.3151C137.565 88.318 137.481 88.3218 137.379 88.3252C137.175 88.3321 136.902 88.3374 136.625 88.3314C136.347 88.3253 136.073 88.3079 135.864 88.2718C135.809 88.2623 135.761 88.252 135.721 88.2413C135.769 88.184 135.831 88.1141 135.907 88.0318C136.137 87.7847 136.478 87.4479 136.896 87.05C137.732 86.2553 138.862 85.2288 140 84.2121C141.138 83.1958 142.281 82.1909 143.139 81.44C143.569 81.0646 143.927 80.7527 144.178 80.5347L144.39 80.3504L149.657 85.992C149.229 86.7686 148.299 87.6269 147.076 88.4706C145.783 89.3618 144.199 90.2123 142.632 90.9092C141.064 91.6064 139.523 92.1454 138.319 92.418C137.715 92.5547 137.208 92.6215 136.829 92.6128C136.64 92.6084 136.494 92.5854 136.388 92.5494C136.282 92.5136 136.233 92.4708 136.211 92.4374C136.013 92.1457 135.988 91.7902 136.092 91.3864C136.197 90.98 136.426 90.5516 136.697 90.1531C136.967 89.757 137.268 89.4036 137.503 89.1483C137.621 89.021 137.721 88.9188 137.791 88.8488C137.827 88.8139 137.854 88.787 137.873 88.769L137.894 88.7489L137.899 88.7441L137.901 88.743Z" fill="white" stroke="#29173B" stroke-width="0.5"/>
<path d="M151.735 19.8572L151.735 19.8572C158.152 20.2502 163.699 25.0854 167.339 32.459C170.975 39.8262 172.681 49.6826 171.432 60.0033C170.188 70.2827 164.339 77.5274 158.784 82.2095C156.008 84.55 153.309 86.2466 151.304 87.3579C150.302 87.9134 149.474 88.3224 148.897 88.5921C148.609 88.727 148.383 88.827 148.23 88.8931C148.203 88.9051 148.177 88.916 148.154 88.9258L141.242 81.706C148.943 72.8415 151.864 65.1921 152.529 58.894C153.198 52.5571 151.581 47.6167 150.304 44.2271C149.033 40.8521 146.878 34.5424 146.327 29.165C146.05 26.4708 146.182 24.0532 146.992 22.3584C147.395 21.5171 147.962 20.8592 148.727 20.4278C149.493 19.9959 150.479 19.7801 151.735 19.8572Z" fill="#69B5B5" stroke="#29173B" stroke-width="0.5"/>
<path d="M0.0544246 127.022C-0.431268 129.444 2.48054 129.929 2.96624 133.322C3.45193 136.714 1.9972 137.684 2.48054 139.633C2.96389 141.583 5.88039 142.058 6.36374 146.896C6.84708 151.734 4.90901 151.254 5.39705 154.159C5.88508 157.064 8.79455 157.069 9.28024 159.491C9.76593 161.914 9.76359 165.306 10.735 168.216C11.7064 171.126 14.6182 175.479 16.0752 175.479C17.5323 175.479 21.4132 167.241 20.4418 164.817C19.4704 162.392 18.0157 161.909 18.0157 159.972C18.0157 158.034 19.9584 153.177 19.4727 149.794C18.9871 146.411 14.6182 144.947 14.1325 142.531C13.6468 140.116 15.1039 133.807 11.7064 130.899C8.30886 127.992 0.540117 124.599 0.0544246 127.022Z" fill="#F29191"/>
<path d="M15.8501 174.656C15.7879 174.656 15.7282 174.632 15.6842 174.588C15.6402 174.544 15.6155 174.484 15.6155 174.422C15.6155 174.359 15.5756 168.061 13.7267 166.222C11.8778 164.383 10.7726 158.61 10.2494 147.632C9.78013 137.658 2.6144 129.444 2.54166 129.358C2.51951 129.334 2.50241 129.307 2.49141 129.277C2.48041 129.246 2.47576 129.214 2.47774 129.182C2.47972 129.15 2.48829 129.119 2.50292 129.09C2.51755 129.061 2.53793 129.036 2.56278 129.016C2.58614 128.994 2.61381 128.976 2.64407 128.966C2.67432 128.955 2.70652 128.95 2.73865 128.952C2.77079 128.954 2.80217 128.962 2.83084 128.977C2.85952 128.992 2.88488 129.012 2.90534 129.037C2.98043 129.121 10.2494 137.457 10.7327 147.604C11.2442 158.301 12.3001 164.104 14.0599 165.859C16.0496 167.846 16.0918 174.141 16.0918 174.408C16.0918 174.47 16.0671 174.53 16.0231 174.574C15.9791 174.618 15.9194 174.642 15.8572 174.642L15.8501 174.656Z" fill="#6C557F"/>
<path d="M44.4824 134.357C46.1999 136.07 40.5921 136.78 40.1229 140.172C39.6536 143.565 39.6372 145.02 37.6944 146.966C35.7516 148.913 32.8351 149.382 33.3185 152.285C33.8018 155.187 34.7732 158.1 33.3185 159.547C31.8637 160.995 28.4639 161 27.4925 163.425C26.5211 165.85 27.0068 168.755 25.0664 171.177C23.126 173.6 20.2118 178.44 17.7927 177.48C15.3736 176.519 16.8213 165.362 17.7927 163.423C18.7641 161.483 19.7331 160.03 19.7331 158.575C19.7331 157.12 19.2404 154.712 20.2141 152.285C21.1879 149.858 26.5235 148.892 27.0185 147.437C27.5136 145.982 27.9899 138.23 30.9017 136.29C33.8135 134.35 41.5706 131.45 44.4824 134.357Z" fill="#F29191"/>
<path d="M18.5367 176.65C18.4927 176.65 18.4496 176.638 18.4123 176.615C18.384 176.6 18.3592 176.578 18.3395 176.553C18.3197 176.528 18.3054 176.498 18.2975 176.467C18.2896 176.436 18.2882 176.403 18.2934 176.372C18.2986 176.34 18.3103 176.309 18.3278 176.282C18.3466 176.25 20.2917 173.002 20.7023 171.362C20.8079 170.938 20.937 170.299 21.0848 169.558C21.6198 166.869 22.4316 162.802 23.6798 161.555C25.4889 159.749 28.3725 154.208 30.4115 147.121C32.9104 138.389 41.1718 135.833 41.254 135.81C41.2844 135.8 41.3167 135.795 41.3488 135.798C41.3809 135.801 41.4121 135.81 41.4405 135.825C41.4689 135.84 41.4939 135.861 41.5138 135.886C41.5338 135.911 41.5484 135.94 41.5566 135.972C41.567 136.002 41.5711 136.034 41.5685 136.066C41.5659 136.098 41.5567 136.129 41.5415 136.158C41.5263 136.186 41.5054 136.211 41.4802 136.231C41.4549 136.251 41.4259 136.266 41.3947 136.274C41.3126 136.297 33.3022 138.783 30.8784 147.255C28.8277 154.421 25.8784 160.047 24.0224 161.9C22.8821 163.062 22.0562 167.192 21.5658 169.664C21.4156 170.411 21.2866 171.07 21.1786 171.491C20.7516 173.202 18.8323 176.411 18.7502 176.542C18.7267 176.577 18.6948 176.605 18.6574 176.624C18.62 176.643 18.5785 176.652 18.5367 176.65Z" fill="#6C557F"/>
<path d="M17.922 139.905C12.096 140.39 14.0388 157.837 14.0388 157.837C15.4935 172.862 17.4363 179.647 18.8934 180.132C20.3504 180.617 23.2599 158.812 23.2599 153.477C23.2599 153.477 23.7456 139.423 17.922 139.905Z" fill="#DEA8DE"/>
<path d="M18.6492 177.709H18.6211C18.5891 177.706 18.558 177.697 18.5298 177.682C18.5015 177.666 18.4767 177.645 18.4569 177.62C18.4372 177.595 18.4228 177.566 18.4147 177.535C18.4066 177.504 18.4049 177.471 18.4099 177.44C20.3245 161.658 17.9406 141.829 17.9242 141.634C17.9164 141.572 17.9337 141.509 17.9722 141.46C18.0107 141.41 18.0673 141.378 18.1295 141.371C18.1917 141.363 18.2545 141.38 18.304 141.419C18.3535 141.457 18.3857 141.513 18.3935 141.576C18.4169 141.775 20.8008 161.658 18.8792 177.498C18.8734 177.555 18.8468 177.609 18.8044 177.647C18.762 177.686 18.7068 177.708 18.6492 177.709Z" fill="white"/>
<path d="M25.883 188.742H11.1152C10.6201 188.742 10.2048 188.442 10.1508 188.039L8.00391 172.749C7.98168 172.586 7.99483 172.421 8.04245 172.263C8.09007 172.106 8.17105 171.961 8.27989 171.837C8.38874 171.714 8.52289 171.615 8.67325 171.548C8.8236 171.481 8.98664 171.448 9.15127 171.449H27.8727C28.0366 171.45 28.1986 171.485 28.3476 171.553C28.4966 171.621 28.6293 171.721 28.7367 171.844C28.844 171.968 28.9236 172.113 28.9701 172.27C29.0166 172.427 29.0288 172.592 29.006 172.754L26.8591 188.043C26.7934 188.442 26.3781 188.742 25.883 188.742Z" fill="#DDDDDD"/>
<path d="M70.7216 75.8076H57.3779C57.1786 75.8076 56.9874 75.7287 56.8462 75.5882C56.705 75.4476 56.6254 75.2569 56.6248 75.0579C56.6254 74.8588 56.705 74.6682 56.8462 74.5276C56.9874 74.3871 57.1786 74.3082 57.3779 74.3082H70.7216C70.9207 74.3082 71.1117 74.3872 71.2525 74.5278C71.3933 74.6684 71.4724 74.8591 71.4724 75.0579C71.4724 75.2567 71.3933 75.4474 71.2525 75.588C71.1117 75.7286 70.9207 75.8076 70.7216 75.8076Z" fill="#DEA8DE"/>
<path d="M66.3151 83.4288C66.2436 83.4288 66.1749 83.4004 66.1243 83.3499C66.0737 83.2994 66.0453 83.2309 66.0453 83.1594V23.5882C66.0204 23.0767 65.7995 22.5944 65.4282 22.2413C65.0569 21.8881 64.5637 21.6911 64.0509 21.6911C63.5381 21.6911 63.0449 21.8881 62.6736 22.2413C62.3023 22.5944 62.0814 23.0767 62.0565 23.5882V83.1711C62.0565 83.2426 62.0281 83.3111 61.9775 83.3616C61.9269 83.4122 61.8582 83.4405 61.7867 83.4405C61.7151 83.4405 61.6465 83.4122 61.5959 83.3616C61.5453 83.3111 61.5168 83.2426 61.5168 83.1711V23.5882C61.5369 22.9301 61.8128 22.3057 62.2861 21.8474C62.7593 21.389 63.3927 21.1326 64.0521 21.1326C64.7114 21.1326 65.3448 21.389 65.8181 21.8474C66.2914 22.3057 66.5673 22.9301 66.5873 23.5882V83.1711C66.5837 83.2407 66.5534 83.3063 66.5028 83.3543C66.4521 83.4022 66.3849 83.4289 66.3151 83.4288Z" fill="#29173B"/>
<path d="M71.1768 83.4288C71.1074 83.4283 71.0409 83.4014 70.9907 83.3535C70.9405 83.3056 70.9106 83.2403 70.907 83.1711V28.4449C70.907 26.6286 70.1844 24.8868 68.8982 23.6025C67.6121 22.3183 65.8676 21.5968 64.0487 21.5968C62.2297 21.5968 60.4853 22.3183 59.1991 23.6025C57.9129 24.8868 57.1903 26.6286 57.1903 28.4449V83.1711C57.1903 83.2426 57.1619 83.3111 57.1113 83.3616C57.0607 83.4122 56.992 83.4405 56.9205 83.4405C56.8489 83.4405 56.7803 83.4122 56.7297 83.3616C56.6791 83.3111 56.6506 83.2426 56.6506 83.1711V28.4449C56.6506 27.4748 56.842 26.5142 57.2138 25.618C57.5856 24.7218 58.1305 23.9075 58.8175 23.2215C59.5044 22.5356 60.32 21.9914 61.2176 21.6202C62.1151 21.249 63.0771 21.0579 64.0487 21.0579C65.0202 21.0579 65.9822 21.249 66.8798 21.6202C67.7773 21.9914 68.5929 22.5356 69.2798 23.2215C69.9668 23.9075 70.5117 24.7218 70.8835 25.618C71.2553 26.5142 71.4467 27.4748 71.4467 28.4449V83.1711C71.4437 83.2405 71.4139 83.3061 71.3636 83.3541C71.3133 83.4021 71.2464 83.4289 71.1768 83.4288Z" fill="#29173B"/>
<path d="M76.1838 83.4288C76.1122 83.4288 76.0436 83.4005 75.993 83.3499C75.9424 83.2994 75.914 83.2309 75.914 83.1594V33.4422C75.8701 30.3291 74.6008 27.3584 72.3806 25.1725C70.1604 22.9865 67.1677 21.761 64.0497 21.761C60.9317 21.761 57.939 22.9865 55.7187 25.1725C53.4985 27.3584 52.2293 30.3291 52.1854 33.4422V83.1711C52.1854 83.2426 52.157 83.3111 52.1064 83.3616C52.0558 83.4122 51.9871 83.4405 51.9156 83.4405C51.844 83.4405 51.7754 83.4122 51.7248 83.3616C51.6742 83.3111 51.6458 83.2426 51.6458 83.1711V33.4422C51.6906 30.1868 53.0172 27.08 55.3385 24.7939C57.6598 22.5077 60.7892 21.2259 64.0497 21.2259C67.3102 21.2259 70.4396 22.5077 72.7609 24.7939C75.0822 27.08 76.4088 30.1868 76.4536 33.4422V83.1711C76.45 83.2403 76.4201 83.3056 76.3699 83.3535C76.3198 83.4014 76.2532 83.4283 76.1838 83.4288Z" fill="#29173B"/>
<path d="M81.2239 83.4288C81.1536 83.4295 81.0859 83.4031 81.0347 83.3551C80.9836 83.307 80.953 83.2411 80.9493 83.1711V38.4769C80.9493 34 79.1682 29.7065 75.9978 26.5408C72.8275 23.3752 68.5275 21.5968 64.0439 21.5968C59.5603 21.5968 55.2604 23.3752 52.09 26.5408C48.9196 29.7065 47.1385 34 47.1385 38.4769V83.1711C47.1385 83.2426 47.1101 83.3111 47.0595 83.3616C47.0089 83.4122 46.9403 83.4405 46.8687 83.4405C46.7971 83.4405 46.7285 83.4122 46.6779 83.3616C46.6273 83.3111 46.5989 83.2426 46.5989 83.1711V38.4769C46.5989 36.1894 47.0501 33.9243 47.9268 31.8109C48.8035 29.6976 50.0885 27.7773 51.7084 26.1598C53.3283 24.5423 55.2515 23.2592 57.368 22.3839C59.4845 21.5085 61.753 21.0579 64.0439 21.0579C66.3349 21.0579 68.6033 21.5085 70.7199 22.3839C72.8364 23.2592 74.7595 24.5423 76.3794 26.1598C77.9994 27.7773 79.2844 29.6976 80.1611 31.8109C81.0378 33.9243 81.489 36.1894 81.489 38.4769V83.1711C81.486 83.2397 81.4569 83.3046 81.4076 83.3525C81.3583 83.4004 81.2926 83.4277 81.2239 83.4288Z" fill="#29173B"/>
<path d="M86.5546 83.4288C86.4832 83.4282 86.4149 83.3996 86.3645 83.3493C86.314 83.2989 86.2854 83.2307 86.2848 83.1594V43.8115C86.2848 37.9229 83.942 32.2755 79.7719 28.1116C75.6018 23.9477 69.9459 21.6085 64.0485 21.6085C58.151 21.6085 52.4951 23.9477 48.325 28.1116C44.1549 32.2755 41.8122 37.9229 41.8122 43.8115V83.1711C41.8122 83.2426 41.7837 83.3111 41.7331 83.3616C41.6825 83.4122 41.6139 83.4406 41.5423 83.4406C41.4708 83.4406 41.4022 83.4122 41.3515 83.3616C41.3009 83.3111 41.2725 83.2426 41.2725 83.1711V43.8115C41.211 40.7868 41.7545 37.7802 42.8713 34.9678C43.988 32.1555 45.6555 29.5939 47.7761 27.433C49.8967 25.2722 52.4278 23.5555 55.2211 22.3836C58.0144 21.2117 61.0139 20.608 64.0438 20.608C67.0737 20.608 70.0731 21.2117 72.8664 22.3836C75.6598 23.5555 78.1908 25.2722 80.3114 27.433C82.432 29.5939 84.0995 32.1555 85.2163 34.9678C86.333 37.7802 86.8765 40.7868 86.815 43.8115V83.1711C86.8121 83.2389 86.7837 83.3032 86.7354 83.3509C86.6871 83.3987 86.6225 83.4265 86.5546 83.4288Z" fill="#29173B"/>
<path d="M86.8151 84.3824H41.2961C41.1352 84.3824 40.976 84.3507 40.8274 84.2893C40.6788 84.2278 40.5438 84.1377 40.43 84.0242C40.3163 83.9106 40.2261 83.7758 40.1645 83.6274C40.103 83.479 40.0713 83.32 40.0713 83.1594C40.0713 82.8351 40.2003 82.524 40.43 82.2947C40.6597 82.0653 40.9712 81.9365 41.2961 81.9365H86.8151C87.14 81.9365 87.4515 82.0653 87.6812 82.2947C87.9109 82.524 88.0399 82.8351 88.0399 83.1594C88.0399 83.32 88.0082 83.479 87.9467 83.6274C87.8851 83.7758 87.7949 83.9106 87.6812 84.0242C87.5674 84.1377 87.4324 84.2278 87.2838 84.2893C87.1352 84.3507 86.976 84.3824 86.8151 84.3824Z" fill="#DEA8DE"/>
<path d="M91.0386 74.0669H81.2238C81.1523 74.0669 81.0836 74.0385 81.033 73.988C80.9824 73.9374 80.954 73.8689 80.954 73.7975C80.954 73.726 80.9824 73.6575 81.033 73.6069C81.0836 73.5564 81.1523 73.528 81.2238 73.528H90.7734V55.2539H76.1839C76.1123 55.2539 76.0437 55.2255 75.9931 55.175C75.9425 55.1245 75.9141 55.056 75.9141 54.9845C75.9141 54.913 75.9425 54.8445 75.9931 54.794C76.0437 54.7435 76.1123 54.7151 76.1839 54.7151H91.0386C91.0741 54.7148 91.1093 54.7215 91.1422 54.7349C91.1751 54.7484 91.2049 54.7682 91.2301 54.7933C91.2552 54.8184 91.2751 54.8482 91.2885 54.881C91.302 54.9139 91.3087 54.949 91.3084 54.9845V73.7998C91.3084 73.8351 91.3014 73.87 91.2878 73.9025C91.2742 73.9351 91.2543 73.9647 91.2292 73.9895C91.2041 74.0143 91.1744 74.0339 91.1417 74.0472C91.1089 74.0605 91.0739 74.0672 91.0386 74.0669Z" fill="#29173B"/>
<path d="M86.5548 44.0692H41.5425C41.471 44.0692 41.4023 44.0408 41.3517 43.9903C41.3011 43.9398 41.2727 43.8713 41.2727 43.7998C41.2727 43.7283 41.3011 43.6598 41.3517 43.6093C41.4023 43.5588 41.471 43.5304 41.5425 43.5304H86.5548C86.6263 43.5304 86.695 43.5588 86.7456 43.6093C86.7962 43.6598 86.8246 43.7283 86.8246 43.7998C86.8246 43.8713 86.7962 43.9398 86.7456 43.9903C86.695 44.0408 86.6263 44.0692 86.5548 44.0692Z" fill="#29173B"/>
<path d="M64.0557 34.0536C58.1525 34.0537 52.4423 31.9549 47.948 28.1333C47.9208 28.1105 47.8984 28.0826 47.8821 28.0511C47.8658 28.0196 47.856 27.9852 47.8532 27.9499C47.8503 27.9146 47.8545 27.879 47.8656 27.8454C47.8766 27.8117 47.8943 27.7805 47.9175 27.7538C47.9639 27.6994 48.03 27.6657 48.1013 27.66C48.1725 27.6543 48.2432 27.6771 48.2976 27.7233C52.6948 31.4619 58.2815 33.5151 64.0568 33.5151C69.8322 33.5151 75.4188 31.4619 79.816 27.7233C79.8709 27.6801 79.9403 27.6598 80.0098 27.6667C80.0793 27.6736 80.1434 27.7071 80.1886 27.7602C80.2339 27.8132 80.2568 27.8818 80.2525 27.9514C80.2482 28.0209 80.2171 28.0861 80.1656 28.1333C75.6706 31.9551 69.9595 34.0539 64.0557 34.0536Z" fill="#29173B"/>
<path d="M64.0555 19.4976C63.6151 19.4976 63.1846 19.3672 62.8185 19.1229C62.4523 18.8786 62.1669 18.5314 61.9984 18.1251C61.8298 17.7188 61.7857 17.2718 61.8716 16.8405C61.9576 16.4092 62.1696 16.013 62.481 15.7021C62.7924 15.3912 63.1892 15.1794 63.6211 15.0936C64.0531 15.0078 64.5008 15.0519 64.9076 15.2201C65.3145 15.3884 65.6623 15.6734 65.907 16.039C66.1516 16.4047 66.2822 16.8345 66.2822 17.2743C66.2816 17.8637 66.0468 18.4289 65.6294 18.8457C65.2119 19.2625 64.6459 19.497 64.0555 19.4976ZM64.0555 15.5921C63.7218 15.5921 63.3955 15.691 63.118 15.8762C62.8406 16.0613 62.6243 16.3246 62.4967 16.6325C62.3691 16.9404 62.3358 17.2793 62.4011 17.6061C62.4664 17.9329 62.6273 18.2331 62.8635 18.4685C63.0996 18.704 63.4005 18.8643 63.7279 18.929C64.0553 18.9937 64.3945 18.9601 64.7028 18.8322C65.011 18.7043 65.2743 18.4881 65.4594 18.2107C65.6445 17.9334 65.743 17.6075 65.7426 17.2743C65.7419 16.8279 65.5639 16.4 65.2476 16.0846C64.9313 15.7693 64.5026 15.5921 64.0555 15.5921Z" fill="#29173B"/>
<path d="M64.0555 21.5968C64.0189 21.5974 63.9827 21.5907 63.9488 21.577C63.9149 21.5634 63.8841 21.543 63.8583 21.5172C63.8324 21.4914 63.8121 21.4607 63.7984 21.4269C63.7847 21.393 63.778 21.3568 63.7786 21.3203V19.2118C63.7786 19.1403 63.807 19.0718 63.8576 19.0213C63.9082 18.9707 63.9769 18.9424 64.0484 18.9424C64.12 18.9424 64.1886 18.9707 64.2392 19.0213C64.2898 19.0718 64.3183 19.1403 64.3183 19.2118V21.3203C64.3192 21.3557 64.3131 21.3909 64.3004 21.424C64.2877 21.457 64.2686 21.4873 64.2442 21.5129C64.2198 21.5386 64.1906 21.5592 64.1582 21.5736C64.1258 21.588 64.0909 21.5959 64.0555 21.5968Z" fill="#29173B"/>
<path d="M95.9988 90.3378C95.9988 90.3378 99.6426 86.6455 102.015 86.5143C102.015 86.5143 101.473 91.9778 95.9988 90.3378Z" fill="#DEA8DE"/>
<path d="M96.2898 90.3449C96.2777 90.3452 96.2657 90.3418 96.2557 90.3351C96.2456 90.3283 96.2378 90.3187 96.2335 90.3074C96.2305 90.3002 96.2291 90.2925 96.2293 90.2847C96.2295 90.2769 96.2313 90.2692 96.2346 90.2622C96.2379 90.2551 96.2426 90.2489 96.2485 90.2437C96.2544 90.2386 96.2612 90.2348 96.2687 90.2324C96.3156 90.216 100.985 88.5667 102.388 85.7693C102.396 85.7584 102.408 85.7506 102.421 85.7475C102.435 85.7443 102.449 85.7459 102.461 85.7521C102.473 85.7582 102.483 85.7685 102.489 85.781C102.494 85.7936 102.495 85.8077 102.491 85.8209C101.067 88.6627 96.3555 90.3261 96.3085 90.3425L96.2898 90.3449Z" fill="#29173B"/>
<path d="M86.4187 127.933C86.4187 127.933 87.5449 122.875 89.4877 121.509C89.4877 121.509 91.9303 126.429 86.4187 127.933Z" fill="#DEA8DE"/>
<path d="M86.6673 127.788C86.6573 127.795 86.6454 127.798 86.6333 127.798C86.6212 127.798 86.6093 127.795 86.5993 127.788C86.5885 127.777 86.5825 127.762 86.5825 127.747C86.5825 127.732 86.5885 127.717 86.5993 127.706C86.6298 127.669 89.7129 123.798 89.4149 120.678C89.4142 120.67 89.4151 120.662 89.4175 120.655C89.4199 120.647 89.4237 120.641 89.4287 120.635C89.4337 120.629 89.4398 120.624 89.4467 120.62C89.4536 120.617 89.4611 120.615 89.4689 120.614C89.4764 120.613 89.4841 120.614 89.4915 120.616C89.4989 120.618 89.5057 120.622 89.5116 120.626C89.5176 120.631 89.5224 120.637 89.526 120.644C89.5295 120.651 89.5316 120.658 89.5322 120.666C89.8325 123.829 86.7166 127.734 86.6884 127.772C86.6874 127.776 86.6847 127.781 86.6808 127.784C86.677 127.787 86.6722 127.788 86.6673 127.788Z" fill="#29173B"/>
<path d="M77.6504 101.708C77.6504 101.708 74.0089 98.0153 71.6367 97.8841C71.6367 97.8841 72.1787 103.35 77.6504 101.708Z" fill="#DEA8DE"/>
<path d="M77.3616 101.715C77.3734 101.715 77.385 101.711 77.3946 101.705C77.4043 101.698 77.4116 101.688 77.4156 101.677C77.4185 101.67 77.42 101.662 77.4198 101.654C77.4196 101.647 77.4178 101.639 77.4145 101.632C77.4112 101.625 77.4064 101.619 77.4006 101.614C77.3947 101.608 77.3878 101.605 77.3804 101.602C77.3335 101.586 72.6666 99.9364 71.2635 97.1391C71.256 97.1254 71.2436 97.1151 71.2287 97.1103C71.2139 97.1056 71.1978 97.1066 71.1837 97.1133C71.1702 97.1203 71.1599 97.1323 71.1551 97.1468C71.1503 97.1612 71.1513 97.1769 71.1579 97.1906C72.5821 100.032 77.2959 101.696 77.3428 101.712L77.3616 101.715Z" fill="#29173B"/>
</svg>
