<svg width="134" height="180" viewBox="0 0 134 180" fill="none" xmlns="http://www.w3.org/2000/svg">
<g clip-path="url(#clip0_562_4840)">
<path d="M44.0613 20.8103C44.0613 33.0183 34.2453 43.5723 22.099 44.3858C9.91051 45.2021 0 35.9085 0 23.6251C0 11.3417 9.91051 0.781441 22.0983 0.0405776C34.2447 -0.697519 44.0613 8.60236 44.0613 20.8103Z" fill="#29173B"/>
<mask id="path-2-inside-1_562_4840" fill="white">
<path d="M46.6684 21.5921C46.6684 33.8001 36.8525 44.3541 24.7062 45.1676C12.5177 45.9839 2.60718 36.6902 2.60718 24.4068C2.60718 12.1235 12.5177 1.56391 24.7055 0.823051C36.8518 0.0849552 46.6684 9.38413 46.6684 21.5921Z"/>
</mask>
<path d="M46.6684 21.5921C46.6684 33.8001 36.8525 44.3541 24.7062 45.1676C12.5177 45.9839 2.60718 36.6902 2.60718 24.4068C2.60718 12.1235 12.5177 1.56391 24.7055 0.823051C36.8518 0.0849552 46.6684 9.38413 46.6684 21.5921Z" fill="#69B5B5" stroke="#29173B" mask="url(#path-2-inside-1_562_4840)"/>
<mask id="path-3-inside-2_562_4840" fill="white">
<path d="M23.9297 34.9934C22.9744 35.0563 22.0859 34.6108 21.591 33.8146L13.2861 20.4507C12.5075 19.1987 12.9272 17.4831 14.2221 16.6198C15.5164 15.7572 17.1959 16.072 17.9732 17.324L23.733 26.6004L31.3324 11.0907C32.0144 9.69889 33.6532 9.0604 34.9916 9.66361C36.3294 10.2668 36.8623 11.8841 36.181 13.2752L26.3602 33.3353C25.9102 34.2539 25.0162 34.8862 24.0257 34.9858C23.9939 34.9885 23.9615 34.9913 23.9297 34.9934Z"/>
</mask>
<path d="M23.9297 34.9934C22.9744 35.0563 22.0859 34.6108 21.591 33.8146L13.2861 20.4507C12.5075 19.1987 12.9272 17.4831 14.2221 16.6198C15.5164 15.7572 17.1959 16.072 17.9732 17.324L23.733 26.6004L31.3324 11.0907C32.0144 9.69889 33.6532 9.0604 34.9916 9.66361C36.3294 10.2668 36.8623 11.8841 36.181 13.2752L26.3602 33.3353C25.9102 34.2539 25.0162 34.8862 24.0257 34.9858C23.9939 34.9885 23.9615 34.9913 23.9297 34.9934Z" fill="white" stroke="#29173B" mask="url(#path-3-inside-2_562_4840)"/>
<mask id="path-4-inside-3_562_4840" fill="white">
<path d="M35.2864 46.0685C35.2864 46.0685 34.4656 44.4229 35.2864 42.3663C36.1071 40.309 36.1071 37.0184 36.5179 35.7843C36.6166 35.4868 36.5965 35.3084 36.5027 35.2385C36.3094 35.0946 35.4231 36.2768 34.8757 37.43C33.9051 39.4741 34.1736 41.0312 33.6442 41.1322C33.0519 41.2456 32.3879 39.3634 32.002 39.4865C31.7031 39.582 32.002 40.7953 32.002 41.9547C32.002 42.7772 34.0549 46.891 34.0549 46.891L35.2864 46.0685Z"/>
</mask>
<path d="M35.2864 46.0685C35.2864 46.0685 34.4656 44.4229 35.2864 42.3663C36.1071 40.309 36.1071 37.0184 36.5179 35.7843C36.6166 35.4868 36.5965 35.3084 36.5027 35.2385C36.3094 35.0946 35.4231 36.2768 34.8757 37.43C33.9051 39.4741 34.1736 41.0312 33.6442 41.1322C33.0519 41.2456 32.3879 39.3634 32.002 39.4865C31.7031 39.582 32.002 40.7953 32.002 41.9547C32.002 42.7772 34.0549 46.891 34.0549 46.891L35.2864 46.0685Z" fill="white" stroke="#29173B" mask="url(#path-4-inside-3_562_4840)"/>
<mask id="path-5-inside-4_562_4840" fill="white">
<path d="M80.038 63.859C80.1367 61.8439 80.3521 57.4409 77.9216 55.9052C74.7117 53.877 69.9867 58.8106 64.6935 60.147C59.1291 61.552 50.1491 59.6843 35.5922 43.7097C34.7107 44.5931 33.8285 45.4771 32.9463 46.3612C34.4491 51.6607 38.3078 62.0874 48.2908 69.6911C50.6212 71.4661 64.7805 82.2519 73.688 76.5844C78.0562 73.8056 79.8399 67.9133 80.038 63.859Z"/>
</mask>
<path d="M80.038 63.859C80.1367 61.8439 80.3521 57.4409 77.9216 55.9052C74.7117 53.877 69.9867 58.8106 64.6935 60.147C59.1291 61.552 50.1491 59.6843 35.5922 43.7097C34.7107 44.5931 33.8285 45.4771 32.9463 46.3612C34.4491 51.6607 38.3078 62.0874 48.2908 69.6911C50.6212 71.4661 64.7805 82.2519 73.688 76.5844C78.0562 73.8056 79.8399 67.9133 80.038 63.859Z" fill="#F29469" stroke="#29173B" mask="url(#path-5-inside-4_562_4840)"/>
<path d="M82.6341 176.603C83.0441 176.937 83.1193 177.77 83.1684 178.316C83.1904 178.559 83.2015 178.681 83.1746 178.767C82.9765 179.394 81.7622 179.46 79.8584 179.655C76.8501 179.963 75.9548 180.2 75.7187 179.751C75.4979 179.33 76.0321 178.642 76.0922 178.566C76.4152 178.158 76.8122 178.01 77.5791 177.757C78.9983 177.288 79.9578 177.032 80.2477 176.955C82.0618 176.47 82.3649 176.383 82.6341 176.603Z" fill="#29173B"/>
<mask id="path-7-inside-5_562_4840" fill="white">
<path d="M80.8449 173.848L80.5439 177.284C80.6295 177.45 81.6484 177.948 82.458 177.521L83.2318 174.144L80.8449 173.848Z"/>
</mask>
<path d="M80.8449 173.848L80.5439 177.284C80.6295 177.45 81.6484 177.948 82.458 177.521L83.2318 174.144L80.8449 173.848Z" fill="white" stroke="#29173B" mask="url(#path-7-inside-5_562_4840)"/>
<path d="M56.3347 175.084C56.8262 175.628 56.938 176.629 56.5107 177.122C56.091 177.607 55.4594 177.243 53.6681 177.297C51.7498 177.354 51.2486 177.808 49.9454 177.448C49.4187 177.302 48.4888 176.948 48.5061 176.571C48.5185 176.306 48.9921 176.169 50.5735 175.638C52.8183 174.885 52.8087 174.843 53.2857 174.764C54.4833 174.565 55.6858 174.366 56.3347 175.084Z" fill="#29173B"/>
<mask id="path-9-inside-6_562_4840" fill="white">
<path d="M55.1061 171.948L54.1438 175.156C54.2163 175.328 55.1944 175.901 56.0338 175.538L57.4627 172.425L55.1061 171.948Z"/>
</mask>
<path d="M55.1061 171.948L54.1438 175.156C54.2163 175.328 55.1944 175.901 56.0338 175.538L57.4627 172.425L55.1061 171.948Z" fill="white" stroke="#29173B" mask="url(#path-9-inside-6_562_4840)"/>
<path d="M63.6547 101.703C63.5166 112.481 62.7829 124.602 61.0219 137.769C59.281 150.783 56.8422 162.542 54.1812 172.882C55.4085 173.213 56.6365 173.544 57.8639 173.875C60.9784 170.965 64.9076 166.383 66.8031 159.909C67.9801 155.891 67.5873 153.826 68.3342 148.884C69.5229 141.015 71.9299 136.892 74.4177 130.546C76.6536 124.844 79.296 116.476 80.7132 105.29C75.0266 104.094 69.3406 102.899 63.6547 101.703Z" fill="#29173B"/>
<path opacity="0.3" d="M63.6547 101.703C67.0074 104.264 71.1747 108.303 71.0436 113.17C70.9456 116.782 68.573 117.446 66.8107 122.714C64.6501 129.174 67.2829 130.969 65.7525 139.152C64.6135 145.242 63.215 143.928 61.5196 151.347C60.01 157.954 60.6802 160.915 58.345 166.194C57.001 169.231 55.354 171.472 54.1812 172.882C55.4085 173.213 56.6365 173.544 57.8639 173.875C60.9784 170.965 64.9076 166.383 66.8031 159.909C67.9794 155.891 67.5873 153.826 68.3342 148.884C69.5222 141.015 71.9299 136.892 74.4177 130.546C76.6536 124.844 79.296 116.476 80.7132 105.29C75.0266 104.094 69.3406 102.899 63.6547 101.703Z" fill="#29173B"/>
<path d="M77.1794 101.752C77.9298 115.461 78.5469 129.425 79.0149 143.637C79.3656 154.302 79.6231 164.831 79.7943 175.222C81.0485 175.377 82.3021 175.532 83.5564 175.687C84.7678 173.427 86.3776 169.971 87.4807 165.541C88.8199 160.16 88.5099 156.965 89.0973 151.389C89.7566 145.135 90.714 143.772 92.4094 135.882C95.8512 119.871 97.5721 111.865 93.734 106.884C92.4881 105.267 88.5817 101.211 77.1794 101.752Z" fill="#29173B"/>
<path d="M71.9485 64.1473C70.541 63.2328 71.8236 60.5724 71.8995 54.8585C71.9927 47.856 70.1365 46.5513 71.6268 43.8044C73.4499 40.4453 78.0376 39.0549 81.0776 38.9891C81.7479 38.9746 81.9046 38.608 87.5215 40.0655C97.6411 42.6921 100.175 39.8767 104.706 42.6886C109.085 45.4058 107.167 48.3817 111.419 51.5679C118.311 56.7332 125.557 51.1487 130.482 55.4694C135.141 59.5562 135.248 69.9677 130.348 75.6497C124.794 82.0913 114.776 80.1558 108.062 78.8788C106.65 78.6104 99.5153 77.1086 92.0864 71.6141C87.9771 68.5738 85.1552 65.3281 83.3597 62.9361C82.9386 62.4608 82.2808 61.8853 81.4131 61.7926C80.3715 61.6813 79.5341 62.3197 79.131 62.5999C77.0125 64.0699 73.3312 65.0459 71.9485 64.1473Z" fill="#453157"/>
<mask id="path-14-inside-7_562_4840" fill="white">
<path d="M77.0607 56.5803C77.0607 56.5803 88.8157 53.1451 93.9929 59.018C94.7991 59.9325 95.6157 61.2787 96.2418 64.2511C98.439 74.6792 92.5916 78.3932 93.3895 87.855C93.4807 88.9389 94.5016 99.3435 102.042 105.738C105.628 108.779 109.713 110.086 109.612 112.783C109.54 114.724 107.331 116.493 105.286 117.118C101.373 118.315 99.09 115.01 93.93 113.867C88.5375 112.671 87.2874 115.452 78.7885 116.576C75.9597 116.951 63.0478 118.659 59.8621 113.325C58.5064 111.055 60.1776 109.628 62.566 100.32C62.8076 99.3781 66.9417 83.0189 65.6902 75.8905C65.5819 75.2727 65.2167 72.7672 65.3244 69.4441C65.3513 68.6216 65.4548 67.7036 65.6902 66.6072C65.6902 66.6072 66.6891 61.9635 70.2938 57.9756C70.8115 57.4021 71.4279 56.8058 77.0607 56.5803Z"/>
</mask>
<path d="M77.0607 56.5803C77.0607 56.5803 88.8157 53.1451 93.9929 59.018C94.7991 59.9325 95.6157 61.2787 96.2418 64.2511C98.439 74.6792 92.5916 78.3932 93.3895 87.855C93.4807 88.9389 94.5016 99.3435 102.042 105.738C105.628 108.779 109.713 110.086 109.612 112.783C109.54 114.724 107.331 116.493 105.286 117.118C101.373 118.315 99.09 115.01 93.93 113.867C88.5375 112.671 87.2874 115.452 78.7885 116.576C75.9597 116.951 63.0478 118.659 59.8621 113.325C58.5064 111.055 60.1776 109.628 62.566 100.32C62.8076 99.3781 66.9417 83.0189 65.6902 75.8905C65.5819 75.2727 65.2167 72.7672 65.3244 69.4441C65.3513 68.6216 65.4548 67.7036 65.6902 66.6072C65.6902 66.6072 66.6891 61.9635 70.2938 57.9756C70.8115 57.4021 71.4279 56.8058 77.0607 56.5803Z" fill="#F29469" stroke="#29173B" mask="url(#path-14-inside-7_562_4840)"/>
<g opacity="0.3">
<g opacity="0.3">
<path opacity="0.3" d="M93.9929 59.0174C95.1774 59.0042 96.1024 63.5884 96.2418 64.2504C98.439 74.6786 92.5916 78.3926 93.3895 87.8543C93.4807 88.9383 94.5016 99.3429 102.042 105.737C105.628 108.778 109.713 110.086 109.612 112.782C109.54 114.723 107.331 116.492 105.286 117.117C101.373 118.314 99.09 115.01 93.93 113.866C88.5375 112.671 87.2874 115.451 78.7885 116.576C75.9597 116.95 63.0478 118.659 59.8621 113.324C59.5328 112.774 59.4086 112.532 59.441 112.297C59.7965 109.705 71.751 112.063 74.7468 107.337C77.6737 102.721 70.0901 94.4363 72.6304 91.9605C74.6143 90.0271 79.6742 94.6577 83.742 92.4911C86.2934 91.1318 86.7144 88.0259 87.9749 81.356C90.1887 69.6454 92.194 59.0381 93.9929 59.0174Z" fill="#F29469"/>
</g>
</g>
<mask id="path-16-inside-8_562_4840" fill="white">
<path d="M80.8353 48.9395C80.6758 49.6845 79.8654 53.6841 81.4987 54.7135C81.8528 54.9369 82.5327 55.0642 83.8933 55.3201C84.7838 55.4875 85.5313 55.5899 86.058 55.6529C85.9821 56.3232 85.7564 57.4154 84.9839 58.4081C82.8192 61.1917 78.478 60.4716 77.8588 60.3581C75.6754 59.9597 73.5265 59.2838 73.0074 58.8702C72.217 58.2407 71.5958 57.7689 71.2285 57.2895C72.0734 56.88 73.7798 55.8009 74.9243 55.4481C75.7803 55.1845 76.5831 54.9964 77.3134 54.8608C77.4335 54.0881 77.5537 53.3154 77.6738 52.5428C78.7278 51.3419 79.7812 50.141 80.8353 48.9395Z"/>
</mask>
<path d="M80.8353 48.9395C80.6758 49.6845 79.8654 53.6841 81.4987 54.7135C81.8528 54.9369 82.5327 55.0642 83.8933 55.3201C84.7838 55.4875 85.5313 55.5899 86.058 55.6529C85.9821 56.3232 85.7564 57.4154 84.9839 58.4081C82.8192 61.1917 78.478 60.4716 77.8588 60.3581C75.6754 59.9597 73.5265 59.2838 73.0074 58.8702C72.217 58.2407 71.5958 57.7689 71.2285 57.2895C72.0734 56.88 73.7798 55.8009 74.9243 55.4481C75.7803 55.1845 76.5831 54.9964 77.3134 54.8608C77.4335 54.0881 77.5537 53.3154 77.6738 52.5428C78.7278 51.3419 79.7812 50.141 80.8353 48.9395Z" fill="white" stroke="#29173B" mask="url(#path-16-inside-8_562_4840)"/>
<mask id="path-17-inside-9_562_4840" fill="white">
<path d="M80.9112 50.933C80.9112 50.933 80.6158 53.8639 77.7732 54.3807C75.2274 54.8434 73.3111 48.6786 74.6144 47.0841C75.0486 46.5521 76.122 46.0465 77.0518 46.0728C77.7062 46.0921 79.9151 46.9347 80.2237 49.1503C80.6634 48.6862 81.2122 48.5527 81.4821 48.7471C81.8252 48.994 81.6416 49.7114 81.5994 49.8739C81.4552 50.4363 81.0886 50.7856 80.9112 50.933Z"/>
</mask>
<path d="M80.9112 50.933C80.9112 50.933 80.6158 53.8639 77.7732 54.3807C75.2274 54.8434 73.3111 48.6786 74.6144 47.0841C75.0486 46.5521 76.122 46.0465 77.0518 46.0728C77.7062 46.0921 79.9151 46.9347 80.2237 49.1503C80.6634 48.6862 81.2122 48.5527 81.4821 48.7471C81.8252 48.994 81.6416 49.7114 81.5994 49.8739C81.4552 50.4363 81.0886 50.7856 80.9112 50.933Z" fill="white" stroke="#29173B" mask="url(#path-17-inside-9_562_4840)"/>
<path d="M76.3849 98.5065L68.4576 78.8339C67.9213 77.5029 68.6274 75.9963 69.9914 75.5598L85.679 70.5384C86.5867 70.3316 87.5096 70.8206 87.8493 71.6895L95.9554 92.4288C96.3592 93.4616 95.7904 94.6189 94.7273 94.9281L78.6505 99.6029C77.7268 99.8713 76.7494 99.3982 76.3849 98.5065Z" fill="#29173B"/>
<mask id="path-19-inside-10_562_4840" fill="white">
<path d="M77.3928 87.1889C77.3928 87.1889 75.8052 86.1284 75.8052 85.068C75.8052 84.0075 74.7469 82.4165 74.2182 82.4165C73.6887 82.4165 73.6887 82.9464 74.2182 84.0075C74.7469 85.068 72.1018 84.5374 71.0435 83.477C69.9853 82.4165 68.9271 82.4165 69.4566 82.9464C70.2932 83.7848 70.5148 84.5374 70.5148 84.5374C70.5148 84.5374 71.573 88.7792 76.2028 88.5143L77.3928 87.1889Z"/>
</mask>
<path d="M77.3928 87.1889C77.3928 87.1889 75.8052 86.1284 75.8052 85.068C75.8052 84.0075 74.7469 82.4165 74.2182 82.4165C73.6887 82.4165 73.6887 82.9464 74.2182 84.0075C74.7469 85.068 72.1018 84.5374 71.0435 83.477C69.9853 82.4165 68.9271 82.4165 69.4566 82.9464C70.2932 83.7848 70.5148 84.5374 70.5148 84.5374C70.5148 84.5374 71.573 88.7792 76.2028 88.5143L77.3928 87.1889Z" fill="white" stroke="#29173B" mask="url(#path-19-inside-10_562_4840)"/>
<mask id="path-20-inside-11_562_4840" fill="white">
<path d="M88.5043 56.9656C91.8888 55.452 97.5519 61.6909 98.5577 62.7984C103.892 68.6741 111.459 81.9938 105.436 89.8403C100.412 96.3863 86.9208 97.8279 75.8064 89.3097C76.3358 88.2493 76.8646 87.1888 77.3941 86.1284C78.5482 86.5476 86.1373 89.1804 91.6803 85.0679C92.8559 84.1956 94.6645 82.8543 94.855 80.8261C95.2105 77.0471 89.4804 75.8836 86.918 70.2216C84.649 65.2099 85.5857 58.2702 88.5043 56.9656Z"/>
</mask>
<path d="M88.5043 56.9656C91.8888 55.452 97.5519 61.6909 98.5577 62.7984C103.892 68.6741 111.459 81.9938 105.436 89.8403C100.412 96.3863 86.9208 97.8279 75.8064 89.3097C76.3358 88.2493 76.8646 87.1888 77.3941 86.1284C78.5482 86.5476 86.1373 89.1804 91.6803 85.0679C92.8559 84.1956 94.6645 82.8543 94.855 80.8261C95.2105 77.0471 89.4804 75.8836 86.918 70.2216C84.649 65.2099 85.5857 58.2702 88.5043 56.9656Z" fill="#F29469" stroke="#29173B" mask="url(#path-20-inside-11_562_4840)"/>
</g>
<defs>
<clipPath id="clip0_562_4840">
<rect width="134" height="180" fill="white"/>
</clipPath>
</defs>
</svg>
