<svg width="125" height="48" viewBox="0 0 125 48" fill="none" xmlns="http://www.w3.org/2000/svg">
<path d="M100.55 3.50466C100.55 3.05142 100.649 2.6036 100.839 2.19174C101.029 1.77989 101.307 1.4137 101.652 1.11816C101.998 0.822625 102.403 0.604697 102.841 0.479248C103.279 0.353798 103.739 0.323779 104.189 0.39124C109.877 1.25542 115.066 4.11769 118.815 8.45945C122.564 12.8012 124.626 18.3353 124.627 24.0589C124.627 29.7806 122.566 35.3129 118.82 39.654C115.073 43.9951 109.887 46.858 104.201 47.7242C103.751 47.7925 103.291 47.7631 102.853 47.6381C102.415 47.5131 102.009 47.2954 101.663 47C101.318 46.7046 101.04 46.3383 100.85 45.9264C100.66 45.5144 100.562 45.0665 100.562 44.6132L100.55 3.50466Z" fill="#DEA8DD"/>
<path d="M92.2786 0.120209H81.311C80.4725 0.120834 79.6685 0.452606 79.0759 1.04261C78.4832 1.63261 78.1503 2.43255 78.1503 3.26663V45.9967C78.1499 46.3922 78.2676 46.779 78.4883 47.108C78.7091 47.437 79.023 47.6934 79.3903 47.8448C79.7577 47.9962 80.1619 48.0358 80.5519 47.9586C80.9419 47.8813 81.3001 47.6907 81.5811 47.4108L85.372 43.6398C85.5585 43.4537 85.78 43.306 86.024 43.2052C86.2679 43.1044 86.5295 43.0526 86.7936 43.0526C87.0578 43.0526 87.3193 43.1044 87.5633 43.2052C87.8072 43.306 88.0288 43.4537 88.2152 43.6398L92.0062 47.4108C92.2872 47.6907 92.6453 47.8813 93.0353 47.9586C93.4253 48.0358 93.8295 47.9962 94.1969 47.8448C94.5642 47.6934 94.8782 47.437 95.0989 47.108C95.3197 46.779 95.4373 46.3922 95.437 45.9967V3.26663C95.437 2.43296 95.1044 1.63337 94.5122 1.04344C93.92 0.453506 93.1167 0.121458 92.2786 0.120209Z" fill="#28183A"/>
<path d="M56.5443 17.2994H60.5129C62.2352 17.2988 63.8868 16.6185 65.1053 15.4077C66.3238 14.197 67.0095 12.5548 67.012 10.8416C67.0133 9.99182 66.8461 9.15014 66.52 8.3647C66.194 7.57925 65.7155 6.86545 65.1118 6.26413C64.5082 5.66281 63.7913 5.18577 63.0022 4.86029C62.2131 4.53481 61.3672 4.36728 60.5129 4.36728H58.3805C58.1292 4.36728 57.8881 4.4666 57.7104 4.6434C57.5326 4.8202 57.4328 5.05999 57.4328 5.31003V6.60866C57.4328 6.85869 57.5326 7.09849 57.7104 7.27529C57.8881 7.45208 58.1292 7.55141 58.3805 7.55141H60.5129C60.9458 7.55139 61.3745 7.63671 61.7741 7.80243C62.1736 7.96815 62.5362 8.21099 62.8409 8.51692C63.1456 8.82285 63.3863 9.1858 63.5492 9.58481C63.712 9.98382 63.7938 10.411 63.7897 10.8416C63.7866 11.704 63.44 12.5301 62.8258 13.1388C62.2116 13.7476 61.3799 14.0894 60.5129 14.0894H56.5443C56.2914 14.0887 56.0485 14.1874 55.8684 14.3639C55.6882 14.5405 55.5854 14.7806 55.5823 15.0321V16.3331C55.5811 16.4596 55.605 16.585 55.6528 16.7022C55.7006 16.8194 55.7712 16.926 55.8607 17.0158C55.9501 17.1057 56.0566 17.177 56.1739 17.2257C56.2913 17.2744 56.4171 17.2994 56.5443 17.2994Z" fill="#28183A"/>
<path d="M7.36864 22.6401C9.1032 22.6396 10.782 22.0305 12.1095 20.92C13.437 19.8094 14.3281 18.2686 14.6259 16.5688C15.1898 17.0142 15.967 17.2994 17.0379 17.2994H28.8846C29.5626 17.2993 30.2315 17.1441 30.8395 16.8457C31.4476 16.5474 31.9785 16.1139 32.3912 15.5789C32.922 16.5499 33.891 17.2994 35.6254 17.2994H49.7632C50.3456 17.2994 50.9222 17.1853 51.4602 16.9635C51.9982 16.7418 52.487 16.4167 52.8987 16.007C53.3104 15.5973 53.6369 15.1109 53.8595 14.5756C54.0821 14.0403 54.1966 13.4667 54.1963 12.8874V0.971033C54.1963 0.713908 54.0937 0.467279 53.9112 0.285243C53.7286 0.103207 53.4809 0.000626951 53.2225 2.86054e-06H51.8885C51.6294 2.10498e-06 51.3809 0.102231 51.1974 0.284268C51.014 0.466304 50.9106 0.713283 50.91 0.971033V12.9062C50.91 13.2025 50.7917 13.4867 50.581 13.6962C50.3704 13.9057 50.0848 14.0234 49.7869 14.0234H37.727H35.6491C33.6494 14.0234 33.3413 12.5503 33.3224 9.92714V5.33831C33.3221 5.21048 33.2965 5.08397 33.247 4.96599C33.1975 4.84801 33.1252 4.74088 33.0341 4.65071C32.943 4.56054 32.835 4.4891 32.7161 4.44047C32.5973 4.39184 32.47 4.36697 32.3415 4.36728H31.0099C30.7508 4.36728 30.5023 4.46951 30.3188 4.65155C30.1354 4.83358 30.032 5.08056 30.0314 5.33831V12.9062C30.0314 13.0531 30.0022 13.1986 29.9457 13.3343C29.8891 13.47 29.8061 13.5932 29.7016 13.697C29.5971 13.8008 29.473 13.883 29.3364 13.939C29.1999 13.995 29.0536 14.0237 28.9059 14.0234H26.2452L17.0592 14.0328C15.1424 14.0328 14.7799 12.68 14.7349 10.2618V0.971033C14.7349 0.843317 14.7096 0.716855 14.6604 0.598891C14.6112 0.480926 14.5391 0.373776 14.4482 0.283576C14.3573 0.193377 14.2494 0.121901 14.1307 0.0732406C14.012 0.0245805 13.8848 -0.00030713 13.7564 2.86054e-06H12.4224C12.1637 0.000625214 11.9158 0.10313 11.7329 0.285098C11.5499 0.467067 11.4469 0.713691 11.4463 0.971033V15.3197C11.4456 16.3952 11.0158 17.4266 10.2513 18.1871C9.4867 18.9477 8.44991 19.3752 7.36864 19.3758C6.28738 19.3752 5.25058 18.9477 4.48602 18.1871C3.72145 17.4266 3.29164 16.3952 3.29101 15.3197V10.6059C3.29132 10.478 3.26623 10.3513 3.21716 10.233C3.1681 10.1148 3.09603 10.0074 3.0051 9.91693C2.91417 9.82648 2.80618 9.7548 2.68731 9.70599C2.56845 9.65718 2.44107 9.63222 2.31247 9.63253H0.978537C0.719205 9.63315 0.470674 9.7359 0.287298 9.91831C0.103922 10.1007 0.000625652 10.3479 0 10.6059L0 15.3197C0.00251144 17.262 0.779957 19.124 2.16157 20.4966C3.54319 21.8691 5.416 22.6401 7.36864 22.6401Z" fill="#28183A"/>
<path d="M29.8229 22.3573C30.7559 22.3573 31.5122 21.6049 31.5122 20.6768C31.5122 19.7487 30.7559 18.9964 29.8229 18.9964C28.8899 18.9964 28.1335 19.7487 28.1335 20.6768C28.1335 21.6049 28.8899 22.3573 29.8229 22.3573Z" fill="#28183A"/>
<path d="M33.7844 22.3573C34.7174 22.3573 35.4738 21.6049 35.4738 20.6768C35.4738 19.7487 34.7174 18.9964 33.7844 18.9964C32.8514 18.9964 32.0951 19.7487 32.0951 20.6768C32.0951 21.6049 32.8514 22.3573 33.7844 22.3573Z" fill="#28183A"/>
<path d="M10.2095 45.0162V45.959C10.2095 46.0867 10.2348 46.2131 10.284 46.3311C10.3332 46.4491 10.4053 46.5562 10.4962 46.6464C10.5871 46.7366 10.695 46.8081 10.8137 46.8567C10.9324 46.9054 11.0596 46.9303 11.188 46.93H12.5575C12.6864 46.9312 12.8142 46.907 12.9336 46.8588C13.053 46.8105 13.1616 46.7391 13.2531 46.6488C13.3445 46.5585 13.417 46.451 13.4664 46.3326C13.5158 46.2142 13.5411 46.0872 13.5408 45.959V30.6181C13.5411 30.4898 13.5158 30.3627 13.4665 30.2441C13.4171 30.1256 13.3446 30.0179 13.2532 29.9274C13.1618 29.8369 13.0532 29.7653 12.9338 29.7168C12.8144 29.6683 12.6865 29.6438 12.5575 29.6447H11.188C10.9285 29.6447 10.6796 29.7473 10.4961 29.9298C10.3126 30.1124 10.2095 30.3599 10.2095 30.6181V35.7844C9.31861 34.5706 7.67429 33.7787 5.96126 33.7787C2.6276 33.7787 0 36.3712 0 40.4085C0 44.4458 2.6276 47.1374 5.93756 47.1374C7.97993 47.1374 9.43471 46.1946 10.2095 45.0162ZM3.35498 40.4085C3.35498 37.9574 5.01352 36.6493 6.78342 36.6493C8.58885 36.6493 10.2332 38.0022 10.2332 40.4533C10.2332 42.9045 8.58885 44.2597 6.78342 44.2597C5.023 44.2597 3.35498 42.8597 3.35498 40.4085Z" fill="#28183A"/>
<path d="M26.0959 46.9206H27.4488C27.7073 46.9224 27.956 46.8223 28.1403 46.642C28.3246 46.4617 28.4296 46.2161 28.4321 45.9589V34.9594C28.4321 34.8317 28.4067 34.7053 28.3575 34.5873C28.3083 34.4693 28.2362 34.3622 28.1453 34.272C28.0544 34.1818 27.9465 34.1103 27.8278 34.0616C27.7091 34.013 27.5819 33.9881 27.4535 33.9884H26.1006C25.9722 33.9881 25.8451 34.013 25.7263 34.0616C25.6076 34.1103 25.4997 34.1818 25.4089 34.272C25.318 34.3622 25.2458 34.4693 25.1966 34.5873C25.1474 34.7053 25.1221 34.8317 25.1221 34.9594V35.8244C24.3497 34.752 22.9162 33.7716 20.8289 33.7716C17.5118 33.7716 14.8913 36.3641 14.8913 40.4015C14.8913 44.4388 17.5142 47.1374 20.8004 47.1374C22.8665 47.1374 24.3544 46.1569 25.1174 45.0374V45.9589C25.1199 46.2153 25.2241 46.4602 25.4074 46.6403C25.5908 46.8204 25.8382 46.9212 26.0959 46.9206ZM21.6676 44.2596C19.9024 44.2596 18.2439 42.8597 18.2439 40.4085C18.2439 37.9574 19.9024 36.6493 21.67 36.6493C23.4778 36.6493 25.1197 38.0022 25.1197 40.4533C25.1197 42.9044 23.4754 44.2596 21.6676 44.2596Z" fill="#28183A"/>
<path d="M32.5073 29.6447H31.1781C30.6377 29.6447 30.1996 30.0805 30.1996 30.6181V45.9472C30.1996 46.4848 30.6377 46.9206 31.1781 46.9206H32.5073C33.0478 46.9206 33.4859 46.4848 33.4859 45.9472V30.6181C33.4859 30.0805 33.0478 29.6447 32.5073 29.6447Z" fill="#28183A"/>
<path d="M41.3568 47.1374C43.8588 47.1374 45.7211 45.9943 46.7565 44.3633C46.8501 44.2159 46.9022 44.0463 46.9076 43.872C46.9129 43.6978 46.8711 43.5253 46.7867 43.3725C46.7023 43.2197 46.5783 43.0922 46.4276 43.0033C46.2768 42.9143 46.1049 42.8672 45.9296 42.8667H44.4488C44.2922 42.8663 44.1377 42.9036 43.9987 42.9755C43.8596 43.0473 43.7401 43.1515 43.6503 43.2792C43.1931 43.9438 42.4657 44.4293 41.281 44.4293C39.6391 44.4293 38.3241 43.3569 38.1606 41.4432H46.7755C47.0272 41.444 47.2695 41.3482 47.4518 41.1756C47.6342 41.003 47.7424 40.767 47.754 40.5169C47.754 40.4061 47.754 40.293 47.754 40.1822C47.754 36.3288 45.1027 33.7857 41.3568 33.7857C37.5067 33.7857 34.8317 36.3783 34.8317 40.4604C34.8317 44.5425 37.5777 47.1374 41.3568 47.1374ZM41.262 36.4702C42.9514 36.4702 44.3138 37.5426 44.3611 39.2466H38.1866C38.4473 37.4742 39.6888 36.4631 41.262 36.4631V36.4702Z" fill="#28183A"/>
<path d="M60.892 44.3563C60.9855 44.2089 61.0377 44.0392 61.043 43.865C61.0483 43.6907 61.0066 43.5182 60.9222 43.3654C60.8377 43.2127 60.7137 43.0852 60.563 42.9962C60.4123 42.9073 60.2403 42.8601 60.0651 42.8597H58.5842C58.4276 42.8593 58.2732 42.8966 58.1341 42.9684C57.9951 43.0402 57.8756 43.1444 57.7858 43.2721C57.3309 43.9368 56.6011 44.4223 55.4164 44.4223C53.7745 44.4223 52.4595 43.3499 52.296 41.4361H60.9133C61.1649 41.4376 61.4073 41.3418 61.5894 41.169C61.7715 40.9963 61.879 40.76 61.8895 40.5099C61.8895 40.3991 61.8895 40.286 61.8895 40.1752C61.8895 36.3217 59.2382 33.7787 55.4923 33.7787C51.6445 33.7787 48.9671 36.3712 48.9671 40.4533C48.9671 44.5354 51.7013 47.1374 55.4804 47.1374C57.9824 47.1374 59.8447 45.9872 60.892 44.3563ZM55.3999 36.4631C57.0892 36.4631 58.4492 37.5355 58.4966 39.2395H52.3126C52.5709 37.4742 53.8148 36.4631 55.388 36.4631H55.3999Z" fill="#28183A"/>
<path d="M65.5383 29.6447H64.2091C63.6686 29.6447 63.2305 30.0805 63.2305 30.6181V45.9472C63.2305 46.4848 63.6686 46.9206 64.2091 46.9206H65.5383C66.0787 46.9206 66.5168 46.4848 66.5168 45.9472V30.6181C66.5168 30.0805 66.0787 29.6447 65.5383 29.6447Z" fill="#28183A"/>
</svg>
