<svg width="48" height="48" viewBox="0 0 48 48" fill="none" xmlns="http://www.w3.org/2000/svg">
<g clip-path="url(#clip0_811_15095)">
<path d="M14.9043 6.112C14.7915 6.09836 14.6771 6.10891 14.5686 6.14296C14.4602 6.17701 14.3603 6.23377 14.2755 6.30947C14.1907 6.38516 14.123 6.47805 14.077 6.58194C14.0309 6.68584 14.0075 6.79835 14.0083 6.912V16.992C14.0075 17.1056 14.0309 17.2182 14.077 17.3221C14.123 17.426 14.1907 17.5188 14.2755 17.5945C14.3603 17.6702 14.4602 17.727 14.5686 17.761C14.6771 17.7951 14.7915 17.8056 14.9043 17.792C16.0133 17.6181 17.0496 17.1312 17.8914 16.3887C18.7331 15.6461 19.3455 14.6786 19.6563 13.6C19.8176 13.0601 19.8985 12.4994 19.8963 11.936C19.8958 10.5293 19.3923 9.16923 18.4769 8.10122C17.5615 7.03321 16.2943 6.32767 14.9043 6.112Z" fill="#F5F5F5"/>
<path d="M31.9602 41.248H15.9762C15.3312 41.248 14.8082 41.7709 14.8082 42.416V44.368C14.8082 45.0131 15.3312 45.536 15.9762 45.536H31.9602C32.6053 45.536 33.1282 45.0131 33.1282 44.368V42.416C33.1282 41.7709 32.6053 41.248 31.9602 41.248Z" fill="#2B173C"/>
<path d="M36.5283 8.2V4.576C36.5283 4.21106 36.3833 3.86107 36.1252 3.60302C35.8672 3.34497 35.5172 3.2 35.1523 3.2H12.7523C12.3929 3.20836 12.0511 3.35701 11.7999 3.61416C11.5487 3.87131 11.4082 4.21654 11.4083 4.576V8.2C9.84732 7.37016 8.02386 7.18322 6.327 7.67907C4.63014 8.17491 3.19424 9.31427 2.32572 10.854C1.45719 12.3938 1.2248 14.212 1.67815 15.9207C2.13149 17.6294 3.23467 19.0933 4.75228 20L21.3203 30.992V37.352H20.5203C19.6785 37.3625 18.8748 37.7043 18.2833 38.3033C17.6919 38.9023 17.3602 39.7102 17.3603 40.552C17.3592 40.6462 17.3769 40.7396 17.4122 40.8269C17.4475 40.9142 17.4997 40.9937 17.566 41.0606C17.6322 41.1276 17.711 41.1808 17.7979 41.217C17.8849 41.2533 17.9781 41.272 18.0723 41.272H29.8803C30.0712 41.272 30.2544 41.1961 30.3894 41.0611C30.5244 40.9261 30.6003 40.743 30.6003 40.552C30.6003 39.7033 30.2631 38.8894 29.663 38.2893C29.0629 37.6891 28.249 37.352 27.4003 37.352H26.6003V30.992L43.1843 20C44.7019 19.0933 45.8051 17.6294 46.2584 15.9207C46.7117 14.212 46.4794 12.3938 45.6108 10.854C44.7423 9.31427 43.3064 8.17491 41.6095 7.67907C39.9127 7.18322 38.0892 7.37016 36.5283 8.2ZM14.0083 6.88C14.0075 6.76635 14.0309 6.65383 14.0769 6.54994C14.123 6.44604 14.1907 6.35316 14.2754 6.27746C14.3602 6.20177 14.4601 6.14501 14.5686 6.11096C14.677 6.07691 14.7914 6.06636 14.9043 6.08C16.2943 6.29567 17.5614 7.0012 18.4769 8.06922C19.3923 9.13723 19.8957 10.4973 19.8963 11.904C19.8984 12.4674 19.8176 13.0281 19.6563 13.568C19.3389 14.6392 18.7238 15.5982 17.8825 16.3332C17.0412 17.0683 16.0083 17.5492 14.9043 17.72C14.7914 17.7336 14.677 17.7231 14.5686 17.689C14.4601 17.655 14.3602 17.5982 14.2754 17.5225C14.1907 17.4468 14.123 17.354 14.0769 17.2501C14.0309 17.1462 14.0075 17.0336 14.0083 16.92V6.88ZM6.52828 17.304C6.08796 17.0096 5.71837 16.6213 5.44609 16.167C5.17381 15.7127 5.00561 15.2037 4.95358 14.6766C4.90156 14.1495 4.96702 13.6174 5.14523 13.1186C5.32345 12.6198 5.61 12.1668 5.98428 11.792C6.57148 11.2007 7.34638 10.8325 8.1757 10.7507C9.00502 10.669 9.8369 10.8788 10.5283 11.344L11.4403 11.952V17.552C11.4417 18.6884 11.6005 19.8192 11.9123 20.912L6.52828 17.304ZM41.4163 17.304L35.9523 20.952C36.3373 19.7165 36.5342 18.4301 36.5363 17.136V11.952L37.4483 11.344C38.0131 10.9682 38.6729 10.7604 39.3511 10.7448C40.0293 10.7292 40.698 10.9064 41.2795 11.2558C41.861 11.6052 42.3314 12.1124 42.636 12.7186C42.9406 13.3247 43.0669 14.0049 43.0003 14.68C42.9497 15.209 42.7802 15.7198 42.5046 16.1742C42.2289 16.6286 41.8541 17.0148 41.4083 17.304H41.4163Z" fill="#FF8D5E"/>
</g>
<defs>
<clipPath id="clip0_811_15095">
<rect width="44.48" height="42.336" fill="white" transform="translate(1.72815 3.2)"/>
</clipPath>
</defs>
</svg>
