<svg width="24" height="24" viewBox="0 0 24 24" fill="none" xmlns="http://www.w3.org/2000/svg">
<path fill-rule="evenodd" clip-rule="evenodd" d="M12 3C7.038 3 3 7.038 3 12C3 16.963 7.038 21 12 21C16.963 21 21 16.963 21 12C21 7.038 16.963 3 12 3ZM12 23C5.935 23 1 18.065 1 12C1 5.935 5.935 1 12 1C18.065 1 23 5.935 23 12C23 18.065 18.065 23 12 23ZM12 13C11.448 13 11 12.552 11 12V8C11 7.448 11.448 7 12 7C12.552 7 13 7.448 13 8V12C13 12.552 12.552 13 12 13ZM11.29 16.702C11.48 16.892 11.73 17.002 12 17.002C12.27 17.002 12.52 16.892 12.71 16.702C12.9 16.522 13 16.272 13 16.002C13 15.872 12.98 15.742 12.92 15.622C12.87 15.492 12.8 15.382 12.71 15.292C12.43 15.012 11.98 14.922 11.62 15.071C11.49 15.122 11.39 15.202 11.29 15.292C11.2 15.382 11.13 15.492 11.08 15.622C11.03 15.742 11 15.872 11 16.002C11 16.272 11.1 16.522 11.29 16.702Z" fill="#C86B6D"/>
<mask id="mask0_735_6646" style="mask-type:alpha" maskUnits="userSpaceOnUse" x="1" y="1" width="22" height="22">
<path fill-rule="evenodd" clip-rule="evenodd" d="M12 3C7.038 3 3 7.038 3 12C3 16.963 7.038 21 12 21C16.963 21 21 16.963 21 12C21 7.038 16.963 3 12 3ZM12 23C5.935 23 1 18.065 1 12C1 5.935 5.935 1 12 1C18.065 1 23 5.935 23 12C23 18.065 18.065 23 12 23ZM12 13C11.448 13 11 12.552 11 12V8C11 7.448 11.448 7 12 7C12.552 7 13 7.448 13 8V12C13 12.552 12.552 13 12 13ZM11.29 16.702C11.48 16.892 11.73 17.002 12 17.002C12.27 17.002 12.52 16.892 12.71 16.702C12.9 16.522 13 16.272 13 16.002C13 15.872 12.98 15.742 12.92 15.622C12.87 15.492 12.8 15.382 12.71 15.292C12.43 15.012 11.98 14.922 11.62 15.071C11.49 15.122 11.39 15.202 11.29 15.292C11.2 15.382 11.13 15.492 11.08 15.622C11.03 15.742 11 15.872 11 16.002C11 16.272 11.1 16.522 11.29 16.702Z" fill="white"/>
</mask>
<g mask="url(#mask0_735_6646)">
</g>
</svg>
