<svg width="24" height="24" viewBox="0 0 24 24" fill="none" xmlns="http://www.w3.org/2000/svg">
<path fill-rule="evenodd" clip-rule="evenodd" d="M11.5929 4.47889L3.12488 18.6149C2.85788 19.0789 3.02188 19.6919 3.49988 19.9679C3.64688 20.0539 3.81688 20.0999 3.98888 20.1019H20.9169C21.1739 20.0989 21.4229 19.9919 21.6109 19.8009C21.7969 19.6099 21.8989 19.3569 21.8959 19.0909C21.8939 18.9199 21.8469 18.7509 21.7609 18.6019L13.2999 4.47489C13.0159 4.00889 12.4009 3.85789 11.9289 4.14389C11.7929 4.22589 11.6759 4.34189 11.5929 4.47889ZM3.97688 22.1019C3.45088 22.0959 2.94488 21.9569 2.49888 21.6999C1.06688 20.8719 0.57388 19.0329 1.40188 17.6019L9.87988 3.44789L9.88288 3.44189C10.1329 3.03089 10.4819 2.68189 10.8919 2.43389C12.3049 1.57689 14.1549 2.02889 15.0119 3.44189L23.4849 17.5879C23.7499 18.0479 23.8899 18.5549 23.8959 19.0679C23.9049 19.8709 23.5999 20.6269 23.0389 21.1999C22.4789 21.7719 21.7289 22.0929 20.9279 22.1019H3.97688ZM12.4473 14.1015C11.8953 14.1015 11.4473 13.6545 11.4473 13.1015V9.1015C11.4473 8.5495 11.8953 8.1015 12.4473 8.1015C12.9993 8.1015 13.4473 8.5495 13.4473 9.1015V13.1015C13.4473 13.6545 12.9993 14.1015 12.4473 14.1015ZM11.7373 17.8035C11.9273 17.9935 12.1773 18.1035 12.4473 18.1035C12.7173 18.1035 12.9673 17.9935 13.1573 17.8035C13.3473 17.6235 13.4473 17.3735 13.4473 17.1035C13.4473 16.9735 13.4173 16.8435 13.3673 16.7235C13.3173 16.5935 13.2473 16.4835 13.1573 16.3935C12.7873 16.0235 12.1173 16.0235 11.7373 16.3935C11.6473 16.4835 11.5773 16.5935 11.5273 16.7235C11.4773 16.8435 11.4473 16.9735 11.4473 17.1035C11.4473 17.2335 11.4773 17.3635 11.5273 17.4835C11.5773 17.6035 11.6473 17.7125 11.7373 17.8035Z" fill="#C86B6D"/>
<mask id="mask0_725_6933" style="mask-type:alpha" maskUnits="userSpaceOnUse" x="1" y="2" width="23" height="21">
<path fill-rule="evenodd" clip-rule="evenodd" d="M11.5929 4.47889L3.12488 18.6149C2.85788 19.0789 3.02188 19.6919 3.49988 19.9679C3.64688 20.0539 3.81688 20.0999 3.98888 20.1019H20.9169C21.1739 20.0989 21.4229 19.9919 21.6109 19.8009C21.7969 19.6099 21.8989 19.3569 21.8959 19.0909C21.8939 18.9199 21.8469 18.7509 21.7609 18.6019L13.2999 4.47489C13.0159 4.00889 12.4009 3.85789 11.9289 4.14389C11.7929 4.22589 11.6759 4.34189 11.5929 4.47889ZM3.97688 22.1019C3.45088 22.0959 2.94488 21.9569 2.49888 21.6999C1.06688 20.8719 0.57388 19.0329 1.40188 17.6019L9.87988 3.44789L9.88288 3.44189C10.1329 3.03089 10.4819 2.68189 10.8919 2.43389C12.3049 1.57689 14.1549 2.02889 15.0119 3.44189L23.4849 17.5879C23.7499 18.0479 23.8899 18.5549 23.8959 19.0679C23.9049 19.8709 23.5999 20.6269 23.0389 21.1999C22.4789 21.7719 21.7289 22.0929 20.9279 22.1019H3.97688ZM12.4473 14.1015C11.8953 14.1015 11.4473 13.6545 11.4473 13.1015V9.1015C11.4473 8.5495 11.8953 8.1015 12.4473 8.1015C12.9993 8.1015 13.4473 8.5495 13.4473 9.1015V13.1015C13.4473 13.6545 12.9993 14.1015 12.4473 14.1015ZM11.7373 17.8035C11.9273 17.9935 12.1773 18.1035 12.4473 18.1035C12.7173 18.1035 12.9673 17.9935 13.1573 17.8035C13.3473 17.6235 13.4473 17.3735 13.4473 17.1035C13.4473 16.9735 13.4173 16.8435 13.3673 16.7235C13.3173 16.5935 13.2473 16.4835 13.1573 16.3935C12.7873 16.0235 12.1173 16.0235 11.7373 16.3935C11.6473 16.4835 11.5773 16.5935 11.5273 16.7235C11.4773 16.8435 11.4473 16.9735 11.4473 17.1035C11.4473 17.2335 11.4773 17.3635 11.5273 17.4835C11.5773 17.6035 11.6473 17.7125 11.7373 17.8035Z" fill="white"/>
</mask>
<g mask="url(#mask0_725_6933)">
</g>
</svg>
