<svg width="24" height="24" viewBox="0 0 24 24" fill="none" xmlns="http://www.w3.org/2000/svg">
<path fill-rule="evenodd" clip-rule="evenodd" d="M3 12C3 16.963 7.038 21 12 21C16.963 21 21 16.963 21 12C21 7.038 16.963 3 12 3C7.038 3 3 7.038 3 12ZM1 12C1 5.935 5.935 1 12 1C18.065 1 23 5.935 23 12C23 18.065 18.065 23 12 23C5.935 23 1 18.065 1 12ZM14.2928 8.29301C14.6838 7.90201 15.3158 7.90201 15.7068 8.29301C16.0978 8.68401 16.0978 9.31601 15.7068 9.70701L13.4138 12L15.7068 14.293C16.0978 14.684 16.0978 15.316 15.7068 15.707C15.5118 15.902 15.2558 16 14.9998 16C14.7438 16 14.4878 15.902 14.2928 15.707L11.9998 13.414L9.70676 15.707C9.51176 15.902 9.25576 16 8.99976 16C8.74376 16 8.48776 15.902 8.29276 15.707C7.90176 15.316 7.90176 14.684 8.29276 14.293L10.5858 12L8.29276 9.70701C7.90176 9.31601 7.90176 8.68401 8.29276 8.29301C8.68376 7.90201 9.31576 7.90201 9.70676 8.29301L11.9998 10.586L14.2928 8.29301Z" fill="#29173B"/>
</svg>
