<svg width="18" height="18" viewBox="0 0 18 18" fill="none" xmlns="http://www.w3.org/2000/svg">
<path fill-rule="evenodd" clip-rule="evenodd" d="M13.2426 12.1819L10.0607 8.99993L13.2426 5.81795C13.5354 5.52521 13.5354 5.05003 13.2426 4.75729C12.9499 4.46455 12.4747 4.46455 12.182 4.75729L9 7.93927L5.81802 4.75729C5.52528 4.46455 5.0501 4.46455 4.75736 4.75729C4.46462 5.05003 4.46462 5.52521 4.75736 5.81795L7.93934 8.99993L4.75736 12.1819C4.46409 12.4752 4.46462 12.9498 4.75736 13.2426C5.0501 13.5353 5.52475 13.5358 5.81802 13.2426L9 10.0606L12.182 13.2426C12.4753 13.5358 12.9499 13.5353 13.2426 13.2426C13.5354 12.9498 13.5359 12.4752 13.2426 12.1819Z" fill="white"/>
</svg>
