<svg width="24" height="24" viewBox="0 0 24 24" fill="none" xmlns="http://www.w3.org/2000/svg">
<path fill-rule="evenodd" clip-rule="evenodd" d="M12.0787 19C6.73692 19 3.21616 13.607 2.2853 11.999C3.21318 10.389 6.72003 5 12.0787 5C17.4204 5 20.9412 10.393 21.872 12.001C20.9441 13.611 17.4363 19 12.0787 19ZM0.26166 12.447C0.435513 12.796 4.59704 21 12.0787 21C19.5603 21 23.7218 12.796 23.8947 12.447C24.0347 12.166 24.0347 11.834 23.8947 11.553C23.7218 11.204 19.5603 3 12.0787 3C4.59704 3 0.435513 11.204 0.26166 11.553C0.122578 11.834 0.122578 12.166 0.26166 12.447ZM10.0918 12C10.0918 10.897 10.9829 10 12.0787 10C13.1744 10 14.0655 10.897 14.0655 12C14.0655 13.103 13.1744 14 12.0787 14C10.9829 14 10.0918 13.103 10.0918 12ZM8.10489 12C8.10489 14.206 9.88713 16 12.0787 16C14.2702 16 16.0524 14.206 16.0524 12C16.0524 9.794 14.2702 8 12.0787 8C9.88713 8 8.10489 9.794 8.10489 12Z" fill="#69B5B5"/>
</svg>
