<svg width="24" height="24" viewBox="0 0 24 24" fill="none" xmlns="http://www.w3.org/2000/svg">
<path fill-rule="evenodd" clip-rule="evenodd" d="M2.14355 12.001C3.08255 13.613 6.62555 19 11.9996 19C13.5466 18.975 15.0376 18.553 16.3666 17.781L14.0386 15.453C13.4486 15.822 12.7786 16.047 12.0656 16.072C12.0176 16.074 11.9696 16.075 11.9216 16.075C10.9066 16.075 9.94355 15.696 9.19755 15.001C8.41655 14.273 7.96455 13.284 7.92755 12.216C7.89855 11.405 8.11355 10.624 8.53656 9.95102L6.00155 7.41602C4.45755 8.71902 3.15355 10.248 2.14355 12.001ZM12.5508 13.965L10.0318 11.446C9.95776 11.669 9.91776 11.904 9.92576 12.146C9.94476 12.679 10.1708 13.174 10.5618 13.538C10.9538 13.902 11.4818 14.098 11.9958 14.073C12.1878 14.066 12.3728 14.024 12.5508 13.965ZM1.70676 0.293006L23.7068 22.293C24.0978 22.684 24.0978 23.316 23.7068 23.707C23.5118 23.902 23.2558 24 22.9998 24C22.7438 24 22.4878 23.902 22.2928 23.707L17.8268 19.241C16.0918 20.36 14.1008 20.966 12.0158 21C4.46876 21 0.279762 12.796 0.104762 12.447C-0.0402383 12.157 -0.0352383 11.813 0.118762 11.527C1.25876 9.40301 2.77176 7.56201 4.58676 6.00101L0.292762 1.70701C-0.0982383 1.31601 -0.0982383 0.684006 0.292762 0.293006C0.683762 -0.0979941 1.31576 -0.0979941 1.70676 0.293006ZM11.9995 4.99992C11.3945 5.03392 10.7395 5.07092 10.1275 5.21392C9.59151 5.33992 9.05151 5.00592 8.92551 4.46792C8.79951 3.92992 9.13351 3.39292 9.67151 3.26692C10.4335 3.08892 11.1945 2.96592 12.0015 2.99992C19.5305 2.99992 23.7195 11.2039 23.8945 11.5529C24.0385 11.8429 24.0345 12.1859 23.8815 12.4719C23.2415 13.6679 22.4765 14.7989 21.6055 15.8339C21.4065 16.0689 21.1235 16.1909 20.8385 16.1909C20.6115 16.1909 20.3835 16.1129 20.1955 15.9559C19.7735 15.5999 19.7185 14.9689 20.0735 14.5469C20.7405 13.7549 21.3385 12.8999 21.8565 11.9999C20.9175 10.3889 17.3745 4.99992 11.9995 4.99992Z" fill="#9B9B9B"/>
</svg>
