<svg width="16" height="16" viewBox="0 0 16 16" fill="none" xmlns="http://www.w3.org/2000/svg">
<path fill-rule="evenodd" clip-rule="evenodd" d="M8.00008 2.00008C4.69208 2.00008 2.00008 4.69208 2.00008 8.00008C2.00008 11.3087 4.69208 14.0001 8.00008 14.0001C11.3087 14.0001 14.0001 11.3087 14.0001 8.00008C14.0001 4.69208 11.3087 2.00008 8.00008 2.00008ZM8.00008 15.3334C3.95675 15.3334 0.666748 12.0434 0.666748 8.00008C0.666748 3.95675 3.95675 0.666748 8.00008 0.666748C12.0434 0.666748 15.3334 3.95675 15.3334 8.00008C15.3334 12.0434 12.0434 15.3334 8.00008 15.3334ZM8.00008 8.66675C7.63208 8.66675 7.33342 8.36808 7.33342 8.00008V5.33341C7.33342 4.96541 7.63208 4.66675 8.00008 4.66675C8.36808 4.66675 8.66675 4.96541 8.66675 5.33341V8.00008C8.66675 8.36808 8.36808 8.66675 8.00008 8.66675ZM7.52675 11.1347C7.65342 11.2614 7.82008 11.3347 8.00008 11.3347C8.18008 11.3347 8.34675 11.2614 8.47342 11.1347C8.60008 11.0147 8.66675 10.8481 8.66675 10.6681C8.66675 10.5814 8.65342 10.4947 8.61342 10.4147C8.58008 10.3281 8.53342 10.2547 8.47342 10.1947C8.28675 10.0081 7.98675 9.94808 7.74675 10.0474C7.66008 10.0814 7.59342 10.1347 7.52675 10.1947C7.46675 10.2547 7.42008 10.3281 7.38675 10.4147C7.35342 10.4947 7.33342 10.5814 7.33342 10.6681C7.33342 10.8481 7.40008 11.0147 7.52675 11.1347Z" fill="#69B5B5"/>
<mask id="mask0_1658_14761" style="mask-type:alpha" maskUnits="userSpaceOnUse" x="0" y="0" width="16" height="16">
<path fill-rule="evenodd" clip-rule="evenodd" d="M8.00008 2.00008C4.69208 2.00008 2.00008 4.69208 2.00008 8.00008C2.00008 11.3087 4.69208 14.0001 8.00008 14.0001C11.3087 14.0001 14.0001 11.3087 14.0001 8.00008C14.0001 4.69208 11.3087 2.00008 8.00008 2.00008ZM8.00008 15.3334C3.95675 15.3334 0.666748 12.0434 0.666748 8.00008C0.666748 3.95675 3.95675 0.666748 8.00008 0.666748C12.0434 0.666748 15.3334 3.95675 15.3334 8.00008C15.3334 12.0434 12.0434 15.3334 8.00008 15.3334ZM8.00008 8.66675C7.63208 8.66675 7.33342 8.36808 7.33342 8.00008V5.33341C7.33342 4.96541 7.63208 4.66675 8.00008 4.66675C8.36808 4.66675 8.66675 4.96541 8.66675 5.33341V8.00008C8.66675 8.36808 8.36808 8.66675 8.00008 8.66675ZM7.52675 11.1347C7.65342 11.2614 7.82008 11.3347 8.00008 11.3347C8.18008 11.3347 8.34675 11.2614 8.47342 11.1347C8.60008 11.0147 8.66675 10.8481 8.66675 10.6681C8.66675 10.5814 8.65342 10.4947 8.61342 10.4147C8.58008 10.3281 8.53342 10.2547 8.47342 10.1947C8.28675 10.0081 7.98675 9.94808 7.74675 10.0474C7.66008 10.0814 7.59342 10.1347 7.52675 10.1947C7.46675 10.2547 7.42008 10.3281 7.38675 10.4147C7.35342 10.4947 7.33342 10.5814 7.33342 10.6681C7.33342 10.8481 7.40008 11.0147 7.52675 11.1347Z" fill="white"/>
</mask>
<g mask="url(#mask0_1658_14761)">
</g>
</svg>
