<svg width="16" height="18" viewBox="0 0 16 18" fill="none" xmlns="http://www.w3.org/2000/svg">
<path fill-rule="evenodd" clip-rule="evenodd" d="M12.5 15C12.5 15.414 12.164 15.75 11.75 15.75H4.25C3.83675 15.75 3.5 15.414 3.5 15V5.25H12.5V15ZM5.75 3C5.75 2.58675 6.08675 2.25 6.5 2.25H9.5C9.914 2.25 10.25 2.58675 10.25 3V3.75H5.75V3ZM14.75 3.75H11.75V3C11.75 1.7595 10.7405 0.75 9.5 0.75H6.5C5.2595 0.75 4.25 1.7595 4.25 3V3.75H1.25C0.836 3.75 0.5 4.086 0.5 4.5C0.5 4.914 0.836 5.25 1.25 5.25H2V15C2 16.2405 3.0095 17.25 4.25 17.25H11.75C12.9905 17.25 14 16.2405 14 15V5.25H14.75C15.1648 5.25 15.5 4.914 15.5 4.5C15.5 4.086 15.1648 3.75 14.75 3.75ZM6.5 7.5C6.086 7.5 5.75 7.836 5.75 8.25V12.75C5.75 13.1648 6.086 13.5 6.5 13.5C6.914 13.5 7.25 13.1648 7.25 12.75V8.25C7.25 7.836 6.914 7.5 6.5 7.5ZM8.75 8.25C8.75 7.836 9.08525 7.5 9.5 7.5C9.91475 7.5 10.25 7.836 10.25 8.25V12.75C10.25 13.1648 9.91475 13.5 9.5 13.5C9.08525 13.5 8.75 13.1648 8.75 12.75V8.25Z" fill="#9B9B9B"/>
</svg>
