<svg width="56" height="56" viewBox="0 0 56 56" fill="none" xmlns="http://www.w3.org/2000/svg">
<g clip-path="url(#clip0_120_1301)">
<path d="M28.7842 32.8999C28.8675 33.0532 28.981 33.188 29.118 33.2961C29.2549 33.4041 29.4124 33.4833 29.5808 33.5287C29.7493 33.5741 29.9252 33.5847 30.0979 33.5601C30.2706 33.5354 30.4365 33.476 30.5855 33.3853C34.5802 31.1639 36.3722 26.6559 34.5895 22.7359C32.8068 18.8253 28.0562 16.8559 23.5575 17.9386C23.3897 17.9659 23.2302 18.0303 23.0906 18.1273C22.951 18.2242 22.8349 18.3512 22.7507 18.4989C22.6666 18.6466 22.6166 18.8112 22.6044 18.9808C22.5922 19.1503 22.6181 19.3204 22.6802 19.4786L28.7842 32.8999Z" fill="white"/>
<path d="M25.1253 47.3201C25.7787 47.4041 26.4413 47.4694 27.104 47.5441H29.8667C30.7253 47.4414 31.584 47.3668 32.4427 47.2361C38.976 46.1814 44.128 43.5028 47.2733 38.5654C48.6313 36.4773 49.3692 34.0468 49.4013 31.5561C49.4013 29.4592 49.4013 27.3592 49.4013 25.2561C49.2613 17.2201 42.2053 10.3228 32.6013 8.7361C21.784 6.98144 11.2 12.2828 8.25067 20.9441C7.95235 21.977 7.71857 23.0275 7.55067 24.0894L7.46667 24.4534V31.5654C7.61601 32.3681 7.72801 33.1801 7.93334 33.9734C9.66001 40.8614 16.6133 46.2468 25.1253 47.3201ZM47.3947 34.4401C47.2096 35.1436 46.9661 35.8305 46.6667 36.4934C46.0746 37.8227 45.2778 39.0509 44.3053 40.1334C42.2929 42.2606 39.7903 43.8628 37.016 44.8001C35.0986 45.4926 33.1062 45.9563 31.08 46.1814C27.6476 46.5551 24.1752 46.1434 20.9253 44.9774C17.5777 43.8575 14.5753 41.8934 12.208 39.2748C10.6014 37.3067 9.55083 34.9446 9.16534 32.4334C9.55032 33.1657 9.99024 33.8677 10.4813 34.5334C12.0152 36.3425 13.8079 37.915 15.8013 39.2001C16.9072 39.8394 18.0546 40.4038 19.236 40.8894C19.7587 41.1072 20.2907 41.3032 20.832 41.4774C24.7018 42.7176 28.8166 42.99 32.816 42.2708C36.3204 41.6479 39.6387 40.2408 42.5227 38.1548C44.1495 36.9953 45.5323 35.5269 46.592 33.8334C46.8813 33.3948 47.2453 32.5641 47.7307 32.3214C47.7341 33.0412 47.6207 33.7567 47.3947 34.4401V34.4401ZM23.5573 17.9388C28.0653 16.8561 32.8067 18.8254 34.5893 22.7361C36.372 26.6561 34.5893 31.1361 30.5853 33.3854C30.4363 33.4761 30.2704 33.5356 30.0977 33.5603C29.925 33.5849 29.7491 33.5742 29.5807 33.5288C29.4122 33.4834 29.2547 33.4043 29.1178 33.2962C28.9809 33.1882 28.8673 33.0534 28.784 32.9001L22.68 19.4788C22.6179 19.3206 22.592 19.1504 22.6042 18.9809C22.6164 18.8114 22.6664 18.6467 22.7506 18.4991C22.8347 18.3514 22.9508 18.2244 23.0904 18.1274C23.23 18.0305 23.3896 17.966 23.5573 17.9388V17.9388Z" fill="#FF8D5E"/>
</g>
<defs>
<clipPath id="clip0_120_1301">
<rect width="41.9067" height="39.144" fill="white" transform="translate(7.46667 8.40002)"/>
</clipPath>
</defs>
</svg>
