<svg width="18" height="20" viewBox="0 0 18 20" fill="none" xmlns="http://www.w3.org/2000/svg">
<path fill-rule="evenodd" clip-rule="evenodd" d="M12 5C12 3.346 10.654 2 9 2C7.346 2 6 3.346 6 5C6 6.654 7.346 8 9 8C10.654 8 12 6.654 12 5ZM14 5C14 7.757 11.757 10 9 10C6.243 10 4 7.757 4 5C4 2.243 6.243 0 9 0C11.757 0 14 2.243 14 5ZM0 17C0 14.243 2.243 12 5 12H13C15.757 12 18 14.243 18 17V19C18 19.553 17.553 20 17 20C16.447 20 16 19.553 16 19V17C16 15.346 14.654 14 13 14H5C3.346 14 2 15.346 2 17V19C2 19.553 1.552 20 1 20C0.448 20 0 19.553 0 19V17Z" fill="#9B9B9B"/>
</svg>
