<svg width="32" height="32" viewBox="0 0 32 32" fill="none" xmlns="http://www.w3.org/2000/svg">
<path fill-rule="evenodd" clip-rule="evenodd" d="M23.5425 21.6568L17.8856 16L23.5425 10.3431C24.0629 9.8227 24.0629 8.97794 23.5425 8.45751C23.022 7.93708 22.1773 7.93708 21.6569 8.45751L16 14.1144L10.3431 8.45751C9.82271 7.93708 8.97796 7.93708 8.45753 8.45751C7.9371 8.97794 7.9371 9.8227 8.45753 10.3431L14.1144 16L8.45753 21.6568C7.93615 22.1782 7.9371 23.022 8.45753 23.5425C8.97796 24.0629 9.82177 24.0638 10.3431 23.5425L16 17.8856L21.6569 23.5425C22.1782 24.0638 23.022 24.0629 23.5425 23.5425C24.0629 23.022 24.0638 22.1782 23.5425 21.6568Z" fill="#29173B"/>
</svg>
