<svg width="56" height="56" viewBox="0 0 56 56" fill="none" xmlns="http://www.w3.org/2000/svg">
<g clip-path="url(#clip0_120_1319)">
<path d="M9.60418 13.8132C8.46112 15.0858 7.8081 16.7236 7.76193 18.4336C7.71577 20.1435 8.27946 21.8141 9.35218 23.1466C9.43976 23.2523 9.54958 23.3373 9.6738 23.3957C9.79802 23.4541 9.93359 23.4844 10.0709 23.4844C10.2081 23.4844 10.3437 23.4541 10.4679 23.3957C10.5921 23.3373 10.7019 23.2523 10.7895 23.1466L19.0775 14.0652C19.1702 13.9654 19.2399 13.8464 19.2817 13.7167C19.3235 13.587 19.3364 13.4498 19.3195 13.3146C19.3026 13.1794 19.2563 13.0495 19.1839 12.9341C19.1114 12.8187 19.0146 12.7205 18.9002 12.6466C17.4672 11.6972 15.7415 11.2928 14.0359 11.5069C12.3304 11.7209 10.7581 12.5392 9.60418 13.8132Z" fill="white"/>
<path d="M49.4389 8.76395C46.8597 6.59232 43.5594 5.46786 40.1908 5.61304C36.8223 5.75822 33.631 7.16247 31.2482 9.54795C30.9029 9.89329 30.5762 10.2573 30.3149 10.6306C29.7082 11.3866 28.8215 12.7026 27.9349 12.7026C27.0482 12.7026 26.1615 11.3866 25.5549 10.6306C25.2509 10.2498 24.9236 9.88826 24.5749 9.54795C22.1863 7.1382 18.9763 5.71876 15.5865 5.57341C12.1967 5.42806 8.87689 6.56751 6.29086 8.76395C4.85539 10.0078 3.69562 11.5378 2.88585 13.256C2.07609 14.9741 1.6342 16.8425 1.58851 18.7413C1.54282 20.6402 1.89433 22.5276 2.62052 24.2827C3.3467 26.0378 4.43155 27.6218 5.80553 28.9333L25.6949 48.7946C25.9827 49.083 26.3246 49.3118 26.7009 49.468C27.0773 49.6241 27.4807 49.7044 27.8882 49.7044C28.2957 49.7044 28.6991 49.6241 29.0755 49.468C29.4518 49.3118 29.7937 49.083 30.0815 48.7946L49.9709 28.9333C51.3407 27.6179 52.4209 26.0311 53.1423 24.2743C53.8637 22.5176 54.2105 20.6296 54.1604 18.7311C54.1103 16.8326 53.6645 14.9655 52.8515 13.2492C52.0385 11.533 50.8761 10.0053 49.4389 8.76395ZM19.0775 14.0653L10.7895 23.2213C10.7019 23.327 10.5921 23.4121 10.4679 23.4704C10.3437 23.5288 10.2081 23.5591 10.0709 23.5591C9.9336 23.5591 9.79803 23.5288 9.67381 23.4704C9.54958 23.4121 9.43977 23.327 9.35219 23.2213C8.24359 21.8903 7.6523 20.2041 7.68689 18.4722C7.72147 16.7404 8.3796 15.0791 9.54045 13.7934C10.7013 12.5078 12.287 11.684 14.0063 11.4733C15.7256 11.2626 17.4633 11.6792 18.9002 12.6466C19.0146 12.7206 19.1115 12.8187 19.1839 12.9341C19.2563 13.0495 19.3026 13.1794 19.3195 13.3146C19.3364 13.4498 19.3235 13.5871 19.2817 13.7168C19.2399 13.8465 19.1702 13.9654 19.0775 14.0653Z" fill="#4AB7B5"/>
</g>
<defs>
<clipPath id="clip0_120_1319">
<rect width="52.5187" height="44.1" fill="white" transform="translate(1.62421 5.59998)"/>
</clipPath>
</defs>
</svg>
