<svg width="32" height="33" viewBox="0 0 32 33" fill="none" xmlns="http://www.w3.org/2000/svg">
<path d="M29.3334 13.5063C29.4667 12.8396 28.9334 12.0396 28.2668 12.0396L20.6667 10.973L17.2001 4.03963C17.0667 3.77296 16.9334 3.63963 16.6667 3.5063C16.0001 3.1063 15.2001 3.37296 14.8001 4.03963L11.4667 10.973L3.86675 12.0396C3.46675 12.0396 3.20008 12.173 3.06675 12.4396C2.53341 12.973 2.53341 13.773 3.06675 14.3063L8.53341 19.6396L7.20008 27.2396C7.20008 27.5063 7.20008 27.773 7.33342 28.0396C7.73341 28.7063 8.53341 28.973 9.20008 28.573L16.0001 24.973L22.8001 28.573C22.9334 28.7063 23.2001 28.7063 23.4667 28.7063C23.6001 28.7063 23.6001 28.7063 23.7334 28.7063C24.4001 28.573 24.9334 27.9063 24.8001 27.1063L23.4667 19.5063L28.9334 14.173C29.2001 14.0396 29.3334 13.773 29.3334 13.5063Z" fill="#F29469"/>
</svg>
