<svg width="343" height="164" viewBox="0 0 343 164" fill="none" xmlns="http://www.w3.org/2000/svg">
<g clip-path="url(#clip0_811_8840)">
<path d="M462.685 42.7786C454.641 50.9826 443.912 55 433.191 55C422.467 55 411.738 50.9826 403.528 42.7786L319.797 -40.8525C304.771 -55.8609 280.405 -55.8609 265.379 -40.8525L181.644 42.7786C173.434 50.9826 162.709 55 151.981 55C141.252 55 130.527 50.9826 122.318 42.7786C105.894 26.5438 105.894 -0.0687866 122.318 -16.3076L228.734 -122.597C263.994 -157.814 321.163 -157.798 356.407 -122.565L462.685 -16.3076C479.105 -0.0727234 479.105 26.5399 462.685 42.7786Z" fill="#68B6B5"/>
<path d="M266 327.5C266 440.441 174.443 532 61.4988 532C-51.4449 532 -143 440.441 -143 327.5C-143 214.559 -51.4427 123 61.4988 123C174.44 123 266 214.559 266 327.5Z" fill="#DEA8DE"/>
<path d="M326.894 82.4678C326.894 118.073 298.032 146.936 262.426 146.936C226.82 146.936 197.958 118.073 197.958 82.4678C197.958 46.8621 226.82 18 262.426 18C298.032 18 326.894 46.8621 326.894 82.4678Z" fill="#F39191"/>
<path d="M202.447 74.6484C201.671 74.6484 200.916 74.7519 200.197 74.9484C201.671 80.6112 203.559 85.3224 205.338 91.4041C208.679 90.2146 211.073 87.0238 211.073 83.2745C211.073 78.5115 207.21 74.6484 202.447 74.6484Z" fill="#E1C2FF"/>
<path d="M314.472 141.604L309.088 141.164L309.295 140.59C309.786 139.235 310.004 137.792 309.936 136.349L309.895 135.46L313.743 136.168L314.472 141.604Z" fill="white"/>
<path d="M314.741 141.857L308.768 141.371L309.078 140.507C309.559 139.173 309.771 137.777 309.704 136.355L309.647 135.176L313.949 135.967L314.741 141.857ZM309.409 140.957L314.198 141.35L313.531 136.37L310.133 135.744L310.164 136.339C310.236 137.818 310.014 139.277 309.512 140.668L309.409 140.957Z" fill="#28183A"/>
<path d="M308.675 138.511C308.364 138.811 308.038 139.147 307.78 139.473C306.916 140.559 304.439 141.433 303.963 141.593C303.606 141.712 303.188 141.888 302.851 142.142C302.474 142.426 302.288 142.897 302.334 143.367L302.36 143.595C302.391 143.879 302.557 144.133 302.805 144.267C303.332 144.546 304.393 144.945 306.161 144.919C308.866 144.877 311.467 144.831 313.179 144.753C314.896 144.67 315.94 144.417 316.406 143.765C316.83 143.176 316.028 140.037 315.335 139.127C315.227 138.982 315.035 138.925 314.865 138.977C314.539 139.07 313.97 139.297 313.536 139.794C313.122 140.264 312.165 140.642 311.302 140.74C310.629 140.818 310.024 140.326 309.957 139.649C309.936 139.427 309.911 139.184 309.88 138.94C309.812 138.356 309.104 138.103 308.675 138.511Z" fill="white"/>
<path d="M305.996 145.151C304.331 145.151 303.286 144.784 302.696 144.474C302.376 144.303 302.164 143.988 302.127 143.621L302.102 143.393C302.045 142.835 302.277 142.286 302.712 141.955C303.012 141.728 303.41 141.531 303.891 141.371C304.181 141.273 306.751 140.399 307.599 139.328C307.894 138.956 308.261 138.589 308.514 138.346C308.773 138.097 309.15 138.015 309.492 138.139C309.833 138.263 310.071 138.558 310.117 138.92C310.148 139.163 310.174 139.406 310.195 139.633C310.221 139.897 310.35 140.135 310.557 140.306C310.764 140.471 311.017 140.544 311.281 140.513C312.134 140.414 313.013 140.047 313.365 139.644C313.846 139.096 314.477 138.852 314.808 138.754C315.077 138.677 315.366 138.77 315.532 138.987C316.235 139.913 317.13 143.165 316.602 143.9C316.116 144.582 315.129 144.893 313.2 144.986C311.441 145.069 308.783 145.115 306.172 145.151C306.11 145.151 306.053 145.151 305.996 145.151ZM309.171 138.542C309.047 138.542 308.933 138.589 308.84 138.677C308.488 139.013 308.188 139.339 307.966 139.613C307.051 140.766 304.537 141.645 304.041 141.811C303.612 141.955 303.26 142.126 302.996 142.323C302.691 142.555 302.531 142.943 302.572 143.341L302.598 143.569C302.619 143.776 302.743 143.962 302.924 144.055C303.384 144.298 304.418 144.707 306.166 144.676C308.773 144.639 311.426 144.593 313.179 144.51C314.927 144.427 315.842 144.158 316.23 143.615C316.54 143.186 315.884 140.197 315.165 139.251C315.113 139.183 315.025 139.158 314.942 139.183C314.658 139.266 314.125 139.468 313.722 139.933C313.293 140.425 312.315 140.843 311.343 140.957C310.96 141.004 310.578 140.895 310.273 140.647C309.967 140.399 309.776 140.047 309.74 139.659C309.719 139.437 309.693 139.199 309.662 138.956C309.642 138.77 309.523 138.62 309.347 138.558C309.28 138.553 309.223 138.542 309.171 138.542Z" fill="#28183A"/>
<path d="M308.142 143.993C306.425 143.993 304.703 143.895 303.472 143.595C303.348 143.564 303.27 143.44 303.301 143.316C303.332 143.192 303.456 143.114 303.581 143.145C306.983 143.972 314.498 143.192 314.57 143.186C314.699 143.171 314.813 143.264 314.823 143.393C314.839 143.523 314.746 143.636 314.616 143.652C314.42 143.667 311.276 143.993 308.142 143.993Z" fill="#28183A"/>
<path d="M296.454 140.337L291.273 139.887L291.474 139.334C291.955 138.03 292.167 136.639 292.11 135.253L292.074 134.4L295.777 135.103L296.454 140.337Z" fill="white"/>
<path d="M296.723 140.595L290.952 140.099L291.262 139.261C291.733 137.979 291.94 136.634 291.883 135.269L291.831 134.121L295.989 134.907L296.723 140.595ZM291.598 139.685L296.191 140.083L295.575 135.3L292.322 134.684L292.348 135.248C292.41 136.675 292.193 138.077 291.702 139.421L291.598 139.685Z" fill="#28183A"/>
<path d="M290.176 137.704C289.84 138.015 289.483 138.366 289.204 138.702C288.263 139.835 285.703 141.071 285.196 141.226C284.813 141.345 284.363 141.521 284.001 141.785C283.593 142.079 283.381 142.576 283.422 143.077L283.443 143.321C283.469 143.62 283.639 143.895 283.903 144.045C284.451 144.355 285.574 144.8 287.451 144.815C290.326 144.841 292.958 144.888 294.779 144.846C296.599 144.8 297.716 144.557 298.228 143.874C298.694 143.258 297.949 139.509 297.235 138.521C297.121 138.366 296.925 138.299 296.739 138.351C296.392 138.444 295.782 138.666 295.306 139.183C294.856 139.675 293.812 139.675 292.891 139.763C292.172 139.83 291.567 139.664 291.51 138.945C291.495 138.708 291.469 138.449 291.448 138.196C291.386 137.565 290.642 137.28 290.176 137.704Z" fill="white"/>
<path d="M293.005 145.089C291.95 145.089 290.755 145.079 289.447 145.063C288.795 145.058 288.123 145.048 287.44 145.043C285.574 145.027 284.42 144.598 283.784 144.241C283.453 144.055 283.236 143.719 283.21 143.336L283.19 143.093C283.143 142.503 283.402 141.929 283.867 141.593C284.193 141.361 284.617 141.159 285.129 141.004C285.661 140.838 288.139 139.628 289.028 138.552C289.349 138.165 289.747 137.782 290.021 137.529C290.3 137.275 290.693 137.198 291.045 137.332C291.397 137.466 291.64 137.787 291.681 138.165C291.707 138.423 291.728 138.682 291.743 138.92C291.759 139.116 291.821 139.256 291.934 139.354C292.11 139.504 292.436 139.561 292.865 139.525C293.005 139.514 293.145 139.499 293.289 139.489C294.039 139.432 294.81 139.37 295.13 139.023C295.653 138.454 296.325 138.211 296.677 138.118C296.956 138.046 297.256 138.149 297.421 138.377C298.094 139.308 298.988 143.238 298.409 144.008C297.877 144.717 296.827 145.022 294.779 145.074C294.251 145.084 293.657 145.089 293.005 145.089ZM290.688 137.735C290.559 137.735 290.435 137.782 290.337 137.875C289.954 138.221 289.628 138.563 289.385 138.852C288.392 140.047 285.77 141.293 285.263 141.449C284.798 141.588 284.42 141.764 284.136 141.971C283.805 142.209 283.619 142.628 283.655 143.057L283.676 143.3C283.696 143.527 283.82 143.729 284.017 143.838C284.498 144.107 285.584 144.562 287.451 144.582C288.139 144.588 288.806 144.598 289.457 144.603C291.567 144.624 293.388 144.644 294.774 144.613C296.635 144.567 297.613 144.308 298.042 143.734C298.389 143.269 297.768 139.649 297.049 138.656C296.992 138.584 296.894 138.547 296.801 138.573C296.496 138.651 295.922 138.858 295.477 139.339C295.032 139.825 294.169 139.892 293.331 139.954C293.191 139.964 293.052 139.975 292.912 139.99C292.343 140.042 291.914 139.949 291.635 139.716C291.423 139.535 291.304 139.282 291.278 138.961C291.262 138.723 291.242 138.47 291.216 138.216C291.195 138.015 291.071 137.849 290.88 137.772C290.817 137.746 290.75 137.735 290.688 137.735Z" fill="#28183A"/>
<path d="M291.815 143.905C289.566 143.905 287.001 143.75 285.196 143.181C285.072 143.14 285.005 143.01 285.041 142.891C285.082 142.767 285.211 142.7 285.336 142.741C289.106 143.926 296.558 143.238 296.635 143.233C296.759 143.217 296.878 143.315 296.889 143.44C296.899 143.569 296.806 143.683 296.677 143.693C296.511 143.709 294.37 143.905 291.815 143.905Z" fill="#28183A"/>
<path d="M302.267 95.2259C301.714 96.8446 299.609 107.762 299.019 112.033C298.481 115.922 297.639 132.538 297.483 135.326C297.468 135.569 297.271 135.755 297.028 135.755H290.786C290.554 135.755 290.357 135.579 290.331 135.346C290.042 132.455 288.273 113.973 288.542 106.138C288.837 97.5841 292.674 87.4118 293.413 84.6088C294.153 81.8059 295.068 75.176 295.068 75.176L313.386 77.9273C313.386 77.9273 315.697 97.1393 315.997 100.971C316.292 104.803 316.871 117.205 316.132 123.84C315.656 128.137 315.294 134.322 315.118 135.817C315.035 136.51 314.451 137.032 313.753 137.032H308.876C308.628 137.032 308.426 136.836 308.421 136.582C308.4 134.793 308.131 125.681 306.989 119.842C305.66 113.062 304.186 102.445 303.446 98.1685C303.203 96.7566 302.991 95.1328 302.815 93.5917C302.815 93.5969 302.82 93.6072 302.267 95.2259Z" fill="#28183A"/>
<path d="M302.722 95.1431C302.603 95.1431 302.505 95.0552 302.489 94.9363C302.396 94.1192 302.267 92.9401 302.179 91.9782C302.055 90.6698 301.378 89.47 300.317 88.6839C300.214 88.6064 300.193 88.4616 300.271 88.3581C300.348 88.2547 300.493 88.234 300.597 88.3116C301.76 89.1752 302.505 90.4939 302.645 91.9368C302.732 92.8935 302.862 94.0675 302.955 94.8845C302.97 95.0138 302.877 95.1276 302.748 95.1431C302.738 95.1431 302.727 95.1431 302.722 95.1431Z" fill="#68B6B5"/>
<path d="M313.422 86.4188H313.417C310.862 86.3619 309.704 83.8951 309.321 82.8402C309.28 82.7212 309.342 82.5868 309.461 82.5454C309.58 82.4988 309.714 82.5661 309.761 82.685C310.107 83.6521 311.162 85.9017 313.427 85.9534C313.556 85.9586 313.66 86.062 313.655 86.1913C313.655 86.3154 313.551 86.4188 313.422 86.4188Z" fill="#68B6B5"/>
<path d="M293.998 86.0515C293.879 86.0515 293.781 85.9636 293.765 85.8447C293.75 85.7154 293.843 85.6016 293.972 85.5861C296.428 85.3068 296.366 82.5142 296.361 82.3953C296.356 82.266 296.459 82.1574 296.584 82.1574C296.713 82.1522 296.821 82.2557 296.821 82.3798C296.821 82.4108 296.904 85.7206 294.019 86.0464C294.019 86.0464 294.008 86.0515 293.998 86.0515Z" fill="#68B6B5"/>
<path d="M273.4 43.423C276.167 45.0934 279.306 46.0398 282.533 46.2001C283.883 46.2673 285.331 46.3294 286.701 46.3708C288.097 46.4121 292.136 45.5485 293.47 45.9777C296.18 46.8465 297.38 50.4562 292.881 53.6884C287.559 57.5102 274.884 56.5483 269.206 52.5042C263.522 48.46 257.653 41.3389 257.653 41.3389L258.542 35.3814C258.542 35.3762 268.735 40.6097 273.4 43.423Z" fill="#68B6B5"/>
<path d="M292.679 45.7709C289.612 46.0708 290.843 49.0548 287.787 48.8841C284.731 48.7186 294.07 80.7508 294.07 80.7508C294.07 80.7508 297.52 82.7367 305.592 81.6455C310.355 80.9991 314.037 78.1496 314.037 78.1496C314.037 78.1496 313.484 71.3853 313.655 68.7013C313.774 66.9016 314.823 62.5782 316.008 59.8011C316.711 58.1566 317.29 56.4603 317.735 54.7279L317.761 54.6296C317.782 54.5417 317.802 54.4538 317.818 54.3659C318.428 51.2009 316.53 48.0825 313.484 47.0327L313.36 46.9913C310.412 46.0656 303.86 44.6797 292.679 45.7709Z" fill="#68B6B5"/>
<path d="M287.135 52.9954C287.135 52.9954 285.977 50.3217 284.55 47.8549C283.991 46.8879 283.551 46.1173 283.122 46.2104C282.527 46.3345 282.595 47.0482 282.869 47.8187C283.143 48.5841 283.448 49.515 283.272 50.0063C283.153 50.3424 282.615 50.6113 281.726 50.663C281.209 50.6941 278.245 50.7148 276.627 50.7096C276.192 50.7044 275.949 51.2112 276.229 51.5474C276.704 52.1266 277.408 52.923 278.339 53.2229C279.999 53.7556 282.91 52.9644 283.831 53.3729C284.255 53.5591 284.989 54.8209 284.989 54.8209L287.135 52.9954Z" fill="white"/>
<path d="M284.922 55.1624L284.782 54.9246C284.493 54.4281 283.976 53.6834 283.727 53.5748C283.355 53.4093 282.517 53.4765 281.623 53.5489C280.485 53.6369 279.197 53.7403 278.256 53.4352C277.32 53.1352 276.611 52.3802 276.043 51.6872C275.856 51.4597 275.82 51.1597 275.944 50.896C276.068 50.6322 276.327 50.4719 276.617 50.4719H276.622C278.256 50.4822 281.204 50.4564 281.71 50.4305C282.528 50.384 282.977 50.1461 283.055 49.9289C283.215 49.4841 282.848 48.455 282.652 47.9017C282.398 47.1932 282.367 46.6915 282.553 46.3606C282.662 46.1692 282.843 46.0399 283.076 45.9934C283.66 45.8693 284.11 46.645 284.731 47.7155L284.751 47.7517C286.168 50.1978 287.337 52.887 287.347 52.9128L287.415 53.0732L284.922 55.1624ZM282.946 53.0059C283.345 53.0059 283.676 53.0421 283.914 53.1456C284.286 53.311 284.782 54.0454 285.041 54.4488L286.851 52.9232C286.582 52.313 285.553 50.053 284.348 47.9689L284.327 47.9327C283.924 47.2397 283.422 46.3761 283.169 46.433C283.034 46.464 282.983 46.5261 282.957 46.5726C282.895 46.6864 282.822 46.9915 283.086 47.731C283.396 48.6153 283.686 49.5203 283.489 50.0737C283.324 50.534 282.683 50.8287 281.736 50.8805C281.224 50.9063 278.261 50.9373 276.622 50.927C276.513 50.927 276.415 50.989 276.368 51.0873C276.322 51.1907 276.332 51.2993 276.405 51.3873C276.932 52.0285 277.584 52.7215 278.406 52.9852C279.259 53.2593 280.5 53.1611 281.592 53.0783C282.083 53.0421 282.548 53.0059 282.946 53.0059Z" fill="#28183A"/>
<path d="M287.632 51.7596C287.632 51.7596 294.546 60.3494 299.216 60.6804C299.216 60.6804 303.622 57.7016 307.232 55.0745C308.364 54.2522 311.022 51.0924 312.341 50.6167C315.015 49.6444 318.18 51.7595 316.603 57.0707C314.741 63.3489 304.139 70.6717 297.163 70.6407C294.282 70.6303 290.243 64.74 288.201 61.4302C287.197 59.8012 286.08 58.2498 284.85 56.7811L283.495 55.1676L287.632 51.7596Z" fill="#68B6B5"/>
<path d="M298.559 60.5923C297.913 60.5923 297.297 60.4578 296.723 60.1631C293.279 58.3737 289.147 53.9625 287.683 52.1059C287.606 52.0025 287.621 51.8577 287.725 51.7801C287.823 51.7025 287.973 51.718 288.051 51.8163C289.493 53.647 293.563 57.9911 296.94 59.7442C301.098 61.9059 308.178 54.2366 309.709 51.987C309.781 51.8784 309.926 51.8525 310.035 51.9249C310.138 51.9973 310.169 52.1421 310.097 52.2455C308.659 54.3658 302.975 60.5923 298.559 60.5923Z" fill="#28183A"/>
<path d="M298.823 70.6614C298.347 70.6614 297.866 70.6356 297.375 70.589C293.439 70.2012 290.047 65.1228 287.802 61.7613C287.104 60.7167 286.504 59.8168 286.086 59.3721C285.998 59.279 286.003 59.1342 286.096 59.0411C286.189 58.9532 286.339 58.9584 286.427 59.0514C286.872 59.522 287.456 60.396 288.196 61.5027C290.393 64.7918 293.708 69.7616 297.427 70.1288C301.641 70.5477 305.515 69.0996 309.621 65.5727C309.719 65.4899 309.864 65.5003 309.952 65.5985C310.035 65.6968 310.024 65.8416 309.926 65.9244C306.182 69.1307 302.619 70.6614 298.823 70.6614Z" fill="#28183A"/>
<path d="M306.203 46.7069L305.918 39.3324L300.561 42.0474L300.617 46.7069C300.659 47.7464 301.538 48.3256 301.538 48.3256C302.634 49.1272 304.165 48.9824 305.282 48.2067L305.541 48.0257C305.98 47.7361 306.229 47.2344 306.203 46.7069Z" fill="white"/>
<path d="M303.26 49.1066C302.593 49.1066 301.946 48.9101 301.414 48.5222C301.383 48.5015 300.442 47.8706 300.395 46.7225L300.338 42.0578C300.338 41.9699 300.385 41.8872 300.467 41.8458L305.825 39.1308C305.897 39.0946 305.98 39.0998 306.047 39.136C306.115 39.1773 306.161 39.2497 306.161 39.3273L306.446 46.7018C306.477 47.3121 306.192 47.8809 305.691 48.2274L305.432 48.4084C304.755 48.8687 303.989 49.1066 303.26 49.1066ZM300.798 42.1923L300.855 46.707C300.891 47.612 301.667 48.1292 301.672 48.1343C302.624 48.8325 304.056 48.786 305.158 48.0206L305.417 47.8396C305.784 47.5862 305.996 47.1621 305.97 46.7174L305.701 39.7048L300.798 42.1923Z" fill="#28183A"/>
<path d="M298.135 30.8873C299.562 30.8046 297.768 32.2681 303.053 30.7322C305.158 30.122 304.093 32.5629 304.641 32.4077C306.658 31.8285 306.59 31.8441 307.578 32.1026C308.23 32.2733 308.654 33.4679 308.535 34.3626C308.375 35.5417 307.392 35.8468 306.528 38.3343C305.918 40.0822 306.068 41.1476 305.365 41.401C304.651 41.6595 304.124 40.708 303.322 40.9304C302.288 41.22 302.489 42.999 301.481 43.7385C300.845 44.2039 299.366 44.4211 296.992 43.273C296.61 43.0869 296.413 42.6525 296.522 42.2439C296.666 41.7164 296.853 41.0545 297.085 40.4339C298.192 37.481 299.252 36.8087 298.869 36.0433C298.28 34.8694 296.051 35.5417 295.679 34.5798C295.296 33.5868 296.175 31.0011 298.135 30.8873Z" fill="#28183A"/>
<path d="M303.126 35.9762L302.717 36.7364C302.526 37.0932 302.355 37.4656 302.215 37.8431C301.952 38.5568 301.445 39.7617 301.171 40.4444C300.286 42.6371 297.571 40.2272 297.571 40.2272L297.385 39.6221L297.018 39.4721C296.946 39.4463 296.884 39.3997 296.837 39.3377C296.718 39.1877 296.718 38.9912 296.816 38.8412C297.359 38.0396 298.497 36.2451 298.906 34.6316C298.906 34.6368 301.238 34.0421 303.126 35.9762Z" fill="white"/>
<path d="M299.945 41.5975C298.776 41.5975 297.478 40.4546 297.416 40.4029C297.385 40.377 297.359 40.3408 297.349 40.2995L297.194 39.803L296.93 39.6944C296.816 39.6479 296.718 39.5755 296.651 39.4927C296.475 39.2652 296.465 38.96 296.625 38.7222C297.111 38.0137 298.28 36.1881 298.683 34.585C298.704 34.5022 298.771 34.4402 298.849 34.4143C298.947 34.3885 301.331 33.8041 303.291 35.8106C303.363 35.883 303.379 35.9968 303.327 36.0847L302.919 36.8449C302.732 37.1914 302.567 37.5534 302.433 37.9206C302.241 38.4429 301.915 39.2341 301.657 39.8702C301.553 40.1185 301.46 40.346 301.388 40.5322C301.16 41.101 300.798 41.4424 300.307 41.5613C300.188 41.5872 300.069 41.5975 299.945 41.5975ZM297.773 40.0978C298.032 40.315 299.299 41.3182 300.198 41.1062C300.535 41.0286 300.783 40.7804 300.954 40.3615C301.031 40.1702 301.124 39.9426 301.222 39.6996C301.481 39.0686 301.802 38.2774 301.993 37.7654C302.138 37.3776 302.308 36.9949 302.51 36.6277L302.836 36.0226C301.336 34.5901 299.578 34.7608 299.092 34.8435C298.657 36.4157 297.602 38.1068 297.008 38.9859C296.961 39.0531 296.966 39.141 297.018 39.2083C297.039 39.2341 297.065 39.2497 297.106 39.2652L297.473 39.4151C297.535 39.441 297.587 39.4927 297.608 39.5599L297.773 40.0978Z" fill="#28183A"/>
<path d="M302.546 38.6239C302.546 38.6239 303.529 36.7984 304.263 37.419C305.003 38.0395 303.87 40.0254 302.546 38.6239Z" fill="white"/>
<path d="M298.916 39.048C298.678 39.048 298.466 38.9705 298.306 38.8153C298.032 38.5464 297.913 38.081 297.954 37.388C297.985 36.8346 298.156 36.5037 298.471 36.364C298.704 36.2658 298.947 36.2606 299.159 36.3485C299.335 36.4209 299.475 36.5554 299.531 36.7105C299.868 37.5742 299.728 38.293 299.485 38.686C299.35 38.9032 299.185 39.0274 299.009 39.0429C298.983 39.048 298.947 39.048 298.916 39.048ZM298.658 36.7933C298.523 36.8502 298.445 37.0622 298.425 37.4139C298.383 38.0913 298.518 38.3654 298.637 38.4844C298.72 38.5619 298.833 38.5981 298.983 38.5826C298.994 38.5774 299.076 38.5206 299.154 38.3499C299.221 38.2051 299.418 37.6724 299.107 36.8864C299.097 36.8553 299.051 36.8088 298.988 36.7829C298.926 36.7571 298.807 36.7312 298.658 36.7933Z" fill="#28183A"/>
<path d="M303.431 37.3206C303.42 37.3206 303.41 37.3206 303.4 37.3206L298.931 36.757C298.802 36.7414 298.714 36.6225 298.73 36.4984C298.745 36.3691 298.864 36.2812 298.988 36.2967L303.457 36.8604C303.586 36.8759 303.674 36.9948 303.658 37.119C303.648 37.2327 303.55 37.3206 303.431 37.3206Z" fill="#28183A"/>
<path d="M296.961 38.5876C296.93 38.5876 296.894 38.5824 296.863 38.5669C296.734 38.5048 296.62 38.3342 296.532 38.0549C296.465 37.8429 296.278 37.1034 296.646 36.4673C296.754 36.2811 296.915 36.1622 297.116 36.126C297.582 36.038 298.089 36.4259 298.145 36.4724C298.249 36.55 298.264 36.7 298.187 36.7983C298.109 36.9017 297.959 36.9172 297.861 36.8396C297.763 36.7621 297.421 36.5448 297.204 36.5862C297.158 36.5966 297.101 36.6172 297.049 36.7052C296.734 37.2482 296.966 38.0239 297.085 38.1635C297.184 38.2256 297.22 38.3497 297.173 38.4583C297.132 38.5359 297.049 38.5876 296.961 38.5876Z" fill="#28183A"/>
<path d="M240.649 110.59C233.672 115.612 229.54 123.679 229.54 132.274V144.81L247.511 135.176L240.649 110.59Z" fill="#68B6B5"/>
<path d="M229.54 145.043C229.499 145.043 229.458 145.033 229.422 145.012C229.349 144.97 229.308 144.893 229.308 144.81V132.274C229.308 123.628 233.497 115.452 240.514 110.404C240.576 110.358 240.654 110.347 240.726 110.373C240.799 110.399 240.851 110.456 240.871 110.528L247.734 135.114C247.765 135.217 247.713 135.331 247.62 135.383L229.649 145.017C229.618 145.038 229.577 145.043 229.54 145.043ZM240.514 110.978C233.781 115.953 229.773 123.891 229.773 132.274V144.422L247.237 135.062L240.514 110.978Z" fill="#28183A"/>
<path d="M290.352 110.59C297.328 115.612 301.46 123.679 301.46 132.274V144.81L283.489 135.176L290.352 110.59Z" fill="#68B6B5"/>
<path d="M301.46 145.043C301.424 145.043 301.383 145.033 301.352 145.017L283.381 135.383C283.283 135.331 283.236 135.217 283.267 135.114L290.13 110.528C290.15 110.456 290.207 110.399 290.28 110.373C290.352 110.347 290.43 110.358 290.492 110.404C297.509 115.452 301.698 123.633 301.698 132.274V144.81C301.698 144.893 301.657 144.965 301.584 145.012C301.543 145.033 301.502 145.043 301.46 145.043ZM283.764 135.062L301.228 144.422V132.274C301.228 123.891 297.22 115.953 290.486 110.978L283.764 135.062Z" fill="#28183A"/>
<path d="M261.324 134.85H269.785L266.367 143.114C266.103 143.75 265.203 143.76 264.929 143.129L261.324 134.85Z" fill="#68B6B5"/>
<path d="M265.643 143.828C265.234 143.828 264.877 143.595 264.717 143.217L261.112 134.938C261.081 134.865 261.087 134.783 261.133 134.715C261.174 134.648 261.252 134.612 261.33 134.612H269.79C269.868 134.612 269.94 134.653 269.982 134.715C270.023 134.778 270.033 134.86 270.002 134.933L266.579 143.202C266.418 143.585 266.067 143.822 265.653 143.828H265.643ZM261.681 135.083L265.146 143.036C265.255 143.279 265.477 143.373 265.653 143.367C265.829 143.367 266.051 143.274 266.155 143.031L269.438 135.088H261.681V135.083Z" fill="#28183A"/>
<path d="M248.789 56.8637C229.437 101.985 247.511 135.176 247.511 135.176H265.555H283.598C283.598 135.176 301.678 101.985 282.321 56.8637C282.114 56.3879 281.643 56.0776 281.121 56.0776H249.989C249.466 56.0776 248.996 56.3879 248.789 56.8637Z" fill="white"/>
<path d="M259.458 101.995C259.458 98.6287 262.188 95.9033 265.55 95.9033C268.911 95.9033 271.647 98.6339 271.647 101.995C271.647 105.362 268.916 108.087 265.55 108.087C262.183 108.087 259.458 105.362 259.458 101.995Z" fill="#F39468"/>
<path d="M289.157 78.6927C289.049 78.6927 288.951 78.6152 288.93 78.5066C287.446 71.3027 285.149 64.0522 282.103 56.957C281.933 56.5639 281.545 56.3105 281.116 56.3105H260.957C260.828 56.3105 260.725 56.2071 260.725 56.0778C260.725 55.9485 260.828 55.8451 260.957 55.8451H281.116C281.731 55.8451 282.29 56.2071 282.528 56.776C285.584 63.9023 287.89 71.1786 289.38 78.4135C289.406 78.5376 289.323 78.6617 289.199 78.6876C289.188 78.6876 289.173 78.6927 289.157 78.6927Z" fill="#28183A"/>
<path d="M288.102 123.25C288.082 123.25 288.061 123.25 288.04 123.24C287.916 123.204 287.844 123.08 287.875 122.955C288.526 120.561 289.085 118.079 289.54 115.571C289.561 115.446 289.685 115.359 289.809 115.384C289.933 115.405 290.021 115.529 289.995 115.653C289.54 118.172 288.976 120.67 288.32 123.074C288.299 123.183 288.206 123.25 288.102 123.25Z" fill="#28183A"/>
<path d="M283.593 135.408H256.613C256.484 135.408 256.381 135.305 256.381 135.176C256.381 135.046 256.484 134.943 256.613 134.943H283.453C283.738 134.395 284.932 132.016 286.272 128.148C286.313 128.029 286.448 127.961 286.567 128.003C286.691 128.044 286.753 128.179 286.711 128.297C285.165 132.755 283.81 135.258 283.795 135.284C283.758 135.362 283.681 135.408 283.593 135.408Z" fill="#28183A"/>
<path d="M250.35 135.409H247.511C247.423 135.409 247.346 135.362 247.304 135.29C247.268 135.222 243.736 128.66 241.487 117.639C240.163 111.17 239.537 104.452 239.614 97.667C239.713 89.1909 240.928 80.5908 243.219 72.0992C243.25 71.9751 243.379 71.9027 243.503 71.9337C243.628 71.9699 243.7 72.094 243.669 72.2181C238.497 91.3526 239.878 107.426 241.942 117.541C244.01 127.677 247.16 134.002 247.651 134.938H250.35C250.48 134.938 250.583 135.041 250.583 135.171C250.583 135.305 250.48 135.409 250.35 135.409Z" fill="#28183A"/>
<path d="M280.697 49.4325C277.17 42.6889 272.733 35.728 267.199 28.6379C266.361 27.5623 264.743 27.5623 263.905 28.6379C258.366 35.728 253.929 42.6889 250.407 49.4325C250.118 49.9807 250.516 50.6426 251.137 50.6426H279.973C280.593 50.6426 280.986 49.9858 280.697 49.4325Z" fill="white"/>
<path d="M279.973 50.8752H251.137C250.764 50.8752 250.428 50.6838 250.237 50.3684C250.04 50.0477 250.03 49.6599 250.206 49.3289C251.478 46.8931 252.869 44.4418 254.333 42.0371C254.4 41.9285 254.545 41.8923 254.653 41.9595C254.762 42.0268 254.798 42.1716 254.731 42.2802C253.272 44.6746 251.886 47.1207 250.619 49.5461C250.521 49.7323 250.526 49.9495 250.635 50.1305C250.744 50.3063 250.93 50.4149 251.142 50.4149H279.978C280.185 50.4149 280.376 50.3115 280.485 50.1305C280.593 49.9495 280.599 49.7323 280.5 49.5461C276.834 42.5284 272.298 35.5417 267.023 28.7877C266.667 28.3327 266.134 28.0741 265.56 28.0741C264.986 28.0741 264.453 28.3327 264.096 28.7877C263.052 30.122 262.023 31.4873 261.04 32.8422C260.962 32.9456 260.818 32.9663 260.714 32.8939C260.611 32.8163 260.59 32.6715 260.662 32.5681C261.65 31.2132 262.685 29.8427 263.729 28.5033C264.174 27.9344 264.841 27.6086 265.56 27.6086C266.279 27.6086 266.946 27.9344 267.391 28.5033C272.681 35.2831 277.232 42.2905 280.914 49.3341C281.085 49.665 281.074 50.0529 280.883 50.3735C280.681 50.6838 280.345 50.8752 279.973 50.8752Z" fill="#28183A"/>
<path d="M276.994 77.6016C277.015 83.9315 271.895 89.0771 265.57 89.0926C259.24 89.1133 254.095 83.9935 254.079 77.6688C254.058 71.3389 259.178 66.1933 265.503 66.1778C271.828 66.1623 276.973 71.2769 276.994 77.6016Z" fill="#F39468"/>
<path d="M265.534 89.3303C259.106 89.3303 253.862 84.1071 253.841 77.6738C253.821 71.2249 259.054 65.9655 265.498 65.9448H265.534C271.967 65.9448 277.206 71.168 277.227 77.6014C277.237 80.7249 276.027 83.6623 273.829 85.8809C271.626 88.0943 268.694 89.32 265.57 89.3303H265.534ZM265.534 66.4103H265.498C259.308 66.4309 254.286 71.4783 254.307 77.6686C254.327 83.8485 259.359 88.8597 265.534 88.8597H265.57C268.57 88.8493 271.383 87.6754 273.498 85.5499C275.613 83.4245 276.772 80.6008 276.761 77.6014C276.741 71.4266 271.709 66.4103 265.534 66.4103Z" fill="#28183A"/>
<path d="M265.534 87.3186C260.207 87.3186 255.868 82.9952 255.853 77.6634C255.843 75.0777 256.846 72.6419 258.671 70.8112C260.492 68.9753 262.922 67.9617 265.508 67.9565H265.539C268.751 67.9565 271.74 69.5442 273.55 72.2023C273.622 72.3109 273.596 72.4557 273.488 72.523C273.379 72.5954 273.234 72.5695 273.167 72.4609C271.445 69.9269 268.596 68.4168 265.539 68.4168H265.513C263.052 68.422 260.74 69.389 259.002 71.137C257.265 72.885 256.313 75.2018 256.324 77.6634C256.339 82.7367 260.471 86.8532 265.539 86.8532H265.565C268.027 86.848 270.338 85.8809 272.076 84.133C273.814 82.385 274.765 80.0682 274.755 77.6065C274.755 77.4773 274.858 77.3738 274.987 77.3738C275.117 77.3738 275.22 77.4773 275.22 77.6065C275.231 80.1923 274.227 82.6281 272.407 84.4588C270.581 86.2946 268.156 87.3082 265.57 87.3134H265.534V87.3186Z" fill="white"/>
<path d="M264.841 83.0987L264.836 81.8266C263.941 81.7904 263.067 81.5525 262.56 81.2577L262.959 79.6907C263.522 79.9958 264.314 80.2751 265.182 80.2699C265.948 80.2699 266.465 79.97 266.465 79.4373C266.465 78.9305 266.036 78.6099 265.043 78.2789C263.61 77.8031 262.633 77.136 262.628 75.838C262.622 74.6589 263.45 73.7332 264.882 73.4487L264.877 72.1766L266.191 72.1714L266.196 73.3505C267.091 73.3867 267.696 73.5729 268.135 73.7849L267.753 75.3001C267.406 75.1553 266.786 74.8502 265.824 74.8502C264.955 74.8554 264.676 75.2277 264.676 75.6053C264.676 76.0448 265.146 76.3241 266.284 76.7482C267.877 77.3067 268.523 78.0359 268.523 79.2408C268.528 80.4303 267.685 81.449 266.149 81.7231L266.155 83.0884L264.841 83.0987Z" fill="white"/>
<path d="M255.388 36.7365C255.015 37.3674 254.327 38.9137 254.808 40.0256C255.289 41.1374 260.637 41.0909 261.087 39.8342C261.449 38.831 260.006 37.626 259.039 36.9537C258.599 36.6486 258.49 36.0487 258.796 35.6091L259.463 34.6783C259.556 34.549 259.452 34.3731 259.292 34.3887C258.465 34.4662 256.494 34.8593 255.388 36.7365Z" fill="white"/>
<path d="M257.735 41.0544C256.401 41.0544 254.896 40.8166 254.596 40.1184C253.996 38.7221 255.067 36.8293 255.191 36.6173C256.355 34.6366 258.439 34.2333 259.276 34.1505C259.442 34.135 259.597 34.2126 259.68 34.3574C259.763 34.5022 259.752 34.6728 259.654 34.8073L258.987 35.7382C258.759 36.0691 258.842 36.5242 259.173 36.7569C260.362 37.5844 261.702 38.8049 261.304 39.9064C260.957 40.8786 258.744 41.0182 258.077 41.0389C257.968 41.0493 257.854 41.0544 257.735 41.0544ZM255.589 36.8552C255.181 37.5482 254.607 38.9755 255.02 39.9374C255.17 40.2891 256.38 40.6356 258.061 40.5838C259.53 40.5373 260.709 40.1908 260.864 39.7564C261.092 39.1203 260.378 38.1688 258.904 37.1448C258.361 36.7673 258.227 36.0174 258.604 35.4744L259.214 34.6263C258.387 34.7245 256.603 35.1331 255.589 36.8552Z" fill="#28183A"/>
<path d="M228.661 132.802C228.661 132.802 227.332 136.743 228.325 138.697L228.584 139.494L222.119 137.477L222.616 136.841C223.505 135.708 224.09 134.405 224.323 133.035L228.661 132.802Z" fill="#E1C2FF"/>
<path d="M229.375 136.014L229.933 136.882C231.035 138.604 232.545 140.032 234.319 141.045L235.684 141.821C235.813 141.893 235.901 142.028 235.912 142.178L235.917 142.255C235.984 143.098 234.753 144.8 231.692 144.96C229.799 145.058 225.47 144.624 220.614 141.821C220.309 141.645 220.149 141.288 220.232 140.942C220.521 139.685 221.323 136.696 222.714 135.383C222.869 135.238 223.117 135.248 223.247 135.419L224.498 137.043C225.062 137.772 226.107 137.906 226.836 137.337L228.692 135.895C228.904 135.724 229.225 135.781 229.375 136.014Z" fill="white"/>
<path d="M231.221 145.208C229.68 145.208 225.486 144.908 220.496 142.028C220.097 141.795 219.901 141.345 219.999 140.895C220.284 139.644 221.106 136.582 222.549 135.217C222.673 135.098 222.838 135.041 223.004 135.051C223.169 135.062 223.319 135.145 223.423 135.279L224.674 136.903C224.907 137.208 225.243 137.399 225.626 137.446C226.003 137.498 226.381 137.394 226.681 137.156L228.537 135.713C228.692 135.589 228.894 135.543 229.091 135.574C229.287 135.605 229.458 135.724 229.566 135.889L230.125 136.758C231.201 138.444 232.69 139.856 234.433 140.844L235.798 141.619C235.994 141.733 236.124 141.935 236.139 142.162L236.144 142.24C236.175 142.659 235.963 143.166 235.565 143.626C235.095 144.164 233.967 145.079 231.702 145.198C231.599 145.203 231.433 145.208 231.221 145.208ZM222.962 135.517C222.942 135.517 222.905 135.522 222.869 135.553C221.519 136.83 220.733 139.789 220.454 140.999C220.397 141.247 220.506 141.495 220.728 141.624C226.293 144.836 230.823 144.779 231.676 144.733C233.776 144.624 234.795 143.802 235.214 143.321C235.586 142.897 235.7 142.504 235.684 142.281L235.679 142.204C235.674 142.131 235.632 142.069 235.57 142.033L234.205 141.257C232.4 140.228 230.854 138.765 229.737 137.017L229.178 136.148C229.142 136.091 229.085 136.055 229.018 136.039C228.951 136.029 228.884 136.044 228.832 136.086L226.975 137.529C226.572 137.839 226.076 137.979 225.574 137.911C225.072 137.849 224.622 137.591 224.312 137.187L223.061 135.563C223.035 135.527 222.999 135.517 222.978 135.517C222.973 135.517 222.968 135.517 222.962 135.517Z" fill="#28183A"/>
<path d="M228.056 142.188C228.02 142.188 227.989 142.183 227.953 142.183L226.846 142.09C224.752 141.78 223.748 141.154 222.094 140.109L220.702 139.235C220.594 139.168 220.563 139.023 220.63 138.915C220.697 138.806 220.842 138.775 220.951 138.842L222.347 139.716C224.007 140.761 224.917 141.335 226.903 141.625L228.01 141.718C228.092 141.728 228.165 141.707 228.211 141.656C228.263 141.604 228.284 141.537 228.268 141.464L228.16 140.854C228.113 140.606 228.217 140.368 228.423 140.228C228.63 140.089 228.894 140.089 229.101 140.223L229.628 140.564C231.138 141.537 233.011 141.847 234.753 141.423L235.095 141.34C235.219 141.309 235.343 141.387 235.374 141.511C235.405 141.635 235.327 141.759 235.203 141.79L234.862 141.873C232.995 142.328 230.994 141.992 229.375 140.952L228.847 140.611C228.77 140.559 228.703 140.595 228.677 140.611C228.651 140.626 228.594 140.678 228.61 140.766L228.718 141.376C228.76 141.593 228.692 141.811 228.537 141.971C228.413 142.111 228.242 142.188 228.056 142.188Z" fill="#28183A"/>
<path d="M208.482 122.94C208.482 122.94 205.684 126.022 205.664 128.215L205.534 129.053L202.235 127.031L200.761 123.84L201.516 123.612C202.742 122.93 203.999 122.573 204.779 121.409L208.482 122.94Z" fill="#E1C2FF"/>
<path d="M206.657 127.212L206.481 128.231C206.134 130.247 206.284 132.316 206.915 134.26L207.401 135.755C207.448 135.9 207.422 136.055 207.329 136.174L207.282 136.236C206.765 136.903 204.707 137.332 202.338 135.388C200.87 134.183 197.968 130.946 196.272 125.603C196.164 125.267 196.288 124.9 196.577 124.693C197.638 123.959 200.244 122.294 202.157 122.257C202.369 122.252 202.54 122.428 202.525 122.64L202.354 124.683C202.276 125.598 202.964 126.405 203.88 126.477L206.222 126.664C206.507 126.679 206.703 126.938 206.657 127.212Z" fill="white"/>
<path d="M205.721 137.027C204.934 137.027 203.673 136.779 202.194 135.563C201.516 135.01 198.036 131.917 196.05 125.67C195.91 125.231 196.071 124.76 196.448 124.502C197.503 123.767 200.172 122.061 202.157 122.024C202.328 122.024 202.488 122.092 202.607 122.211C202.721 122.33 202.778 122.495 202.762 122.661L202.592 124.703C202.561 125.086 202.68 125.453 202.928 125.748C203.176 126.037 203.523 126.213 203.905 126.244L206.248 126.425C206.445 126.441 206.626 126.539 206.75 126.694C206.869 126.849 206.92 127.051 206.889 127.248L206.713 128.266C206.377 130.237 206.522 132.285 207.143 134.188L207.629 135.682C207.701 135.9 207.66 136.132 207.52 136.313L207.474 136.375C207.215 136.706 206.719 136.939 206.108 137.006C205.995 137.022 205.865 137.027 205.721 137.027ZM202.168 122.49C200.306 122.526 197.731 124.176 196.712 124.884C196.505 125.029 196.417 125.288 196.495 125.531C198.439 131.654 201.832 134.664 202.488 135.207C204.112 136.541 205.421 136.618 206.057 136.546C206.62 136.484 206.967 136.272 207.106 136.091L207.153 136.029C207.2 135.972 207.21 135.894 207.189 135.827L206.703 134.333C206.062 132.357 205.907 130.237 206.258 128.189L206.434 127.17C206.445 127.103 206.429 127.036 206.388 126.984C206.346 126.932 206.284 126.896 206.217 126.891L203.874 126.71C203.368 126.668 202.907 126.436 202.581 126.048C202.25 125.66 202.095 125.169 202.137 124.662L202.307 122.619C202.313 122.578 202.292 122.547 202.276 122.526C202.25 122.516 202.219 122.49 202.168 122.49Z" fill="#28183A"/>
<path d="M207.189 135.445C207.153 135.445 207.112 135.434 207.076 135.413L206.765 135.243C205.079 134.317 203.828 132.724 203.331 130.863L203.171 130.258C203.145 130.17 203.073 130.149 203.047 130.144C203.016 130.139 202.944 130.139 202.892 130.216L202.561 130.738C202.442 130.925 202.245 131.044 202.028 131.059C201.806 131.075 201.599 130.982 201.459 130.811C200.042 129.078 199.024 127.113 198.418 124.957L198.082 123.752C198.046 123.628 198.119 123.498 198.243 123.467C198.367 123.431 198.496 123.504 198.527 123.628L198.863 124.833C199.448 126.922 200.441 128.835 201.811 130.516C201.858 130.573 201.925 130.599 201.992 130.594C202.064 130.588 202.126 130.552 202.163 130.49L202.494 129.968C202.628 129.756 202.866 129.647 203.109 129.683C203.357 129.72 203.549 129.896 203.616 130.139L203.776 130.744C204.236 132.481 205.41 133.971 206.982 134.834L207.293 135.005C207.407 135.067 207.448 135.207 207.386 135.32C207.355 135.398 207.272 135.445 207.189 135.445Z" fill="#28183A"/>
<path d="M222.119 74.5039L239.34 76.3605C239.34 76.3605 244.895 93.4884 238.709 113.031C235.115 124.388 230.264 130.971 229.24 133.05C228.961 133.619 228.366 133.955 227.736 133.909L224.803 133.676C223.934 133.609 223.293 132.838 223.386 131.969C224.121 125.267 230.213 100.651 228.94 97.7187C228.94 97.7187 227.601 108.62 217.574 117.712C214.972 120.07 211.937 123.349 208.006 125.05C207.515 125.262 206.946 125.122 206.615 124.704L204.66 122.257C204.345 121.864 204.314 121.311 204.588 120.887C207.515 116.31 220.93 95.5674 222.119 74.5039Z" fill="#28183A"/>
<path d="M238.513 38.2928C238.513 38.2928 239.17 35.2261 236.17 34.0832C233.083 32.9041 229.297 35.0917 227.684 37.3154C226.065 39.5392 222.916 44.6434 219.13 47.8239C217.956 48.8116 216.503 49.6649 214.998 50.6785C208.72 54.8985 209.423 64.352 216.25 67.61C219.296 69.0684 222.88 68.846 225.729 67.0256L232.064 62.9763L232.467 53.4298L234.438 42.5179L238.513 38.2928Z" fill="#28183A"/>
<path d="M222.388 50.927C227.094 49.5411 233.466 50.2289 233.466 50.2289C233.6 50.2341 233.729 50.2444 233.864 50.2547C238.772 50.6271 242.991 53.761 244.931 58.1982C245.458 59.4083 246.131 60.5512 246.968 61.57L247.02 61.6372L244.698 68.024C244.698 68.024 242.004 68.1274 242.009 68.7738C242.009 68.7738 242.149 76.5311 239.62 76.3914L220.185 76.0812L220.459 74.9538C221.251 71.8664 221.468 68.6601 221.085 65.5003C220.961 64.4505 220.79 63.3593 220.578 62.294C220.418 61.4924 216.105 52.7733 222.388 50.927Z" fill="#68B6B5"/>
<path d="M234.857 63.1317C234.795 63.1317 234.733 63.1059 234.686 63.0593C234.076 62.4181 232.959 61.0942 232.276 59.4651C232.224 59.3462 232.281 59.2117 232.4 59.16C232.519 59.1083 232.654 59.1652 232.705 59.2841C233.357 60.8459 234.438 62.1181 235.022 62.7335C235.11 62.8266 235.105 62.9714 235.012 63.0645C234.97 63.111 234.914 63.1317 234.857 63.1317Z" fill="#28183A"/>
<path d="M249.926 57.4688C247.889 60.4992 240.556 63.8038 238.694 64.5899C238.234 64.7864 237.717 64.8226 237.23 64.683C235.669 64.2486 234.655 63.0695 234.655 63.0695L226.675 66.6119C226.675 66.6119 235.384 72.6471 238.378 72.4092C238.978 72.3626 239.552 72.1454 240.033 71.7834C241.833 70.444 246.524 66.7723 249.844 61.6525C250.102 61.2543 250.65 60.7371 251.08 60.5251C251.793 60.1734 252.481 59.6304 252.481 59.6304C252.967 59.1702 253.883 57.929 254.493 57.0757C254.886 56.5224 255.506 56.1707 256.184 56.119C256.536 56.0931 256.686 55.6536 256.417 55.4208C255.325 54.4538 252.838 53.1454 249.926 57.4688Z" fill="white"/>
<path d="M238.208 72.6523C235.017 72.6523 226.898 67.0515 226.546 66.8085L226.205 66.5706L234.717 62.7902L234.831 62.9195C234.841 62.9299 235.824 64.0521 237.293 64.4606C237.722 64.5796 238.187 64.5486 238.601 64.3779C239.516 63.99 247.61 60.4941 249.735 57.3395C250.997 55.4622 252.331 54.4228 253.691 54.2469C254.953 54.0866 255.956 54.702 256.577 55.245C256.774 55.4157 256.841 55.6743 256.758 55.9225C256.675 56.1656 256.463 56.3311 256.205 56.3517C255.594 56.3983 255.041 56.7086 254.684 57.2102C254.022 58.1359 253.133 59.3357 252.641 59.8011L252.626 59.8115C252.595 59.8322 251.912 60.3752 251.183 60.7372C250.811 60.9182 250.288 61.3991 250.04 61.7766C247.103 66.312 243.054 69.8235 240.173 71.9696C239.656 72.3575 239.04 72.5902 238.394 72.6419C238.337 72.6471 238.275 72.6523 238.208 72.6523ZM227.156 66.6585C228.796 67.7652 235.819 72.3834 238.363 72.1765C238.922 72.13 239.449 71.9334 239.899 71.5973C242.748 69.4718 246.751 66.0017 249.652 61.5232C249.947 61.0681 250.532 60.5406 250.981 60.3183C251.623 60.0028 252.254 59.5115 252.331 59.4546C252.693 59.1081 253.397 58.2186 254.307 56.9413C254.741 56.3311 255.424 55.9484 256.168 55.8915C256.267 55.8863 256.303 55.8087 256.313 55.7777C256.324 55.7467 256.339 55.6639 256.267 55.5967C255.719 55.1158 254.839 54.5676 253.748 54.7072C252.528 54.8624 251.307 55.8346 250.118 57.5981L249.926 57.4688L250.118 57.5981C247.92 60.8664 239.713 64.4089 238.782 64.8071C238.275 65.0243 237.701 65.0605 237.168 64.9106C235.85 64.5434 234.919 63.6797 234.598 63.3539L227.156 66.6585Z" fill="#28183A"/>
<path d="M224.472 67.7343C224.41 67.7343 224.379 67.7136 224.348 67.6878C224.048 67.4602 222.58 65.9398 221.24 63.7005C221.173 63.5919 221.209 63.4471 221.323 63.3799C221.432 63.3127 221.576 63.3489 221.644 63.4627C222.833 65.4588 224.152 66.8862 224.555 67.2534C224.886 67.1448 226.019 66.6586 227.043 66.2087C227.162 66.157 227.296 66.2087 227.348 66.3277C227.399 66.4466 227.348 66.5811 227.229 66.6328C225.202 67.5378 224.669 67.7343 224.472 67.7343Z" fill="#28183A"/>
<path d="M232.23 39.7254C232.4 39.8288 233.078 40.4391 233.274 40.3977C233.445 40.3667 235.513 40.196 236.962 37.3672C237.132 37.0362 237.954 37.2431 238.332 38.4067C238.658 39.4203 238.327 40.0305 239.433 41.3544C239.537 41.4785 239.444 41.6802 239.315 41.7785L238.606 42.3577C238.456 42.4663 238.327 42.8386 238.306 43.0248C238.244 43.5937 238.161 44.8038 237.965 44.9589C237.577 45.2589 235.643 45.1244 235.643 45.1244L233.838 50.8286C233.776 51.0303 233.895 51.2371 234.097 51.2888L234.608 51.4233C235.214 51.5784 235.27 52.4162 234.691 52.6541C233.76 53.0368 232.281 53.3678 230.021 53.1971C228.91 53.1144 227.927 52.8455 227.136 52.5403C226.551 52.318 226.05 51.8422 226.267 51.2164C226.448 50.7045 226.81 50.9372 227.493 50.3528C229.22 48.8737 231.102 46.1639 231.656 42.549C231.743 41.9853 230.771 41.9129 230.72 40.8528C230.668 39.7409 231.64 39.3686 232.23 39.7254Z" fill="white"/>
<path d="M231.211 53.4765C230.823 53.4765 230.42 53.4609 230.006 53.4299C229.013 53.3575 228.02 53.13 227.053 52.7576C226.21 52.437 225.817 51.8009 226.05 51.1389C226.184 50.7563 226.417 50.6683 226.66 50.5701C226.846 50.4977 227.063 50.4149 227.343 50.1719C229.442 48.3722 230.968 45.5124 231.423 42.5129C231.438 42.3991 231.366 42.3164 231.159 42.1302C230.885 41.8871 230.518 41.5458 230.482 40.8632C230.456 40.2788 230.683 39.7979 231.113 39.5393C231.495 39.3117 231.976 39.3066 232.343 39.5289C232.405 39.5651 232.493 39.6375 232.618 39.7358C232.773 39.8548 233.119 40.134 233.248 40.1702C233.259 40.1702 233.264 40.165 233.274 40.165C233.921 40.0668 235.56 39.5858 236.75 37.2638C236.843 37.0777 237.044 36.9742 237.282 36.9949C237.675 37.0259 238.244 37.3983 238.544 38.3343C238.653 38.6705 238.694 38.9549 238.73 39.2342C238.813 39.8289 238.885 40.3409 239.604 41.1993C239.682 41.2924 239.718 41.4114 239.702 41.5355C239.682 41.6958 239.584 41.8561 239.444 41.9595L238.746 42.5336C238.673 42.5853 238.549 42.8697 238.529 43.0456C238.518 43.1335 238.508 43.2369 238.498 43.3455C238.389 44.4729 238.311 44.9745 238.094 45.14C237.711 45.4348 236.403 45.4038 235.798 45.3676L234.045 50.8959C234.029 50.9424 234.045 50.9786 234.055 50.9993C234.066 51.02 234.091 51.051 234.138 51.0614L234.65 51.1958C235.022 51.2941 235.281 51.6044 235.307 51.9922C235.333 52.3801 235.121 52.7214 234.764 52.8662C233.802 53.2696 232.607 53.4765 231.211 53.4765ZM231.749 39.8237C231.614 39.8237 231.475 39.8599 231.356 39.9323C231.076 40.0978 230.932 40.4184 230.952 40.8322C230.978 41.3235 231.232 41.5562 231.475 41.7785C231.692 41.9751 231.945 42.2026 231.888 42.575C231.413 45.683 229.83 48.6515 227.648 50.5184C227.306 50.8131 227.027 50.9217 226.831 50.9993C226.619 51.0821 226.551 51.1079 226.489 51.2837C226.272 51.9147 227.063 52.256 227.224 52.3129C228.149 52.6697 229.096 52.8869 230.042 52.9541C232.338 53.1248 233.791 52.7628 234.603 52.4318C234.81 52.3491 234.872 52.1629 234.862 52.0181C234.852 51.8733 234.764 51.6975 234.552 51.6406L234.04 51.5061C233.879 51.4647 233.75 51.3613 233.667 51.2165C233.585 51.0717 233.569 50.9062 233.616 50.7511L235.42 45.0469C235.451 44.9435 235.55 44.8763 235.658 44.8866C236.532 44.9487 237.587 44.9176 237.81 44.7728C237.918 44.597 238.006 43.6868 238.042 43.2938C238.053 43.18 238.063 43.0766 238.073 42.9887C238.094 42.7922 238.234 42.3267 238.466 42.1612L239.165 41.5872C239.211 41.551 239.242 41.5045 239.247 41.4786C238.451 40.5219 238.363 39.8961 238.28 39.2859C238.244 39.017 238.208 38.7584 238.11 38.4636C237.861 37.6931 237.443 37.4604 237.251 37.4448C237.199 37.4397 237.174 37.45 237.168 37.4604C235.881 39.9737 234.071 40.5012 233.352 40.6098L233.321 40.615C233.109 40.6563 232.855 40.4908 232.338 40.0823C232.245 40.0099 232.147 39.9323 232.111 39.9116C232.002 39.8599 231.878 39.8237 231.749 39.8237Z" fill="#28183A"/>
<path d="M234.293 44.4418C234.557 44.7314 234.976 45.0003 235.643 45.1244L234.293 44.4418Z" fill="white"/>
<path d="M235.643 45.3623C235.627 45.3623 235.612 45.3623 235.601 45.3572C234.97 45.2382 234.474 44.9848 234.122 44.6021C234.034 44.509 234.04 44.3591 234.138 44.2712C234.231 44.1832 234.381 44.1936 234.469 44.2867C234.748 44.5918 235.162 44.7986 235.689 44.8969C235.813 44.9228 235.901 45.0417 235.875 45.171C235.85 45.2796 235.751 45.3623 235.643 45.3623Z" fill="#28183A"/>
<path d="M211.761 28.5758C211.471 28.5758 211.182 28.493 210.928 28.3327C210.571 28.1103 210.328 27.7638 210.235 27.3553C210.142 26.9468 210.215 26.5227 210.437 26.171C210.659 25.8142 211.006 25.5711 211.42 25.4781C212.263 25.2867 213.105 25.8142 213.297 26.6572C213.39 27.0657 213.318 27.4846 213.095 27.8414C212.873 28.1983 212.526 28.4413 212.113 28.5344C211.994 28.5603 211.875 28.5758 211.761 28.5758ZM211.761 25.8969C211.678 25.8969 211.595 25.9073 211.513 25.9228C211.223 25.99 210.98 26.1607 210.825 26.4141C210.67 26.6623 210.618 26.9623 210.685 27.2467C210.752 27.5363 210.923 27.7794 211.177 27.9345C211.425 28.0897 211.725 28.1414 212.009 28.0741C212.299 28.0069 212.542 27.8362 212.697 27.5828C212.852 27.3346 212.904 27.0398 212.837 26.7502C212.723 26.2486 212.268 25.8969 211.761 25.8969Z" fill="#28183A"/>
<path d="M203.274 29.9824C203.057 29.9824 202.85 29.9204 202.664 29.8066C202.406 29.6411 202.225 29.3877 202.152 29.0877C202.085 28.7878 202.137 28.4775 202.302 28.2189C202.468 27.9552 202.721 27.7742 203.021 27.707C203.321 27.6397 203.631 27.6914 203.89 27.8569C204.148 28.0224 204.329 28.2758 204.402 28.5758C204.469 28.8757 204.417 29.186 204.252 29.4446C204.086 29.7032 203.833 29.8893 203.533 29.9566C203.45 29.9721 203.362 29.9824 203.274 29.9824ZM203.28 28.1414C203.228 28.1414 203.176 28.1465 203.124 28.1569C202.943 28.1983 202.793 28.3069 202.695 28.462C202.597 28.6171 202.566 28.8033 202.607 28.9791C202.649 29.1601 202.757 29.3101 202.912 29.4084C203.068 29.5066 203.254 29.5377 203.43 29.4963C203.611 29.4549 203.761 29.3463 203.859 29.1912C203.957 29.036 203.988 28.8499 203.947 28.674C203.905 28.493 203.797 28.3431 203.642 28.2448C203.533 28.1776 203.409 28.1414 203.28 28.1414Z" fill="#28183A"/>
<path d="M319.498 125.743C319.498 124.75 320.305 123.943 321.298 123.943C322.291 123.943 323.098 124.75 323.098 125.743C323.098 126.736 322.291 127.542 321.298 127.542C320.305 127.542 319.498 126.736 319.498 125.743Z" fill="#E1C2FF"/>
<path d="M202.53 113.941C201.723 113.941 201.066 113.285 201.066 112.478C201.066 111.671 201.723 111.014 202.53 111.014C203.336 111.014 203.993 111.671 203.993 112.478C203.993 113.285 203.336 113.941 202.53 113.941ZM202.53 111.48C201.976 111.48 201.532 111.93 201.532 112.478C201.532 113.026 201.982 113.476 202.53 113.476C203.078 113.476 203.528 113.026 203.528 112.478C203.528 111.93 203.083 111.48 202.53 111.48Z" fill="#28183A"/>
<path d="M278.845 36.2347C278.737 36.2347 278.639 36.1571 278.618 36.0485L275.437 20.4358C275.412 20.3117 275.494 20.1876 275.618 20.1617C275.743 20.1359 275.867 20.2186 275.893 20.3427L279.073 35.9554C279.099 36.0796 279.016 36.2037 278.892 36.2295C278.877 36.2347 278.861 36.2347 278.845 36.2347Z" fill="#28183A"/>
<path d="M282.683 40.1754C282.579 40.1754 282.491 40.1082 282.46 40.0099L279.632 30.3082C279.595 30.1841 279.668 30.0548 279.792 30.0186C279.916 29.9824 280.045 30.0548 280.081 30.1789L282.91 39.8806C282.946 40.0048 282.874 40.134 282.75 40.1702C282.729 40.1702 282.703 40.1754 282.683 40.1754Z" fill="#28183A"/>
<path d="M286.841 30.9806C286.737 30.9806 286.649 30.9134 286.618 30.8151L285.579 27.2468C285.542 27.1227 285.615 26.9934 285.739 26.9572C285.863 26.921 285.992 26.9934 286.029 27.1175L287.068 30.6859C287.104 30.81 287.032 30.9393 286.908 30.9755C286.887 30.9755 286.861 30.9806 286.841 30.9806Z" fill="#28183A"/>
<path d="M252.724 36.2347C252.709 36.2347 252.693 36.2347 252.678 36.2295C252.554 36.2037 252.471 36.0796 252.497 35.9554L255.682 20.3427C255.708 20.2186 255.832 20.1359 255.956 20.1617C256.081 20.1876 256.163 20.3117 256.137 20.4358L252.952 36.0485C252.931 36.1571 252.833 36.2347 252.724 36.2347Z" fill="#28183A"/>
<path d="M248.887 40.1753C248.866 40.1753 248.846 40.1702 248.82 40.165C248.696 40.1288 248.623 39.9995 248.659 39.8754L251.488 30.1737C251.524 30.0496 251.654 29.9772 251.778 30.0134C251.902 30.0496 251.974 30.1788 251.938 30.303L249.109 40.0047C249.078 40.1081 248.985 40.1753 248.887 40.1753Z" fill="#28183A"/>
<path d="M265.508 22.0906C265.379 22.0906 265.275 21.9871 265.275 21.8578V18.6257C265.275 18.4964 265.379 18.3929 265.508 18.3929C265.637 18.3929 265.741 18.4964 265.741 18.6257V21.8578C265.741 21.9871 265.632 22.0906 265.508 22.0906Z" fill="#28183A"/>
<path d="M278.582 116.6C278.54 116.6 278.494 116.589 278.458 116.563L277.832 116.17C277.723 116.103 277.692 115.958 277.759 115.85C277.827 115.741 277.971 115.71 278.08 115.777L278.706 116.17C278.814 116.238 278.845 116.382 278.778 116.491C278.732 116.563 278.659 116.6 278.582 116.6Z" fill="#28183A"/>
<path d="M281.571 118.482C281.529 118.482 281.483 118.472 281.447 118.446L280.821 118.053C280.712 117.985 280.681 117.841 280.749 117.732C280.816 117.623 280.961 117.592 281.069 117.66L281.695 118.053C281.804 118.12 281.835 118.265 281.767 118.373C281.726 118.441 281.648 118.482 281.571 118.482Z" fill="#28183A"/>
<path d="M278.628 119.154C278.587 119.154 278.54 119.144 278.504 119.118C278.396 119.051 278.365 118.906 278.432 118.797L278.825 118.172C278.892 118.063 279.037 118.032 279.145 118.099C279.254 118.167 279.285 118.311 279.218 118.42L278.825 119.046C278.778 119.113 278.706 119.154 278.628 119.154Z" fill="#28183A"/>
<path d="M280.505 116.16C280.464 116.16 280.418 116.15 280.381 116.124C280.273 116.057 280.242 115.912 280.309 115.803L280.702 115.177C280.769 115.069 280.914 115.038 281.023 115.105C281.131 115.172 281.162 115.317 281.095 115.426L280.702 116.051C280.661 116.124 280.583 116.16 280.505 116.16Z" fill="#28183A"/>
<path d="M221.189 27.2828C221.147 27.2828 221.101 27.2725 221.064 27.2466L220.439 26.8536C220.33 26.7864 220.299 26.6415 220.366 26.5329C220.433 26.4243 220.578 26.3933 220.687 26.4605L221.313 26.8536C221.421 26.9208 221.452 27.0656 221.385 27.1742C221.344 27.2414 221.266 27.2828 221.189 27.2828Z" fill="#28183A"/>
<path d="M224.183 29.1603C224.141 29.1603 224.095 29.1499 224.059 29.1241L223.433 28.731C223.324 28.6638 223.293 28.519 223.361 28.4104C223.428 28.3018 223.573 28.2708 223.681 28.338L224.307 28.731C224.416 28.7983 224.447 28.9431 224.379 29.0517C224.333 29.1241 224.26 29.1603 224.183 29.1603Z" fill="#28183A"/>
<path d="M221.235 29.8323C221.194 29.8323 221.147 29.822 221.111 29.7961C221.002 29.7289 220.971 29.5841 221.039 29.4755L221.432 28.8497C221.499 28.7411 221.644 28.7101 221.752 28.7773C221.861 28.8445 221.892 28.9894 221.825 29.098L221.432 29.7237C221.39 29.7961 221.313 29.8323 221.235 29.8323Z" fill="#28183A"/>
<path d="M223.117 26.8433C223.076 26.8433 223.03 26.8329 222.993 26.8071C222.885 26.7399 222.854 26.5951 222.921 26.4865L223.314 25.8607C223.381 25.7521 223.526 25.7211 223.635 25.7883C223.743 25.8555 223.774 26.0003 223.707 26.1089L223.314 26.7347C223.267 26.8019 223.195 26.8433 223.117 26.8433Z" fill="#28183A"/>
<path d="M313.282 26.7087C313.282 25.5865 314.193 24.6711 315.32 24.6711C316.442 24.6711 317.357 25.5813 317.357 26.7087C317.357 27.8361 316.447 28.7463 315.32 28.7463C314.193 28.7411 313.282 27.8309 313.282 26.7087Z" fill="#E1C2FF"/>
<path d="M201.914 101.163C201.914 98.8201 203.812 96.9221 206.155 96.9221C208.498 96.9221 210.401 98.8201 210.401 101.163C210.401 103.505 208.503 105.409 206.155 105.409C203.807 105.409 201.914 103.505 201.914 101.163Z" fill="#E1C2FF"/>
</g>
<defs>
<clipPath id="clip0_811_8840">
<rect width="399" height="454" fill="white" transform="translate(-28 -51)"/>
</clipPath>
</defs>
</svg>
