<svg width="52" height="50" viewBox="0 0 52 50" fill="none" xmlns="http://www.w3.org/2000/svg">
<g clip-path="url(#clip0_811_14877)">
<path d="M9.08718 12.3333C8.04533 13.4696 7.45013 14.9319 7.40805 16.4586C7.36597 17.9854 7.87975 19.477 8.85749 20.6667C8.93732 20.761 9.03741 20.837 9.15063 20.8891C9.26385 20.9413 9.38742 20.9683 9.51253 20.9683C9.63764 20.9683 9.76121 20.9413 9.87443 20.8891C9.98765 20.837 10.0877 20.761 10.1676 20.6667L17.7217 12.5583C17.8062 12.4692 17.8697 12.3629 17.9078 12.2472C17.946 12.1314 17.9577 12.0088 17.9423 11.8881C17.9269 11.7674 17.8847 11.6514 17.8187 11.5484C17.7527 11.4453 17.6644 11.3577 17.5601 11.2917C16.254 10.444 14.6811 10.083 13.1265 10.2741C11.572 10.4652 10.1389 11.1958 9.08718 12.3333Z" fill="white"/>
<path d="M45.3948 7.825C43.044 5.88605 40.0359 4.88206 36.9656 5.01169C33.8953 5.14131 30.9866 6.3951 28.8148 8.525C28.5 8.83334 28.2023 9.15834 27.9641 9.49167C27.4111 10.1667 26.603 11.3417 25.7948 11.3417C24.9867 11.3417 24.1785 10.1667 23.6255 9.49167C23.3485 9.15169 23.0502 8.82885 22.7323 8.525C20.5553 6.37344 17.6295 5.10608 14.5398 4.9763C11.4501 4.84653 8.42428 5.86389 6.06722 7.825C4.75885 8.93558 3.70176 10.3017 2.9637 11.8357C2.22563 13.3698 1.82287 15.038 1.78122 16.7334C1.73958 18.4288 2.05996 20.114 2.72185 21.681C3.38374 23.2481 4.37253 24.6624 5.62486 25.8333L23.7532 43.5667C24.0155 43.8242 24.3271 44.0285 24.6701 44.1679C25.0132 44.3073 25.3809 44.379 25.7523 44.379C26.1237 44.379 26.4914 44.3073 26.8344 44.1679C27.1775 44.0285 27.4891 43.8242 27.7514 43.5667L45.8797 25.8333C47.1283 24.6589 48.1128 23.2421 48.7703 21.6735C49.4279 20.105 49.7439 18.4193 49.6983 16.7242C49.6527 15.0292 49.2463 13.3621 48.5053 11.8297C47.7643 10.2973 46.7048 8.93333 45.3948 7.825ZM17.7217 12.5583L10.1676 20.7333C10.0877 20.8277 9.98765 20.9037 9.87443 20.9558C9.76121 21.0079 9.63764 21.035 9.51253 21.035C9.38742 21.035 9.26385 21.0079 9.15063 20.9558C9.03741 20.9037 8.93732 20.8277 8.8575 20.7333C7.84705 19.545 7.30812 18.0394 7.33964 16.4931C7.37116 14.9468 7.97102 13.4635 9.02908 12.3156C10.0871 11.1677 11.5324 10.4322 13.0995 10.2441C14.6666 10.056 16.2504 10.4279 17.5601 11.2917C17.6644 11.3577 17.7527 11.4454 17.8187 11.5484C17.8847 11.6514 17.9269 11.7674 17.9423 11.8881C17.9577 12.0088 17.946 12.1314 17.9078 12.2472C17.8697 12.363 17.8062 12.4692 17.7217 12.5583Z" fill="#4AB7B5"/>
</g>
<defs>
<clipPath id="clip0_811_14877">
<rect width="47.8686" height="39.375" fill="white" transform="translate(1.81374 5)"/>
</clipPath>
</defs>
</svg>
