<svg width="52" height="50" viewBox="0 0 52 50" fill="none" xmlns="http://www.w3.org/2000/svg">
<g clip-path="url(#clip0_811_14876)">
<path d="M26.5689 29.375C26.6448 29.5118 26.7483 29.6322 26.8731 29.7287C26.998 29.8252 27.1415 29.8958 27.295 29.9363C27.4486 29.9769 27.6089 29.9864 27.7663 29.9644C27.9237 29.9424 28.0749 29.8893 28.2108 29.8083C31.8517 27.825 33.4851 23.8 31.8602 20.3C30.2354 16.8083 25.9054 15.05 21.805 16.0167C21.6521 16.041 21.5067 16.0985 21.3795 16.1851C21.2522 16.2717 21.1464 16.385 21.0697 16.5169C20.993 16.6488 20.9474 16.7958 20.9363 16.9471C20.9252 17.0985 20.9488 17.2504 21.0054 17.3917L26.5689 29.375Z" fill="white"/>
<path d="M23.234 42.2502C23.8295 42.3252 24.4335 42.3836 25.0375 42.4502H27.5556C28.3382 42.3586 29.1208 42.2919 29.9035 42.1752C35.8583 41.2336 40.5542 38.8419 43.421 34.4336C44.6587 32.5691 45.3313 30.399 45.3606 28.1752C45.3606 26.303 45.3606 24.428 45.3606 22.5502C45.233 15.3752 38.8017 9.2169 30.0481 7.80023C20.1885 6.23356 10.5417 10.9669 7.85348 18.7002C7.58157 19.6225 7.36849 20.5604 7.21546 21.5086L7.13889 21.8336V28.1836C7.275 28.9002 7.37709 29.6252 7.56424 30.3336C9.13802 36.4836 15.4757 41.2919 23.234 42.2502ZM43.5316 30.7502C43.3629 31.3784 43.1409 31.9916 42.8681 32.5836C42.3284 33.7704 41.6022 34.867 40.7158 35.8336C38.8815 37.7328 36.6005 39.1634 34.0719 40.0002C32.3243 40.6186 30.5082 41.0325 28.6615 41.2336C25.533 41.5672 22.368 41.1996 19.4059 40.1586C16.3547 39.1586 13.6181 37.4049 11.4604 35.0669C9.99606 33.3097 9.03851 31.2006 8.68716 28.9586C9.03805 29.6124 9.43902 30.2392 9.88664 30.8336C11.2847 32.4488 12.9186 33.8528 14.7356 35.0002C15.7435 35.571 16.7894 36.0749 17.8661 36.5086C18.3425 36.703 18.8274 36.878 19.3208 37.0336C22.848 38.1408 26.5984 38.384 30.2438 37.7419C33.4379 37.1857 36.4623 35.9294 39.091 34.0669C40.5738 33.0317 41.8341 31.7206 42.8 30.2086C43.0637 29.8169 43.3955 29.0752 43.8378 28.8586C43.841 29.5012 43.7376 30.1401 43.5316 30.7502ZM21.8049 16.0169C25.9137 15.0502 30.2352 16.8086 31.8601 20.3002C33.4849 23.8002 31.8601 27.8002 28.2106 29.8086C28.0748 29.8895 27.9236 29.9426 27.7661 29.9647C27.6087 29.9867 27.4484 29.9771 27.2949 29.9366C27.1413 29.8961 26.9978 29.8254 26.873 29.7289C26.7482 29.6324 26.6447 29.5121 26.5688 29.3752L21.0052 17.3919C20.9486 17.2506 20.925 17.0987 20.9361 16.9474C20.9473 16.796 20.9928 16.649 21.0695 16.5172C21.1462 16.3853 21.252 16.2719 21.3793 16.1854C21.5065 16.0988 21.6519 16.0412 21.8049 16.0169Z" fill="#FF8D5E"/>
</g>
<defs>
<clipPath id="clip0_811_14876">
<rect width="38.1962" height="34.95" fill="white" transform="translate(7.13889 7.5)"/>
</clipPath>
</defs>
</svg>
