<svg width="64" height="64" viewBox="0 0 64 64" fill="none" xmlns="http://www.w3.org/2000/svg">
<path fill-rule="evenodd" clip-rule="evenodd" d="M5.95833 16.375C5.95833 14.9401 7.1276 13.7708 8.5625 13.7708H55.4375C56.875 13.7708 58.0417 14.9401 58.0417 16.375V24.1875H5.95833V16.375ZM5.95833 29.3958H58.0417V47.625C58.0417 49.0625 56.875 50.2292 55.4375 50.2292H8.5625C7.1276 50.2292 5.95833 49.0625 5.95833 47.625V29.3958ZM63.25 26.7917V16.375C63.25 12.0677 59.7448 8.5625 55.4375 8.5625H8.5625C4.25521 8.5625 0.75 12.0677 0.75 16.375V26.7917V47.625C0.75 51.9323 4.25521 55.4375 8.5625 55.4375H55.4375C59.7448 55.4375 63.25 51.9323 63.25 47.625V26.7917Z" fill="#DEA8DE"/>
</svg>
