<svg width="64" height="64" viewBox="0 0 64 64" fill="none" xmlns="http://www.w3.org/2000/svg">
<path fill-rule="evenodd" clip-rule="evenodd" d="M50.2291 52.8333H55.4375V11.1667H50.2291V52.8333ZM58.0416 58.0417H47.625C46.1849 58.0417 45.0208 56.8776 45.0208 55.4375V8.56249C45.0208 7.12499 46.1849 5.95833 47.625 5.95833H58.0416C59.4817 5.95833 60.6458 7.12499 60.6458 8.56249V55.4375C60.6458 56.8776 59.4817 58.0417 58.0416 58.0417ZM29.3958 52.8333H34.6041V24.1875H29.3958V52.8333ZM37.2083 58.0417H26.7916C25.3541 58.0417 24.1875 56.8776 24.1875 55.4375V21.5833C24.1875 20.1458 25.3541 18.9792 26.7916 18.9792H37.2083C38.6484 18.9792 39.8125 20.1458 39.8125 21.5833V55.4375C39.8125 56.8776 38.6484 58.0417 37.2083 58.0417ZM13.7708 52.8333H8.56246V37.2083H13.7708V52.8333ZM5.95829 58.0417H16.375C17.8125 58.0417 18.9791 56.8776 18.9791 55.4375V34.6042C18.9791 33.1667 17.8125 32 16.375 32H5.95829C4.52079 32 3.35413 33.1667 3.35413 34.6042V55.4375C3.35413 56.8776 4.52079 58.0417 5.95829 58.0417Z" fill="#F29191"/>
</svg>
