<svg width="64" height="64" viewBox="0 0 64 64" fill="none" xmlns="http://www.w3.org/2000/svg">
<path fill-rule="evenodd" clip-rule="evenodd" d="M39.8125 18.9792C39.8125 14.6719 36.3073 11.1667 32 11.1667C27.6927 11.1667 24.1875 14.6719 24.1875 18.9792C24.1875 23.2865 27.6927 26.7917 32 26.7917C36.3073 26.7917 39.8125 23.2865 39.8125 18.9792ZM45.0208 18.9792C45.0208 26.1589 39.1797 32 32 32C24.8203 32 18.9792 26.1589 18.9792 18.9792C18.9792 11.7995 24.8203 5.95833 32 5.95833C39.1797 5.95833 45.0208 11.7995 45.0208 18.9792ZM8.5625 50.2292C8.5625 43.0495 14.4036 37.2083 21.5833 37.2083H42.4167C49.5964 37.2083 55.4375 43.0495 55.4375 50.2292V55.4375C55.4375 56.8776 54.2734 58.0417 52.8333 58.0417C51.3932 58.0417 50.2292 56.8776 50.2292 55.4375V50.2292C50.2292 45.9219 46.724 42.4167 42.4167 42.4167H21.5833C17.276 42.4167 13.7708 45.9219 13.7708 50.2292V55.4375C13.7708 56.8776 12.6042 58.0417 11.1667 58.0417C9.72917 58.0417 8.5625 56.8776 8.5625 55.4375V50.2292Z" fill="#69B5B5"/>
</svg>
