<svg width="375" height="812" viewBox="0 0 375 812" fill="none" xmlns="http://www.w3.org/2000/svg">
<path d="M375 814L375 0L0 0L0 814H375Z" fill="#F2F2F2"/>
<mask id="mask0_925_9937" style="mask-type:alpha" maskUnits="userSpaceOnUse" x="0" y="0" width="375" height="814">
<path d="M375 814L375 0L0 0L0 814H375Z" fill="#F2F2F2"/>
</mask>
<g mask="url(#mask0_925_9937)">
<path d="M-213.959 1186.64C-231.435 1169.53 -240 1146.69 -240 1123.87C-240 1101.04 -231.435 1078.21 -213.959 1060.73L-35.7472 882.525C-3.76446 850.542 -3.76446 798.686 -35.7472 766.698L-213.959 588.487C-231.435 571.007 -240 548.186 -240 525.352C-240 502.518 -231.435 479.697 -213.959 462.217C-179.361 427.261 -122.649 427.261 -88.0509 462.217L138.444 688.711C213.488 763.755 213.458 885.438 138.376 960.448L-88.0509 1186.64C-122.649 1221.6 -179.361 1221.6 -213.959 1186.64Z" fill="#DEA8DE"/>
<path d="M219.468 366.522C236.586 349.046 259.42 340.481 282.245 340.481C305.07 340.481 327.9 349.046 345.38 366.522L523.587 544.734C555.57 576.716 607.427 576.721 639.414 544.734L817.63 366.522C835.105 349.046 857.931 340.481 880.765 340.481C903.598 340.481 926.42 349.046 943.9 366.522C978.855 401.12 978.855 457.832 943.9 492.43L717.405 718.925C642.361 793.968 520.678 793.939 445.668 718.856L219.472 492.43C184.512 457.828 184.512 401.12 219.468 366.522Z" fill="#F29191"/>
<path d="M-596.18 172.985C-579.062 155.51 -556.228 146.944 -533.403 146.944C-510.578 146.944 -487.748 155.51 -470.268 172.985L-292.061 351.197C-260.078 383.18 -208.221 383.18 -176.234 351.197L1.9816 172.985C19.4573 155.51 42.2827 146.944 65.1166 146.944C87.9505 146.944 110.772 155.51 128.252 172.985C163.207 207.583 163.207 264.295 128.252 298.893L-98.243 525.388C-173.287 600.432 -294.97 600.402 -369.98 525.32L-596.176 298.893C-631.136 264.295 -631.136 207.583 -596.18 172.985Z" fill="#69B5B5"/>
</g>
</svg>
