<svg width="375" height="913" viewBox="0 0 375 913" fill="none" xmlns="http://www.w3.org/2000/svg">
<mask id="mask0_1238_13188" style="mask-type:alpha" maskUnits="userSpaceOnUse" x="-1" y="0" width="376" height="913">
<path d="M-1.00004 0L-1 913L375 913L375 -1.64355e-05L-1.00004 0Z" fill="#F2F2F2"/>
</mask>
<g mask="url(#mask0_1238_13188)">
<path d="M-1.00004 0L-1 900L375 900L375 -1.64355e-05L-1.00004 0Z" fill="#F2F2F2"/>
<path d="M903.166 616.542C869.321 651.074 824.174 668 779.044 668C733.914 668 688.776 651.074 654.215 616.542L301.867 264.388C238.632 201.188 136.102 201.18 72.8581 264.388L-279.506 616.542C-314.059 651.074 -359.189 668 -404.336 668C-449.482 668 -494.604 651.074 -529.165 616.542C-598.278 548.175 -598.278 436.109 -529.165 367.742L-81.3446 -79.8213C67.0305 -228.111 307.619 -228.053 455.927 -79.6868L903.157 367.742C972.28 436.117 972.28 548.174 903.166 616.542Z" fill="#69B5B5"/>
</g>
</svg>
