<svg width="375" height="812" viewBox="0 0 375 812" fill="none" xmlns="http://www.w3.org/2000/svg">
<mask id="mask0_864_11321" style="mask-type:alpha" maskUnits="userSpaceOnUse" x="-1" y="0" width="376" height="818">
<path d="M-1.00004 0L-1 818L375 818L375 -1.64355e-05L-1.00004 0Z" fill="#F2F2F2"/>
</mask>
<g mask="url(#mask0_864_11321)">
<path d="M-1.00004 3.05176e-05L-1 818L375 818L375 1.40821e-05L-1.00004 3.05176e-05Z" fill="#F2F2F2"/>
<path d="M903.166 576.542C869.32 611.074 824.174 628 779.044 628C733.914 628 688.776 611.074 654.215 576.542L301.867 224.388C238.632 161.188 136.102 161.18 72.858 224.388L-279.507 576.542C-314.059 611.074 -359.189 628 -404.336 628C-449.482 628 -494.604 611.074 -529.165 576.542C-598.278 508.175 -598.279 396.109 -529.165 327.742L-81.3447 -119.821C67.0304 -268.111 307.619 -268.053 455.927 -119.687L903.157 327.742C972.279 396.117 972.279 508.174 903.166 576.542Z" fill="#F29469"/>
</g>
</svg>
