<svg width="343" height="97" viewBox="0 0 343 97" fill="none" xmlns="http://www.w3.org/2000/svg">
<mask id="mask0_1254_13345" style="mask-type:alpha" maskUnits="userSpaceOnUse" x="0" y="0" width="343" height="97">
<rect width="343" height="97" rx="20" fill="white"/>
</mask>
<g mask="url(#mask0_1254_13345)">
<rect width="343" height="97" rx="20" fill="white"/>
<path d="M439.759 207.7C447.533 200.17 451.176 190.21 451.176 180.008C451.176 169.805 447.533 159.845 439.759 152.315L361.54 74.0954C347.45 60.0062 347.45 37.1719 361.54 23.0827L439.759 -55.1369C447.533 -62.9102 451.176 -72.8699 451.176 -82.8295C451.176 -92.7891 447.533 -102.992 439.759 -110.522C424.455 -125.826 399.678 -125.826 384.374 -110.522L284.778 -10.9258C251.741 22.111 251.741 75.5529 284.778 108.59L384.374 207.943C399.678 223.004 424.698 223.004 439.759 207.7Z" fill="#F29469"/>
</g>
</svg>
