<svg width="375" height="812" viewBox="0 0 375 812" fill="none" xmlns="http://www.w3.org/2000/svg">
<path d="M-1.00004 0L-1 812L375 812L375 -1.64355e-05L-1.00004 0Z" fill="#F2F2F2"/>
<mask id="mask0_42_630" style="mask-type:alpha" maskUnits="userSpaceOnUse" x="-1" y="0" width="376" height="812">
<path d="M-1.00004 0L-1 812L375 812L375 -1.64355e-05L-1.00004 0Z" fill="#F2F2F2"/>
</mask>
<g mask="url(#mask0_42_630)">
<path d="M420.006 1037.07C402.888 1054.55 380.055 1063.11 357.229 1063.11C334.404 1063.11 311.574 1054.55 294.094 1037.07L115.887 858.858C83.904 826.876 32.0474 826.876 0.0604159 858.858L-178.151 1037.07C-195.631 1054.55 -218.452 1063.11 -241.286 1063.11C-264.12 1063.11 -286.941 1054.55 -304.421 1037.07C-339.377 1002.47 -339.377 945.76 -304.421 911.162L-77.9266 684.667C-2.88274 609.623 118.8 609.653 193.81 684.736L420.006 911.162C454.962 945.76 454.962 1002.47 420.006 1037.07Z" fill="#F29469"/>
<path d="M238.532 451.256C221.414 468.731 198.58 477.297 175.755 477.297C152.93 477.297 130.1 468.731 112.62 451.256L-65.5875 273.044C-97.5703 241.061 -149.427 241.057 -181.414 273.044L-359.63 451.256C-377.105 468.731 -399.931 477.297 -422.765 477.297C-445.599 477.297 -468.42 468.731 -485.9 451.256C-520.855 416.658 -520.855 359.946 -485.9 325.348L-259.405 98.8532C-184.361 23.8093 -62.6784 23.839 12.3314 98.9212L238.528 325.348C273.488 359.95 273.488 416.658 238.532 451.256Z" fill="#F29191"/>
<path d="M1054.18 644.792C1037.06 662.268 1014.23 670.833 991.403 670.833C968.578 670.833 945.748 662.268 928.268 644.792L750.061 466.581C718.078 434.598 666.221 434.598 634.234 466.581L456.018 644.792C438.543 662.268 415.717 670.833 392.883 670.833C370.049 670.833 347.228 662.268 329.748 644.792C294.793 610.194 294.793 553.482 329.748 518.884L556.243 292.39C631.287 217.346 752.97 217.376 827.979 292.458L1054.18 518.884C1089.14 553.482 1089.14 610.194 1054.18 644.792Z" fill="#69B5B5"/>
</g>
</svg>
