<svg width="375" height="812" viewBox="0 0 375 812" fill="none" xmlns="http://www.w3.org/2000/svg">
<mask id="mask0_765_7386" style="mask-type:alpha" maskUnits="userSpaceOnUse" x="0" y="0" width="375" height="812">
<rect width="375" height="812" fill="#C4C4C4"/>
</mask>
<g mask="url(#mask0_765_7386)">
<rect width="375" height="812" fill="#F2F2F2"/>
<path d="M-3.54936e-05 0L0 812L376 812L376 -1.64355e-05L-3.54936e-05 0Z" fill="#F2F2F2"/>
<mask id="mask1_765_7386" style="mask-type:alpha" maskUnits="userSpaceOnUse" x="0" y="0" width="376" height="931">
<path d="M-4.06953e-05 0L0 931L376 931L376 -1.64355e-05L-4.06953e-05 0Z" fill="#F2F2F2"/>
</mask>
<g mask="url(#mask1_765_7386)">
<path d="M421.006 1037.07C403.888 1054.55 381.055 1063.11 358.229 1063.11C335.404 1063.11 312.574 1054.55 295.094 1037.07L116.887 858.858C84.904 826.876 33.0475 826.876 1.06048 858.858L-177.151 1037.07C-194.631 1054.55 -217.452 1063.11 -240.286 1063.11C-263.12 1063.11 -285.941 1054.55 -303.421 1037.07C-338.377 1002.47 -338.377 945.76 -303.421 911.162L-76.9266 684.667C-1.88268 609.623 119.8 609.653 194.81 684.736L421.006 911.162C455.962 945.76 455.962 1002.47 421.006 1037.07Z" fill="#DEA8DE"/>
<path d="M239.532 451.256C222.414 468.731 199.58 477.297 176.755 477.297C153.93 477.297 131.1 468.731 113.62 451.256L-64.5874 273.044C-96.5701 241.061 -148.427 241.057 -180.414 273.044L-358.63 451.256C-376.105 468.731 -398.931 477.297 -421.765 477.297C-444.598 477.297 -467.42 468.731 -484.9 451.256C-519.855 416.658 -519.855 359.946 -484.9 325.348L-258.405 98.8531C-183.361 23.8092 -61.6783 23.839 13.3315 98.9212L239.528 325.348C274.488 359.95 274.488 416.658 239.532 451.256Z" fill="#69B5B5"/>
<path d="M1055.18 644.792C1038.06 662.268 1015.23 670.833 992.403 670.833C969.578 670.833 946.748 662.268 929.268 644.792L751.061 466.58C719.078 434.598 667.221 434.598 635.234 466.58L457.018 644.792C439.543 662.268 416.717 670.833 393.883 670.833C371.05 670.833 348.228 662.268 330.748 644.792C295.793 610.194 295.793 553.482 330.748 518.884L557.243 292.39C632.287 217.346 753.97 217.375 828.979 292.458L1055.18 518.884C1090.14 553.482 1090.14 610.194 1055.18 644.792Z" fill="#F29469"/>
</g>
</g>
</svg>
