<svg width="375" height="516" viewBox="0 0 375 516" fill="none" xmlns="http://www.w3.org/2000/svg">
<path d="M759.627 473.903C732.604 501.478 696.573 515 660.553 515C624.534 515 588.503 501.489 560.915 473.903L279.68 192.679C229.205 142.205 147.365 142.205 96.8896 192.679L-184.356 473.914C-211.944 501.489 -247.964 515.011 -283.994 515.011C-320.025 515.011 -356.045 501.5 -383.632 473.914C-438.796 419.316 -438.796 329.818 -383.632 275.221L-26.1901 -82.2072C92.2446 -200.637 284.271 -200.583 402.652 -82.0987L759.627 275.221C814.791 329.818 814.791 419.306 759.627 473.903Z" fill="#69B5B5"/>
</svg>
