<svg width="247" height="177" viewBox="0 0 247 177" fill="none" xmlns="http://www.w3.org/2000/svg">
<path opacity="0.2" d="M123.499 176.447C191.705 176.447 246.997 174.801 246.997 172.771C246.997 170.741 191.705 169.095 123.499 169.095C55.2924 169.095 0.000366211 170.741 0.000366211 172.771C0.000366211 174.801 55.2924 176.447 123.499 176.447Z" fill="#453157"/>
<path d="M11.4351 103.513L11.3737 103.268L11.1294 103.332C10.4878 103.5 9.37098 103.606 8.07586 103.587C6.78482 103.569 5.3374 103.427 4.03818 103.111C2.73163 102.792 1.60944 102.305 0.933719 101.619C0.599728 101.28 0.378166 100.896 0.291375 100.46C0.2045 100.023 0.248792 99.5148 0.478558 98.921C1.00211 97.5685 1.72394 96.8965 2.51604 96.6463C3.31893 96.3926 4.25495 96.5523 5.24119 96.9959C7.216 97.8842 9.25235 99.8484 10.4814 101.386L10.9223 101.183C9.98506 96.2564 9.85616 91.2316 9.87224 88.5397L9.87279 88.4485L9.81444 88.3783C9.607 88.129 9.35681 87.6936 9.09299 87.1074C8.8312 86.5256 8.56255 85.8102 8.31393 85.012C7.81639 83.4146 7.40319 81.4991 7.28283 79.6781C7.16195 77.8493 7.33912 76.153 7.98666 74.9662C8.30763 74.3779 8.74183 73.9187 9.31176 73.6243C9.88239 73.3296 10.6074 73.1908 11.5247 73.2741C13.9634 73.4958 15.1812 74.4572 15.6762 75.7354C16.1835 77.045 15.9651 78.763 15.3445 80.5535C14.7271 82.3346 13.7278 84.141 12.7376 85.5969C12.243 86.3242 11.7529 86.9608 11.317 87.4604C10.8772 87.9645 10.5049 88.3149 10.2465 88.4837L10.1332 88.5577V88.693C10.1332 91.9294 10.3491 98.353 11.8215 103.938L12.3122 103.896C12.4637 102.169 13.4097 98.8145 14.8935 96.3394C15.6366 95.0999 16.4944 94.1156 17.4235 93.6491C17.8834 93.4182 18.3579 93.3154 18.848 93.3671C19.3388 93.419 19.8631 93.6277 20.4185 94.0483L20.4186 94.0483C21.2425 94.6717 21.7493 95.2985 22.0183 95.9101C22.2858 96.5184 22.3245 97.1263 22.1886 97.7283C21.9135 98.9469 20.9188 100.155 19.61 101.233C18.3086 102.305 16.7328 103.22 15.359 103.86C14.6726 104.179 14.0406 104.429 13.5227 104.594C12.9938 104.763 12.6144 104.834 12.4185 104.824L12.0613 104.804L12.1659 105.147C12.7893 107.186 13.5985 109.08 14.6637 110.602C15.4127 111.672 16.2427 112.914 17.1051 114.266L17.1198 114.289L17.1391 114.308C17.1486 114.317 17.1547 114.324 17.1588 114.328C17.1626 114.332 17.1646 114.334 17.1658 114.336L17.5397 114.803L17.6093 114.209C17.8232 112.384 18.7879 109.105 20.2601 106.723C20.9976 105.53 21.8423 104.595 22.7535 104.16C23.2045 103.945 23.6698 103.854 24.1508 103.911C24.6325 103.969 25.1466 104.177 25.6906 104.589L25.6906 104.589C27.223 105.749 27.6672 106.922 27.5053 108.028C27.3392 109.162 26.527 110.297 25.3837 111.339C24.2465 112.375 22.8144 113.29 21.4721 113.986C20.1269 114.684 18.892 115.152 18.1541 115.308L17.8072 115.382L17.9929 115.684C19.8981 118.783 21.8591 122.32 23.3687 125.724L23.8467 125.639C23.8959 124.863 24.3203 123.849 24.9993 122.809C25.6741 121.776 26.582 120.745 27.5613 119.94C28.5449 119.132 29.5776 118.569 30.5015 118.435C30.9596 118.368 31.3849 118.408 31.766 118.569C32.146 118.729 32.4983 119.016 32.8015 119.471L32.8015 119.471C32.9351 119.671 32.9776 119.948 32.9085 120.31C32.8394 120.673 32.6622 121.096 32.3912 121.558C31.8499 122.48 30.9616 123.506 29.942 124.423C28.9225 125.339 27.7866 126.132 26.7588 126.596C26.2448 126.828 25.7676 126.973 25.3517 127.016C24.9361 127.059 24.5988 126.997 24.3429 126.837L23.6834 126.422L23.9785 127.143C25.4277 130.682 26.278 133.942 25.9836 136.291C25.8713 137.176 25.7107 138.224 25.5238 139.361L25.4593 139.754L25.4588 139.753L25.3789 140.231C25.2758 140.846 25.1663 141.48 25.0535 142.128L25.0534 142.129C24.5989 144.767 24.0981 147.68 23.7511 150.412C23.4045 153.14 23.2087 155.706 23.3707 157.644L23.4018 158.017L23.401 158.017L23.4029 158.029L23.4431 158.511L23.468 158.463C23.5311 158.865 23.6106 159.244 23.7212 159.576L23.7212 159.576C25.1807 163.948 28.0901 168.378 28.226 168.58C28.2641 168.637 28.25 168.715 28.1923 168.755C28.1655 168.772 28.1421 168.778 28.1212 168.778C28.077 168.778 28.0398 168.758 28.0183 168.725L28.0164 168.722L28.0164 168.722L28.0162 168.721L28.0158 168.721L28.0141 168.718L28.0085 168.71L27.9879 168.678C27.9702 168.651 27.9447 168.612 27.912 168.561C27.8467 168.46 27.7528 168.313 27.6358 168.125C27.4017 167.75 27.0753 167.213 26.7004 166.56C25.9501 165.253 25.0075 163.482 24.2213 161.602L24.1654 161.469L24.0217 161.451C23.1374 161.34 20.9954 161.052 18.8318 160.63C17.7497 160.418 16.6661 160.174 15.7334 159.903C14.794 159.629 14.0317 159.334 13.5754 159.03C12.4781 158.299 10.931 156.716 10.0694 155.1C9.63834 154.291 9.3942 153.503 9.43842 152.825C9.48136 152.167 9.79647 151.59 10.5465 151.173L10.5466 151.173C12.9463 149.84 15.4343 150.916 17.6789 152.915C19.9138 154.904 21.8175 157.736 22.9828 159.686L23.437 159.486C23.016 158.075 22.9865 155.927 23.1834 153.419C23.3796 150.919 23.7974 148.097 24.2502 145.356L24.3154 144.961L24.3146 144.961L24.3759 144.592C24.5176 143.738 24.6626 142.898 24.8044 142.085L24.8045 142.085C25.1814 139.901 25.5373 137.827 25.7348 136.257L25.7348 136.256C26.0172 133.998 25.2054 130.819 23.7769 127.297L23.795 127.311L23.4338 126.463C21.9085 122.885 19.7702 118.968 17.431 115.236L17.3363 115.085L17.1627 115.126C15.6671 115.473 11.875 115.588 8.66339 115.009C7.05603 114.719 5.63092 114.261 4.71512 113.598C4.2603 113.269 3.9442 112.898 3.78456 112.485C3.62654 112.076 3.61237 111.602 3.80325 111.042L3.80327 111.042C4.1964 109.889 4.8501 109.246 5.6479 108.944C6.45842 108.637 7.45414 108.669 8.54561 108.945C10.7298 109.498 13.1845 111.001 15.0155 112.417L15.3755 112.079C15.0722 111.63 14.768 111.184 14.4603 110.747C13.0858 108.792 12.1183 106.24 11.4351 103.513ZM34.4511 155.42C33.0026 156.854 31.0196 157.883 29.9218 158.25C29.045 158.543 27.7955 158.562 26.5984 158.473C25.4102 158.385 24.3092 158.193 23.748 158.084L23.6712 158.069L23.842 157.738C24.6108 156.247 26.6989 152.424 29.0801 149.973C30.2774 148.74 31.5027 147.903 32.6349 147.822C33.7226 147.744 34.8253 148.364 35.8008 150.315C36.752 152.218 35.9014 153.985 34.4511 155.42ZM23.2715 126.923C21.9908 127.32 18.1013 128.348 13.8463 127.742C11.2648 127.373 9.33991 126.187 8.29801 124.883C7.24588 123.566 7.1381 122.217 7.96428 121.389C8.69921 120.654 9.81706 120.458 11.1878 120.657C12.5547 120.856 14.1193 121.441 15.6771 122.194C18.7898 123.698 21.8123 125.841 23.055 126.762L23.2715 126.923ZM25.8018 140.095L25.6327 139.926L25.9559 139.569C26.8557 138.574 28.9141 136.429 30.9765 135.176C32.0125 134.546 33.0083 134.168 33.8392 134.231C34.2473 134.262 34.6169 134.4 34.9406 134.672C35.2666 134.946 35.559 135.367 35.7903 135.984L35.7904 135.984C36.172 137.001 36.1365 137.899 35.8454 138.677C35.5522 139.461 34.9935 140.14 34.3049 140.7C32.9191 141.826 31.0655 142.424 30.0011 142.424C29.19 142.424 28.3288 142.037 27.5616 141.537C26.7999 141.04 26.1614 140.453 25.8018 140.095ZM23.9071 144.666L24.0937 145.027L23.9319 145.076C23.5197 145.199 22.8436 145.238 22.0045 145.194C21.1733 145.15 20.208 145.028 19.2325 144.845C17.269 144.478 15.3138 143.876 14.3269 143.218L14.3267 143.218C13.2159 142.478 11.7046 141.147 10.7703 139.753C10.3026 139.055 9.9939 138.362 9.93478 137.733C9.87704 137.118 10.0553 136.557 10.588 136.083C12.026 134.805 13.4605 134.536 14.8336 134.867C16.2254 135.202 17.5816 136.16 18.82 137.391C21.295 139.853 23.2111 143.317 23.9071 144.666Z" fill="#69B5B5" stroke="#29173B" stroke-width="0.5"/>
<path d="M33.0991 150.439L33.099 150.439C32.3027 150.757 31.9261 151.285 31.8131 151.922C31.6966 152.578 31.8572 153.376 32.2081 154.209C32.9102 155.877 34.3186 157.558 35.4021 158.282C37.227 159.499 40.0561 160.719 41.0382 161.13L41.252 161.219L41.1791 161.439C40.1493 164.548 38.7412 167.163 37.0647 168.559L37.0632 168.56C37.0116 168.603 37.0034 168.682 37.0481 168.736L37.0495 168.737C37.0729 168.766 37.1064 168.781 37.1466 168.781C37.1759 168.781 37.2035 168.772 37.2295 168.751C38.8739 167.381 40.3126 164.753 41.3784 161.533L41.433 161.368L41.6069 161.362C42.2447 161.339 43.5687 161.282 44.9669 161.151C46.3723 161.02 47.8271 160.818 48.7401 160.514C49.8104 160.156 52.2067 159.291 53.9679 158.116C54.8526 157.526 55.5414 156.881 55.8429 156.213C55.991 155.885 56.0441 155.555 55.9854 155.22C55.9265 154.884 55.7514 154.523 55.4103 154.139L55.4102 154.139C54.2266 152.806 52.9727 152.344 51.7259 152.419C50.4633 152.494 49.1719 153.123 47.9363 154.047C45.465 155.894 43.3145 158.848 42.2112 160.518L41.7625 160.311C43.1121 155.65 43.6712 150.097 43.0512 145.572L43.0334 145.442L42.9587 144.985C42.8469 144.301 42.7099 143.642 42.5417 143.024C41.5884 139.528 40.8964 135.045 40.5924 130.648L40.575 130.396L40.827 130.381C41.7323 130.327 44.2577 130.076 47.2206 128.893L33.0991 150.439ZM33.0991 150.439C34.6177 149.831 35.8177 149.965 36.7814 150.523C37.7589 151.088 38.527 152.109 39.1258 153.338C40.3235 155.795 40.7904 158.97 40.9576 160.551L41.4456 160.597C42.8472 155.941 43.4426 150.275 42.8082 145.652L42.7792 145.441L42.5664 145.436C41.6043 145.413 37.9286 145.235 35.3785 143.96C33.9585 143.25 32.7732 141.44 32.2691 139.688C32.0183 138.816 31.9458 137.989 32.0801 137.349C32.2127 136.717 32.537 136.294 33.0752 136.14C34.0894 135.85 35.0828 136.067 36.0382 136.62C36.998 137.175 37.9061 138.063 38.7267 139.086C40.3674 141.129 41.6163 143.655 42.2006 144.944L42.6745 144.798C42.5702 144.208 42.4461 143.633 42.2953 143.085M33.0991 150.439L42.2953 143.085M42.2953 143.085C41.3398 139.581 40.6455 135.058 40.3464 130.608L40.331 130.379L40.1017 130.374C39.5098 130.363 38.3901 130.329 37.1918 130.221C35.9884 130.114 34.7263 129.934 33.8398 129.639C33.334 129.47 32.706 128.997 32.0872 128.334C31.4742 127.678 30.894 126.862 30.4778 126.044C30.0585 125.221 29.8204 124.425 29.8551 123.801C29.8722 123.494 29.9548 123.24 30.1035 123.042C30.251 122.845 30.4777 122.685 30.8178 122.587L30.8178 122.587C32.7935 122.023 34.6949 123.147 36.3105 124.804C37.9153 126.451 39.1662 128.555 39.8187 129.769L40.2886 129.637C40.0343 124.993 40.2293 120.541 41.0097 117.525L41.0257 117.463L41.0101 117.401C40.6715 116.06 40.0342 113.239 40.0342 111.052C40.0342 110.341 40.2419 109.439 40.6133 108.524C40.9838 107.611 41.5101 106.703 42.1318 105.979C42.7561 105.253 43.4588 104.733 44.1775 104.558C44.8793 104.386 45.6305 104.535 46.396 105.215C47.849 106.507 48.3712 107.828 48.3403 109.098C48.3092 110.381 47.7126 111.652 46.845 112.828C45.1083 115.182 42.3579 117.06 41.285 117.741L41.1998 117.795L41.1761 117.893C40.4387 120.934 40.279 125.303 40.5407 129.817L41.0226 129.894C41.6936 128.205 43.3773 124.344 45.6912 121.639C46.8492 120.286 48.1407 119.251 49.5149 118.899C50.8681 118.552 52.3462 118.856 53.924 120.276C54.4612 120.76 54.5828 121.405 54.376 122.176C54.166 122.959 53.6207 123.843 52.8634 124.725C51.35 126.487 49.0621 128.157 47.2207 128.893L42.2953 143.085ZM53.3735 134.267C54.9755 133.843 56.6882 134.061 58.4618 135.351C58.8052 135.6 59.0088 135.885 59.1102 136.19C59.2125 136.497 59.2174 136.845 59.1314 137.228C58.9577 138.003 58.4224 138.885 57.6767 139.771C56.1887 141.539 53.9488 143.222 52.4737 143.96C51.2252 144.584 49.3035 144.922 47.4874 145.099C45.6924 145.274 44.0366 145.291 43.3141 145.288L43.4293 145.055C44.1411 143.621 46.1442 139.87 48.8698 137.145C50.2327 135.782 51.7577 134.695 53.3735 134.267Z" fill="#DEA8DE" stroke="#29173B" stroke-width="0.5"/>
<path d="M16.8162 169.031H51.0765C51.2861 169.031 51.4537 168.864 51.4537 168.654C51.4537 168.445 51.2861 168.277 51.0765 168.277H16.8162C16.6066 168.277 16.4389 168.445 16.4389 168.654C16.4389 168.864 16.6098 169.031 16.8162 169.031Z" fill="#29173B"/>
<path d="M4.76942 169.031H12.6759C12.8855 169.031 13.0532 168.864 13.0532 168.654C13.0532 168.445 12.8855 168.277 12.6759 168.277H4.76942C4.55982 168.277 4.39215 168.445 4.39215 168.654C4.39215 168.864 4.55982 169.031 4.76942 169.031Z" fill="#29173B"/>
<path d="M208.841 170.445H214.878V138.336V135.395V112.514H217.818V135.395H222.384V112.514H225.325V135.395V138.336H222.384H217.818V170.445H223.855C224.667 170.445 225.325 171.103 225.325 171.916C225.325 172.728 224.667 173.386 223.855 173.386H217.818H214.878H208.841C208.029 173.386 207.371 172.728 207.371 171.916C207.371 171.103 208.029 170.445 208.841 170.445Z" fill="#69B5B5"/>
<path d="M219.737 99.9448C232.561 99.9448 242.957 102.36 242.957 105.343V108.261C242.957 111.24 232.561 113.659 219.737 113.659C206.913 113.659 196.517 111.243 196.517 108.261V105.343C196.517 102.36 206.913 99.9448 219.737 99.9448Z" fill="#F29469"/>
<path opacity="0.1" d="M189.464 28.9762C193.848 21.7531 191.547 12.343 184.324 7.95827C177.101 3.57351 167.691 5.87447 163.306 13.0976C158.921 20.3207 161.222 29.7308 168.446 34.1156C175.669 38.5003 185.079 36.1993 189.464 28.9762Z" fill="white"/>
<path opacity="0.17" d="M186.012 16.3444C185.461 16.3444 184.948 15.9897 184.774 15.4351C184.229 13.6938 183.042 12.2686 181.427 11.4238C179.811 10.5758 177.964 10.4113 176.222 10.9562C175.539 11.1691 174.81 10.7886 174.597 10.105C174.384 9.42138 174.765 8.69264 175.449 8.47983C177.851 7.72852 180.401 7.96068 182.629 9.12795C184.858 10.2952 186.499 12.2622 187.25 14.6644C187.463 15.348 187.083 16.0767 186.399 16.2896C186.27 16.325 186.141 16.3444 186.012 16.3444Z" fill="#69B5B5"/>
<mask id="path-10-inside-1_1211_17034" fill="white">
<path fill-rule="evenodd" clip-rule="evenodd" d="M158.91 26.4949C155.892 16.8376 161.274 6.56432 170.931 3.54942C180.585 0.534512 190.858 5.9162 193.877 15.5703C196.735 24.7152 192.061 34.4123 183.356 37.9757L187.528 51.3269L184.484 52.2778L180.312 38.9264C171.127 40.9501 161.765 35.6393 158.91 26.4949ZM161.786 25.5953C164.305 33.663 172.885 38.158 180.953 35.6396C189.021 33.1181 193.515 24.5377 190.997 16.4732C188.479 8.40551 179.898 3.91056 171.831 6.4289C163.763 8.94723 159.268 17.5276 161.786 25.5953Z"/>
</mask>
<path fill-rule="evenodd" clip-rule="evenodd" d="M158.91 26.4949C155.892 16.8376 161.274 6.56432 170.931 3.54942C180.585 0.534512 190.858 5.9162 193.877 15.5703C196.735 24.7152 192.061 34.4123 183.356 37.9757L187.528 51.3269L184.484 52.2778L180.312 38.9264C171.127 40.9501 161.765 35.6393 158.91 26.4949ZM161.786 25.5953C164.305 33.663 172.885 38.158 180.953 35.6396C189.021 33.1181 193.515 24.5377 190.997 16.4732C188.479 8.40551 179.898 3.91056 171.831 6.4289C163.763 8.94723 159.268 17.5276 161.786 25.5953Z" fill="#DDDDDD"/>
<path d="M170.931 3.54942L171.08 4.0267L171.08 4.02669L170.931 3.54942ZM158.91 26.4949L159.387 26.3459L159.387 26.3458L158.91 26.4949ZM193.877 15.5703L194.354 15.4212L194.354 15.4212L193.877 15.5703ZM183.356 37.9757L183.167 37.513L182.742 37.6868L182.879 38.1248L183.356 37.9757ZM187.528 51.3269L187.677 51.8041L188.154 51.655L188.005 51.1778L187.528 51.3269ZM184.484 52.2778L184.006 52.4269L184.155 52.9042L184.633 52.7551L184.484 52.2778ZM180.312 38.9264L180.79 38.7773L180.653 38.3394L180.205 38.4381L180.312 38.9264ZM180.953 35.6396L181.102 36.1169L181.102 36.1169L180.953 35.6396ZM161.786 25.5953L161.309 25.7443L161.786 25.5953ZM190.997 16.4732L190.52 16.6222L190.52 16.6222L190.997 16.4732ZM171.831 6.4289L171.98 6.90618H171.98L171.831 6.4289ZM170.782 3.07214C160.861 6.16937 155.332 16.7232 158.433 26.6441L159.387 26.3458C156.452 16.952 161.686 6.95928 171.08 4.0267L170.782 3.07214ZM194.354 15.4212C191.253 5.50352 180.7 -0.0250592 170.782 3.07215L171.08 4.02669C180.471 1.09408 190.464 6.32888 193.399 15.7195L194.354 15.4212ZM183.546 38.4384C192.488 34.7775 197.29 24.8159 194.354 15.4212L193.399 15.7195C196.179 24.6145 191.633 34.0471 183.167 37.513L183.546 38.4384ZM188.005 51.1778L183.834 37.8266L182.879 38.1248L187.05 51.476L188.005 51.1778ZM184.633 52.7551L187.677 51.8041L187.378 50.8496L184.335 51.8006L184.633 52.7551ZM179.835 39.0755L184.006 52.4269L184.961 52.1287L180.79 38.7773L179.835 39.0755ZM158.433 26.644C161.366 36.0382 170.984 41.4938 180.42 39.4147L180.205 38.4381C171.271 40.4065 162.164 35.2403 159.387 26.3459L158.433 26.644ZM180.804 35.1623C173 37.5984 164.7 33.2503 162.264 25.4463L161.309 25.7443C163.91 34.0757 172.771 38.7175 181.102 36.1169L180.804 35.1623ZM190.52 16.6222C192.956 24.4231 188.608 32.7232 180.804 35.1624L181.102 36.1169C189.433 33.513 194.075 24.6522 191.474 16.3242L190.52 16.6222ZM171.98 6.90618C179.784 4.47008 188.084 8.81825 190.52 16.6222L191.474 16.3242C188.874 7.99278 180.013 3.35104 171.682 5.95161L171.98 6.90618ZM162.264 25.4463C159.828 17.6421 164.176 9.34219 171.98 6.90618L171.682 5.95161C163.35 8.55227 158.709 17.4132 161.309 25.7443L162.264 25.4463Z" fill="#29173B" mask="url(#path-10-inside-1_1211_17034)"/>
<path d="M189.401 74.1915L189.401 74.1915L182.746 52.8872L182.746 52.8872C182.464 51.9869 182.965 51.0314 183.864 50.7532L183.864 50.7532L183.865 50.753L187.167 49.7212C188.067 49.4398 189.023 49.9407 189.301 50.8398L189.301 50.8405L195.956 72.1447C195.956 72.1447 195.956 72.1447 195.956 72.1447C196.521 73.954 195.512 75.8807 193.702 76.4458C191.893 77.0108 189.966 76.0009 189.401 74.1915Z" fill="#F29191" stroke="#29173B" stroke-width="0.5"/>
<path d="M191.44 57.1519C191.442 57.1518 191.444 57.1518 191.447 57.1519C191.473 57.1525 191.518 57.1603 191.586 57.1847C191.723 57.2335 191.905 57.3309 192.127 57.4721C192.567 57.7531 193.111 58.1719 193.676 58.6071C194.234 59.0377 194.813 59.4837 195.308 59.8027C195.556 59.962 195.792 60.0961 196.001 60.181C196.169 60.2489 196.361 60.3031 196.539 60.2755C196.541 60.2795 196.542 60.2837 196.543 60.2882C196.578 60.4124 196.596 60.6296 196.588 60.934C196.571 61.5326 196.456 62.3762 196.28 63.259C196.105 64.1404 195.87 65.0484 195.617 65.7746C195.491 66.1382 195.361 66.4503 195.236 66.6888C195.158 66.8353 195.089 66.9414 195.03 67.0137C194.991 66.9896 194.946 66.9612 194.894 66.929C194.703 66.8095 194.428 66.6362 194.091 66.4214C193.417 65.9917 192.497 65.3962 191.513 64.7326C189.536 63.3993 187.329 61.8109 186.316 60.7414C185.278 59.6435 184.557 58.8631 184.158 58.3011C183.957 58.0178 183.858 57.8167 183.829 57.6769C183.816 57.6113 183.82 57.5693 183.828 57.5421C183.835 57.5199 183.848 57.4962 183.874 57.4699C183.88 57.4685 183.89 57.4667 183.905 57.4653C183.953 57.4607 184.023 57.4622 184.119 57.4734C184.311 57.4958 184.569 57.5519 184.879 57.6345C185.496 57.7992 186.279 58.0583 187.073 58.3219L187.122 58.3382C187.895 58.5949 188.675 58.8538 189.3 59.0236C189.618 59.11 189.905 59.176 190.135 59.2057C190.249 59.2205 190.358 59.2275 190.455 59.2207C190.544 59.2144 190.66 59.1942 190.754 59.1214C190.952 58.9681 191.048 58.7629 191.099 58.5611C191.145 58.3801 191.159 58.1821 191.17 58.0088C191.171 57.9955 191.172 57.9824 191.173 57.9694C191.201 57.5756 191.239 57.3141 191.44 57.1519Z" fill="white" stroke="#29173B" stroke-width="0.5"/>
<path d="M150.273 139.092L154.19 132.722L167.364 146.055L162.685 150.581L150.273 139.092Z" fill="white" stroke="#29173B" stroke-width="0.5"/>
<path d="M163.428 150.209C163.428 150.209 159.919 154.604 159.262 154.611C158.601 154.617 143.897 138.708 143.994 138.195C144.09 137.682 150.51 138.234 150.51 138.234L163.428 150.209Z" fill="#29173B"/>
<path d="M153.361 131.607C153.361 131.607 168.087 147.001 168.655 147.001C169.222 147.001 239.497 93.0487 239.497 93.0487L209.709 79.8347C209.709 79.8315 171.882 90.2305 153.361 131.607Z" fill="#29173B"/>
<path d="M206.799 149.514L202.484 143.406L219.929 136.547L222.247 142.626L206.799 149.514Z" fill="white" stroke="#29173B" stroke-width="0.5"/>
<path d="M207.391 79.8313C207.391 79.8313 182.52 85.0195 180.366 93.4419C178.212 101.864 180.169 111.067 187.025 121.837C193.88 132.607 200.851 144.325 202.286 144.705C202.286 144.705 220.701 137.327 221.117 136.408C221.533 135.489 210.805 110.138 210.805 110.138C210.805 110.138 232.671 108.684 237.769 95.7958L207.391 79.8313Z" fill="#29173B"/>
<path d="M246.458 61.9579L246.458 61.9579C245.607 54.6127 241.889 48.1768 237.627 43.6404C235.496 41.3728 233.235 39.5857 231.138 38.3993C229.033 37.2088 227.122 36.6392 225.682 36.7626C222.742 37.0148 220.485 38.5139 218.852 41.0682C217.212 43.6327 216.202 47.263 215.791 51.7559L246.458 61.9579ZM246.458 61.9579C247.315 69.3273 246.196 77.9604 244.262 84.855C243.295 88.3018 242.127 91.3029 240.907 93.4881C240.297 94.581 239.678 95.4618 239.072 96.0912C238.462 96.724 237.884 97.0815 237.359 97.1715C237.098 97.216 236.743 97.2025 236.292 97.1248M246.458 61.9579L236.292 97.1248M236.292 97.1248C235.845 97.0477 235.319 96.9099 234.724 96.7174M236.292 97.1248L234.724 96.7174M234.724 96.7174C233.535 96.3325 232.091 95.7342 230.486 94.9851M234.724 96.7174L230.486 94.9851M230.486 94.9851C227.276 93.4872 223.445 91.3958 219.766 89.2307M230.486 94.9851L219.766 89.2307M219.766 89.2307C216.088 87.0658 212.568 84.8302 209.984 83.0456M219.766 89.2307L209.984 83.0456M209.984 83.0456C208.691 82.1529 207.636 81.3758 206.914 80.7784M209.984 83.0456L206.914 80.7784M206.914 80.7784C206.552 80.479 206.28 80.23 206.103 80.0376M206.914 80.7784L206.103 80.0376M206.103 80.0376C206.015 79.9409 205.957 79.8657 205.925 79.8112M206.103 80.0376L205.925 79.8112M205.925 79.8112C205.914 79.7925 205.907 79.7796 205.904 79.7716M205.925 79.8112L205.904 79.7716M205.904 79.7716C205.919 79.6972 205.957 79.5796 206.024 79.4116C206.097 79.2292 206.198 79.0029 206.326 78.7338C206.571 78.2183 206.905 77.5581 207.304 76.7688L207.357 76.6631C208.202 74.9931 209.32 72.7773 210.468 70.1975C212.762 65.0412 215.184 58.4145 215.791 51.756L205.904 79.7716Z" fill="#69B5B5" stroke="#29173B" stroke-width="0.5"/>
<path d="M231.862 40.1546C230.354 39.299 229.119 38.9763 228.394 39.0391L231.862 40.1546ZM231.862 40.1546C233.359 41.0043 235.096 42.3634 236.817 44.3261M231.862 40.1546L236.817 44.3261M236.817 44.3261C240.259 48.2496 243.639 54.584 244.921 64.0713M236.817 44.3261L244.921 64.0713M244.921 64.0713C246.204 73.5671 244.212 78.6177 240.901 81.1657M244.921 64.0713L240.901 81.1657M240.901 81.1657C237.571 83.7288 232.818 83.8354 228.407 83.221M240.901 81.1657L228.407 83.221M228.407 83.221C224.025 82.6111 216.28 79.5891 209.201 76.2164M228.407 83.221L209.201 76.2164M209.201 76.2164C205.666 74.5326 202.309 72.7664 199.633 71.1789M209.201 76.2164L199.633 71.1789M199.633 71.1789C198.295 70.385 197.13 69.6374 196.199 68.9683M199.633 71.1789L196.199 68.9683M196.199 68.9683C195.303 68.3237 194.637 67.7611 194.243 67.3075M196.199 68.9683L194.243 67.3075M194.243 67.3075C194.239 67.2634 194.233 67.2007 194.226 67.1213C194.212 66.9518 194.194 66.7065 194.179 66.4051C194.151 65.8017 194.137 64.9758 194.196 64.0842C194.256 63.1915 194.388 62.2403 194.647 61.3834C194.894 60.5665 195.252 59.854 195.755 59.3551L195.883 59.3683C196.041 59.3847 196.275 59.409 196.574 59.4405C197.171 59.5035 198.031 59.5954 199.081 59.7109C201.18 59.9418 204.038 60.2672 207.069 60.6446C213.142 61.401 219.88 62.3629 222.645 63.1907C223.025 63.3047 223.367 63.3177 223.66 63.1988C223.957 63.0779 224.159 62.8384 224.291 62.537C224.546 61.9546 224.573 61.0622 224.494 60.0117C224.415 58.9476 224.223 57.6682 224.002 56.2806C223.964 56.0428 223.925 55.8017 223.886 55.5578C223.696 54.3748 223.496 53.1254 223.33 51.8611C222.93 48.8036 222.743 45.7036 223.392 43.3108C223.716 42.1193 224.243 41.1181 225.042 40.3836C225.838 39.6513 226.923 39.1669 228.394 39.0391L194.243 67.3075Z" fill="#69B5B5" stroke="#29173B" stroke-width="0.5"/>
<path d="M222.194 141.8C222.194 141.8 224.851 146.753 224.6 147.362C224.348 147.971 203.931 155.227 203.499 154.936C203.066 154.646 206.097 148.961 206.097 148.961L222.194 141.8Z" fill="#29173B"/>
<path d="M219.121 36.907C219.531 37.0946 219.75 38.1663 219.878 38.7917C219.906 38.9292 219.93 39.0452 219.95 39.1254C220.382 40.8312 226.357 39.1061 225.39 37.3584C225.27 37.1427 225.143 36.9168 225.013 36.6856C224.143 35.1366 223.138 33.3489 223.39 32.799C224.403 30.6031 224.69 25.1472 219.199 23.3254C214.823 21.8744 210.434 24.0767 210.386 26.408M219.121 36.907L219.226 36.68C219.226 36.68 219.226 36.68 219.226 36.6799M219.121 36.907C218.891 36.8009 218.349 37.0447 217.717 37.3285C217.196 37.5625 216.614 37.8237 216.097 37.9388C212.114 38.8288 211.299 33.1891 211.299 33.1891M219.121 36.907L219.225 36.6797C219.226 36.6798 219.226 36.6799 219.226 36.6799M219.226 36.6799C219.432 36.7746 219.572 36.9811 219.669 37.1755C219.772 37.3805 219.855 37.6268 219.922 37.8683C219.989 38.1115 220.044 38.3599 220.088 38.5723C220.101 38.6354 220.113 38.6943 220.124 38.7488C220.152 38.8829 220.173 38.9898 220.192 39.064L220.192 39.064C220.257 39.3204 220.549 39.5161 221.139 39.5656C221.704 39.613 222.428 39.51 223.121 39.2979C223.816 39.0853 224.449 38.7727 224.843 38.4244C225.04 38.2504 225.162 38.0809 225.215 37.9257C225.264 37.78 225.257 37.6351 225.171 37.4795L225.171 37.4795C225.053 37.2671 224.928 37.0434 224.798 36.8136C224.427 36.153 224.027 35.4418 223.712 34.8036C223.5 34.3731 223.32 33.9649 223.213 33.6189C223.159 33.4459 223.12 33.2806 223.106 33.131C223.093 32.9848 223.101 32.8301 223.163 32.6946L223.163 32.6943C223.647 31.6457 223.964 29.792 223.492 27.9852C223.023 26.1953 221.78 24.4452 219.12 23.5627M219.226 36.6799L210.636 26.4132M219.12 23.5627L219.199 23.3254L219.12 23.5627C219.12 23.5627 219.12 23.5627 219.12 23.5627ZM219.12 23.5627C216.991 22.8566 214.86 23.0407 213.263 23.6804C212.464 24.0003 211.806 24.4306 211.349 24.9111C210.892 25.3919 210.647 25.9098 210.636 26.4125L210.636 26.4118L210.386 26.408M210.386 26.408L210.636 26.4132M210.386 26.408L210.287 32.9711L210.537 32.9632M210.636 26.4132L210.537 32.9632M210.636 26.4132L211.546 33.1532M210.537 32.9632L210.533 33.2134L211.299 33.1891M210.537 32.9632L211.291 32.9392L211.514 32.9322L211.546 33.1532M211.299 33.1891C211.546 33.1533 211.546 33.1533 211.546 33.1532M211.299 33.1891L211.546 33.1533L211.546 33.1532" fill="white" stroke="#29173B" stroke-width="0.5"/>
<path d="M225.171 37.4793L225.171 37.4793C225.257 37.635 225.264 37.7799 225.215 37.9256C225.162 38.0808 225.04 38.2503 224.843 38.4242C224.449 38.7724 223.817 39.0849 223.122 39.2973C222.429 39.5093 221.705 39.6119 221.141 39.5641C220.551 39.5142 220.26 39.3182 220.196 39.0612L220.196 39.0606C220.177 38.9864 220.155 38.8796 220.127 38.7455C220.116 38.691 220.104 38.632 220.091 38.5689C220.047 38.3565 219.992 38.1082 219.925 37.8649C219.858 37.6234 219.775 37.3772 219.672 37.1721C219.634 37.095 219.588 37.016 219.535 36.9428C219.938 36.7647 220.332 36.5068 220.703 36.2134C221.233 35.7933 221.732 35.2882 222.159 34.8047C222.579 34.3292 222.934 33.8707 223.185 33.5274C223.194 33.5576 223.203 33.588 223.213 33.6187C223.32 33.9648 223.5 34.373 223.712 34.8035C224.028 35.4417 224.427 36.1529 224.799 36.8134C224.928 37.0433 225.053 37.267 225.171 37.4793Z" fill="white" stroke="#29173B" stroke-width="0.5"/>
<path d="M219.599 29.7485C222.165 29.31 220.569 35.027 223.397 34.8368C226.225 34.6465 228.195 28.4652 226.118 23.6993C224.042 18.9335 220.098 19.1979 216.335 19.8493C212.576 20.5006 207.965 22.2 207.968 25.044C207.974 31.8863 216.074 26.1467 216.609 28.204C217.022 29.7969 217.661 34.3982 216.01 34.5046C214.359 34.611 212.679 33.2503 211.376 33.5986C210.625 33.7985 208.561 42.7755 213.959 43.0754C219.299 43.372 220.65 38.6578 219.524 34.811C218.454 31.1512 218.347 29.9613 219.599 29.7485Z" fill="#29173B"/>
</svg>
