<svg width="375" height="812" viewBox="0 0 375 812" fill="none" xmlns="http://www.w3.org/2000/svg">
<mask id="mask0_864_11329" style="mask-type:alpha" maskUnits="userSpaceOnUse" x="-1" y="0" width="376" height="818">
<path d="M-0.999975 0L-0.999939 818L375 818L375 -1.64355e-05L-0.999975 0Z" fill="#F2F2F2"/>
</mask>
<g mask="url(#mask0_864_11329)">
<path d="M-0.999975 0L-0.999939 818L375 818L375 -1.64355e-05L-0.999975 0Z" fill="#F2F2F2"/>
<path d="M903.166 636.542C869.321 671.074 824.174 688 779.044 688C733.914 688 688.776 671.074 654.215 636.542L301.867 284.388C238.632 221.188 136.102 221.18 72.8581 284.388L-279.506 636.542C-314.059 671.074 -359.189 688 -404.336 688C-449.482 688 -494.604 671.074 -529.165 636.542C-598.278 568.175 -598.278 456.109 -529.165 387.742L-81.3446 -59.8213C67.0305 -208.111 307.619 -208.053 455.927 -59.6868L903.157 387.742C972.28 456.117 972.28 568.174 903.166 636.542Z" fill="#DEA8DE"/>
</g>
</svg>
