<svg width="375" height="1219" viewBox="0 0 375 1219" fill="none" xmlns="http://www.w3.org/2000/svg">
<mask id="mask0_854_8986" style="mask-type:alpha" maskUnits="userSpaceOnUse" x="-1" y="0" width="376" height="1219">
<path d="M-1.00005 0L-1 1219L375 1219L375 -1.64355e-05L-1.00005 0Z" fill="#F2F2F2"/>
</mask>
<g mask="url(#mask0_854_8986)">
<path d="M-1.00004 0L-1 818L375 818L375 -1.64355e-05L-1.00004 0Z" fill="#F2F2F2"/>
<path d="M261.864 308.578C278.982 291.102 301.816 282.537 324.642 282.537C347.467 282.537 370.297 291.102 387.777 308.578L565.984 486.789C597.967 518.772 649.823 518.776 681.81 486.789L860.026 308.578C877.502 291.102 900.327 282.537 923.161 282.537C945.995 282.537 968.816 291.102 986.296 308.578C1021.25 343.176 1021.25 399.888 986.296 434.486L759.802 660.98C684.758 736.024 563.075 735.994 488.065 660.912L261.869 434.486C226.909 399.883 226.909 343.176 261.864 308.578Z" fill="#F29191"/>
<path d="M-553.784 115.041C-536.666 97.5654 -513.832 89 -491.007 89C-468.181 89 -445.352 97.5654 -427.872 115.041L-249.664 293.253C-217.682 325.236 -165.825 325.236 -133.838 293.253L44.378 115.041C61.8537 97.5654 84.6791 89 107.513 89C130.347 89 153.168 97.5654 170.648 115.041C205.604 149.639 205.604 206.351 170.648 240.949L-55.8467 467.444C-130.891 542.488 -252.573 542.458 -327.583 467.376L-553.78 240.949C-588.74 206.351 -588.74 149.639 -553.784 115.041Z" fill="#69B5B5"/>
</g>
</svg>
