<svg width="48" height="48" viewBox="0 0 48 48" fill="none" xmlns="http://www.w3.org/2000/svg">
<g clip-path="url(#clip0_969_10378)">
<path d="M24 2.8501L43.83 12.0001H46.5C46.8978 12.0001 47.2794 12.1581 47.5607 12.4394C47.842 12.7207 48 13.1023 48 13.5001V19.5001C48 19.8979 47.842 20.2795 47.5607 20.5608C47.2794 20.8421 46.8978 21.0001 46.5 21.0001H45V42.0001C45.3346 42.0002 45.6596 42.1122 45.9232 42.3182C46.1868 42.5242 46.374 42.8125 46.455 43.1371L47.955 49.1371C48.0101 49.3582 48.0142 49.5889 47.9668 49.8118C47.9195 50.0347 47.822 50.2438 47.6818 50.4234C47.5415 50.603 47.3622 50.7482 47.1574 50.8481C46.9527 50.9481 46.7278 51 46.5 51.0001H1.5C1.27215 51 1.04732 50.9481 0.842551 50.8481C0.637787 50.7482 0.458478 50.603 0.318233 50.4234C0.177989 50.2438 0.0804957 50.0347 0.0331526 49.8118C-0.0141905 49.5889 -0.0101388 49.3582 0.045 49.1371L1.545 43.1371C1.62597 42.8125 1.81316 42.5242 2.07681 42.3182C2.34045 42.1122 2.66541 42.0002 3 42.0001V21.0001H1.5C1.10218 21.0001 0.720644 20.8421 0.43934 20.5608C0.158035 20.2795 0 19.8979 0 19.5001V13.5001C0 13.1023 0.158035 12.7207 0.43934 12.4394C0.720644 12.1581 1.10218 12.0001 1.5 12.0001H4.17L24 2.8501ZM11.328 12.0001H36.669L24 6.1501L11.328 12.0001ZM6 21.0001V42.0001H9V21.0001H6ZM12 21.0001V42.0001H19.5V21.0001H12ZM22.5 21.0001V42.0001H25.5V21.0001H22.5ZM28.5 21.0001V42.0001H36V21.0001H28.5ZM39 21.0001V42.0001H42V21.0001H39ZM45 18.0001V15.0001H3V18.0001H45ZM43.83 45.0001H4.17L3.42 48.0001H44.58L43.83 45.0001Z" fill="#F29191"/>
</g>
<defs>
<clipPath id="clip0_969_10378">
<rect width="48" height="48" fill="white"/>
</clipPath>
</defs>
</svg>
