<svg width="56" height="56" viewBox="0 0 56 56" fill="none" xmlns="http://www.w3.org/2000/svg">
<g clip-path="url(#clip0_1688_3376)">
<path d="M15.1921 7.3803L15.1921 7.38029C19.692 6.92679 23.4314 7.59323 25.6052 9.81586V42.7769C22.3908 41.1038 18.4274 40.8892 14.7951 41.2548L14.7949 41.2548C10.8588 41.6552 6.89608 42.7659 3.78104 43.9282V10.3663C6.79736 9.11982 11.0562 7.79602 15.1921 7.3803ZM51.3638 10.3663V43.9283C48.2462 42.7659 44.2865 41.6521 40.3499 41.2583C36.7144 40.8893 32.754 41.1005 29.5397 42.7766V9.81586C31.7135 7.59323 35.4528 6.92679 39.9527 7.38029L39.9528 7.3803C44.0887 7.79602 48.3475 9.11982 51.3638 10.3663ZM14.7953 3.46449L14.795 3.46452C9.56115 3.99359 4.28646 5.78638 0.999336 7.2819C0.655648 7.43826 0.364212 7.69024 0.159807 8.00775C-0.0445971 8.32526 -0.153338 8.6949 -0.153442 9.07253V9.0726V46.8629L-0.153442 46.863C-0.153351 47.1922 -0.0706787 47.5162 0.0870071 47.8051C0.244693 48.0941 0.472354 48.3389 0.749143 48.5171C1.02593 48.6953 1.343 48.8012 1.6713 48.825C1.9996 48.8489 2.32864 48.7899 2.62826 48.6536C5.64033 47.2872 10.4938 45.6447 15.1887 45.1706C20.0084 44.6847 23.9476 45.4816 26.0379 48.0911L26.038 48.0912C26.2223 48.321 26.4559 48.5065 26.7214 48.634C26.987 48.7614 27.2778 48.8276 27.5724 48.8276C27.867 48.8276 28.1578 48.7614 28.4234 48.634C28.689 48.5065 28.9226 48.321 29.1069 48.0912L29.107 48.0911C31.1973 45.4816 35.1364 44.6847 39.9527 45.1706C44.6511 45.6447 49.5081 47.2873 52.5166 48.6536C52.8162 48.7899 53.1452 48.8489 53.4735 48.825C53.8018 48.8012 54.1189 48.6953 54.3957 48.5171C54.6725 48.3389 54.9001 48.0941 55.0578 47.8051C55.2155 47.5162 55.2982 47.1922 55.2983 46.863V46.8629V9.0726V9.07253C55.2982 8.6949 55.1894 8.32526 54.985 8.00775C54.7806 7.69024 54.4892 7.43826 54.1455 7.2819C50.8584 5.78638 45.5837 3.99359 40.3498 3.46452L40.3497 3.46451C35.9352 3.01953 31.0278 3.42807 27.5724 6.28241C24.117 3.42813 19.2096 3.02294 14.7953 3.46449Z" fill="#F29191" stroke="#F29191" stroke-width="0.5"/>
</g>
<defs>
<clipPath id="clip0_1688_3376">
<rect width="54.9517" height="54.9677" fill="white" transform="translate(0.0965576 0.483887)"/>
</clipPath>
</defs>
</svg>
