<svg width="48" height="48" viewBox="0 0 48 48" fill="none" xmlns="http://www.w3.org/2000/svg">
<g clip-path="url(#clip0_1658_14342)">
<path d="M42 9C42.7957 9 43.5587 9.31607 44.1213 9.87868C44.6839 10.4413 45 11.2044 45 12V36C45 36.7956 44.6839 37.5587 44.1213 38.1213C43.5587 38.6839 42.7957 39 42 39H6C5.20435 39 4.44129 38.6839 3.87868 38.1213C3.31607 37.5587 3 36.7956 3 36V12C3 11.2044 3.31607 10.4413 3.87868 9.87868C4.44129 9.31607 5.20435 9 6 9H42ZM6 6C4.4087 6 2.88258 6.63214 1.75736 7.75736C0.632141 8.88258 0 10.4087 0 12L0 36C0 37.5913 0.632141 39.1174 1.75736 40.2426C2.88258 41.3679 4.4087 42 6 42H42C43.5913 42 45.1174 41.3679 46.2426 40.2426C47.3679 39.1174 48 37.5913 48 36V12C48 10.4087 47.3679 8.88258 46.2426 7.75736C45.1174 6.63214 43.5913 6 42 6H6Z" fill="#DEA8DE"/>
<path d="M6 16.5C6 16.1022 6.15804 15.7206 6.43934 15.4393C6.72064 15.158 7.10218 15 7.5 15H13.5C13.8978 15 14.2794 15.158 14.5607 15.4393C14.842 15.7206 15 16.1022 15 16.5V19.5C15 19.8978 14.842 20.2794 14.5607 20.5607C14.2794 20.842 13.8978 21 13.5 21H7.5C7.10218 21 6.72064 20.842 6.43934 20.5607C6.15804 20.2794 6 19.8978 6 19.5V16.5ZM6 25.5C6 25.1022 6.15804 24.7206 6.43934 24.4393C6.72064 24.158 7.10218 24 7.5 24H22.5C22.8978 24 23.2794 24.158 23.5607 24.4393C23.842 24.7206 24 25.1022 24 25.5C24 25.8978 23.842 26.2794 23.5607 26.5607C23.2794 26.842 22.8978 27 22.5 27H7.5C7.10218 27 6.72064 26.842 6.43934 26.5607C6.15804 26.2794 6 25.8978 6 25.5ZM6 31.5C6 31.1022 6.15804 30.7206 6.43934 30.4393C6.72064 30.158 7.10218 30 7.5 30H10.5C10.8978 30 11.2794 30.158 11.5607 30.4393C11.842 30.7206 12 31.1022 12 31.5C12 31.8978 11.842 32.2794 11.5607 32.5607C11.2794 32.842 10.8978 33 10.5 33H7.5C7.10218 33 6.72064 32.842 6.43934 32.5607C6.15804 32.2794 6 31.8978 6 31.5ZM15 31.5C15 31.1022 15.158 30.7206 15.4393 30.4393C15.7206 30.158 16.1022 30 16.5 30H19.5C19.8978 30 20.2794 30.158 20.5607 30.4393C20.842 30.7206 21 31.1022 21 31.5C21 31.8978 20.842 32.2794 20.5607 32.5607C20.2794 32.842 19.8978 33 19.5 33H16.5C16.1022 33 15.7206 32.842 15.4393 32.5607C15.158 32.2794 15 31.8978 15 31.5ZM24 31.5C24 31.1022 24.158 30.7206 24.4393 30.4393C24.7206 30.158 25.1022 30 25.5 30H28.5C28.8978 30 29.2794 30.158 29.5607 30.4393C29.842 30.7206 30 31.1022 30 31.5C30 31.8978 29.842 32.2794 29.5607 32.5607C29.2794 32.842 28.8978 33 28.5 33H25.5C25.1022 33 24.7206 32.842 24.4393 32.5607C24.158 32.2794 24 31.8978 24 31.5ZM33 31.5C33 31.1022 33.158 30.7206 33.4393 30.4393C33.7206 30.158 34.1022 30 34.5 30H37.5C37.8978 30 38.2794 30.158 38.5607 30.4393C38.842 30.7206 39 31.1022 39 31.5C39 31.8978 38.842 32.2794 38.5607 32.5607C38.2794 32.842 37.8978 33 37.5 33H34.5C34.1022 33 33.7206 32.842 33.4393 32.5607C33.158 32.2794 33 31.8978 33 31.5Z" fill="#DEA8DE"/>
</g>
<defs>
<clipPath id="clip0_1658_14342">
<rect width="48" height="48" fill="white"/>
</clipPath>
</defs>
</svg>
