<svg width="48" height="48" viewBox="0 0 48 48" fill="none" xmlns="http://www.w3.org/2000/svg">
<path fill-rule="evenodd" clip-rule="evenodd" d="M0 0H3V45H48V48H0V0ZM30 10.5C30 10.1022 30.158 9.72064 30.4393 9.43934C30.7206 9.15804 31.1022 9 31.5 9H43.5C43.8978 9 44.2794 9.15804 44.5607 9.43934C44.842 9.72064 45 10.1022 45 10.5V22.5C45 22.8978 44.842 23.2794 44.5607 23.5607C44.2794 23.842 43.8978 24 43.5 24C43.1022 24 42.7206 23.842 42.4393 23.5607C42.158 23.2794 42 22.8978 42 22.5V14.7L31.161 27.951C31.0283 28.113 30.8632 28.2453 30.6763 28.3396C30.4893 28.4339 30.2847 28.488 30.0756 28.4985C29.8665 28.509 29.6575 28.4755 29.4621 28.4003C29.2667 28.3252 29.0892 28.2099 28.941 28.062L21.18 20.301L10.212 35.382C9.97207 35.6871 9.62321 35.8873 9.23875 35.9406C8.85429 35.9938 8.46415 35.896 8.15032 35.6676C7.83648 35.4392 7.6234 35.0981 7.55583 34.7159C7.48827 34.3337 7.57149 33.9401 7.788 33.618L19.788 17.118C19.9154 16.9425 20.0793 16.7968 20.2684 16.6908C20.4575 16.5847 20.6674 16.521 20.8835 16.5039C21.0997 16.4868 21.3169 16.5167 21.5204 16.5917C21.7238 16.6666 21.9086 16.7848 22.062 16.938L29.889 24.768L40.335 12H31.5C31.1022 12 30.7206 11.842 30.4393 11.5607C30.158 11.2794 30 10.8978 30 10.5Z" fill="#69B5B5"/>
</svg>
