<svg width="56" height="56" viewBox="0 0 56 56" fill="none" xmlns="http://www.w3.org/2000/svg">
<path fill-rule="evenodd" clip-rule="evenodd" d="M13.8345 16.5161C13.8345 12.7279 16.9164 9.64516 20.7035 9.64516C24.4905 9.64516 27.5724 12.7279 27.5724 16.5161C27.5724 20.3043 24.4905 23.3871 20.7035 23.3871C16.9164 23.3871 13.8345 20.3043 13.8345 16.5161ZM9.25518 16.5161C9.25518 22.8305 14.3909 27.9677 20.7035 27.9677C27.016 27.9677 32.1517 22.8305 32.1517 16.5161C32.1517 10.2017 27.016 5.06451 20.7035 5.06451C14.3909 5.06451 9.25518 10.2017 9.25518 16.5161ZM36.731 48.5806C36.731 49.8472 37.7545 50.871 39.0207 50.871C40.2869 50.871 41.3104 49.8472 41.3104 48.5806V44C41.3104 37.6856 36.1747 32.5484 29.8621 32.5484H11.5448C5.23225 32.5484 0.0965576 37.6856 0.0965576 44V48.5806C0.0965576 49.8472 1.12232 50.871 2.38621 50.871C3.6501 50.871 4.67587 49.8472 4.67587 48.5806V44C4.67587 40.2118 7.75774 37.129 11.5448 37.129H29.8621C33.6492 37.129 36.731 40.2118 36.731 44V48.5806ZM52.7586 50.871C51.4924 50.871 50.469 49.8472 50.469 48.5806V44C50.4667 40.8714 48.3488 38.1368 45.3172 37.3535C44.0923 37.0374 43.3573 35.7869 43.6733 34.5639C43.9893 33.3385 45.2371 32.5942 46.4621 32.9194C51.5153 34.2249 55.046 38.7826 55.0483 43.9977V48.5806C55.0483 49.8472 54.0248 50.871 52.7586 50.871ZM34.5127 25.9705C34.776 27.0057 35.7102 27.6928 36.7291 27.6928C36.9168 27.6928 37.1092 27.6699 37.2992 27.6218C41.3519 26.5843 44.5116 23.4213 45.5511 19.3675C47.1149 13.25 43.4149 6.99974 37.2992 5.43316C36.0788 5.11709 34.8264 5.85916 34.5127 7.08448C34.2013 8.3098 34.9386 9.55803 36.1635 9.8718C39.8316 10.8108 42.0525 14.5624 41.1138 18.2315C40.4933 20.6638 38.5929 22.5602 36.1635 23.1832C34.9386 23.4969 34.2013 24.7452 34.5127 25.9705Z" fill="#DEA8DE"/>
</svg>
